<svg width="105" height="106" fill="none" xmlns="http://www.w3.org/2000/svg"><g clip-path="url(#a)"><path d="M69.557 67.92H49.055l2.789 15.418c-.492-2.789 1.312-5.085 4.264-5.085h15.417c2.788 0 4.756-2.296 4.264-5.084-.656-2.952-3.444-5.249-6.232-5.249Z" fill="#000"/><path d="M93.995 32.002H68.41l7.217 41.003c.492 2.788-1.312 5.084-4.264 5.084H55.944c-2.788 0-4.756 2.296-4.264 5.084.492 2.789 3.28 5.085 6.068 5.085h46.088l-9.84-56.256Z" fill="#fff"/><path d="m73.822 62.672.82 5.249h25.75l-.984-5.249H73.822ZM75.626 73.005c.492 2.789-1.312 5.085-4.264 5.085h30.67l-.984-5.085H75.626ZM103.016 83.174H51.844c.492 2.788 3.116 5.084 6.068 5.084H104l-.984-5.084ZM68.41 32.002l.82 5.084h25.585l-.82-5.084H68.41ZM72.017 52.503l.82 5.085h25.587l-.82-5.085H72.016ZM70.213 42.17l.82 5.25H96.62l-.82-5.25H70.213Z" fill="#C88BC4"/><path d="M65.621 16.584c-.492-2.788-3.28-5.084-6.068-5.084H13.465L23.47 67.92h46.087c2.788 0 5.577 2.297 6.069 5.085l.164.492L65.62 16.584Z" fill="#fff"/><path d="M66.605 21.669c-.492-2.788-3.28-5.085-6.068-5.085H14.449l-.984-5.084h46.088c2.788 0 5.576 2.296 6.068 5.084l.984 5.085ZM68.41 32.002c-.493-2.789-3.281-5.085-6.07-5.085H16.254l-.984-5.248h46.088c2.788 0 5.576 2.296 6.068 5.084l.984 5.249ZM70.213 42.17c-.492-2.788-3.28-5.084-6.068-5.084H18.057l-.984-5.084h46.088c2.788 0 5.576 2.296 6.068 5.084l.984 5.084ZM72.017 52.503c-.492-2.788-3.28-5.084-6.068-5.084H19.862l-.985-5.084h46.088c2.788 0 5.576 2.296 6.068 5.084l.984 5.084ZM73.822 62.672c-.492-2.788-3.28-5.084-6.069-5.084H21.666l-.985-5.085H66.77c2.788 0 5.576 2.297 6.069 5.085l.984 5.084ZM75.626 73.005c-.492-2.788-3.28-5.085-6.069-5.085H23.47l-.984-5.084h46.087c2.789 0 5.577 2.296 6.069 5.084l.984 5.085Z" fill="#C88BC4"/><path d="M23.798 93.506 9.365 11.5H1l14.433 82.006h8.365Z" fill="#6B80D2"/><path d="m49.876 11.5 6.396 35.919h-36.41L13.464 11.5h36.41Z" fill="#86BFF2"/><path d="m47.252 25.277 1.148-.984h-1.64l-.82-1.476-.328 1.476h-1.64l1.64.984-.329 1.64 1.148-.984 1.477.984-.656-1.64ZM39.05 25.277l1.149-.984h-1.64l-.82-1.476-.164 1.476h-1.64l1.476.984-.328 1.64 1.312-.984 1.476.984-.82-1.64ZM30.85 25.277l1.148-.984h-1.64l-.656-1.476-.328 1.476h-1.64l1.476.984-.164 1.64 1.148-.984 1.476.984-.82-1.64ZM22.814 25.277l1.148-.984h-1.64l-.82-1.476-.328 1.476h-1.64l1.64.984-.328 1.64 1.148-.984 1.476.984-.656-1.64ZM42.331 20.685l1.148-.984h-1.64l-.82-1.476-.164 1.476h-1.64l1.476.984-.328 1.64 1.148-.984 1.64.984-.82-1.64ZM34.13 20.685l1.149-.984h-1.64l-.82-1.476-.165 1.476h-1.64l1.476.984-.164 1.64 1.148-.984 1.477.984-.82-1.64ZM25.93 20.685l1.312-.984h-1.804l-.656-1.476-.328 1.476h-1.64l1.476.984-.164 1.64 1.148-.984 1.476.984-.82-1.64ZM45.611 16.093l1.149-.985h-1.64l-.82-1.64-.165 1.64h-1.804l1.64.985-.328 1.476 1.148-.82 1.477.82-.657-1.476ZM37.41 16.093l1.149-.985h-1.64l-.82-1.64-.164 1.64h-1.64l1.476.985-.164 1.476 1.148-.82 1.476.82-.82-1.476ZM29.21 16.093l1.148-.985h-1.64l-.656-1.64-.328 1.64h-1.64l1.476.985-.164 1.476 1.148-.82 1.476.82-.82-1.476ZM21.174 16.093l1.148-.985h-1.64l-.82-1.64-.329 1.64h-1.64l1.64.985-.328 1.476 1.149-.82 1.476.82-.656-1.476ZM50.368 43.81l1.312-.984h-1.804l-.656-1.64-.328 1.64h-1.64l1.476.984-.164 1.476 1.148-.984 1.476.984-.82-1.476ZM42.331 43.81l1.148-.984h-1.64l-.82-1.64-.164 1.64h-1.64l1.476.984-.328 1.476 1.148-.984 1.64.984-.82-1.476ZM34.13 43.81l1.149-.984h-1.64l-.82-1.64-.165 1.64h-1.64l1.476.984-.164 1.476 1.148-.984 1.477.984-.82-1.476ZM25.93 43.81l1.148-.984h-1.64l-.656-1.64-.328 1.64h-1.64l1.476.984-.164 1.476 1.148-.984 1.476.984-.82-1.476ZM45.611 39.218l1.149-.984h-1.64l-.82-1.64-.329 1.64h-1.64l1.64.984-.328 1.477 1.148-.984 1.477.984-.657-1.477ZM37.41 39.218l1.149-.984h-1.64l-.82-1.64-.164 1.64h-1.64l1.476.984-.164 1.477 1.148-.984 1.476.984-.82-1.477ZM29.21 39.218l1.148-.984h-1.64l-.656-1.64-.328 1.64h-1.64l1.476.984-.164 1.477 1.148-.984 1.476.984-.82-1.477ZM48.892 34.462l1.148-.82H48.4l-.82-1.64-.328 1.64h-1.64l1.476.82-.165 1.64 1.149-.984 1.476.984-.656-1.64ZM40.691 34.462l1.148-.82H40.2l-.82-1.64-.164 1.64h-1.64l1.476.82-.328 1.64 1.148-.984 1.64.984-.82-1.64ZM32.49 34.462l1.148-.82h-1.64l-.82-1.64-.164 1.64h-1.64l1.476.82-.164 1.64 1.148-.984 1.476.984-.82-1.64ZM24.29 34.462l1.312-.82h-1.64l-.82-1.64-.328 1.64h-1.64l1.476.82-.164 1.64 1.148-.984 1.476.984-.82-1.64ZM43.971 29.87l1.148-.985h-1.64l-.82-1.476-.164 1.476h-1.64l1.476.984-.328 1.64 1.148-.984 1.64.985-.82-1.64ZM35.77 29.87l1.149-.985h-1.64l-.82-1.476-.164 1.476h-1.64l1.476.984-.164 1.64 1.148-.984 1.476.985-.82-1.64ZM27.57 29.87l1.148-.985h-1.64l-.656-1.476-.328 1.476h-1.64l1.476.984-.164 1.64 1.148-.984 1.476.985-.82-1.64Z" fill="#fff"/></g><defs><clipPath id="a"><path fill="#fff" transform="translate(1 11.5)" d="M0 0h103v82.006H0z"/></clipPath></defs></svg>