<svg width="94" height="18" fill="none" xmlns="http://www.w3.org/2000/svg"><path d="M88.625 15.017a2.48 2.48 0 1 1 4.96 0 2.48 2.48 0 0 1-4.96 0ZM9.52 8.449c0-1.571-.304-2.737-.91-3.496C8 4.194 7.08 3.815 5.841 3.815H4.525v9.607h1.008c1.375 0 2.383-.407 3.024-1.225.641-.817.963-2.067.963-3.748Zm4.697-.164c0 2.862-.77 5.068-2.309 6.616-1.538 1.549-3.702 2.323-6.49 2.323H0V.073h5.796c2.689 0 4.764.704 6.227 2.112 1.462 1.408 2.194 3.44 2.194 6.1ZM29.225 17.224h4.311V0h-4.311v17.223ZM39.593 10.8c0 1.098.143 1.935.43 2.51.286.577.767.865 1.443.865.67 0 1.142-.288 1.418-.864.276-.576.413-1.413.413-2.511 0-1.093-.14-1.917-.419-2.473-.28-.558-.757-.837-1.434-.837-.662 0-1.135.278-1.422.83-.286.554-.43 1.38-.43 2.48Zm8.092 0c0 2.092-.549 3.724-1.648 4.894-1.099 1.17-2.637 1.756-4.614 1.756-1.897 0-3.406-.599-4.526-1.796-1.122-1.197-1.683-2.815-1.683-4.854 0-2.086.55-3.707 1.65-4.862 1.099-1.156 2.64-1.734 4.625-1.734 1.227 0 2.312.268 3.252.803.941.534 1.668 1.3 2.178 2.298.511.996.766 2.162.766 3.495ZM49.397 17.224h4.312V4.431h-4.312v12.793ZM49.397 2.883h4.312V0h-4.313v2.883ZM62.445 13.96c.582 0 1.275-.147 2.084-.44v3.218a8.334 8.334 0 0 1-1.66.547c-.525.11-1.141.165-1.847.165-1.447 0-2.49-.364-3.132-1.09-.638-.727-.958-1.842-.958-3.348V7.74h-1.51V4.432h1.51V1.164L61.277.41v4.023h2.751v3.307h-2.75v4.98c0 .828.389 1.242 1.167 1.242ZM72.424 13.96c.582 0 1.276-.147 2.085-.44v3.218a8.32 8.32 0 0 1-1.66.547c-.526.11-1.14.165-1.847.165-1.448 0-2.491-.364-3.13-1.09-.64-.727-.96-1.842-.96-3.348V7.74H65.4V4.432h1.51V1.115l4.345-.706v4.023h2.752v3.307h-2.752v4.98c0 .828.39 1.242 1.168 1.242ZM79.95 9.24c.058-.7.259-1.213.6-1.54.343-.328.767-.492 1.273-.492.553 0 .992.184 1.318.554.328.368.499.862.513 1.479h-3.705Zm6.08-3.527c-1.025-1.005-2.479-1.508-4.36-1.508-1.978 0-3.499.577-4.566 1.733-1.065 1.155-1.599 2.813-1.599 4.974 0 2.092.577 3.705 1.727 4.838 1.15 1.132 2.766 1.7 4.846 1.7 1 0 1.86-.069 2.58-.204a7.463 7.463 0 0 0 2.082-.728l-.663-2.883c-.488.2-.953.354-1.393.455a9.248 9.248 0 0 1-2.088.22c-.831 0-1.487-.202-1.968-.609-.481-.407-.737-.968-.767-1.683h7.707v-1.964c0-1.89-.512-3.337-1.538-4.341ZM19.939 9.24c.059-.7.259-1.213.6-1.54.343-.328.767-.492 1.275-.492.55 0 .99.184 1.317.554.328.368.498.862.513 1.479h-3.705Zm6.081-3.527c-1.026-1.005-2.479-1.508-4.36-1.508-1.979 0-3.5.577-4.566 1.733-1.065 1.155-1.6 2.813-1.6 4.974 0 2.092.576 3.705 1.728 4.838 1.15 1.132 2.765 1.7 4.846 1.7.999 0 1.858-.069 2.579-.204a7.474 7.474 0 0 0 2.083-.728l-.663-2.883c-.489.2-.954.354-1.393.455a9.263 9.263 0 0 1-2.089.22c-.83 0-1.487-.202-1.968-.609-.482-.407-.737-.968-.766-1.683h7.706v-1.964c0-1.89-.512-3.337-1.537-4.341Z" fill="#D4D4D4"/></svg>