<svg width="74" height="17" viewBox="0 0 74 17" fill="none" xmlns="http://www.w3.org/2000/svg">
<path d="M46.2245 6.0828C45.0559 4.80864 43.5572 4.2632 41.8761 4.18465C41.3375 4.15847 40.7901 4.20211 40.2515 4.27192C39.7736 4.33301 39.3045 4.46828 38.831 4.57737C38.7702 4.59046 38.7137 4.61664 38.6181 4.65155C38.9352 3.14177 39.248 1.66252 39.5651 0.161465C39.4869 0.161465 39.4305 0.161465 39.374 0.161465C38.5269 0.161465 37.6798 0.161465 36.8327 0.161465C36.3419 0.161465 35.851 0.161465 35.3558 0.161465C35.2689 0.161465 35.2211 0.178919 35.2037 0.279281C35.1733 0.475641 35.1212 0.667637 35.0778 0.859633C34.7346 2.48724 34.3914 4.11484 34.0439 5.74244C33.7268 7.23477 33.414 8.73147 33.0926 10.2238C32.9275 10.9874 32.8276 11.751 32.9362 12.5321C33.0839 13.6361 33.5443 14.5786 34.361 15.3335C35.4513 16.3415 36.7806 16.756 38.2272 16.8477C38.7875 16.8826 39.3523 16.852 39.9126 16.8258C40.6728 16.7953 41.4243 16.66 42.1541 16.4506C44.1828 15.8702 45.751 14.7095 46.6675 12.7677C47.2714 11.4936 47.6059 10.1627 47.4277 8.73583C47.3105 7.72785 46.9108 6.83333 46.2245 6.0828ZM43.1142 10.0842C43.0403 10.8478 42.7753 11.5285 42.2584 12.1001C41.6806 12.7416 40.9465 13.0732 40.0994 13.1736C39.9344 13.191 39.7693 13.1997 39.6042 13.2128C39.1524 13.2085 38.718 13.1474 38.314 12.9423C37.6842 12.6238 37.3671 12.0914 37.3236 11.3932C37.2671 10.4682 37.5147 9.62599 38.1055 8.91037C38.6051 8.30384 39.2784 8.00712 40.043 7.8893C40.6381 7.79767 41.2289 7.8064 41.8066 7.99839C42.7406 8.29948 43.2097 9.10673 43.1142 10.0842ZM62.4927 6.75042C61.8846 5.67262 60.9506 5.005 59.8038 4.59919C58.6961 4.20647 57.5493 4.1192 56.3851 4.19338C55.4468 4.25447 54.5345 4.43774 53.6527 4.76937C52.0498 5.37154 50.7248 6.33588 49.7431 7.75403C49.0611 8.7402 48.6484 9.83545 48.4747 11.018C48.3704 11.7249 48.3747 12.4361 48.5398 13.1343C48.9004 14.6441 49.8387 15.6608 51.2287 16.2804C52.2322 16.7255 53.2878 16.8782 54.3781 16.8738C54.6996 16.8564 55.0211 16.8433 55.3425 16.8258C56.0897 16.7822 56.8238 16.6557 57.5406 16.4506C58.8829 16.0622 60.0862 15.4208 61.0245 14.3648C62.4797 12.7285 63.1487 10.7998 63.0401 8.61365C63.0097 7.95039 62.8185 7.32641 62.4927 6.75042ZM58.6396 10.0318C58.5788 10.8391 58.2964 11.5547 57.7491 12.1481C57.1931 12.7547 56.4893 13.0688 55.6857 13.1692C55.5119 13.191 55.3382 13.1954 55.1644 13.2085C54.6605 13.2041 54.174 13.1299 53.7309 12.8812C53.1444 12.5496 52.8534 12.0303 52.8273 11.3671C52.7882 10.4333 53.0576 9.59981 53.6788 8.89292C54.1914 8.3082 54.856 8.00712 55.6118 7.88494C56.1722 7.79331 56.7326 7.8064 57.2799 7.96785C58.2834 8.26893 58.7134 9.08928 58.6396 10.0318ZM31.116 6.34897C30.4644 5.44136 29.5652 4.88282 28.5183 4.54246C27.4627 4.20211 26.3767 4.12356 25.2734 4.19338C24.4437 4.24574 23.6357 4.3941 22.8494 4.66028C21.19 5.21445 19.7999 6.15698 18.7574 7.57513C17.9581 8.66165 17.4933 9.88345 17.3369 11.2231C17.25 11.9649 17.2848 12.6979 17.4976 13.4179C17.9103 14.7924 18.8269 15.7175 20.117 16.2891C21.1162 16.7298 22.1674 16.8826 23.2534 16.8695C24.2482 16.8782 25.2299 16.7691 26.1943 16.516C27.5105 16.1713 28.7138 15.591 29.6695 14.6092C31.3202 12.9117 32.0587 10.8609 31.9066 8.49584C31.8545 7.7104 31.5765 6.99041 31.116 6.34897ZM24.726 13.143C24.5001 13.1779 24.2656 13.1954 23.9658 13.2259C23.7052 13.1823 23.3707 13.1561 23.0579 13.0688C22.2369 12.8376 21.7374 12.2572 21.7069 11.3932C21.6635 10.1234 22.1109 9.05437 23.2143 8.35184C23.9007 7.91112 24.6782 7.78022 25.4819 7.85876C25.7773 7.8893 26.0814 7.94603 26.3594 8.05076C27.1152 8.34311 27.5018 8.93219 27.5192 9.72636C27.5627 11.3103 26.5592 12.855 24.726 13.143ZM13.7183 10.0754C14.8825 12.2223 16.0337 14.3561 17.2022 16.5073C17.1371 16.5117 17.0893 16.516 17.0458 16.516C15.3517 16.516 13.6575 16.516 11.9677 16.5204C11.8461 16.5204 11.7853 16.4855 11.7288 16.3764C10.065 13.2826 8.39694 10.1889 6.72885 7.0995C6.70279 7.05587 6.68107 7.00787 6.64631 6.93369C6.72016 6.93369 6.77229 6.93369 6.82876 6.93369C8.02336 6.93369 9.2223 6.93369 10.4169 6.93369C11.2944 6.93369 12.0459 6.33588 12.2153 5.47626C12.3717 4.6821 11.8244 4.11047 11.1771 4.10175C10.2605 4.08866 9.34394 4.08866 8.42735 4.08429C8.1059 4.08429 7.78444 4.08429 7.46298 4.08429C7.41086 4.08429 7.36307 4.07993 7.29357 4.07557C7.3457 3.81375 7.39782 3.56503 7.44995 3.31631C7.66281 2.31269 7.88001 1.30908 8.08852 0.305462C8.11024 0.196374 8.15368 0.161465 8.26662 0.161465C9.97381 0.165829 11.681 0.139648 13.3882 0.170192C15.495 0.209464 17.0241 1.54035 17.389 3.53012C17.6149 4.74319 17.3716 5.88644 16.8243 6.9686C16.1727 8.26021 15.1649 9.21146 13.9399 9.9489C13.8704 9.98381 13.8052 10.0231 13.7183 10.0754ZM69.8341 4.10611C71.1199 4.10611 72.384 4.10611 73.6742 4.10611C73.6264 4.34611 73.5873 4.55992 73.5395 4.7781C73.3353 5.74244 73.1268 6.71115 72.927 7.67985C72.9009 7.80203 72.8532 7.83694 72.7315 7.83694C71.5543 7.83258 70.3771 7.83694 69.1999 7.83258C69.1043 7.83258 69.0391 7.84131 69.0174 7.95476C68.835 8.83619 68.6395 9.7089 68.4701 10.5947C68.3311 11.3103 68.6004 11.8776 69.2172 12.2659C69.6386 12.5321 70.1034 12.6717 70.5943 12.711C70.9592 12.7416 71.3284 12.7197 71.6977 12.7197C71.7454 12.7197 71.7889 12.7197 71.8584 12.7197C71.8106 12.9467 71.7715 13.1605 71.7281 13.3699C71.4935 14.4739 71.2589 15.5822 71.0287 16.6862C71.0026 16.8215 70.9505 16.8651 70.8071 16.8651C69.5039 16.8608 68.2268 16.6906 67.0192 16.1713C65.9853 15.7306 65.1208 15.0761 64.5474 14.0812C64.087 13.2826 63.8828 12.4143 64.0088 11.498C64.113 10.7125 64.2868 9.93581 64.4475 9.1591C64.795 7.45731 65.1556 5.75989 65.5118 4.06247C65.7768 2.80141 66.0418 1.53598 66.3068 0.274917C66.3241 0.196374 66.3502 0.152738 66.4458 0.152738C67.8315 0.157102 69.2172 0.157102 70.603 0.157102C70.616 0.157102 70.629 0.161465 70.6725 0.170192C70.3901 1.47489 70.1121 2.77959 69.8341 4.10611ZM6.59853 6.93805C6.54206 7.20423 6.49427 7.45295 6.44215 7.70167C6.10331 9.30746 5.76883 10.9132 5.42999 12.519C5.16067 13.8106 4.88265 15.0979 4.61767 16.3895C4.59595 16.4899 4.5612 16.5204 4.46128 16.5204C3.01908 16.516 1.57687 16.5204 0.134664 16.516C0.0955679 16.516 0.052128 16.5117 0 16.5073C0.0868799 16.0928 0.17376 15.6913 0.256296 15.2899C0.482184 14.2208 0.699383 13.1517 0.938303 12.087C1.23369 10.7911 1.77235 9.6129 2.70197 8.63983C3.49692 7.8064 4.46563 7.28277 5.59072 7.05587C5.84267 7.0035 6.10331 6.97732 6.35961 6.94241C6.42911 6.92932 6.50296 6.93805 6.59853 6.93805ZM1.75497 2.1687C1.72022 1.00363 2.72369 -0.00434943 3.92263 1.41149e-05C5.06944 0.00437766 6.08594 0.951267 6.08594 2.1687C6.08594 3.34685 5.11723 4.34611 3.88788 4.32865C2.65853 4.31556 1.72022 3.27704 1.75497 2.1687ZM73.0226 0.301099C72.4665 0.296735 72.0191 0.754908 72.0191 1.3178C72.0235 1.8807 72.4579 2.30833 73.0226 2.30833C73.5786 2.30397 74.0043 1.86761 74 1.29599C73.9956 0.750544 73.5569 0.305462 73.0226 0.301099ZM73.0182 2.1687C72.5578 2.17306 72.1538 1.77161 72.1538 1.31344C72.1538 0.850906 72.5534 0.453823 73.0182 0.458186C73.4743 0.458186 73.8696 0.859633 73.8696 1.31344C73.8696 1.77161 73.4787 2.16433 73.0182 2.1687ZM73.2354 1.37017C73.4048 1.2829 73.457 1.1869 73.4309 1.00363C73.4135 0.86836 73.318 0.781089 73.1442 0.754907C73.0182 0.737453 72.8922 0.741817 72.7619 0.728726C72.6664 0.719999 72.636 0.759271 72.6403 0.850906C72.6446 1.14326 72.6446 1.43998 72.6403 1.73234C72.6403 1.85016 72.6881 1.87198 72.8097 1.82834C72.8097 1.68871 72.8097 1.54471 72.8097 1.40944C72.9357 1.37017 73.0095 1.40508 73.0704 1.49671C73.1312 1.58834 73.205 1.66689 73.2658 1.75852C73.3223 1.84579 73.3918 1.87634 73.5004 1.8327C73.3918 1.68871 73.2832 1.54907 73.1703 1.40508C73.2094 1.38326 73.2224 1.37453 73.2354 1.37017ZM72.8141 1.26981C72.8141 1.13454 72.8141 1.01236 72.8141 0.863996C72.9227 0.86836 73.0226 0.86836 73.1225 0.885814C73.2224 0.903268 73.2789 0.977448 73.2745 1.07781C73.2702 1.1869 73.205 1.25235 73.0964 1.26544C73.0095 1.27853 72.9183 1.26981 72.8141 1.26981Z" fill="#fff"/>
</svg>
