<svg width="82" height="19" fill="none" xmlns="http://www.w3.org/2000/svg"><path d="M5.878 3.924H16.8v8.68c.004.316-.089.626-.267.888-.227.327-.646.654-1.412.654H5.335c-.282.001-.558-.086-.788-.25-.423-.3-.956-.94-.956-2.245H0v2.11a4.55 4.55 0 0 0 .832 2.664c.629.87 1.71 1.7 3.555 1.7h11.29a5.584 5.584 0 0 0 3.355-1.09c.758-.568 1.412-1.382 1.412-2.493V.177H5.908l-.03 3.747ZM34.73 14.111v4.013h-6.966s-2.517-.765-2.517-2.9c0-.809.22-1.602.636-2.295 1.681-2.8 6.252-10.313 8.223-12.55A1.121 1.121 0 0 1 34.948 0h3.193a1.288 1.288 0 0 1 1.187.764l8.842 17.36h-4.127l-7.76-14.463-6.485 9.569a.752.752 0 0 0-.135.497c.022.224.153.471.62.471l4.446-.087ZM52.04 18.124h3.974V3.867S55.654.288 51.354 0l-1.517 3.759s2.276.217 2.276 2.167l-.073 12.198ZM78.09 11.654h3.351v2.284a4.708 4.708 0 0 1-1.334 3.321c-.484.485-1.085.865-1.785.865H65.894a5.245 5.245 0 0 1-2.324-.521c-1.106-.544-2.336-1.64-2.336-3.825V4.265s.52-3.57 3.756-4.148h13.526s.072.023.194.074A4.441 4.441 0 0 1 81.44 4.3v2.333h-3.413v-.037a2.47 2.47 0 0 0-2.471-2.61h-9.259s-1.447.354-1.447 2.214v6.324s.182 1.68 1.883 1.68h8.84a2.516 2.516 0 0 0 2.516-2.483v-.068Z" fill="#D4D4D4"/></svg>