<svg width="96" height="32" viewBox="0 0 96 32" fill="none" xmlns="http://www.w3.org/2000/svg">
<path d="M36.0513 14.7148V21.0614C36.0513 21.4252 35.8896 21.5869 35.5258 21.5869H33.1408C32.777 21.5869 32.6153 21.3848 32.6153 21.0614V14.7148C32.6153 14.351 32.777 14.1893 33.1408 14.1893H35.5258C35.8896 14.1893 36.0513 14.351 36.0513 14.7148ZM35.8492 12.249H32.7366C31.2005 12.249 30.3516 13.0979 30.3516 14.634V21.1018C30.3516 22.6379 31.2005 23.4868 32.7366 23.4868H35.8492C37.3853 23.4868 38.2342 22.6379 38.2342 21.1018V14.634C38.2746 13.0979 37.4257 12.249 35.8492 12.249Z" fill="#fff"/>
<path d="M46.2786 17.3019L42.6809 16.3722C42.3575 16.2914 42.3171 16.2105 42.3171 15.8467V14.5935C42.3171 14.2702 42.4788 14.1489 42.8426 14.1489H45.0255C45.3893 14.1489 45.551 14.3106 45.551 14.5935V15.7658H47.7339V14.5531C47.7339 13.0979 46.885 12.249 45.3893 12.249H42.5192C40.9831 12.249 40.1342 13.0574 40.1342 14.5531V16.1297C40.1342 17.5849 41.0639 18.0296 41.6299 18.1913L45.3084 19.1615C45.5914 19.2423 45.7127 19.3231 45.7127 19.6465V21.1826C45.7127 21.506 45.551 21.6273 45.1872 21.6273H42.8022C42.4383 21.6273 42.2766 21.4656 42.2766 21.1826V20.0912H40.0938V21.1826C40.0938 22.6783 40.9427 23.4868 42.4383 23.4868H45.5106C47.0467 23.4868 47.8956 22.6783 47.8956 21.1826V19.2019C47.8956 18.2317 47.3296 17.5445 46.2786 17.3019Z" fill="#fff"/>
<path d="M67.9463 12.249H65.3996L62.3678 16.8977H61.9635V12.249H59.7402V23.4868H61.9635V18.8381H62.3678L65.3592 23.4464L65.3996 23.4868H67.9463L64.106 17.8679L67.9463 12.249Z" fill="#fff"/>
<path d="M74.4947 14.7148V21.0614C74.4947 21.4252 74.333 21.5869 73.9692 21.5869H71.5842C71.2204 21.5869 71.0587 21.3848 71.0587 21.0614V14.7148C71.0587 14.351 71.2204 14.1893 71.5842 14.1893H73.9692C74.333 14.1893 74.4947 14.351 74.4947 14.7148ZM74.2926 12.249H71.1799C69.6438 12.249 68.7949 13.0979 68.7949 14.634V21.1018C68.7949 22.6379 69.6438 23.4868 71.1799 23.4868H74.2926C75.8287 23.4868 76.6776 22.6379 76.6776 21.1018V14.634C76.718 13.0979 75.8691 12.249 74.2926 12.249Z" fill="#fff"/>
<path d="M84.722 17.3019L81.1242 16.3722C80.8009 16.2914 80.7604 16.2105 80.7604 15.8467V14.5935C80.7604 14.2702 80.9221 14.1489 81.2859 14.1489H83.4688C83.8326 14.1489 83.9943 14.3106 83.9943 14.5935V15.7658H86.1772V14.5531C86.1772 13.0979 85.3283 12.249 83.8326 12.249H80.9625C79.4264 12.249 78.5775 13.0574 78.5775 14.5531V16.1297C78.5775 17.5849 79.5073 18.0296 80.0732 18.1913L83.7518 19.1615C84.0348 19.2423 84.156 19.3231 84.156 19.6465V21.1826C84.156 21.506 83.9943 21.6273 83.6305 21.6273H81.2455C80.8817 21.6273 80.72 21.4656 80.72 21.1826V20.0912H78.5371V21.1826C78.5371 22.6783 79.386 23.4868 80.8817 23.4868H83.9539C85.49 23.4868 86.3389 22.6783 86.3389 21.1826V19.2019C86.3389 18.2317 85.773 17.5445 84.722 17.3019Z" fill="#fff"/>
<path d="M55.3332 16.8977H51.8971V12.249H49.6738V23.4868H51.8971V18.8381H55.3332V23.4868H57.5565V12.249H55.3332V16.8977Z" fill="#fff"/>
<path d="M93.7765 16.8977H90.3405V12.249H88.1172V23.4868H90.3405V18.8381H93.7765V23.4868H95.9999V12.249H93.7765V16.8977Z" fill="#fff"/>
<path d="M8.68474 0.267387L1.5972 6.28538C0.584689 7.14102 0 8.41022 0 9.73646V20.0469C0 20.489 0.256694 20.8883 0.670253 21.0737L8.27118 24.5248V12.8168C8.27118 12.4888 8.41379 12.175 8.67048 11.9469L14.2179 7.22659V2.09275L9.88264 0.0962594C9.48334 -0.0748685 9.01273 -0.0178257 8.68474 0.267387Z" fill="#fff"/>
<path d="M22.4894 22.0008V11.6904C22.4894 11.2483 22.2327 10.849 21.8191 10.6636L14.2182 7.22681V18.9348C14.2182 19.2628 14.0756 19.5765 13.8189 19.8047L8.27148 24.525V29.6446L12.6067 31.641C13.006 31.8264 13.4766 31.7551 13.8046 31.4699L20.8922 25.4662C21.9047 24.5963 22.4894 23.3413 22.4894 22.0008Z" fill="#fff"/>
</svg>
