<svg width="48" height="48" fill="none" xmlns="http://www.w3.org/2000/svg"><g clip-path="url(#a)"><path d="m24.268 6.77-.263-.166-.264.166c-5.198 3.356-8.437 9.277-8.437 15.451 0 4.78 1.824 9.305 5.14 12.739l.254.263 2.839-1.492-.488-.468c-3.014-2.926-4.74-6.974-4.74-11.11 0-4.585 2.116-9.033 5.686-11.969a15.566 15.566 0 0 1 5.687 10.603l.02.215 2.984 2.165v-.956c.01-6.174-3.219-12.095-8.418-15.44Z" fill="#000"/><path d="m5.657 38.091-.02.312.283.147c5.502 2.828 12.252 2.672 17.597-.42a18.313 18.313 0 0 0 8.467-10.817l.097-.351-2.711-1.707-.166.653c-1.034 4.067-3.668 7.589-7.257 9.657-3.97 2.292-8.886 2.682-13.208 1.053a15.656 15.656 0 0 1 6.331-10.232l.175-.127.38-3.667-.828.478c-5.326 3.082-8.838 8.847-9.14 15.021Z" fill="#000"/><path d="m42.08 38.55.282-.147-.02-.312c-.301-6.184-3.813-11.94-9.158-15.031a18.27 18.27 0 0 0-13.608-1.922l-.35.088-.128 3.2.644-.186c4.038-1.141 8.408-.614 11.988 1.454 3.97 2.292 6.76 6.35 7.52 10.905a15.636 15.636 0 0 1-12.026-.37l-.195-.089-3.375 1.502.829.478c5.345 3.093 12.095 3.258 17.597.43Z" fill="#000"/><path d="m8.213 36.93 2.429-.273 1.024-1.716a13.181 13.181 0 0 1 4.096-6l-.955-2.955a16.142 16.142 0 0 0-6.594 10.945Z" fill="#6B80D2"/><path d="M6.145 38.12A17.964 17.964 0 0 1 15.06 23.49a1.464 1.464 0 0 0-1.463-2.536A20.886 20.886 0 0 0 3.2 38.979l1.834.136 1.112-.995Z" fill="#6B80D2"/><path d="m39.787 36.92-1.453-1.96-2-.03c-2.419.498-4.935.303-7.237-.555l-2.078 2.302c4.009 1.834 8.691 1.931 12.768.244Z" fill="#C88BC4"/><path d="M41.855 38.12c-5.384 2.76-11.87 2.624-17.128-.41a1.467 1.467 0 0 0-2 .537c-.41.703-.166 1.59.537 2 6.418 3.706 14.387 3.706 20.815 0l-.8-1.649-1.424-.478Z" fill="#C88BC4"/><path d="m24.005 9.56-.976 2.234.976 1.746a13.2 13.2 0 0 1 3.14 6.545l3.034.644a16.164 16.164 0 0 0-6.174-11.17Z" fill="#86BFF2"/><path d="M24.005 7.18c5.082 3.277 8.213 8.964 8.213 15.041 0 .81.653 1.463 1.463 1.463s1.463-.653 1.463-1.463c0-7.403-3.99-14.31-10.408-18.026l-1.034 1.522.303 1.463ZM24.005 30.727c-2.058-2.36-3.248-5.424-3.248-8.574 0-3.15 1.19-6.214 3.248-8.574v-4.02c-3.834 2.996-6.175 7.697-6.175 12.584s2.341 9.588 6.175 12.583l1.2-1.912-1.2-2.087Z" fill="#86BFF2"/><path d="M24.727 4.195a1.47 1.47 0 0 0-1.522.04 20.878 20.878 0 0 0-10.34 17.986 20.711 20.711 0 0 0 5.824 14.436c.283.303 2.672-1.453 2.107-2.028a17.776 17.776 0 0 1-5.004-12.398A17.938 17.938 0 0 1 24.005 7.19l1.22-1.044-.498-1.95Z" fill="#86BFF2"/><path d="M26.541 26.347c-1.015 2.965-3.073 5.521-5.804 7.101-2.731 1.57-5.97 2.078-9.052 1.473l-3.482 2.01c4.516 1.824 9.754 1.502 13.988-.947 4.233-2.448 7.14-6.818 7.813-11.637l-2.263-.087-1.2 2.087Z" fill="#6B80D2"/><path d="M3.199 38.979c0 .566.322 1.053.79 1.297 6.409 3.668 14.358 3.658 20.747-.039a20.695 20.695 0 0 0 9.589-12.261c.117-.4-2.585-1.59-2.81-.81a17.813 17.813 0 0 1-8.242 10.535 17.945 17.945 0 0 1-17.128.41l-1.522-.537L3.2 38.98Z" fill="#6B80D2"/><path d="M21.469 26.347c3.072-.605 6.32-.107 9.052 1.473 2.73 1.57 4.78 4.136 5.794 7.101l3.482 2.01c-.673-4.82-3.58-9.199-7.813-11.637-4.234-2.439-9.472-2.77-13.988-.947l1.054 2h2.419Z" fill="#C88BC4"/><path d="M44.08 40.237c.487-.283.75-.81.73-1.336-.029-7.384-4.008-14.261-10.407-17.948a20.704 20.704 0 0 0-15.412-2.175c-.4.097-.078 3.033.702 2.838A17.761 17.761 0 0 1 32.94 23.49c5.257 3.034 8.623 8.584 8.915 14.631l.293 1.58 1.931.537Z" fill="#C88BC4"/><path d="M22.864 29.205c-1.356-2.087-2.117-4.536-2.117-7.052 0-3.15 1.19-6.214 3.248-8.574v-4.02c-3.833 2.996-6.174 7.697-6.174 12.584 0 2.458.595 4.877 1.677 7.052h3.366v.01Z" fill="#86BFF2"/></g><defs><clipPath id="a"><path fill="#fff" transform="translate(3.199 4)" d="M0 0h41.602v39.017H0z"/></clipPath></defs></svg>