<svg width="48" height="48" fill="none" xmlns="http://www.w3.org/2000/svg"><g clip-path="url(#a)"><path d="m20.636 24.486-5.56 3.206a.555.555 0 0 1-.83-.475v-6.423c0-.42.465-.697.83-.475l5.56 3.206c.376.21.376.74 0 .962ZM21.742 26.4l-5.56 3.205a.56.56 0 0 0 0 .962l5.56 3.206c.365.21.83-.055.83-.476v-6.411a.554.554 0 0 0-.83-.487ZM21.742 14.238l-5.56 3.206a.56.56 0 0 0 0 .962l5.56 3.206c.365.21.83-.055.83-.475v-6.412a.554.554 0 0 0-.83-.487ZM32.278 20.319l-5.561 3.206a.56.56 0 0 0 0 .962l5.56 3.206c.365.21.83-.056.83-.476v-6.423a.555.555 0 0 0-.83-.475ZM25.611 21.612l5.561-3.206a.56.56 0 0 0 0-.962l-5.56-3.206a.555.555 0 0 0-.83.476v6.412c0 .43.465.696.83.486ZM25.611 26.399a.555.555 0 0 0-.829.475v6.412c0 .42.465.697.83.476l5.56-3.206a.56.56 0 0 0 0-.962l-5.56-3.195Z" fill="#86BFF2"/><path d="M3.722 21.126v-6.413c0-.42.464-.696.829-.475l5.56 3.206a.56.56 0 0 1 0 .962l-5.56 3.206a.556.556 0 0 1-.83-.486ZM10.112 29.605 4.55 26.399a.555.555 0 0 0-.83.475v6.412c0 .42.465.697.83.476l5.56-3.206a.55.55 0 0 0 0-.951ZM11.217 32.48l-5.56 3.205a.56.56 0 0 0 0 .962l5.56 3.206c.365.21.83-.055.83-.475v-6.423a.555.555 0 0 0-.83-.476ZM11.217 20.319l-5.56 3.206a.56.56 0 0 0 0 .962l5.56 3.206c.365.21.83-.056.83-.476v-6.423a.555.555 0 0 0-.83-.475ZM11.217 8.158l-5.56 3.206a.56.56 0 0 0 0 .962l5.56 3.206c.365.21.83-.056.83-.476V8.633a.555.555 0 0 0-.83-.475ZM15.087 15.532l5.56-3.206a.56.56 0 0 0 0-.962l-5.56-3.206a.553.553 0 0 0-.83.475v6.412c0 .431.454.697.83.487ZM20.636 36.647a.56.56 0 0 0 0-.962l-2.774-1.603-2.775-1.603a.553.553 0 0 0-.83.476v6.412c0 .42.465.696.83.475l2.774-1.603 2.775-1.592ZM21.742 38.56l-5.56 3.206a.56.56 0 0 0 0 .962l5.56 3.206c.365.21.83-.056.83-.476v-6.412a.554.554 0 0 0-.83-.486ZM21.742 2.077l-5.56 3.206a.56.56 0 0 0 0 .962l5.56 3.206c.365.21.83-.055.83-.475V2.553a.553.553 0 0 0-.83-.476Z" fill="#C88BC4"/><path d="m42.813 26.4-5.56 3.205a.56.56 0 0 0 0 .962l5.56 3.206c.365.21.83-.055.83-.476v-6.411a.556.556 0 0 0-.83-.487ZM42.813 14.238l-5.56 3.206a.56.56 0 0 0 0 .962l5.56 3.206c.365.21.83-.055.83-.475v-6.412a.556.556 0 0 0-.83-.487ZM36.147 15.532l5.56-3.206a.56.56 0 0 0 0-.962l-5.56-3.206a.555.555 0 0 0-.83.475v6.412c0 .431.465.697.83.487ZM36.147 27.692l5.56-3.206a.56.56 0 0 0 0-.961l-5.56-3.206a.555.555 0 0 0-.83.475v6.412c0 .431.465.697.83.486ZM36.147 32.48a.555.555 0 0 0-.83.475v6.412c0 .42.465.696.83.475l5.56-3.206a.56.56 0 0 0 0-.962l-5.56-3.195ZM32.278 32.48l-5.561 3.205a.56.56 0 0 0 0 .962l5.56 3.206c.365.21.83-.055.83-.475v-6.423a.555.555 0 0 0-.83-.476ZM32.278 8.158 29.503 9.76l-2.786 1.603a.56.56 0 0 0 0 .962l2.775 1.603 2.775 1.603c.364.21.829-.056.829-.476V8.633c.01-.42-.453-.685-.818-.475ZM25.611 9.451l5.561-3.206a.56.56 0 0 0 0-.962l-5.56-3.206a.555.555 0 0 0-.83.476v6.412c0 .431.465.696.83.486ZM25.611 38.56a.555.555 0 0 0-.829.475v6.412c0 .42.465.697.83.476l5.56-3.206a.56.56 0 0 0 0-.962l-5.56-3.195Z" fill="#6B80D2"/></g><defs><clipPath id="a"><path fill="#fff" transform="translate(3.722 2)" d="M0 0h39.921v44H0z"/></clipPath></defs></svg>