<svg width="48" height="48" fill="none" xmlns="http://www.w3.org/2000/svg"><g clip-path="url(#a)"><path d="M20.508 30.364a5.584 5.584 0 0 0-1.635 3.964c0 3.091 2.508 5.6 5.6 5.6 3.09 0 5.6-2.509 5.6-5.6V20.8l-9.565 9.565Zm3.964 6.193a2.247 2.247 0 0 1-2.24-2.24 2.247 2.247 0 0 1 2.24-2.24 2.24 2.24 0 1 1 0 4.48Z" fill="#6B80D2"/><path d="M14.964 14.516H12.59c-6.429 6.429-6.563 16.755-.403 23.34a.571.571 0 0 0 .817.011l1.58-1.579a.558.558 0 0 0 .01-.772c-4.871-5.275-4.748-13.496.381-18.614v-2.386h-.011Z" fill="#86BFF2"/><path d="M11.01 12.937v-2.374H8.636C.024 19.175-.11 33.05 8.233 41.82c.213.224.594.235.806.01l1.58-1.578a.548.548 0 0 0 0-.773c-7.045-7.47-6.91-19.24.392-26.543Z" fill="#86BFF2"/><path d="m12.59 14.516 2.374 2.375c5.253-5.253 13.753-5.253 19.006 0h2.374v-2.375c-6.552-6.551-17.191-6.551-23.754 0Z" fill="#C88BC4"/><path d="m8.636 10.563 2.375 2.374c7.436-7.436 19.487-7.436 26.923 0h2.375v-2.374c-8.747-8.747-22.926-8.747-31.673 0Z" fill="#C88BC4"/><path d="m36.355 14.516-2.374 2.375c5.118 5.118 5.241 13.338.38 18.613a.558.558 0 0 0 .012.773l1.579 1.58a.571.571 0 0 0 .818-.012c6.137-6.574 6.002-16.9-.415-23.329Z" fill="#6B80D2"/><path d="m40.309 10.563-2.375 2.374c7.302 7.302 7.437 19.073.381 26.532a.547.547 0 0 0 0 .773l1.58 1.579a.558.558 0 0 0 .805-.011c8.355-8.759 8.221-22.635-.392-31.247Z" fill="#6B80D2"/></g><defs><clipPath id="a"><path fill="#fff" transform="translate(2.073 4)" d="M0 0h44.798v38H0z"/></clipPath></defs></svg>