<svg width="36" height="45" viewBox="0 0 36 45" fill="none" xmlns="http://www.w3.org/2000/svg">
<g clip-path="url(#clip0_962_2064)">
<path d="M28.605 6.67651H4.12555V36.7194H28.605V6.67651Z" fill="black"/>
<path d="M20.8161 3.33835H19.7034C19.7034 1.49126 18.2123 0.000244141 16.3653 0.000244141C14.5182 0.000244141 13.0272 1.49126 13.0272 3.33835H11.9145C10.0674 3.33835 8.57635 4.82937 8.57635 6.67645H24.1542C24.1542 4.82937 22.6632 3.33835 20.8161 3.33835Z" fill="#86BFF2"/>
<path d="M28.605 3.33838H26.3796H25.2335C25.9456 4.27305 26.3796 5.41913 26.3796 6.67648H28.605V27.0167C29.8624 27.3616 30.9973 27.9958 31.9431 28.8415V6.67648C31.9431 4.8294 30.4521 3.33838 28.605 3.33838Z" fill="#6B80D2"/>
<path d="M4.12558 36.7194V6.67648H6.35098C6.35098 5.41913 6.78493 4.27305 7.49706 3.33838H6.35098H4.12558C2.27849 3.33838 0.787476 4.8294 0.787476 6.67648V36.7194C0.787476 38.5665 2.27849 40.0575 4.12558 40.0575H19.7145C18.9801 39.0895 18.4572 37.9545 18.2012 36.7194H4.12558Z" fill="#6B80D2"/>
<path d="M26.3796 14.4653H6.35095V17.8034H26.3796V14.4653Z" fill="#C88BC4"/>
<path d="M26.3796 8.90186H6.35095V12.24H26.3796V8.90186Z" fill="#C88BC4"/>
<path d="M26.3796 20.0288H6.35095V23.3669H26.3796V20.0288Z" fill="#C88BC4"/>
<path d="M16.3653 25.5923H6.35095V28.9304H16.3653V25.5923Z" fill="#C88BC4"/>
<path d="M35.8375 35.0502C35.8375 40.2688 31.5982 44.5082 26.3796 44.5082C21.161 44.5082 16.9216 40.2688 16.9216 35.0502C16.9216 29.8317 21.161 25.5923 26.3796 25.5923C31.5982 25.5923 35.8375 29.8317 35.8375 35.0502Z" fill="#86BFF2"/>
<path d="M31.6761 30.733C31.3645 30.477 30.9194 30.4993 30.619 30.7441L30.6079 30.733L24.5103 35.8069L22.0735 34.1823C21.8064 34.0043 21.4392 33.9932 21.1499 34.1823C20.7716 34.4382 20.6603 34.9612 20.9162 35.3395L23.2307 38.8112C23.7425 39.5789 24.7773 39.7903 25.5451 39.2785C25.6786 39.1895 25.7899 39.0782 25.89 38.9558L31.7651 31.9013C32.0766 31.5563 32.0321 31.0334 31.6761 30.733Z" fill="black"/>
</g>
<defs>
<clipPath id="clip0_962_2064">
<rect width="35.0501" height="44.508" fill="white" transform="translate(0.787476 0.000244141)"/>
</clipPath>
</defs>
</svg>
