<svg width="47" height="50" viewBox="0 0 47 50" fill="none" xmlns="http://www.w3.org/2000/svg">
<path d="M9.64948 50H0.643298C0.283051 50 0 49.717 0 49.3568V40.3506C0 39.9903 0.283051 39.7073 0.643298 39.7073H9.64948C10.0097 39.7073 10.2928 39.9903 10.2928 40.3506V49.3568C10.2928 49.717 10.0097 50 9.64948 50Z" fill="#86BFF2"/>
<path d="M23.8018 50H14.7956C14.4354 50 14.1523 49.7169 14.1523 49.3567V30.0577C14.1523 29.6975 14.4354 29.4144 14.7956 29.4144H23.8018C24.1621 29.4144 24.4451 29.6975 24.4451 30.0577V49.3567C24.4451 49.7169 24.1621 50 23.8018 50Z" fill="#C88BC4"/>
<path d="M46.3174 11.4021C46.3174 6.51304 43.5899 2.2544 39.5628 0.0800525C39.1254 -0.151535 38.5979 0.157248 38.5979 0.646155V12.6887H28.3051V0.646155C28.3051 0.144382 27.7776 -0.151535 27.3401 0.0800525C22.8242 2.52459 19.9422 7.58091 20.7142 13.2162C21.3317 17.6678 24.3166 21.4118 28.3051 23.1745V49.3567C28.3051 49.7169 28.5881 50 28.9484 50H37.9546C38.3148 50 38.5979 49.7169 38.5979 49.3567V23.1873C43.1395 21.206 46.3174 16.6771 46.3174 11.4021Z" fill="#6B80D2"/>
</svg>
