<svg width="48" height="48" fill="none" xmlns="http://www.w3.org/2000/svg"><path d="M8 28a4 4 0 1 0 0-8 4 4 0 0 0 0 8ZM40 28a4 4 0 1 0 0-8 4 4 0 0 0 0 8ZM24 44a4 4 0 1 0 0-8 4 4 0 0 0 0 8ZM24 12a4 4 0 1 0 0-8 4 4 0 0 0 0 8Z" fill="#C88BC4"/><path d="M38.285 8.306 8.3 38.283l1.414 1.414L39.699 9.72l-1.414-1.414Z" fill="#6B80D2"/><path d="M9 44a5 5 0 1 0 0-10 5 5 0 0 0 0 10Z" fill="#6B80D2"/><path d="M9 14A5 5 0 1 0 9 4a5 5 0 0 0 0 10ZM24 31a7 7 0 1 0 0-14 7 7 0 0 0 0 14ZM39 44a5 5 0 1 0 0-10 5 5 0 0 0 0 10Z" fill="#86BFF2"/><path d="M39 14a5 5 0 1 0 0-10 5 5 0 0 0 0 10Z" fill="#6B80D2"/></svg>