<svg width="139" height="30" viewBox="0 0 139 30" fill="none" xmlns="http://www.w3.org/2000/svg">
<path d="M42.3148 12.5463H37.7083V14.051H42.0833C42.7778 14.051 43.2407 14.1667 43.4722 14.3982C43.7037 14.6297 43.8426 15.0695 43.8426 15.7176V16.6898C43.8426 17.338 43.7268 17.7547 43.4722 18.0093C43.2407 18.2408 42.7546 18.3565 42.0833 18.3565H37.7315C37.037 18.3565 36.5741 18.2408 36.3426 18.0093C36.1111 17.7778 35.9722 17.338 35.9722 16.6898V16.4815L37.4074 16.1806V17.0139H42.3843V15.4167H38.0092C37.3148 15.4167 36.875 15.301 36.6204 15.0695C36.3889 14.838 36.25 14.3982 36.25 13.75V12.963C36.25 12.3148 36.3657 11.8982 36.6204 11.6435C36.8518 11.4121 37.3148 11.2963 38.0092 11.2963H41.9907C42.662 11.2963 43.1018 11.4121 43.3565 11.6435C43.6111 11.875 43.7268 12.2685 43.7268 12.8472V12.9861L42.2917 13.3334V12.5463H42.3148Z" fill="#fff"/>
<path d="M46.9676 18.3334V12.338H53.125V13.3565H48.3796V14.6991H51.1574V15.7176H48.3796V17.1991H53.1944V18.3334H46.9676V18.3334Z" fill="#fff"/>
<path d="M54.6065 18.3335L58.0092 12.3381H59.3518L62.8009 18.3335H61.2268L60.5093 17.0141H56.713L56.0185 18.3335H54.6065ZM57.2917 15.9492H59.9306L58.6343 13.4955L57.2917 15.9492Z" fill="#fff"/>
<path d="M68.3333 18.3334V11.2963H69.6528L72.9629 15.5556L76.2037 11.2963H77.5231V18.3334H75.9954V13.9815C75.9954 13.8889 75.9954 13.7963 76.0185 13.6574C76.0185 13.5185 76.0416 13.3797 76.0648 13.2176C75.9722 13.4028 75.9028 13.5417 75.8333 13.6574C75.7639 13.7732 75.7176 13.8658 75.6481 13.9352L73.0092 17.4537H72.6852L70.0463 13.9352C69.9537 13.7963 69.8611 13.6806 69.7917 13.5648C69.7222 13.4491 69.6759 13.3334 69.6296 13.2176C69.6528 13.3565 69.6528 13.4954 69.6528 13.6111C69.6528 13.7269 69.6528 13.8426 69.6528 13.9584V18.3334H68.3333Z" fill="#fff"/>
<path d="M79.5602 18.3334L82.963 12.338H84.3056L87.7546 18.3334H86.1806L85.463 17.0139H81.6667L80.9722 18.3334H79.5602ZM82.2454 15.9491H84.8843L83.588 13.4954L82.2454 15.9491Z" fill="#fff"/>
<path d="M94.5139 13.403H90.7408V17.1992H94.5139V15.9029L95.9028 16.2039V16.9215C95.9028 17.477 95.8102 17.8474 95.6019 18.0326C95.3935 18.2409 95 18.3335 94.4213 18.3335H90.8333C90.2546 18.3335 89.8611 18.2409 89.6528 18.0326C89.4445 17.8242 89.3519 17.4539 89.3519 16.9215V13.7502C89.3519 13.1946 89.4445 12.8242 89.6528 12.6391C89.8611 12.4307 90.2546 12.3381 90.8333 12.3381H94.4213C95 12.3381 95.3935 12.4307 95.6019 12.6391C95.8102 12.8474 95.9028 13.2178 95.9028 13.7502V14.3289L94.5139 14.5604V13.403Z" fill="#fff"/>
<path d="M98.7963 18.3335V12.3381H100.185V14.6761H104.537V12.3381H105.949V18.3335H104.537V15.7409H100.185V18.3335H98.7963Z" fill="#fff"/>
<path d="M109.028 18.3335V12.3381H110.417V18.3335H109.028Z" fill="#fff"/>
<path d="M113.495 18.3335V12.3381H114.444L118.681 15.8798C118.819 15.9955 118.958 16.1113 119.051 16.2039C119.167 16.3196 119.259 16.4122 119.352 16.528C119.329 16.1807 119.306 15.9492 119.306 15.8104C119.306 15.6715 119.306 15.5557 119.306 15.4863V12.3381H120.556V18.3335H119.606L115.208 14.6298C115.093 14.5372 115 14.4446 114.931 14.3752C114.861 14.3057 114.769 14.2131 114.699 14.1437C114.722 14.3289 114.722 14.5141 114.745 14.6761C114.745 14.8381 114.769 14.977 114.769 15.1159V18.3567H113.495V18.3335Z" fill="#fff"/>
<path d="M123.611 18.3335V12.3381H129.769V13.3567H125.023V14.6992H127.801V15.7178H125.023V17.1992H129.815V18.3335H123.611V18.3335Z" fill="#fff"/>
<path d="M137.593 13.3797H133.657V14.676H137.407C137.986 14.676 138.38 14.7686 138.588 14.9769C138.796 15.1853 138.889 15.5556 138.889 16.0881V16.9214C138.889 17.4769 138.796 17.8473 138.588 18.0325C138.38 18.2408 137.986 18.3334 137.407 18.3334H133.704C133.125 18.3334 132.708 18.2408 132.523 18.0325C132.315 17.8242 132.222 17.4538 132.222 16.9214V16.7594L133.449 16.5047V17.2223H137.685V15.8566H133.935C133.356 15.8566 132.963 15.764 132.755 15.5556C132.546 15.3473 132.454 14.9769 132.454 14.4445V13.7732C132.454 13.2177 132.546 12.8473 132.755 12.6621C132.963 12.4538 133.356 12.3612 133.935 12.3612H137.338C137.894 12.3612 138.287 12.4538 138.495 12.6621C138.704 12.8473 138.819 13.1945 138.819 13.6806V13.7964L137.593 14.0973V13.3797Z" fill="#fff"/>
<path d="M28.9815 13.5416C29.1204 13.5416 29.2361 13.5648 29.3287 13.5879C29.2361 12.6389 29.0741 11.7129 28.8194 10.8101C28.4028 10.7639 28.0093 10.4629 27.9167 10.0694C27.8935 9.95366 27.8472 9.83792 27.8241 9.72218C27.8241 9.69903 27.8009 9.67589 27.8009 9.65274C27.7778 9.60644 27.7546 9.56015 27.7083 9.51385L27.6852 9.4907C27.6389 9.4444 27.6157 9.42126 27.5694 9.37496C27.4769 9.35181 27.4306 9.30552 27.5463 9.35182C27.0139 9.16663 26.713 8.70367 26.8287 8.14811C25.9954 7.49996 25.3241 6.71292 24.6296 5.90274C23.7731 4.86107 22.7083 4.28237 21.5046 3.72681C20.2778 3.17126 19.0741 2.63885 17.7546 2.26848C16.6898 1.96756 15.6713 1.62033 14.7222 1.04163C14.4907 1.01848 14.2593 1.01848 14.0278 0.995334C13.0787 0.949037 12.1991 1.11107 11.2731 1.27311C9.93055 1.52774 8.31018 1.92126 7.33796 2.98608C7.31481 3.00922 7.31481 3.00922 7.29166 3.03237C7.12963 3.26385 6.96759 3.47219 6.73611 3.68052C6.18055 4.16663 5.53241 4.51385 4.90741 4.90737C4.25926 5.787 3.68055 6.68978 3.19444 7.662C2.52315 9.00459 2.01389 10.4398 1.66666 11.8981C1.50463 12.5694 1.59722 13.2176 1.50463 13.8888C1.41203 14.537 1.06481 15.0926 0.902775 15.7407C0.879627 15.8101 0.856478 15.8796 0.83333 15.949C0.83333 16.3657 0.5787 16.7824 0.138885 16.8981C0.254626 17.824 0.46296 18.7037 0.717589 19.5601C1.34259 19.5833 1.64352 20.0926 1.64352 20.6018C1.89814 20.6018 2.15277 20.7176 2.33796 20.9027C2.38426 20.949 2.4074 20.9722 2.4537 21.0185C2.56944 21.1342 2.63889 21.2731 2.68518 21.412C2.75463 21.4583 2.82407 21.5046 2.87037 21.5509C5.41666 23.8194 7.66203 26.4352 10.4167 28.449C10.5093 28.4722 10.6019 28.5185 10.6713 28.5648C11.6435 29.1666 12.8241 28.75 13.8426 28.5185C14.7917 28.3101 15.7176 28.2639 16.6667 28.1481C18.7963 27.9166 20.9722 27.3148 22.8472 26.25C26.5278 24.1666 28.6111 19.6296 28.5185 15.4629C27.6852 15.0926 27.8472 13.5416 28.9815 13.5416Z" fill="transparent"/>
<path d="M29.3056 13.2639L11.5972 10.7639V13.9352H17.9861C18.7963 13.9352 19.3519 14.0972 19.6759 14.4444C20.1389 14.9074 20.3472 15.463 20.3704 16.1343L20.3935 19.3056V19.3287C20.3935 19.9768 20.162 20.5093 19.6991 20.9722C19.2361 21.4352 18.6574 21.6898 18.0093 21.6898L0.694445 19.4676C2.56944 25.5556 8.125 30 14.7222 30C22.8241 30 29.4213 23.287 29.4213 15C29.3982 14.3981 29.375 13.8194 29.3056 13.2639ZM17.6852 16.2037H11.2963C10.5324 16.2037 9.97685 16.0417 9.62963 15.6944C9.16667 15.2315 8.91204 14.6759 8.91204 14.0278V10.8565C8.91204 10.1852 9.14352 9.62963 9.60648 9.16666C10.0694 8.7037 10.625 8.47222 11.2963 8.47222L28.8426 10.9259C27.1065 4.60648 21.4352 0 14.6991 0C6.59722 0 0 6.71296 0 15C0 15.6481 0.0462963 16.2963 0.115741 16.9444L17.662 19.213V16.2037H17.6852Z" fill="#fff"/>
</svg>
