<svg width="100" height="27" viewBox="0 0 100 27" fill="none" xmlns="http://www.w3.org/2000/svg">
<g clip-path="url(#clip0)">
<path d="M85.0605 20.2695V9.81092C85.0605 9.60965 85.2271 9.44531 85.431 9.44531H87.2161C87.42 9.44531 87.5865 9.60965 87.5865 9.81092V20.2695C87.5865 20.4708 87.42 20.6351 87.2161 20.6351H85.431C85.2271 20.6351 85.0605 20.4708 85.0605 20.2695Z" fill="#fff"/>
<path d="M86.3232 7.73903C87.124 7.73903 87.7733 7.09833 87.7733 6.30799C87.7733 5.51765 87.124 4.87695 86.3232 4.87695C85.5223 4.87695 84.873 5.51765 84.873 6.30799C84.873 7.09833 85.5223 7.73903 86.3232 7.73903Z" fill="#fff"/>
<path d="M40.2565 7.88826C40.2565 6.90962 41.0312 6.3132 42.3372 6.3132H47.4603C47.625 6.3132 47.7578 6.1821 47.7578 6.01961V4.21742C47.7578 4.05493 47.625 3.92383 47.4603 3.92383H42.3372C39.7008 3.92383 37.839 5.5469 37.839 7.88642C37.839 12.4214 45.8212 13.1379 45.8212 16.432C45.8212 17.4827 44.9511 18.2471 43.7162 18.2471H42.0958C40.9507 18.2471 40.0151 17.3239 40.0151 16.1938V15.6048C40.0151 15.4035 39.8486 15.2392 39.6447 15.2392H37.9681C37.7642 15.2392 37.5977 15.4035 37.5977 15.6048V16.1938C37.5977 18.646 39.6129 20.6347 42.0977 20.6347H43.7181C46.2815 20.6347 48.2406 18.8195 48.2406 16.4339C48.2387 11.3966 40.2565 10.418 40.2565 7.88826Z" fill="#fff"/>
<path d="M80.7118 4.29139V9.44497H76.8424C74.4473 9.44497 72.4883 11.3542 72.4883 13.7418V16.3398C72.4883 18.7033 74.4473 20.6366 76.8424 20.6366H82.7607C82.9647 20.6366 83.1312 20.4723 83.1312 20.271V4.29139C83.1312 4.09012 82.9647 3.92578 82.7607 3.92578H81.0842C80.8784 3.92578 80.7118 4.09012 80.7118 4.29139ZM80.7118 18.2472H76.8424C75.7777 18.2472 74.9076 17.3886 74.9076 16.338V13.7418C74.9076 12.6911 75.7777 11.8325 76.8424 11.8325H80.7118V18.2472Z" fill="#fff"/>
<path d="M68.1394 9.81092V18.2476H65.2448C64.1558 18.2236 63.3101 17.4351 63.3101 16.3623V9.81092C63.3101 9.60965 63.1435 9.44531 62.9396 9.44531H61.2631C61.0591 9.44531 60.8926 9.60965 60.8926 9.81092V16.3623C60.8926 18.7221 62.8311 20.6351 65.2223 20.6351H68.1394V22.3173C68.1394 23.3919 67.0804 24.1785 65.9914 24.2025H63.6862C63.4822 24.2025 63.3157 24.3669 63.3157 24.5681V26.2226C63.3157 26.4239 63.4822 26.5882 63.6862 26.5882H65.9914C68.5024 26.5882 70.5569 24.5608 70.5569 22.0828V9.81092C70.5569 9.60965 70.3904 9.44531 70.1864 9.44531H68.5099C68.3059 9.44531 68.1394 9.60965 68.1394 9.81092Z" fill="#fff"/>
<path d="M95.6462 9.44531H93.7115C93.7003 9.44531 93.6909 9.44716 93.6797 9.44716C91.2753 9.46378 89.3574 11.3417 89.3574 13.7181V13.7421V16.3401V16.3641C89.3574 18.7517 91.2922 20.6369 93.7115 20.6369H95.6462C95.6575 20.6369 95.6668 20.6351 95.6781 20.6351C98.0824 20.6185 100 18.7406 100 16.3641V16.3401V13.7421V13.7181C100 11.3306 98.0656 9.44531 95.6462 9.44531ZM97.581 16.3457C97.5772 17.4111 96.739 18.2402 95.6593 18.2476C95.6556 18.2476 95.65 18.2476 95.6462 18.2476H93.7115C93.7115 18.2476 93.7115 18.2476 93.7096 18.2476C93.2325 18.2365 92.8021 18.0795 92.4691 17.8155C92.0425 17.4684 91.7768 16.9421 91.7768 16.3383V13.7347C91.7805 12.6693 92.6188 11.8402 93.6984 11.8328C93.7022 11.8328 93.7078 11.8328 93.7115 11.8328H95.6462C95.6462 11.8328 95.6462 11.8328 95.6481 11.8328C96.1253 11.8439 96.5556 12.0009 96.8887 12.2649C97.3153 12.6121 97.581 13.1383 97.581 13.7421V16.3457V16.3457Z" fill="#fff"/>
<path d="M51.7345 3.92578H50.058C49.854 3.92578 49.6875 4.09012 49.6875 4.29139V20.2691C49.6875 20.4704 49.854 20.6348 50.058 20.6348H51.7345C51.9385 20.6348 52.105 20.4704 52.105 20.2691V4.29139C52.105 4.09012 51.9385 3.92578 51.7345 3.92578Z" fill="#fff"/>
<path d="M56.1123 15.0402L59.4074 9.89401C59.5328 9.69828 59.3905 9.44531 59.1567 9.44531H57.1115C56.9356 9.44531 56.7728 9.5321 56.6755 9.67797L53.635 14.2924C53.5807 14.3755 53.5508 14.4733 53.5508 14.5712V15.5111C53.5508 15.6108 53.5807 15.7068 53.635 15.7899L56.6755 20.4024C56.771 20.5483 56.9356 20.6351 57.1115 20.6351H59.1398C59.3812 20.6351 59.5271 20.3729 59.398 20.1716L56.1123 15.0402Z" fill="#fff"/>
<path d="M0.779297 23.595C0.779297 25.0519 1.75976 26.0582 3.16871 26.3721C3.35583 26.4127 3.87225 26.59 7.11116 26.59C10.0694 26.59 26.9544 26.59 26.9544 26.59V9.62988C1.7897 17.0694 0.779297 22.1141 0.779297 23.595Z" fill="#fff"/>
<path d="M0 13.2948C24.7455 8.54191 30.0782 5.65583 30.0782 3.9312C30.0782 2.47062 26.9553 2.057 26.9553 2.057V0H0V13.2948Z" fill="#fff"/>
</g>
<defs>
<clipPath id="clip0">
<rect width="100" height="26.5896" fill="white"/>
</clipPath>
</defs>
</svg>
