<svg width="78" height="25" viewBox="0 0 78 25" fill="none" xmlns="http://www.w3.org/2000/svg">
<path fill-rule="evenodd" clip-rule="evenodd" d="M22.1758 16.8716C22.2164 16.971 22.257 17.0704 22.2976 17.1671C22.6144 18.0617 22.7118 18.908 22.5169 19.7543C22.2489 21.5435 21.0549 23.091 19.3492 23.768C18.7401 24.0339 18.0578 24.1548 17.3755 24.1548C16.2947 24.1251 15.2388 23.8258 14.3053 23.2844C13.3306 22.7283 12.356 21.9304 11.2838 20.7698C10.2117 21.9304 9.2614 22.7283 8.26236 23.2844C7.45826 23.7438 6.62979 24.0098 5.82568 24.1065C4.94173 24.2262 4.04158 24.1094 3.21844 23.768C1.53714 23.091 0.318798 21.5677 0.0507641 19.7543C-0.0710697 18.8838 0.0263973 18.0375 0.343165 17.1429C0.464999 16.8286 0.586833 16.5384 0.708666 16.2725C0.797512 16.0741 0.886357 15.8808 0.972895 15.6925L0.973007 15.6922L0.973029 15.6922L0.973036 15.6922C1.07632 15.4674 1.17632 15.2498 1.2691 15.0393L1.29347 14.991C2.97477 11.3641 4.80228 7.68893 6.67852 4.06207L6.75162 3.917C6.94656 3.55432 7.14149 3.16745 7.33642 2.78059C7.58009 2.34536 7.84812 1.88596 8.21363 1.45074C9.01773 0.531938 10.1142 0 11.3326 0C12.5265 0 13.6474 0.531938 14.4271 1.4991C14.7867 1.90045 15.0219 2.32235 15.2474 2.7269L15.3044 2.82895L15.3044 2.82904C15.4993 3.21587 15.6942 3.6027 15.8892 3.96536L15.9623 4.11043C17.8629 7.73729 19.666 11.4125 21.3473 15.0393L21.3717 15.0635C21.4645 15.274 21.5645 15.4916 21.6677 15.7164L21.6678 15.7166C21.7544 15.9049 21.8433 16.0983 21.9321 16.2967C22.0133 16.474 22.0946 16.6728 22.1758 16.8716ZM41.1087 6.06891C41.1087 6.93935 40.4021 7.64055 39.5249 7.64055C38.6477 7.64055 37.9411 6.93935 37.9411 6.06891C37.9411 5.19847 38.6233 4.49727 39.5249 4.49727C40.4265 4.52145 41.1087 5.22264 41.1087 6.06891ZM34.5785 9.23635V9.62321C34.5785 9.62321 33.8231 8.65605 32.2149 8.65605C29.5589 8.65605 27.4877 10.6629 27.4877 13.4435C27.4877 16.1999 29.5345 18.2309 32.2149 18.2309C33.8475 18.2309 34.5785 17.2396 34.5785 17.2396V17.6506C34.5785 17.8441 34.7247 17.9892 34.9196 17.9892H36.8933V8.89784H34.9196C34.7247 8.89784 34.5785 9.0671 34.5785 9.23635ZM32.6048 16.0549C33.3852 16.0593 34.1199 15.6902 34.5785 15.0635V11.8235C34.2373 11.3158 33.4576 10.8322 32.6048 10.8322C31.0453 10.8322 29.8513 11.7994 29.8513 13.4435C29.8513 15.0877 31.0453 16.0549 32.6048 16.0549ZM38.3553 8.89784H40.6945V17.9891H38.3553V8.89784ZM70.9337 9.62327C70.9337 9.62327 71.689 8.65611 73.2972 8.65611C75.9288 8.65611 78 10.6871 78 13.4436C78 16.2 75.9288 18.231 73.2729 18.231C71.6647 18.231 70.9093 17.2397 70.9093 17.2397V17.6507C70.9093 17.82 70.7631 17.9892 70.5682 17.9892H68.5944V4.5215H70.9337V9.62327ZM72.9073 16.0306C72.1256 16.0407 71.3883 15.6704 70.9336 15.0393V11.7993C71.2991 11.3157 72.0789 10.808 72.9073 10.808C74.4668 10.808 75.6608 11.7751 75.6608 13.4193C75.6608 15.0635 74.4668 16.0306 72.9073 16.0306ZM67.3761 18.0133V12.5972C67.3761 11.074 67.0593 10.2035 66.2309 9.5265C65.5486 8.9462 64.6958 8.65605 63.6724 8.65605C62.7708 8.65605 61.8692 8.92202 61.187 9.62321V9.23635C61.187 9.0671 61.0408 8.89784 60.8458 8.89784H58.9939V17.9892H61.3332V11.6543C61.7961 11.1223 62.5271 10.7596 63.2338 10.7596C64.5496 10.7596 65.0369 11.3641 65.0369 12.8632V18.0133H67.3761ZM53.3165 8.65611C51.7083 8.65611 50.9529 9.62327 50.9529 9.62327V4.5215H48.6137V17.9892H50.5874C50.7823 17.9892 50.9285 17.82 50.9285 17.6507V17.2397C50.9285 17.2397 51.6839 18.231 53.2921 18.231C55.9481 18.231 58.0193 16.2 58.0193 13.4436C58.0436 10.6871 55.9725 8.65611 53.3165 8.65611ZM50.9529 15.0393C51.4076 15.6704 52.1448 16.0407 52.9266 16.0306C54.4861 16.0306 55.6801 15.0635 55.6801 13.4193C55.6801 11.7751 54.4861 10.808 52.9266 10.808C52.0981 10.808 51.3184 11.3157 50.9529 11.7993V15.0393ZM46.5912 8.65605C47.2979 8.65605 47.6634 8.77695 47.6634 8.77695V10.9289C47.6634 10.9289 45.714 10.276 44.4957 11.6543V18.0133H42.1565V8.89784H44.1302C44.3251 8.89784 44.4713 9.0671 44.4713 9.23635V9.62321C44.9099 9.11545 45.8602 8.65605 46.5912 8.65605ZM11.3082 18.4244C9.99239 16.7802 9.13955 15.2328 8.84715 13.9271C8.72532 13.371 8.70095 12.8874 8.77405 12.4522C8.82279 12.0653 8.96899 11.7268 9.16392 11.4367C9.62689 10.7838 10.4066 10.3728 11.3082 10.3728C12.2098 10.3728 13.0139 10.7596 13.4525 11.4367C13.6608 11.7402 13.7943 12.088 13.8423 12.4522C13.9154 12.8874 13.8911 13.3952 13.7692 13.9271C13.4768 15.2086 12.624 16.756 11.3082 18.4244ZM18.8132 22.3897C20.0071 21.9062 20.86 20.8181 21.0305 19.5608C21.128 18.9321 21.0549 18.3277 20.86 17.699C20.8092 17.531 20.7348 17.3629 20.6533 17.1787C20.6175 17.0978 20.5804 17.0138 20.5432 16.9253C20.4457 16.7318 20.3544 16.5263 20.263 16.3208C20.1716 16.1153 20.0802 15.9098 19.9828 15.7163V15.6921C18.3015 12.0895 16.4983 8.41426 14.6464 4.81159L14.5733 4.66652C14.4759 4.48517 14.3784 4.29779 14.2809 4.1104C14.1835 3.92301 14.086 3.73563 13.9885 3.55428C13.7936 3.16742 13.5743 2.80473 13.3063 2.4904C12.7946 1.91011 12.1123 1.59578 11.3569 1.59578C10.6016 1.59578 9.91929 1.91011 9.40759 2.4904C9.13956 2.80473 8.92026 3.16742 8.72532 3.55428C8.62786 3.73562 8.53039 3.923 8.43293 4.11038C8.33546 4.29777 8.23799 4.48517 8.14052 4.66652L8.06742 4.81159C6.19118 8.39008 4.38804 12.0653 2.70674 15.668L2.68237 15.7163C2.48743 16.1274 2.2925 16.5384 2.12193 16.9253C2.08477 17.0138 2.0476 17.0978 2.01181 17.1787C1.9303 17.363 1.85597 17.531 1.80517 17.699C1.5615 18.376 1.51276 18.9805 1.58586 19.585C1.75643 20.8423 2.60927 21.9303 3.80324 22.4139C4.39167 22.6422 5.0272 22.7252 5.65511 22.6557C6.26428 22.5832 6.87345 22.3897 7.50698 22.027C8.38419 21.5435 9.28576 20.7939 10.2848 19.6817C8.70096 17.7232 7.70192 15.9098 7.33642 14.3139C7.14148 13.5886 7.11712 12.8874 7.21458 12.2587C7.31205 11.6543 7.53135 11.0981 7.87249 10.6146C8.62786 9.55068 9.89493 8.89784 11.3082 8.89784C12.7215 8.89784 13.9885 9.5265 14.7439 10.6146C15.085 11.0981 15.3043 11.6543 15.4018 12.2587C15.4749 12.8874 15.4505 13.5644 15.28 14.3139C14.9145 15.9098 13.9398 17.699 12.3316 19.6575C13.355 20.7697 14.2322 21.5193 15.1094 22.0029C15.7429 22.3656 16.3521 22.559 16.9613 22.6315C17.5948 22.7041 18.2284 22.6315 18.8132 22.3897Z" fill="#fff"/>
</svg>
