<svg width="140" height="40" viewBox="0 0 140 40" fill="none" xmlns="http://www.w3.org/2000/svg">
<g clip-path="url(#clip0)">
<path fill-rule="evenodd" clip-rule="evenodd" d="M57.2887 0.0564C56.8244 -0.0165624 56.3236 -0.0165624 55.8593 0.0464506C54.8942 0.248756 54.1381 0.852354 53.5577 1.62509C52.9574 2.46084 52.5495 3.42262 52.3604 4.43746C52.2311 5.01453 52.2344 5.64466 52.2377 6.24826C52.2377 6.36102 52.2377 6.47378 52.2377 6.58322C52.2278 8.01594 52.6954 9.4586 53.5245 10.6227C54.022 11.3125 54.7416 11.9426 55.5708 12.1881C56.6221 12.5263 57.8028 12.2809 58.6518 11.5845C59.9784 10.5033 60.582 8.86827 60.8672 7.23325C60.9269 6.50694 60.9401 5.72757 60.8539 5.00126C60.6218 3.7609 60.2072 2.40115 59.3648 1.42942C58.8242 0.776075 58.1311 0.248756 57.2887 0.0564ZM69.9809 1.59524C69.1584 1.02813 68.1634 0.772759 67.205 1.15747C65.9679 1.62841 65.0493 2.69631 64.3329 3.76753C63.915 4.43083 63.5071 5.16709 63.3446 5.93983C63.2749 6.4771 63.2783 7.02431 63.2816 7.56821C63.2816 7.73404 63.2816 7.90318 63.2816 8.069C63.2849 8.18508 63.2849 8.30116 63.2882 8.42055C63.2948 8.93792 63.2982 9.48182 63.4673 9.94944C63.8387 10.9842 64.4722 11.8995 65.497 12.3672C66.3725 12.8182 67.2812 12.7917 68.2364 12.7054C69.092 12.5131 69.8913 12.0222 70.4916 11.3888C71.5396 10.3275 72.1863 8.92465 72.5047 7.48199C72.5743 6.84191 72.5777 6.05259 72.508 5.41251C72.1797 3.89356 71.2477 2.49733 69.9809 1.59524ZM46.6793 9.22977C47.3857 9.17007 48.0656 9.15017 48.7289 9.44202C50.2047 10.0423 51.2992 11.412 51.8928 12.8547C52.1515 13.4284 52.1482 14.0619 52.1448 14.6887C52.1448 14.8678 52.1415 15.0502 52.1482 15.226C52.1449 15.405 52.1448 15.5875 52.1448 15.7732C52.1482 16.3668 52.1515 16.9837 51.9989 17.5409C51.6772 18.5955 51.203 19.5639 50.3108 20.2504C49.4121 20.9767 48.3143 21.1857 47.1834 21.1226C45.7606 21.1591 44.5999 20.1874 43.8901 19.0366C43.0677 17.5807 42.6763 15.9158 43.0245 14.2575C43.2799 13.1233 43.5784 11.936 44.2516 10.9742C44.8121 10.1418 45.6711 9.39559 46.6793 9.22977ZM75.851 12.1847C75.1678 12.0322 74.4481 12.0222 73.765 12.1615C72.5146 12.3672 71.4799 13.2692 71.009 14.4267C70.6674 15.2757 70.4385 16.1977 70.3689 17.1064C70.3689 17.1694 70.3656 17.2291 70.3656 17.2921C70.3225 18.884 70.2827 20.3532 71.009 21.8357C71.6126 23.0031 72.9458 23.6001 74.1961 23.7526C75.264 23.8223 76.2722 23.8621 77.2539 23.3745C78.0697 22.9799 78.6833 22.3199 79.0282 21.4808C79.592 20.2106 79.6948 18.8907 79.6517 17.5176C79.6616 16.4099 79.3333 15.3354 78.7861 14.3769C78.1593 13.2991 77.0847 12.4401 75.851 12.1847Z" fill="#fff"/>
<path fill-rule="evenodd" clip-rule="evenodd" d="M65.9115 18.6386C64.9332 17.4779 63.6165 16.6255 62.1307 16.2972C60.0182 15.9257 57.826 16.7748 56.37 18.3169C55.9289 18.7514 55.6139 19.2455 55.2955 19.743C55.0998 20.0481 54.9008 20.3566 54.672 20.655C53.5444 22.2038 52.1515 23.4575 50.7055 24.6912C50.3075 25.0726 49.8764 25.4075 49.4452 25.7425C48.971 26.1106 48.4967 26.4788 48.0689 26.9099C46.9347 27.9878 45.9397 29.3939 45.5716 30.9328C45.0675 32.8132 45.5484 34.959 46.4969 36.6272C47.4686 38.3849 49.3524 39.5689 51.3721 39.5888C51.6507 39.5888 51.9293 39.5921 52.2112 39.5954C53.3454 39.6087 54.4962 39.622 55.6072 39.4595C56.3667 39.4031 57.0997 39.2439 57.8359 39.0847C58.2969 38.9852 58.7612 38.8857 59.2288 38.8094C60.0281 38.7464 60.834 38.7564 61.6366 38.763C61.8654 38.7663 62.091 38.7696 62.3198 38.7696C63.2816 38.7729 64.1306 39.015 65.0028 39.2605C65.361 39.36 65.7225 39.4628 66.0973 39.5523C68.1933 40.0034 70.3324 40.2222 72.435 39.675C74.0004 39.287 75.3867 38.1793 76.0367 36.6968C76.7531 35.1646 77.1511 33.3173 76.8062 31.6425C76.637 30.6277 76.1628 29.656 75.5625 28.8268C75.1545 28.273 74.667 27.8816 74.1563 27.477C73.9275 27.2946 73.6953 27.1089 73.4631 26.9066C72.1498 25.7989 70.9493 24.5817 69.7421 23.3613C69.6492 23.2651 69.553 23.1722 69.4602 23.0761C68.7736 22.3862 68.1734 21.6433 67.5698 20.8839C67.321 20.5688 67.0922 20.2438 66.8667 19.9155C66.5682 19.4777 66.2631 19.0432 65.9115 18.6386ZM59.9352 29.4536C59.9386 27.1752 59.9386 24.8968 59.9253 22.6184C59.6666 22.6184 59.4112 22.6151 59.1526 22.6151C58.5257 22.6084 57.9022 22.6051 57.2787 22.6317C57.2456 23.3646 57.2522 24.0975 57.2555 24.8338C57.2588 25.3081 57.2622 25.7823 57.2555 26.2533C56.8973 26.2698 56.5392 26.2665 56.181 26.2632C55.6139 26.2566 55.0501 26.2532 54.4896 26.3262C52.1382 26.4323 50.0953 28.6875 50.1052 31.0157C50.0787 31.9742 50.2279 32.9791 50.6259 33.8612C51.2361 35.1182 52.4135 35.8445 53.7036 36.2624C54.0452 36.3751 54.3768 36.3751 54.7284 36.3751C54.7781 36.3751 54.8312 36.3751 54.8809 36.3751C56.2473 36.3652 57.6104 36.3718 58.9735 36.3751H59.3449C59.4046 36.3685 59.461 36.3685 59.5174 36.3685C59.6699 36.3685 59.8092 36.3685 59.9021 36.206C59.9452 35.9606 59.9419 35.7085 59.9386 35.4565C59.9386 35.3736 59.9352 35.294 59.9386 35.211C59.9319 33.2908 59.9319 31.3706 59.9352 29.4536ZM57.2389 28.5483C56.632 28.5383 56.0251 28.5317 55.4149 28.535C54.599 28.5217 53.7799 28.9628 53.3554 29.6626C53.0005 30.2363 52.8645 30.893 52.8944 31.5629C52.8745 32.7303 53.7003 33.8745 54.8876 34.047C55.448 34.0868 56.0118 34.0768 56.5756 34.0669C56.7979 34.0635 57.0234 34.0602 57.2456 34.0569L57.2489 33.5429C57.2555 31.878 57.2655 30.2131 57.2389 28.5483ZM61.2917 26.6413C61.6532 26.6446 62.0147 26.6413 62.3762 26.638C62.9002 26.6346 63.4242 26.628 63.9449 26.638C63.988 27.8783 63.9813 29.1187 63.9747 30.359C63.9714 31.2512 63.9648 32.1433 63.9813 33.0321C63.9515 33.6125 64.5286 33.8314 65.0061 33.8944C65.6164 33.9243 66.2266 33.9143 66.8368 33.9044C67.0988 33.901 67.3575 33.8977 67.6195 33.8977C67.6328 32.7635 67.6295 31.6293 67.6295 30.4917C67.6261 29.2082 67.6228 27.9214 67.6427 26.638C67.8716 26.638 68.0971 26.638 68.3259 26.638C69.0058 26.638 69.689 26.6346 70.3689 26.6479C70.3755 29.8848 70.3755 33.1184 70.3689 36.3552C69.6459 36.3552 68.9196 36.3552 68.1933 36.3552C66.9496 36.3552 65.7059 36.3552 64.4655 36.3619C64.1538 36.3619 63.8553 36.3552 63.5568 36.2458C62.7012 35.9506 61.8588 35.3968 61.4343 34.5743C61.2685 34.2791 61.2685 33.9044 61.2718 33.5561C61.2718 33.4765 61.2718 33.3969 61.2685 33.3207C61.2784 32.3788 61.2751 31.4369 61.2718 30.495C61.2718 29.2082 61.2685 27.9248 61.2917 26.6413Z" fill="#fff"/>
<path fill-rule="evenodd" clip-rule="evenodd" d="M6.34442 18.2406C4.23182 18.2373 2.11923 18.234 0.00994942 18.2539C0.00994942 19.3782 0.00663295 20.5058 0.00663295 21.6301C0 27.4836 -0.00663295 33.3372 0.0132659 39.1908C4.12901 39.1974 8.24807 39.1974 12.3638 39.1908C13.2626 39.214 14.1149 39.0084 14.9739 38.7663C16.5658 38.302 18.0217 36.9389 18.3733 35.2873C18.5557 34.5146 18.7049 33.7087 18.5524 32.916C18.3998 31.9277 18.108 30.9991 17.4612 30.2164C16.9439 29.583 16.2574 29.1585 15.5609 28.7505C15.667 28.6477 15.7765 28.5449 15.8892 28.4421C16.3701 27.9977 16.8742 27.5334 17.1495 26.9596C17.4579 26.3328 17.6934 25.6496 17.7995 24.9598C17.8559 24.333 17.8592 23.6664 17.7962 23.0396C17.5939 21.9352 17.1296 20.8341 16.2806 20.0713C15.2923 19.0996 14.042 18.7149 12.7353 18.3865C12.1648 18.2406 11.5413 18.2406 10.9344 18.2406C10.7785 18.2406 10.6227 18.2406 10.4668 18.2373C9.09377 18.2406 7.72075 18.2406 6.34773 18.2373H6.34442V18.2406ZM4.61653 22.4194C4.83542 22.3133 5.06757 22.3099 5.30636 22.3099C5.35942 22.3099 5.41249 22.3099 5.46555 22.3066C6.81536 22.3166 8.16848 22.3133 9.51828 22.3133H9.53155C10.1617 22.3133 10.7951 22.3133 11.4253 22.3133C12.1184 22.3066 12.911 22.5952 13.309 23.1855C13.7866 23.935 13.6407 24.93 13.1996 25.6596C12.6092 26.4821 11.7072 26.6943 10.7454 26.7308C9.87646 26.7308 9.00755 26.7308 8.13863 26.7308C6.98118 26.7308 5.82041 26.7308 4.66296 26.7341C4.58668 26.1968 4.59332 25.6364 4.59995 25.0825C4.60327 24.8537 4.60327 24.6282 4.60327 24.4026C4.60658 24.1572 4.60327 23.9118 4.59995 23.6664C4.59 23.2518 4.58337 22.8339 4.61653 22.4194ZM7.80698 30.7205C8.51671 30.7238 9.22312 30.7272 9.92953 30.7205C10.6625 30.6973 11.3954 30.7437 12.1184 30.8664C12.8878 31.0588 13.6009 31.679 13.8562 32.4351C14.0254 33.1283 13.8065 33.9143 13.3554 34.4615C13.0039 34.8562 12.4699 35.1082 11.9658 35.2409C11.0074 35.3802 10.0622 35.3769 9.10372 35.3702C8.83841 35.3669 8.57309 35.3669 8.30777 35.3669C7.92306 35.3603 7.53835 35.3636 7.15695 35.3669C6.30462 35.3735 5.45892 35.3835 4.60327 35.2807C4.59 34.6207 4.59332 33.9607 4.59332 33.2974C4.59332 32.8066 4.59663 32.3157 4.59 31.8282C4.59 31.7652 4.59 31.6989 4.59 31.6359C4.59 31.3374 4.58668 31.0356 4.63643 30.7471C5.69439 30.7073 6.74903 30.7139 7.80698 30.7205ZM36.9754 18.3733C38.4247 18.3633 39.874 18.36 41.32 18.3733L41.3233 18.8674C41.3266 19.9685 41.3299 21.0729 41.3133 22.174C39.8707 22.1806 38.428 22.1773 36.982 22.174C36.9654 21.2818 36.9687 20.393 36.9721 19.5009C36.9754 19.1294 36.9754 18.7514 36.9754 18.3733ZM107.268 18.6585H108.707C111.583 18.6585 114.461 18.6618 117.337 18.6552C117.423 19.1361 117.46 19.5937 117.446 20.0846C117.44 20.3764 117.443 20.6616 117.446 20.9435C117.453 21.5903 117.463 22.2171 117.344 22.8737C113.901 22.8704 110.445 22.8704 106.999 22.8704H106.996C106.406 22.9069 105.693 22.9467 105.179 23.2717C104.529 23.6896 104.426 24.6878 104.963 25.2351C105.414 25.7359 106.207 25.9382 106.857 25.9547C107.756 25.9581 108.654 25.9581 109.556 25.9581C110.326 25.9581 111.099 25.9547 111.871 25.9581C112.438 25.9581 113.009 26.0974 113.556 26.2333C114.518 26.5152 115.483 26.9165 116.246 27.5831C117.46 28.6179 118.206 30.2264 118.156 31.8282C118.156 31.9509 118.156 32.0736 118.156 32.1964V32.1997C118.156 32.7436 118.159 33.2643 118.03 33.8082C117.795 35.0817 117.184 36.269 116.176 37.1014C114.916 38.1494 113.215 38.627 111.596 38.6436C109.964 38.6403 108.336 38.6403 106.708 38.6403C104.751 38.6403 102.794 38.6403 100.837 38.6369C100.735 38.0665 100.741 37.5093 100.748 36.9323C100.751 36.6769 100.755 36.4182 100.748 36.1529C100.751 35.997 100.748 35.8378 100.745 35.6786C100.738 35.357 100.731 35.0319 100.784 34.7202C100.837 34.4118 101.119 34.3852 101.381 34.362C101.408 34.3587 101.431 34.3587 101.458 34.3554C102.781 34.3521 104.101 34.3554 105.424 34.3554C107.573 34.3587 109.722 34.3587 111.871 34.3487C112.485 34.3653 113.248 34.1464 113.619 33.6224C113.991 32.9923 114.037 32.1532 113.901 31.4501C113.685 30.7172 113.029 30.4287 112.336 30.2993C112.23 30.2861 112.127 30.2761 112.021 30.2628C111.609 30.2131 111.198 30.1634 110.787 30.1634C110.23 30.16 109.673 30.1634 109.115 30.1634C108.203 30.1667 107.291 30.17 106.379 30.1534C104.943 30.0241 103.544 29.5332 102.396 28.6477C101.521 28.0176 100.92 27.0989 100.605 26.0741C100.416 25.5203 100.426 24.8835 100.436 24.2733C100.439 24.0909 100.443 23.9085 100.439 23.7327C100.423 22.8837 100.774 22.0413 101.209 21.3283C101.842 20.2736 102.983 19.5274 104.121 19.1162C105.132 18.7878 106.21 18.6353 107.268 18.6585ZM83.343 18.6585C82.8522 18.6552 82.3613 18.6552 81.8705 18.6618C81.5488 18.6552 81.5455 18.8243 81.5355 19.0664L81.5322 19.1228C81.5388 21.378 81.5355 23.6365 81.5355 25.8984V25.9216C81.5355 27.351 81.5355 28.7804 81.5355 30.2098C81.4792 31.9078 81.7843 33.7252 82.6034 35.2309C83.3165 36.6238 84.527 37.7581 85.9663 38.3749C88.7157 39.4926 91.8763 39.476 94.5892 38.2622C95.9125 37.6619 96.9372 36.6272 97.6403 35.3669C98.4263 34.0071 98.6817 32.4385 98.8144 30.8963C98.821 28.9694 98.8177 27.0425 98.8177 25.1157C98.8177 23.5735 98.8177 22.0314 98.8177 20.4925C98.8177 20.393 98.8177 20.2902 98.821 20.1907C98.8276 19.6767 98.831 19.1692 98.7215 18.6552C97.4016 18.6651 96.0849 18.6651 94.7649 18.6552C94.6953 18.9935 94.6489 19.3317 94.6522 19.6767C94.6588 21.7262 94.6588 23.7791 94.6588 25.8287C94.6588 27.4239 94.6588 29.0192 94.6621 30.6144C94.7119 32.2196 94.0652 33.9872 92.4899 34.6472C91.5447 35.0253 90.4668 35.1381 89.4586 35.0187C88.5432 34.9523 87.535 34.6704 86.8784 33.9939C86.036 33.188 85.6679 31.8879 85.6115 30.7537C85.6082 27.2482 85.6082 23.7228 85.6115 20.2206C85.6115 20.1443 85.6115 20.0647 85.6115 19.9884C85.6115 19.9254 85.6115 19.8624 85.6148 19.8027C85.6181 19.4909 85.6214 19.1759 85.5949 18.8674C85.4722 18.6419 85.2997 18.6519 85.1041 18.6618C85.0278 18.6651 84.9515 18.6684 84.8686 18.6618C84.3578 18.6618 83.8504 18.6585 83.343 18.6585ZM128.53 18.6585C128.288 18.6519 128.042 18.6452 127.79 18.6121C127.177 18.5325 126.5 18.5557 125.907 18.7348C125.555 19.4379 125.257 20.1741 124.958 20.9137C124.776 21.3681 124.593 21.8224 124.398 22.2701C123.499 24.4126 122.61 26.5583 121.725 28.7041C120.829 30.8698 119.937 33.0354 119.028 35.1978C118.869 35.6123 118.69 36.0236 118.514 36.4381C118.202 37.1578 117.891 37.8808 117.675 38.6237C118.786 38.6469 119.897 38.6403 121.005 38.6369C121.406 38.6369 121.807 38.6336 122.209 38.6336C122.448 38.0599 122.673 37.4828 122.899 36.9024C123.237 36.0368 123.575 35.1679 123.96 34.3189C125.476 34.3089 126.991 34.3089 128.507 34.3123C129.893 34.3123 131.279 34.3156 132.662 34.3056H132.709C132.894 34.3056 133.083 34.3089 133.266 34.3355C133.435 34.425 133.541 34.6439 133.627 34.8296L133.651 34.8761C133.664 34.9059 133.677 34.9324 133.69 34.9557C133.85 35.3271 134.015 35.6985 134.181 36.0667C134.394 36.5409 134.609 37.0152 134.805 37.4961C134.838 37.5657 134.871 37.642 134.904 37.7216C135.047 38.0532 135.206 38.4313 135.495 38.6071C136.39 38.6469 137.292 38.6403 138.194 38.6336C138.725 38.6303 139.259 38.6237 139.789 38.6303C139.703 37.9902 139.425 37.3966 139.146 36.7996C139.047 36.5874 138.947 36.3784 138.857 36.1629C137.68 33.3671 136.47 30.5845 135.259 27.7987C134.37 25.7524 133.478 23.7029 132.603 21.65C132.344 21.0596 132.006 20.4892 131.628 19.9685C131.15 19.3152 130.427 18.9205 129.641 18.7646C129.263 18.6784 128.901 18.6684 128.53 18.6585ZM129.764 25.8586C129.406 25.0029 129.051 24.1473 128.606 23.3447C128.248 23.9184 127.993 24.5585 127.741 25.2019C127.605 25.5435 127.469 25.8851 127.316 26.2201C127.12 26.6943 126.918 27.1686 126.719 27.6428C126.404 28.389 126.086 29.1386 125.781 29.8914C126.179 29.9975 126.57 30.0241 126.981 30.0141C127.615 30.0075 128.251 30.0075 128.888 30.0108C129.747 30.0141 130.609 30.0141 131.468 29.9975C131.299 29.4039 131.047 28.8368 130.795 28.2663C130.653 27.9479 130.513 27.6296 130.387 27.3045C130.168 26.827 129.966 26.3428 129.764 25.8586ZM40.189 23.8057C39.5987 23.809 39.0084 23.8123 38.418 23.8057C38.3617 23.8057 38.302 23.8057 38.2456 23.8057C38.2157 23.8057 38.1826 23.8057 38.1527 23.8057C37.7614 23.8024 37.3866 23.799 36.9986 23.8952C36.8693 24.469 36.8792 25.0129 36.8858 25.5767C36.8891 25.769 36.8925 25.9647 36.8892 26.1604C36.8858 27.7821 36.8892 29.4072 36.8892 31.029C36.8892 33.2775 36.8925 35.5228 36.8858 37.7713C36.8891 37.8576 36.8858 37.9438 36.8858 38.0267C36.8825 38.3351 36.8792 38.6204 37.0616 38.9056C37.9836 38.9321 38.9089 38.9255 39.8342 38.9188C40.3316 38.9155 40.8258 38.9122 41.32 38.9155C41.3332 36.3386 41.3299 33.765 41.3299 31.1881C41.3299 28.9694 41.3266 26.7507 41.3332 24.532C41.3332 24.3496 41.3266 24.1705 41.3034 23.9914C41.1508 23.799 40.975 23.8023 40.7727 23.8023C40.713 23.8023 40.65 23.8024 40.5837 23.799L40.189 23.8057ZM25.5534 23.9085H25.5568C26.7838 23.9085 28.0076 23.9118 29.2347 23.9085C29.2812 23.9085 29.3309 23.9085 29.3773 23.9085C29.4039 23.9085 29.4337 23.9085 29.4602 23.9085C30.034 23.9085 30.5845 23.9085 31.1384 24.1207C32.2129 24.5187 33.2676 25.1356 33.9342 26.0907C34.3918 26.7341 34.8727 27.4903 34.8495 28.3094C34.8495 29.7256 34.8495 31.145 34.8495 32.5612C34.8495 34.687 34.8495 36.8129 34.8462 38.9354C32.6009 38.9454 30.3524 38.9454 28.1071 38.9421C26.5451 38.9421 24.983 38.9387 23.4176 38.9421C21.975 39.0051 20.6218 37.977 19.8856 36.8029C19.345 35.9572 19.3914 35.0319 19.4379 34.0768C19.4445 33.9375 19.4511 33.8015 19.4578 33.6622C19.8392 32.0537 20.9203 30.6144 22.489 30.0108C22.8339 29.8682 23.1888 29.8582 23.5536 29.8582C25.6529 29.8649 27.7523 29.8616 29.8516 29.8582H30.6409C30.6442 29.7621 30.6475 29.6659 30.6542 29.5697C30.6708 29.185 30.6907 28.7903 30.631 28.4156C30.4685 27.9048 29.8914 27.5334 29.4403 27.2979C28.9595 27.0459 28.4753 27.0094 27.9579 26.9696C27.8451 26.9596 27.729 26.953 27.613 26.9397C26.5981 26.9364 25.5866 26.9364 24.5718 26.9364C23.2618 26.9397 21.9517 26.9397 20.6451 26.9298C20.6451 26.5948 20.6451 26.2632 20.6451 25.9282V25.9249C20.6451 25.255 20.6417 24.585 20.6484 23.9151C22.2867 23.9085 23.9217 23.9085 25.5534 23.9085ZM25.3147 32.8331H30.7636C30.7636 32.9459 30.7636 33.0653 30.7636 33.188C30.7636 33.4467 30.7636 33.7186 30.7636 33.9872C30.757 34.6041 30.7537 35.3271 30.7636 35.9473C30.7636 35.9473 29.9312 35.9539 29.5067 35.9473C28.7439 35.9407 27.9811 35.944 27.2183 35.944H27.215C26.4887 35.944 25.7624 35.9473 25.0361 35.944C24.3263 35.9506 23.6498 35.347 23.6166 34.6306C23.4541 33.7219 24.4026 32.7137 25.3147 32.8331Z" fill="#fff"/>
</g>
<defs>
<clipPath id="clip0">
<rect width="139.793" height="40" fill="white"/>
</clipPath>
</defs>
</svg>
