<svg width="88" height="24" viewBox="0 0 88 24" fill="none" xmlns="http://www.w3.org/2000/svg">
<path fill-rule="evenodd" clip-rule="evenodd" d="M49.7118 8.79665V10.003C49.5192 12.9968 45.4001 12.9124 45.4001 12.9124C41.0873 12.9124 41.1819 10.0773 41.1819 10.0773V8.59503H44.5374V9.61551C44.5374 10.4839 45.3742 10.5222 45.3742 10.5222C46.2911 10.5583 46.3677 9.67183 46.3677 9.67183C46.4927 8.80904 45.5443 8.26614 45.5443 8.26614C44.6049 7.78293 43.0393 6.93704 43.0393 6.93704C42.2677 6.43131 41.9546 5.97176 41.9546 5.97176C41.4005 5.27229 41.4365 4.18536 41.4365 4.18536V3.24372C41.4365 1.93941 41.7857 1.56658 41.7857 1.56658C42.6777 -0.111686 45.7854 0.0933109 45.7854 0.0933109C49.7366 0.201441 49.4944 2.66478 49.4944 2.66478L49.5001 4.16846H46.3508V3.14686C46.3508 2.42261 45.4722 2.3753 45.4722 2.3753C44.7975 2.3753 44.641 2.8326 44.641 2.8326C44.2682 3.5332 44.9057 4.13692 44.9057 4.13692C45.2312 4.49961 46.8689 5.2599 46.8689 5.2599C47.3994 5.4649 48.2555 5.99653 48.2555 5.99653C49.856 6.96182 49.7118 8.79665 49.7118 8.79665ZM32.1339 0.44586L31.0797 7.06882H30.833L29.826 0.505557H24.566L24.3024 12.4979H27.4168L27.4539 3.46224H27.6984L29.3496 12.4967H32.6262L34.2571 3.46562H34.4734L34.5488 12.4979H37.679L37.3422 0.44586H32.1339ZM13.5953 0.495419L11.5228 12.4843H14.8759L16.1025 3.18853H16.3785L17.6051 12.4843H20.9582L18.8857 0.495419H13.5953ZM83.9451 5.83096V7.59934H84.8057V9.49837C84.8057 10.4265 84.0138 10.4434 84.0138 10.4434C83.0519 10.4434 83.088 9.56145 83.088 9.56145V2.9948C83.088 2.31786 83.9417 2.28182 83.9417 2.28182C84.7617 2.28182 84.7674 3.08941 84.7674 3.08941V4.08736H87.9245C88.027 2.13877 87.6396 1.66683 87.6396 1.66683C86.8568 -0.0959167 83.8944 0.000949795 83.8944 0.000949795C79.3417 0.000949795 79.8474 3.50166 79.8474 3.50166V9.85092C79.9443 13.1342 84.4295 12.8008 84.5061 12.7963C86.5019 12.5756 87.1045 11.9403 87.1045 11.9403C87.6587 11.5281 87.8018 10.9559 87.8018 10.9559C87.9606 10.6225 88 9.56145 88 9.56145V5.83096H83.9451ZM73.4824 7.78293H73.345L70.1405 0.448113H66.3098V12.5001H69.4275L69.2417 5.16754H69.3802L72.6985 12.5001H76.4154V0.448113H73.2571L73.4824 7.78293ZM58.6934 9.49724C58.6934 9.49724 58.7396 10.4862 57.825 10.4862C57.825 10.4862 56.8619 10.538 56.8619 9.52203L56.8518 0.455997H53.431V9.44994C53.431 9.44994 53.0796 12.8538 57.8723 12.8538C57.8723 12.8538 62.0375 12.9033 62.0375 9.60537V0.455997H58.6934V9.49724ZM7.07254 5.99541C7.07254 5.99541 6.21764 5.4649 5.68713 5.2599C5.68713 5.2599 4.04941 4.49961 3.72502 4.13692C3.72502 4.13692 3.08637 3.5332 3.46032 2.83373C3.46032 2.83373 3.61576 2.3753 4.29045 2.3753C4.29045 2.3753 5.169 2.42261 5.169 3.14686V4.16846H8.31942L8.31379 2.66365C8.31379 2.66365 8.5537 0.201441 4.60357 0.0933109C4.60357 0.0933109 4.30622 0.0741628 3.86919 0.0955636C3.86919 0.0955636 1.47681 0.225094 0.621909 1.54068C0.616278 1.54969 0.609519 1.55757 0.605014 1.56658C0.605014 1.56658 0.255844 1.93941 0.255844 3.24372V4.18536C0.255844 4.18536 0.219801 5.27116 0.773967 5.97176C0.773967 5.97176 1.08709 6.43131 1.85752 6.93704C1.85752 6.93704 3.42315 7.78293 4.36253 8.26501C4.36253 8.26501 5.31205 8.80792 5.18703 9.67183C5.18703 9.67183 5.10931 10.5583 4.19358 10.5222C4.19358 10.5222 3.3567 10.4839 3.3567 9.61551V8.59391H0.000161492V10.0773C0.000161492 10.0773 -0.0933257 12.9124 4.21836 12.9124C4.21836 12.9124 8.33631 12.9968 8.53005 10.003V8.79665C8.53005 8.79665 8.67422 6.96182 7.07254 5.99541ZM4.12487 20.3677C4.12487 18.472 1.3394 18.775 1.3394 17.4854V17.2094C1.3394 16.7465 1.71335 16.4536 2.28216 16.4536C2.85209 16.4536 3.26096 16.7825 3.26096 17.3434V18.0733H4.0618V17.3434C4.0618 16.3736 3.33192 15.7688 2.28216 15.7688C1.23239 15.7688 0.502516 16.2937 0.502516 17.2105V17.5045C0.502516 19.4092 3.28799 19.1501 3.28799 20.4229V20.6808C3.28799 21.2057 2.85209 21.4726 2.28216 21.4726C1.71222 21.4726 1.2414 21.1787 1.2414 20.5828V19.8529H0.440566V20.5828C0.440566 21.5526 1.20536 22.1575 2.26413 22.1575C3.3139 22.1575 4.12375 21.6236 4.12375 20.6448V20.3677H4.12487ZM5.77048 18.1972H6.64228V17.6273H5.77048V16.7375H4.96964V17.6273H4.4808V18.1972H4.96964V21.0976C4.96964 21.9074 5.36949 22.1563 6.00138 22.1563C6.28635 22.1563 6.44629 22.1293 6.71324 22.0764L6.6603 21.4715C6.52739 21.5076 6.36632 21.5245 6.26044 21.5245C5.88649 21.5245 5.7716 21.3465 5.7716 20.9996V18.1972H5.77048ZM9.07182 17.5473C8.72491 17.5473 8.12906 17.7523 7.91506 18.3842L7.83508 17.6284H7.16828V22.0764H7.96912V19.247C7.96912 18.7221 8.34307 18.3571 9.07295 18.3571V17.5473H9.07182ZM9.57868 18.5261C9.89857 18.3752 10.3435 18.2062 10.7715 18.2062C11.1545 18.2062 11.5453 18.3222 11.5453 18.9271V19.399C9.63275 19.417 9.24078 20.0309 9.24078 20.7687V21.0266C9.24078 21.5425 9.53475 22.1563 10.4156 22.1563C10.7535 22.1563 11.2964 22.0403 11.5994 21.4625L11.6793 22.0764H12.3461V18.873C12.3461 17.8582 11.6613 17.5473 10.8605 17.5473C10.2466 17.5473 9.72173 17.7523 9.38382 17.9393L9.57868 18.5261ZM11.5453 20.4927C11.5453 21.2046 11.2074 21.5154 10.7174 21.5154C10.2365 21.5154 10.0416 21.2305 10.0416 20.8926V20.6527C10.0416 20.2438 10.2815 19.9048 11.5453 19.8789V20.4927ZM14.0818 18.1972H14.9536V17.6273H14.0818V16.7375H13.281V17.6273H12.7922V18.1972H13.281V21.0976C13.281 21.9074 13.6809 22.1563 14.3128 22.1563C14.5977 22.1563 14.7577 22.1293 15.0246 22.0764L14.9717 21.4715C14.8388 21.5076 14.6777 21.5245 14.5718 21.5245C14.1979 21.5245 14.083 21.3465 14.083 20.9996V18.1972H14.0818ZM18.3789 20.0478V18.9361C18.3789 17.9663 17.747 17.5484 16.9022 17.5484C16.0124 17.5484 15.3456 17.9843 15.3456 18.9541V20.7157C15.3456 21.7835 16.1014 22.1575 16.9383 22.1575C17.5882 22.1575 18.139 22.0155 18.4149 21.9266L18.3079 21.2947C17.97 21.4197 17.4632 21.5177 17.0712 21.5177C16.5643 21.5177 16.1453 21.3487 16.1453 20.6808V20.0489H18.3789V20.0478ZM17.6592 19.4959H16.1465V18.9181C16.1465 18.4371 16.4494 18.1623 16.9022 18.1623C17.3562 18.1623 17.658 18.4202 17.658 18.9012V19.4959H17.6592ZM22.0812 17.6273H21.4144L21.3254 18.2141C21.0405 17.7163 20.5336 17.5473 20.1867 17.5473C19.2879 17.5473 18.968 18.2062 18.968 18.8201V20.7326C18.968 21.3375 19.2879 21.9964 20.1867 21.9964C20.5336 21.9964 20.9965 21.8365 21.2815 21.3825V22.4774C21.2815 23.1442 20.8456 23.3052 20.3387 23.3052C19.9468 23.3052 19.485 23.2162 19.1459 23.0822L19.0479 23.7141C19.3149 23.8031 19.7958 23.945 20.4446 23.945C21.2984 23.945 22.0823 23.5981 22.0823 22.4852V17.6273H22.0812ZM21.2804 20.4387C21.2804 20.9455 20.9954 21.3645 20.4795 21.3645C19.9986 21.3645 19.7677 21.0176 19.7677 20.6166V18.935C19.7677 18.5351 19.9986 18.1871 20.4795 18.1871C20.9954 18.1871 21.2804 18.5959 21.2804 19.1129V20.4387ZM25.1866 17.6273L24.2787 21.1325L23.3089 17.6273H22.5081L23.8338 22.1203H23.9318L23.7448 22.7252C23.5939 23.161 23.4419 23.321 23.006 23.321C22.917 23.321 22.641 23.2849 22.4811 23.241L22.4191 23.8639C22.6861 23.9258 22.8911 23.9439 23.06 23.9439C23.7448 23.9439 24.1368 23.722 24.4657 22.6362L25.9694 17.6273H25.1866ZM31.4153 19.4339H32.2432V18.7581H30.6145V19.8529L29.2268 18.4653C28.9328 18.1454 28.7109 17.7624 28.7109 17.4065V17.2105C28.7109 16.7476 29.0849 16.4547 29.6537 16.4547C30.2236 16.4547 30.6145 16.7836 30.6145 17.3446V18.0744H31.3973V17.3446C31.3973 16.3748 30.7125 15.7699 29.6537 15.7699C28.6039 15.7699 27.8921 16.2948 27.8921 17.2116V17.4257C27.8921 17.9235 28.0971 18.3594 28.4699 18.7874C28.07 19.0814 27.758 19.4632 27.758 20.0951V20.584C27.758 21.5537 28.5319 22.1586 29.5906 22.1586C30.2754 22.1586 30.8364 21.9367 31.1472 21.5087L31.7172 22.0786H32.2421V21.4828L31.4142 20.6549V20.6459V19.4339H31.4153ZM28.5589 20.0917C28.5589 19.7358 28.7008 19.4779 28.9509 19.2729L30.5796 20.9185C30.4545 21.2834 30.0547 21.4704 29.5918 21.4704C29.0218 21.4704 28.56 21.1764 28.56 20.5806V20.0917H28.5589ZM34.4497 22.0764H35.2945V15.8476H34.4497V22.0764ZM39.2716 22.0764V18.8201C39.2716 18.2062 38.9427 17.5473 38.0439 17.5473C37.697 17.5473 37.1992 17.7163 36.9052 18.2141L36.8252 17.6273H36.1584V22.0764H36.9592V19.1129C36.9592 18.5971 37.2442 18.1871 37.7511 18.1871C38.2399 18.1871 38.4719 18.534 38.4719 18.935V22.0764H39.2716ZM43.1688 22.0764V18.8201C43.1688 18.2062 42.8399 17.5473 41.9411 17.5473C41.5942 17.5473 41.0963 17.7163 40.8024 18.2141L40.7224 17.6273H40.0556V22.0764H40.8564V19.1129C40.8564 18.5971 41.1414 18.1871 41.6483 18.1871C42.1371 18.1871 42.3691 18.534 42.3691 18.935V22.0764H43.1688ZM46.9511 18.953C46.9511 17.9832 46.2922 17.5473 45.4024 17.5473C44.5126 17.5473 43.8458 17.9832 43.8458 18.953V20.7507C43.8458 21.7204 44.5126 22.1563 45.4024 22.1563C46.2922 22.1563 46.9511 21.7204 46.9511 20.7507V18.953ZM44.6466 18.9181C44.6466 18.4371 44.9496 18.1623 45.4024 18.1623C45.8563 18.1623 46.1582 18.4382 46.1582 18.9181V20.7867C46.1582 21.2676 45.8552 21.5425 45.4024 21.5425C44.9485 21.5425 44.6466 21.2665 44.6466 20.7867V18.9181ZM49.9225 17.6273L48.9887 21.1595L48.0459 17.6273H47.2361L48.5708 22.1203H49.3536L50.7064 17.6273H49.9225ZM51.2042 18.5261C51.5241 18.3752 51.969 18.2062 52.3959 18.2062C52.7789 18.2062 53.1697 18.3222 53.1697 18.9271V19.399C51.2572 19.417 50.8652 20.0309 50.8652 20.7687V21.0266C50.8652 21.5425 51.1592 22.1563 52.04 22.1563C52.3779 22.1563 52.9208 22.0403 53.2238 21.4625L53.3038 22.0764H53.9706V18.873C53.9706 17.8582 53.2858 17.5473 52.4849 17.5473C51.871 17.5473 51.3462 17.7523 51.0083 17.9393L51.2042 18.5261ZM53.1709 20.4927C53.1709 21.2046 52.833 21.5154 52.343 21.5154C51.862 21.5154 51.6672 21.2305 51.6672 20.8926V20.6527C51.6672 20.2438 51.9071 19.9048 53.1709 19.8789V20.4927ZM55.7063 18.1972H56.5781V17.6273H55.7063V16.7375H54.9054V17.6273H54.4166V18.1972H54.9054V21.0976C54.9054 21.9074 55.3053 22.1563 55.9372 22.1563C56.2222 22.1563 56.3821 22.1293 56.649 22.0764L56.5961 21.4715C56.4632 21.5076 56.3021 21.5245 56.1963 21.5245C55.8223 21.5245 55.7074 21.3465 55.7074 20.9996V18.1972H55.7063ZM57.9049 15.8386H57.1041V17.0134H57.9049V15.8386ZM57.9049 17.6273H57.1041V22.0764H57.9049V17.6273ZM61.7131 18.953C61.7131 17.9832 61.0542 17.5473 60.1644 17.5473C59.2746 17.5473 58.6078 17.9832 58.6078 18.953V20.7507C58.6078 21.7204 59.2746 22.1563 60.1644 22.1563C61.0542 22.1563 61.7131 21.7204 61.7131 20.7507V18.953ZM59.4086 18.9181C59.4086 18.4371 59.7116 18.1623 60.1644 18.1623C60.6172 18.1623 60.9202 18.4382 60.9202 18.9181V20.7867C60.9202 21.2676 60.6172 21.5425 60.1644 21.5425C59.7116 21.5425 59.4086 21.2665 59.4086 20.7867V18.9181ZM65.5303 22.0764V18.8201C65.5303 18.2062 65.2015 17.5473 64.3026 17.5473C63.9557 17.5473 63.4579 17.7163 63.1639 18.2141L63.0839 17.6273H62.4171V22.0764H63.2179V19.1129C63.2179 18.5971 63.5029 18.1871 64.0098 18.1871C64.4986 18.1871 64.7306 18.534 64.7306 18.935V22.0764H65.5303ZM70.6463 19.8518V20.5817C70.6463 21.1775 70.1743 21.4715 69.6055 21.4715C69.0356 21.4715 68.5997 21.1775 68.5997 20.5817V17.3434C68.5997 16.7825 69.0356 16.4536 69.6055 16.4536C70.1754 16.4536 70.6463 16.7825 70.6463 17.3434V18.0733H71.4471V17.3434C71.4471 16.3736 70.6553 15.7688 69.6055 15.7688C68.5467 15.7688 67.7549 16.3736 67.7549 17.3434V20.5817C67.7549 21.5515 68.5467 22.1563 69.6055 22.1563C70.6553 22.1563 71.4471 21.5515 71.4471 20.5817V19.8518H70.6463ZM75.0604 20.0478V18.9361C75.0604 17.9663 74.4286 17.5484 73.5838 17.5484C72.694 17.5484 72.0272 17.9843 72.0272 18.9541V20.7157C72.0272 21.7835 72.7829 22.1575 73.6198 22.1575C74.2697 22.1575 74.8205 22.0155 75.0965 21.9266L74.9895 21.2947C74.6516 21.4197 74.1447 21.5177 73.7527 21.5177C73.2459 21.5177 72.8269 21.3487 72.8269 20.6808V20.0489H75.0604V20.0478ZM74.3396 19.4959H72.8269V18.9181C72.8269 18.4371 73.1299 18.1623 73.5827 18.1623C74.0355 18.1623 74.3384 18.4202 74.3384 18.9012V19.4959H74.3396ZM78.8596 22.0764V18.8201C78.8596 18.2062 78.5307 17.5473 77.6319 17.5473C77.285 17.5473 76.7871 17.7163 76.4932 18.2141L76.4132 17.6273H75.7464V22.0764H76.5472V19.1129C76.5472 18.5971 76.8322 18.1871 77.3391 18.1871C77.8279 18.1871 78.0599 18.534 78.0599 18.935V22.0764H78.8596ZM80.5773 18.1972H81.4491V17.6273H80.5773V16.7375H79.7765V17.6273H79.2876V18.1972H79.7765V21.0976C79.7765 21.9074 80.1763 22.1563 80.8082 22.1563C81.0932 22.1563 81.2531 22.1293 81.5201 22.0764L81.4671 21.4715C81.3342 21.5076 81.1732 21.5245 81.0673 21.5245C80.6933 21.5245 80.5785 21.3465 80.5785 20.9996V18.1972H80.5773ZM84.8744 20.0478V18.9361C84.8744 17.9663 84.2425 17.5484 83.3977 17.5484C82.5079 17.5484 81.8411 17.9843 81.8411 18.9541V20.7157C81.8411 21.7835 82.5969 22.1575 83.4338 22.1575C84.0837 22.1575 84.6344 22.0155 84.9104 21.9266L84.8034 21.2947C84.4655 21.4197 83.9586 21.5177 83.5667 21.5177C83.0598 21.5177 82.6408 21.3487 82.6408 20.6808V20.0489H84.8744V20.0478ZM84.1535 19.4959H82.6408V18.9181C82.6408 18.4371 82.9438 18.1623 83.3966 18.1623C83.8494 18.1623 84.1524 18.4202 84.1524 18.9012V19.4959H84.1535ZM87.4639 17.5473C87.1169 17.5473 86.5211 17.7523 86.3071 18.3842L86.2271 17.6284H85.5603V22.0764H86.3612V19.247C86.3612 18.7221 86.7351 18.3571 87.465 18.3571V17.5473H87.4639Z" fill="#fff"/>
</svg>
