<svg width="345" height="288" viewBox="0 0 345 288" fill="none" xmlns="http://www.w3.org/2000/svg">
<g clip-path="url(#clip0)">
<rect width="345" height="288" fill="#F6F5FA"/>
<g filter="url(#filter0_i)">
<path d="M225 0H345V288H225V0Z" fill="white"/>
</g>
<path d="M34.3721 32.0003H35.9218V23.7992H38.7744V22.4277H31.5195V23.7992H34.3721V32.0003Z" fill="black"/>
<path d="M41.0541 32.0003V27.4472C41.0541 26.7066 41.7124 26.3089 42.8918 26.3089H43.4815V24.8689H43.0838C41.9455 24.8689 41.3284 25.5134 41.1226 26.2403H41.0541V24.8689H39.5592V32.0003H41.0541Z" fill="black"/>
<path d="M50.7638 32.0003V30.7797H50.0095V27.2003C50.0095 25.6094 48.9809 24.7043 47.1432 24.7043C45.7581 24.7043 44.9215 25.294 44.4552 26.0894L45.3466 26.8986C45.7032 26.3363 46.2106 25.9249 47.0472 25.9249C48.0484 25.9249 48.5146 26.4323 48.5146 27.2963V27.8997H47.2255C45.2369 27.8997 44.1809 28.6266 44.1809 30.0392C44.1809 31.3283 45.0175 32.1649 46.4849 32.1649C47.5272 32.1649 48.2952 31.6986 48.5695 30.8072H48.6381C48.7341 31.5066 49.1455 32.0003 49.9272 32.0003H50.7638ZM46.9101 31.0266C46.1695 31.0266 45.7032 30.6974 45.7032 30.0666V29.8197C45.7032 29.2026 46.2106 28.8597 47.2529 28.8597H48.5146V29.8883C48.5146 30.5877 47.8289 31.0266 46.9101 31.0266Z" fill="black"/>
<path d="M53.7237 32.0003V27.2277C53.7237 26.3912 54.4917 25.9934 55.2734 25.9934C56.1923 25.9934 56.6174 26.5557 56.6174 27.6666V32.0003H58.1123V27.4746C58.1123 25.7192 57.2483 24.7043 55.7946 24.7043C54.6974 24.7043 54.094 25.2803 53.7923 26.0483H53.7237V24.8689H52.2289V32.0003H53.7237Z" fill="black"/>
<path d="M62.4471 32.1649C64.1614 32.1649 65.2722 31.246 65.2722 29.8746C65.2722 28.7226 64.5728 28.0369 63.0093 27.8037L62.3511 27.7214C61.5968 27.598 61.2539 27.3512 61.2539 26.8026C61.2539 26.2677 61.6379 25.9112 62.4608 25.9112C63.2288 25.9112 63.8322 26.2814 64.2025 26.7203L65.1214 25.8426C64.4768 25.1294 63.7499 24.7043 62.4608 24.7043C60.8974 24.7043 59.8139 25.5134 59.8139 26.8986C59.8139 28.2152 60.7054 28.846 62.1591 29.0243L62.8174 29.1066C63.5579 29.2026 63.8322 29.5454 63.8322 29.998C63.8322 30.6014 63.3934 30.958 62.5294 30.958C61.6791 30.958 61.0345 30.574 60.5134 29.9432L59.5534 30.8209C60.2254 31.6574 61.1031 32.1649 62.4471 32.1649Z" fill="black"/>
<path d="M69.7176 32.1649C71.089 32.1649 72.0627 31.5203 72.529 30.3546L71.3907 29.7512C71.089 30.4643 70.5816 30.9306 69.7176 30.9306C68.6204 30.9306 68.0581 30.1763 68.0581 29.0792V27.8037C68.0581 26.7066 68.6204 25.9523 69.7176 25.9523C70.5267 25.9523 71.0341 26.3774 71.2399 27.0357L72.4741 26.4597C72.049 25.4037 71.1439 24.7043 69.7176 24.7043C67.6604 24.7043 66.481 26.158 66.481 28.4346C66.481 30.7112 67.6604 32.1649 69.7176 32.1649Z" fill="black"/>
<path d="M75.4469 32.0003V27.4472C75.4469 26.7066 76.1052 26.3089 77.2846 26.3089H77.8744V24.8689H77.4766C76.3383 24.8689 75.7212 25.5134 75.5155 26.2403H75.4469V24.8689H73.9521V32.0003H75.4469Z" fill="black"/>
<path d="M79.9564 23.5934C80.5735 23.5934 80.8341 23.2643 80.8341 22.8117V22.5786C80.8341 22.126 80.5735 21.7969 79.9564 21.7969C79.3392 21.7969 79.0649 22.126 79.0649 22.5786V22.8117C79.0649 23.2643 79.3392 23.5934 79.9564 23.5934ZM79.2021 32.0003H80.6969V24.8689H79.2021V32.0003Z" fill="black"/>
<path d="M82.8315 32.0003H84.3264V30.8209H84.395C84.6967 31.6574 85.451 32.1649 86.3972 32.1649C88.1938 32.1649 89.2361 30.7797 89.2361 28.4346C89.2361 26.0894 88.1938 24.7043 86.3972 24.7043C85.451 24.7043 84.6967 25.198 84.395 26.0483H84.3264V21.8517H82.8315V32.0003ZM85.9447 30.8757C85.0395 30.8757 84.3264 30.382 84.3264 29.6552V27.214C84.3264 26.4872 85.0395 25.9934 85.9447 25.9934C86.9732 25.9934 87.659 26.7203 87.659 27.8174V29.0517C87.659 30.1489 86.9732 30.8757 85.9447 30.8757Z" fill="black"/>
<path d="M93.7453 32.1649C95.0756 32.1649 96.1179 31.5889 96.6527 30.7249L95.775 29.8609C95.3636 30.5192 94.7739 30.9306 93.8962 30.9306C92.6893 30.9306 92.0173 30.1489 92.0173 29.0517V28.8186H96.9133V28.2563C96.9133 26.2814 95.8436 24.7043 93.7453 24.7043C91.7156 24.7043 90.4676 26.158 90.4676 28.4346C90.4676 30.7112 91.7156 32.1649 93.7453 32.1649ZM93.7453 25.87C94.7327 25.87 95.3362 26.5969 95.3362 27.694V27.8312H92.0173V27.7352C92.0173 26.638 92.7167 25.87 93.7453 25.87Z" fill="black"/>
<path d="M105.087 32.0003V30.7797H103.702V26.0894H105.197V24.8689H103.702V22.9214H102.358V24.1694C102.358 24.6632 102.193 24.8689 101.7 24.8689H101.096V26.0894H102.207V30.4506C102.207 31.4243 102.756 32.0003 103.784 32.0003H105.087Z" fill="black"/>
<path d="M106.818 32.0003H108.313V27.214C108.313 26.3912 109.081 25.9934 109.863 25.9934C110.782 25.9934 111.207 26.5557 111.207 27.6529V32.0003H112.702V27.4746C112.702 25.7192 111.838 24.7043 110.384 24.7043C109.287 24.7043 108.683 25.2803 108.382 26.0483H108.313V21.8517H106.818V32.0003Z" fill="black"/>
<path d="M115.528 23.5934C116.145 23.5934 116.406 23.2643 116.406 22.8117V22.5786C116.406 22.126 116.145 21.7969 115.528 21.7969C114.911 21.7969 114.636 22.126 114.636 22.5786V22.8117C114.636 23.2643 114.911 23.5934 115.528 23.5934ZM114.774 32.0003H116.268V24.8689H114.774V32.0003Z" fill="black"/>
<path d="M120.666 32.1649C122.38 32.1649 123.491 31.246 123.491 29.8746C123.491 28.7226 122.792 28.0369 121.228 27.8037L120.57 27.7214C119.816 27.598 119.473 27.3512 119.473 26.8026C119.473 26.2677 119.857 25.9112 120.68 25.9112C121.448 25.9112 122.051 26.2814 122.421 26.7203L123.34 25.8426C122.696 25.1294 121.969 24.7043 120.68 24.7043C119.116 24.7043 118.033 25.5134 118.033 26.8986C118.033 28.2152 118.924 28.846 120.378 29.0243L121.036 29.1066C121.777 29.2026 122.051 29.5454 122.051 29.998C122.051 30.6014 121.612 30.958 120.748 30.958C119.898 30.958 119.253 30.574 118.732 29.9432L117.772 30.8209C118.444 31.6574 119.322 32.1649 120.666 32.1649Z" fill="black"/>
<path d="M132.905 32.0003H134.4V21.8517H132.905V26.0483H132.837C132.535 25.198 131.781 24.7043 130.835 24.7043C129.038 24.7043 127.996 26.0894 127.996 28.4346C127.996 30.7797 129.038 32.1649 130.835 32.1649C131.781 32.1649 132.535 31.6574 132.837 30.8209H132.905V32.0003ZM131.287 30.8757C130.259 30.8757 129.573 30.1489 129.573 29.0517V27.8174C129.573 26.7203 130.259 25.9934 131.287 25.9934C132.192 25.9934 132.905 26.4872 132.905 27.214V29.6552C132.905 30.382 132.192 30.8757 131.287 30.8757Z" fill="black"/>
<path d="M139.335 32.1649C141.323 32.1649 142.612 30.7112 142.612 28.4346C142.612 26.158 141.323 24.7043 139.335 24.7043C137.346 24.7043 136.057 26.158 136.057 28.4346C136.057 30.7112 137.346 32.1649 139.335 32.1649ZM139.335 30.9306C138.32 30.9306 137.634 30.2997 137.634 29.038V27.8312C137.634 26.5694 138.32 25.9386 139.335 25.9386C140.349 25.9386 141.035 26.5694 141.035 27.8312V29.038C141.035 30.2997 140.349 30.9306 139.335 30.9306Z" fill="black"/>
<path d="M147.035 32.1649C148.406 32.1649 149.38 31.5203 149.846 30.3546L148.708 29.7512C148.406 30.4643 147.899 30.9306 147.035 30.9306C145.937 30.9306 145.375 30.1763 145.375 29.0792V27.8037C145.375 26.7066 145.937 25.9523 147.035 25.9523C147.844 25.9523 148.351 26.3774 148.557 27.0357L149.791 26.4597C149.366 25.4037 148.461 24.7043 147.035 24.7043C144.977 24.7043 143.798 26.158 143.798 28.4346C143.798 30.7112 144.977 32.1649 147.035 32.1649Z" fill="black"/>
<path d="M155.589 32.0003H157.084V24.8689H155.589V29.6414C155.589 30.478 154.835 30.8757 154.067 30.8757C153.148 30.8757 152.695 30.2997 152.695 29.2163V24.8689H151.2V29.4083C151.2 31.1637 152.064 32.1649 153.532 32.1649C154.711 32.1649 155.274 31.5203 155.534 30.8209H155.589V32.0003Z" fill="black"/>
<path d="M160.719 32.0003V27.214C160.719 26.3912 161.446 25.9934 162.187 25.9934C163.064 25.9934 163.49 26.542 163.49 27.6529V32.0003H164.984V27.214C164.984 26.3912 165.684 25.9934 166.438 25.9934C167.343 25.9934 167.755 26.5557 167.755 27.6529V32.0003H169.25V27.4746C169.25 25.7192 168.413 24.7043 167 24.7043C165.848 24.7043 165.108 25.3626 164.847 26.158H164.806C164.463 25.1706 163.654 24.7043 162.694 24.7043C161.611 24.7043 161.076 25.3077 160.788 26.0483H160.719V24.8689H159.224V32.0003H160.719Z" fill="black"/>
<path d="M174.116 32.1649C175.446 32.1649 176.488 31.5889 177.023 30.7249L176.146 29.8609C175.734 30.5192 175.144 30.9306 174.267 30.9306C173.06 30.9306 172.388 30.1489 172.388 29.0517V28.8186H177.284V28.2563C177.284 26.2814 176.214 24.7043 174.116 24.7043C172.086 24.7043 170.838 26.158 170.838 28.4346C170.838 30.7112 172.086 32.1649 174.116 32.1649ZM174.116 25.87C175.103 25.87 175.707 26.5969 175.707 27.694V27.8312H172.388V27.7352C172.388 26.638 173.087 25.87 174.116 25.87Z" fill="black"/>
<path d="M180.434 32.0003V27.2277C180.434 26.3912 181.202 25.9934 181.983 25.9934C182.902 25.9934 183.327 26.5557 183.327 27.6666V32.0003H184.822V27.4746C184.822 25.7192 183.958 24.7043 182.504 24.7043C181.407 24.7043 180.804 25.2803 180.502 26.0483H180.434V24.8689H178.939V32.0003H180.434Z" fill="black"/>
<path d="M190.172 32.0003V30.7797H188.787V26.0894H190.281V24.8689H188.787V22.9214H187.443V24.1694C187.443 24.6632 187.278 24.8689 186.784 24.8689H186.181V26.0894H187.292V30.4506C187.292 31.4243 187.84 32.0003 188.869 32.0003H190.172Z" fill="black"/>
<path d="M192.822 32.1649C193.494 32.1649 193.823 31.7672 193.823 31.2323V31.0266C193.823 30.4917 193.494 30.094 192.822 30.094C192.15 30.094 191.821 30.4917 191.821 31.0266V31.2323C191.821 31.7672 192.15 32.1649 192.822 32.1649Z" fill="black"/>
<g filter="url(#filter1_d)">
<path d="M24 51C24 48.7909 25.7909 47 28 47H197C199.209 47 201 48.7909 201 51V259C201 261.209 199.209 263 197 263H28C25.7909 263 24 261.209 24 259V51Z" fill="white"/>
</g>
<path d="M24 51C24 48.7909 25.7909 47 28 47H197C199.209 47 201 48.7909 201 51V259C201 261.209 199.209 263 197 263H28C25.7909 263 24 261.209 24 259V51Z" fill="white"/>
<path d="M53.8378 253L54.9121 248.386L55.3393 246.518H55.3759L55.7909 248.386L56.8652 253H58.977L60.9545 244.479H59.1967L58.3788 248.569L57.9272 250.937H57.8905L57.3656 248.569L56.4135 244.479H54.3872L53.4472 248.569L52.9101 250.937H52.8735L52.4218 248.569L51.6162 244.479H49.7852L51.7138 253H53.8378Z" fill="black"/>
<path d="M64.603 250.156V248.398H60.9775V250.156H64.603Z" fill="black"/>
<path d="M71.1254 251.462H67.0971L68.684 250.217C69.9047 249.252 70.9545 248.361 70.9545 246.896C70.9545 245.419 69.8925 244.333 68.0492 244.333C66.2792 244.333 65.2905 245.322 64.9121 246.506L66.5112 247.116C66.6821 246.469 67.0727 245.92 67.8784 245.92C68.4277 245.92 69.0014 246.249 69.0014 246.896V247.067C69.0014 247.788 68.6718 248.264 67.7197 249.081L65.0952 251.328V253H71.1254V251.462Z" fill="black"/>
<path d="M32 55H193V231H32V55Z" fill="white"/>
<path fill-rule="evenodd" clip-rule="evenodd" d="M31.5 54.5H193.5V231.5H31.5V54.5ZM32.5 55.5V230.5H192.5V55.5H32.5Z" fill="#333333"/>
<path d="M33.1262 252.069V250.301H34.8214V249.887H33.1262V248.578H34.9837V248.164H32.6562V252.069H33.1262Z" fill="black"/>
<path d="M36.7365 252.136C37.5086 252.136 38.0401 251.543 38.0401 250.626C38.0401 249.708 37.5086 249.115 36.7365 249.115C35.9644 249.115 35.4329 249.708 35.4329 250.626C35.4329 251.543 35.9644 252.136 36.7365 252.136ZM36.7365 251.739C36.2554 251.739 35.9141 251.443 35.9141 250.833V250.419C35.9141 249.809 36.2554 249.512 36.7365 249.512C37.2177 249.512 37.559 249.809 37.559 250.419V250.833C37.559 251.443 37.2177 251.739 36.7365 251.739Z" fill="black"/>
<path d="M39.2747 252.069V250.111C39.2747 249.837 39.5656 249.63 40.0468 249.63H40.3097V249.182H40.1363C39.6663 249.182 39.4034 249.44 39.3027 249.714H39.2747V249.182H38.8271V252.069H39.2747Z" fill="black"/>
<path d="M41.3799 252.069V250.066C41.3799 249.697 41.7156 249.518 42.0681 249.518C42.4933 249.518 42.6891 249.781 42.6891 250.296V252.069H43.1367V250.066C43.1367 249.697 43.4612 249.518 43.8136 249.518C44.25 249.518 44.4459 249.787 44.4459 250.296V252.069H44.8934V250.217C44.8934 249.518 44.541 249.115 43.9535 249.115C43.4612 249.115 43.1814 249.389 43.0751 249.703H43.0639C42.9073 249.289 42.5604 249.115 42.18 249.115C41.7324 249.115 41.531 249.356 41.4023 249.652H41.3799V249.182H40.9323V252.069H41.3799Z" fill="black"/>
<path d="M169.918 252.109H165.291L167.672 250.034C168.807 249.045 169.576 248.093 169.576 246.799C169.576 245.358 168.624 244.333 166.927 244.333C165.255 244.333 164.486 245.334 164.156 246.335L165.072 246.677C165.34 245.798 165.865 245.224 166.903 245.224C167.953 245.224 168.502 245.81 168.502 246.835V246.982C168.502 247.849 167.904 248.642 167.074 249.387L164.229 251.95V253H169.918V252.109Z" fill="black"/>
<path d="M174.344 253.146C176.419 253.146 177.323 251.523 177.323 248.74C177.323 245.957 176.419 244.333 174.344 244.333C172.269 244.333 171.366 245.957 171.366 248.74C171.366 251.523 172.269 253.146 174.344 253.146ZM174.344 252.255C172.977 252.255 172.428 251.144 172.428 249.435V248.044C172.428 246.335 172.977 245.224 174.344 245.224C175.711 245.224 176.261 246.335 176.261 248.044V249.435C176.261 251.144 175.711 252.255 174.344 252.255ZM174.344 249.46C174.906 249.46 175.101 249.204 175.101 248.874V248.605C175.101 248.276 174.906 248.019 174.344 248.019C173.783 248.019 173.587 248.276 173.587 248.605V248.874C173.587 249.204 173.783 249.46 174.344 249.46Z" fill="black"/>
<path d="M184.557 252.109H179.93L182.311 250.034C183.446 249.045 184.215 248.093 184.215 246.799C184.215 245.358 183.263 244.333 181.566 244.333C179.894 244.333 179.125 245.334 178.795 246.335L179.711 246.677C179.979 245.798 180.504 245.224 181.542 245.224C182.591 245.224 183.141 245.81 183.141 246.835V246.982C183.141 247.849 182.543 248.642 181.712 249.387L178.868 251.95V253H184.557V252.109Z" fill="black"/>
<path d="M188.983 253.146C191.058 253.146 191.961 251.523 191.961 248.74C191.961 245.957 191.058 244.333 188.983 244.333C186.908 244.333 186.004 245.957 186.004 248.74C186.004 251.523 186.908 253.146 188.983 253.146ZM188.983 252.255C187.616 252.255 187.066 251.144 187.066 249.435V248.044C187.066 246.335 187.616 245.224 188.983 245.224C190.35 245.224 190.899 246.335 190.899 248.044V249.435C190.899 251.144 190.35 252.255 188.983 252.255ZM188.983 249.46C189.544 249.46 189.74 249.204 189.74 248.874V248.605C189.74 248.276 189.544 248.019 188.983 248.019C188.421 248.019 188.226 248.276 188.226 248.605V248.874C188.226 249.204 188.421 249.46 188.983 249.46Z" fill="black"/>
<path fill-rule="evenodd" clip-rule="evenodd" d="M140.137 89.5H32.1367V88.5H140.137V89.5Z" fill="#333333"/>
<path fill-rule="evenodd" clip-rule="evenodd" d="M193 123.5H140V122.5H193V123.5Z" fill="#333333"/>
<path fill-rule="evenodd" clip-rule="evenodd" d="M140.137 148.5H32.1367V147.5H140.137V148.5Z" fill="#333333"/>
<path fill-rule="evenodd" clip-rule="evenodd" d="M140.137 209.5H32.1367V208.5H140.137V209.5Z" fill="#333333"/>
<path d="M45.8022 78.1028L44.3872 73.4875H43.6533L42.2383 78.1028H42.8135L43.2036 76.787H44.8236L45.2137 78.1028H45.8022ZM44.6914 76.3043H43.3359L43.9839 74.076H44.0434L44.6914 76.3043Z" fill="black"/>
<path d="M47.9353 78.1821C48.6163 78.1821 49.0461 77.8449 49.2445 77.3887L48.8676 77.1308C48.6957 77.5011 48.3981 77.7259 47.9419 77.7259C47.3005 77.7259 46.9567 77.2895 46.9567 76.6878V76.1059C46.9567 75.5042 47.3072 75.0678 47.9287 75.0678C48.3519 75.0678 48.6428 75.2728 48.7684 75.6232L49.1916 75.3984C48.9998 74.9356 48.5899 74.6116 47.9287 74.6116C46.9633 74.6116 46.3881 75.3125 46.3881 76.3969C46.3881 77.4746 46.9567 78.1821 47.9353 78.1821Z" fill="black"/>
<path d="M50.4784 78.1028V75.5968C50.4784 75.2331 50.6767 75.048 50.961 75.048C51.2718 75.048 51.371 75.2397 51.371 75.8216V78.1028H51.8603V75.5968C51.8603 75.2331 52.0587 75.048 52.3364 75.048C52.6537 75.048 52.7529 75.2397 52.7529 75.8216V78.1028H53.2422V75.7357C53.2422 75.0149 53.0967 74.6116 52.5413 74.6116C52.138 74.6116 51.9264 74.8364 51.8008 75.1472H51.7809C51.7413 74.8298 51.5495 74.6116 51.1594 74.6116C50.7825 74.6116 50.6106 74.8232 50.5048 75.0877H50.4784V74.6909H49.9891V78.1028H50.4784Z" fill="black"/>
<path d="M55.4745 78.1821C56.1489 78.1821 56.6382 77.8515 56.8432 77.3953L56.4531 77.1308C56.2746 77.5011 55.9307 77.7259 55.4745 77.7259C54.8331 77.7259 54.4298 77.2895 54.4298 76.6878V76.5291H56.9556V76.2778C56.9556 75.3125 56.3605 74.6116 55.4414 74.6116C54.5158 74.6116 53.8744 75.3125 53.8744 76.4035C53.8744 77.4812 54.4959 78.1821 55.4745 78.1821ZM55.4414 75.048C56.0035 75.048 56.387 75.4579 56.387 76.0596V76.1324H54.4298V76.0861C54.4298 75.491 54.8596 75.048 55.4414 75.048Z" fill="black"/>
<path d="M63.1658 78.1821C64.0121 78.1821 64.3626 77.673 64.5874 77.1705L64.1113 76.9523C63.946 77.3622 63.7278 77.6994 63.1658 77.6994C62.4319 77.6994 62.0814 77.0977 62.0814 76.172V75.4183C62.0814 74.4926 62.4319 73.8909 63.1658 73.8909C63.7278 73.8909 63.946 74.2281 64.1113 74.638L64.5874 74.4198C64.3626 73.9173 64.0121 73.4082 63.1658 73.4082C62.0417 73.4082 61.4929 74.2612 61.4929 75.7952C61.4929 77.3292 62.0417 78.1821 63.1658 78.1821Z" fill="black"/>
<path d="M66.8131 78.1821C67.7718 78.1821 68.3603 77.4812 68.3603 76.3969C68.3603 75.3125 67.7718 74.6116 66.8131 74.6116C65.8543 74.6116 65.2658 75.3125 65.2658 76.3969C65.2658 77.4812 65.8543 78.1821 66.8131 78.1821ZM66.8131 77.7259C66.2246 77.7259 65.8279 77.3754 65.8279 76.6415V76.1522C65.8279 75.4183 66.2246 75.0678 66.8131 75.0678C67.4015 75.0678 67.7983 75.4183 67.7983 76.1522V76.6415C67.7983 77.3754 67.4015 77.7259 66.8131 77.7259Z" fill="black"/>
<path d="M69.1379 78.1028H71.9877V77.6532H70.6653V76.1787C70.6653 75.6497 71.0158 75.2199 71.6836 75.2199H72.325V74.6909H71.8489C71.1348 74.6909 70.8306 75.1009 70.6984 75.5505H70.6653V74.6909H69.1379V75.1406H70.1364V77.6532H69.1379V78.1028Z" fill="black"/>
<path d="M73.0563 79.4252H73.5853V77.5474H73.6117C73.8299 77.9639 74.187 78.1821 74.663 78.1821C75.4962 78.1821 75.9987 77.5143 75.9987 76.3969C75.9987 75.2794 75.4962 74.6116 74.663 74.6116C74.187 74.6116 73.8299 74.8298 73.6117 75.2464H73.5853V74.6909H73.0563V79.4252ZM74.4581 77.7127C73.9886 77.7127 73.5853 77.468 73.5853 77.0118V75.7819C73.5853 75.3257 73.9886 75.0811 74.4581 75.0811C75.073 75.0811 75.43 75.491 75.43 76.1059V76.6878C75.43 77.3027 75.073 77.7127 74.4581 77.7127Z" fill="black"/>
<path d="M42.0312 65C42.0312 63.8954 42.9267 63 44.0312 63H69.5312C70.6358 63 71.5312 63.8954 71.5312 65C71.5312 66.1046 70.6358 67 69.5312 67H44.0312C42.9267 67 42.0312 66.1046 42.0312 65Z" fill="#E6E6E6"/>
<path d="M150 65C150 63.8954 150.895 63 152 63H177.5C178.605 63 179.5 63.8954 179.5 65C179.5 66.1046 178.605 67 177.5 67H152C150.895 67 150 66.1046 150 65Z" fill="#E6E6E6"/>
<path d="M150 133C150 131.895 150.895 131 152 131H177.5C178.605 131 179.5 131.895 179.5 133C179.5 134.105 178.605 135 177.5 135H152C150.895 135 150 134.105 150 133Z" fill="#E6E6E6"/>
<path d="M150 149C150 147.895 150.895 147 152 147H177.5C178.605 147 179.5 147.895 179.5 149C179.5 150.105 178.605 151 177.5 151H152C150.895 151 150 150.105 150 149Z" fill="#E6E6E6"/>
<path d="M150 197C150 195.895 150.895 195 152 195H177.5C178.605 195 179.5 195.895 179.5 197C179.5 198.105 178.605 199 177.5 199H152C150.895 199 150 198.105 150 197Z" fill="#E6E6E6"/>
<path d="M150 181C150 179.895 150.895 179 152 179H177.5C178.605 179 179.5 179.895 179.5 181C179.5 182.105 178.605 183 177.5 183H152C150.895 183 150 182.105 150 181Z" fill="#E6E6E6"/>
<path d="M150 213C150 211.895 150.895 211 152 211H177.5C178.605 211 179.5 211.895 179.5 213C179.5 214.105 178.605 215 177.5 215H152C150.895 215 150 214.105 150 213Z" fill="#E6E6E6"/>
<path d="M150 141C150 139.895 150.895 139 152 139H160C161.105 139 162 139.895 162 141C162 142.105 161.105 143 160 143H152C150.895 143 150 142.105 150 141Z" fill="#E6E6E6"/>
<path d="M150 97C150 95.8954 150.895 95 152 95H160C161.105 95 162 95.8954 162 97C162 98.1046 161.105 99 160 99H152C150.895 99 150 98.1046 150 97Z" fill="#E6E6E6"/>
<path d="M150 205C150 203.895 150.895 203 152 203H160C161.105 203 162 203.895 162 205C162 206.105 161.105 207 160 207H152C150.895 207 150 206.105 150 205Z" fill="#E6E6E6"/>
<path d="M150 165C150 163.895 150.895 163 152 163H160C161.105 163 162 163.895 162 165C162 166.105 161.105 167 160 167H152C150.895 167 150 166.105 150 165Z" fill="#E6E6E6"/>
<path d="M150 73C150 71.8954 150.895 71 152 71H166C167.105 71 168 71.8954 168 73C168 74.1046 167.105 75 166 75H152C150.895 75 150 74.1046 150 73Z" fill="#E6E6E6"/>
<path d="M150 173C150 171.895 150.895 171 152 171H166C167.105 171 168 171.895 168 173C168 174.105 167.105 175 166 175H152C150.895 175 150 174.105 150 173Z" fill="#E6E6E6"/>
<path d="M150 89C150 87.8954 150.895 87 152 87H166C167.105 87 168 87.8954 168 89C168 90.1046 167.105 91 166 91H152C150.895 91 150 90.1046 150 89Z" fill="#E6E6E6"/>
<path d="M150 157C150 155.895 150.895 155 152 155H166C167.105 155 168 155.895 168 157C168 158.105 167.105 159 166 159H152C150.895 159 150 158.105 150 157Z" fill="#E6E6E6"/>
<path d="M150 189C150 187.895 150.895 187 152 187H166C167.105 187 168 187.895 168 189C168 190.105 167.105 191 166 191H152C150.895 191 150 190.105 150 189Z" fill="#E6E6E6"/>
<path d="M150 81C150 79.8954 150.895 79 152 79H177.5C178.605 79 179.5 79.8954 179.5 81C179.5 82.1046 178.605 83 177.5 83H152C150.895 83 150 82.1046 150 81Z" fill="#E6E6E6"/>
<path d="M150 105C150 103.895 150.895 103 152 103H177.5C178.605 103 179.5 103.895 179.5 105C179.5 106.105 178.605 107 177.5 107H152C150.895 107 150 106.105 150 105Z" fill="#E6E6E6"/>
<path d="M150 113C150 111.895 150.895 111 152 111H177.5C178.605 111 179.5 111.895 179.5 113C179.5 114.105 178.605 115 177.5 115H152C150.895 115 150 114.105 150 113Z" fill="#E6E6E6"/>
<path d="M40 69.6113H78.1466V81.3096H40V69.6113Z" fill="#D4354F" fill-opacity="0.15"/>
<path fill-rule="evenodd" clip-rule="evenodd" d="M77.1293 70.6286H41.0172V80.2924H77.1293V70.6286ZM40 69.6113V81.3096H78.1466V69.6113H40Z" fill="#D4354F"/>
<path d="M42.9866 107.488V107.971H44.6529V110.808C44.6529 111.409 44.3619 111.694 43.8594 111.694C43.3437 111.694 43.1387 111.396 43.0527 111.026L42.5238 111.138C42.6626 111.799 43.1453 112.183 43.8462 112.183C44.6463 112.183 45.2083 111.687 45.2083 110.907V107.488H42.9866Z" fill="black"/>
<path d="M49.4705 112.104V111.641H48.9944V109.763C48.9944 109.042 48.4853 108.612 47.6852 108.612C46.991 108.612 46.5546 108.943 46.3826 109.3L46.7397 109.564C46.9182 109.254 47.1959 109.062 47.6522 109.062C48.1679 109.062 48.4654 109.32 48.4654 109.816V110.153H47.7381C46.7133 110.153 46.2702 110.517 46.2702 111.145C46.2702 111.786 46.7265 112.183 47.4406 112.183C47.996 112.183 48.32 111.938 48.4654 111.548H48.4985C48.5382 111.865 48.6969 112.104 49.1068 112.104H49.4705ZM47.5331 111.74C47.0968 111.74 46.8257 111.555 46.8257 111.204V111.065C46.8257 110.735 47.11 110.55 47.7381 110.55H48.4654V111.112C48.4654 111.462 48.0753 111.74 47.5331 111.74Z" fill="black"/>
<path d="M50.8102 112.104V109.736C50.8102 109.287 51.2333 109.082 51.6565 109.082C52.1788 109.082 52.4632 109.386 52.4632 110.007V112.104H52.9921V109.915C52.9921 109.088 52.5227 108.612 51.8086 108.612C51.2465 108.612 50.9821 108.91 50.8366 109.247H50.8102V108.692H50.2812V112.104H50.8102Z" fill="black"/>
<path d="M55.4757 112.183C56.1501 112.183 56.6394 111.852 56.8444 111.396L56.4543 111.132C56.2757 111.502 55.9319 111.727 55.4757 111.727C54.8343 111.727 54.431 111.29 54.431 110.689V110.53H56.9568V110.279C56.9568 109.313 56.3617 108.612 55.4426 108.612C54.5169 108.612 53.8756 109.313 53.8756 110.404C53.8756 111.482 54.4971 112.183 55.4757 112.183ZM55.4426 109.049C56.0047 109.049 56.3882 109.459 56.3882 110.06V110.133H54.431V110.087C54.431 109.492 54.8608 109.049 55.4426 109.049Z" fill="black"/>
<path d="M61.6594 112.104H62.9488C64.0728 112.104 64.6282 111.31 64.6282 109.796C64.6282 108.282 64.0728 107.488 62.9488 107.488H61.6594V112.104ZM62.2148 111.621V107.971H62.9223C63.6563 107.971 64.0398 108.513 64.0398 109.439V110.153C64.0398 111.079 63.6563 111.621 62.9223 111.621H62.2148Z" fill="black"/>
<path d="M66.8143 112.183C67.773 112.183 68.3615 111.482 68.3615 110.398C68.3615 109.313 67.773 108.612 66.8143 108.612C65.8555 108.612 65.267 109.313 65.267 110.398C65.267 111.482 65.8555 112.183 66.8143 112.183ZM66.8143 111.727C66.2258 111.727 65.8291 111.376 65.8291 110.642V110.153C65.8291 109.419 66.2258 109.069 66.8143 109.069C67.4027 109.069 67.7994 109.419 67.7994 110.153V110.642C67.7994 111.376 67.4027 111.727 66.8143 111.727Z" fill="black"/>
<path d="M70.6731 112.183C71.3475 112.183 71.8368 111.852 72.0418 111.396L71.6517 111.132C71.4732 111.502 71.1293 111.727 70.6731 111.727C70.0317 111.727 69.6284 111.29 69.6284 110.689V110.53H72.1542V110.279C72.1542 109.313 71.5591 108.612 70.6401 108.612C69.7144 108.612 69.073 109.313 69.073 110.404C69.073 111.482 69.6945 112.183 70.6731 112.183ZM70.6401 109.049C71.2021 109.049 71.5856 109.459 71.5856 110.06V110.133H69.6284V110.087C69.6284 109.492 70.0582 109.049 70.6401 109.049Z" fill="black"/>
<path d="M45.691 124.104V123.621H44.4743V119.488H43.6082L42.3849 120.632L42.7089 120.983L43.8726 119.898H43.9189V123.621H42.5965V124.104H45.691Z" fill="black"/>
<path d="M49.3845 123.621H46.8786L48.1679 122.497C48.7828 121.961 49.1994 121.445 49.1994 120.745C49.1994 119.964 48.6836 119.409 47.7646 119.409C46.8587 119.409 46.4422 119.951 46.2636 120.493L46.7595 120.678C46.905 120.202 47.1893 119.892 47.7513 119.892C48.32 119.892 48.6175 120.209 48.6175 120.764V120.844C48.6175 121.313 48.2935 121.743 47.8439 122.146L46.3033 123.535V124.104H49.3845V123.621Z" fill="black"/>
<path d="M50.9093 121.445V121.922H51.4581C52.1326 121.922 52.4764 122.239 52.4764 122.781V122.834C52.4764 123.383 52.1127 123.7 51.4647 123.7C50.8829 123.7 50.6118 123.442 50.3671 123.079L49.9506 123.396C50.2349 123.793 50.6515 124.183 51.4647 124.183C52.4235 124.183 53.0583 123.634 53.0583 122.841C53.0583 122.146 52.5756 121.776 52.0664 121.677V121.65C52.569 121.525 52.9657 121.168 52.9657 120.573C52.9657 119.825 52.3375 119.409 51.5507 119.409C50.7969 119.409 50.387 119.792 50.1489 120.163L50.5655 120.48C50.7573 120.13 51.0482 119.892 51.5375 119.892C52.04 119.892 52.3838 120.143 52.3838 120.632V120.678C52.3838 121.121 52.0598 121.445 51.4185 121.445H50.9093Z" fill="black"/>
<path d="M60.2404 124.104H60.7495V119.488H60.0619L59.2486 121.525H59.2089L58.3956 119.488H57.6815V124.104H58.1907V121.789V120.328H58.2436L59.2155 122.702L60.1875 120.328H60.2404V121.789V124.104Z" fill="black"/>
<path d="M64.6679 124.104V123.641H64.1918V121.763C64.1918 121.042 63.6827 120.612 62.8827 120.612C62.1884 120.612 61.752 120.943 61.5801 121.3L61.9371 121.564C62.1157 121.254 62.3934 121.062 62.8496 121.062C63.3653 121.062 63.6629 121.32 63.6629 121.816V122.153H62.9355C61.9107 122.153 61.4677 122.517 61.4677 123.145C61.4677 123.786 61.9239 124.183 62.638 124.183C63.1934 124.183 63.5174 123.938 63.6629 123.548H63.6959C63.7356 123.865 63.8943 124.104 64.3042 124.104H64.6679ZM62.7306 123.74C62.2942 123.74 62.0231 123.555 62.0231 123.204V123.065C62.0231 122.735 62.3074 122.55 62.9355 122.55H63.6629V123.112C63.6629 123.462 63.2728 123.74 62.7306 123.74Z" fill="black"/>
<path d="M67.0258 119.938C67.33 119.938 67.4424 119.792 67.4424 119.601V119.495C67.4424 119.303 67.33 119.158 67.0258 119.158C66.7217 119.158 66.6093 119.303 66.6093 119.495V119.601C66.6093 119.792 66.7217 119.938 67.0258 119.938ZM65.5315 124.104H68.4408V123.654H67.2903V120.692H65.5315V121.141H66.7614V123.654H65.5315V124.104Z" fill="black"/>
<path d="M69.8069 124.104V121.736C69.8069 121.287 70.2301 121.082 70.6533 121.082C71.1756 121.082 71.46 121.386 71.46 122.007V124.104H71.9889V121.915C71.9889 121.088 71.5195 120.612 70.8054 120.612C70.2433 120.612 69.9788 120.91 69.8334 121.247H69.8069V120.692H69.278V124.104H69.8069Z" fill="black"/>
<path d="M78.1991 124.183C79.224 124.183 79.8124 123.667 79.8124 122.814C79.8124 122.212 79.5149 121.71 78.609 121.551L78.1131 121.465C77.4585 121.353 77.247 121.088 77.247 120.678C77.247 120.156 77.5974 119.885 78.2189 119.885C78.7942 119.885 79.1248 120.116 79.3827 120.454L79.7728 120.116C79.462 119.673 78.9595 119.409 78.2255 119.409C77.2866 119.409 76.6849 119.845 76.6849 120.692C76.6849 121.274 76.9693 121.796 77.8751 121.948L78.3909 122.034C79.019 122.14 79.2504 122.378 79.2504 122.827C79.2504 123.383 78.8868 123.707 78.2189 123.707C77.6635 123.707 77.2866 123.489 76.9296 123.039L76.5262 123.37C76.8701 123.846 77.3726 124.183 78.1991 124.183Z" fill="black"/>
<path d="M83.506 124.104V123.654H81.9522V121.141H83.506V120.692H81.9522V119.488H81.443V120.381C81.443 120.612 81.3571 120.692 81.1323 120.692H80.2859V121.141H81.4232V123.323C81.4232 123.78 81.6612 124.104 82.177 124.104H83.506Z" fill="black"/>
<path d="M85.811 124.163C86.1681 124.163 86.3003 123.991 86.3003 123.766V123.647C86.3003 123.422 86.1681 123.251 85.811 123.251C85.454 123.251 85.3217 123.422 85.3217 123.647V123.766C85.3217 123.991 85.454 124.163 85.811 124.163Z" fill="black"/>
<path d="M44.0049 136.183C45.0298 136.183 45.6182 135.667 45.6182 134.814C45.6182 134.212 45.3207 133.71 44.4148 133.551L43.9189 133.465C43.2643 133.353 43.0527 133.088 43.0527 132.678C43.0527 132.156 43.4032 131.885 44.0247 131.885C44.6 131.885 44.9306 132.116 45.1884 132.454L45.5786 132.116C45.2678 131.673 44.7653 131.409 44.0313 131.409C43.0924 131.409 42.4907 131.845 42.4907 132.692C42.4907 133.274 42.775 133.796 43.6809 133.948L44.1966 134.034C44.8248 134.14 45.0562 134.378 45.0562 134.827C45.0562 135.383 44.6925 135.707 44.0247 135.707C43.4693 135.707 43.0924 135.489 42.7354 135.039L42.332 135.37C42.6759 135.846 43.1784 136.183 44.0049 136.183Z" fill="black"/>
<path d="M49.4705 136.104V135.641H48.9944V133.763C48.9944 133.042 48.4853 132.612 47.6852 132.612C46.991 132.612 46.5546 132.943 46.3826 133.3L46.7397 133.564C46.9182 133.254 47.1959 133.062 47.6522 133.062C48.1679 133.062 48.4654 133.32 48.4654 133.816V134.153H47.7381C46.7133 134.153 46.2702 134.517 46.2702 135.145C46.2702 135.786 46.7265 136.183 47.4406 136.183C47.996 136.183 48.32 135.938 48.4654 135.548H48.4985C48.5382 135.865 48.6969 136.104 49.1068 136.104H49.4705ZM47.5331 135.74C47.0968 135.74 46.8257 135.555 46.8257 135.204V135.065C46.8257 134.735 47.11 134.55 47.7381 134.55H48.4654V135.112C48.4654 135.462 48.0753 135.74 47.5331 135.74Z" fill="black"/>
<path d="M50.8102 136.104V133.736C50.8102 133.287 51.2333 133.082 51.6565 133.082C52.1788 133.082 52.4632 133.386 52.4632 134.007V136.104H52.9921V133.915C52.9921 133.088 52.5227 132.612 51.8086 132.612C51.2465 132.612 50.9821 132.91 50.8366 133.247H50.8102V132.692H50.2812V136.104H50.8102Z" fill="black"/>
<path d="M58.3824 136.104V134.007H60.538V133.525H58.3824V131.971H60.7363V131.488H57.827V136.104H58.3824Z" fill="black"/>
<path d="M61.5404 136.104H64.3902V135.654H63.0678V134.179C63.0678 133.65 63.4182 133.221 64.086 133.221H64.7274V132.692H64.2514C63.5372 132.692 63.2331 133.102 63.1009 133.551H63.0678V132.692H61.5404V133.141H62.5388V135.654H61.5404V136.104Z" fill="black"/>
<path d="M68.4673 136.104V135.641H67.9912V133.763C67.9912 133.042 67.4821 132.612 66.682 132.612C65.9877 132.612 65.5513 132.943 65.3794 133.3L65.7365 133.564C65.915 133.254 66.1927 133.062 66.649 133.062C67.1647 133.062 67.4622 133.32 67.4622 133.816V134.153H66.7349C65.71 134.153 65.267 134.517 65.267 135.145C65.267 135.786 65.7233 136.183 66.4374 136.183C66.9928 136.183 67.3168 135.938 67.4622 135.548H67.4953C67.535 135.865 67.6937 136.104 68.1036 136.104H68.4673ZM66.5299 135.74C66.0935 135.74 65.8224 135.555 65.8224 135.204V135.065C65.8224 134.735 66.1068 134.55 66.7349 134.55H67.4622V135.112C67.4622 135.462 67.0721 135.74 66.5299 135.74Z" fill="black"/>
<path d="M69.8069 136.104V133.736C69.8069 133.287 70.2301 133.082 70.6533 133.082C71.1756 133.082 71.46 133.386 71.46 134.007V136.104H71.9889V133.915C71.9889 133.088 71.5195 132.612 70.8054 132.612C70.2433 132.612 69.9788 132.91 69.8334 133.247H69.8069V132.692H69.278V136.104H69.8069Z" fill="black"/>
<path d="M74.532 136.183C75.213 136.183 75.6428 135.846 75.8412 135.389L75.4643 135.132C75.2924 135.502 74.9948 135.727 74.5386 135.727C73.8972 135.727 73.5534 135.29 73.5534 134.689V134.107C73.5534 133.505 73.9038 133.069 74.5254 133.069C74.9485 133.069 75.2395 133.274 75.3651 133.624L75.7883 133.399C75.5965 132.936 75.1866 132.612 74.5254 132.612C73.56 132.612 72.9848 133.313 72.9848 134.398C72.9848 135.475 73.5534 136.183 74.532 136.183Z" fill="black"/>
<path d="M78.4239 131.938C78.7281 131.938 78.8405 131.792 78.8405 131.601V131.495C78.8405 131.303 78.7281 131.158 78.4239 131.158C78.1198 131.158 78.0074 131.303 78.0074 131.495V131.601C78.0074 131.792 78.1198 131.938 78.4239 131.938ZM76.9296 136.104H79.8389V135.654H78.6884V132.692H76.9296V133.141H78.1594V135.654H76.9296V136.104Z" fill="black"/>
<path d="M82.0513 136.183C82.9241 136.183 83.4928 135.793 83.4928 135.118C83.4928 134.378 82.8117 134.246 82.3224 134.173L81.7869 134.093C81.4827 134.047 81.1852 133.955 81.1852 133.598C81.1852 133.247 81.4827 133.055 82.0183 133.055C82.62 133.055 82.9241 133.293 83.0828 133.485L83.4267 133.161C83.1027 132.817 82.653 132.612 82.0381 132.612C81.2447 132.612 80.6628 132.95 80.6628 133.631C80.6628 134.371 81.3505 134.503 81.8332 134.576L82.3687 134.655C82.6795 134.702 82.9704 134.794 82.9704 135.151C82.9704 135.555 82.5935 135.74 82.0646 135.74C81.5224 135.74 81.1521 135.548 80.8281 135.204L80.4711 135.515C80.8281 135.918 81.3372 136.183 82.0513 136.183Z" fill="black"/>
<path d="M85.9301 136.183C86.6111 136.183 87.0409 135.846 87.2392 135.389L86.8624 135.132C86.6904 135.502 86.3929 135.727 85.9367 135.727C85.2953 135.727 84.9515 135.29 84.9515 134.689V134.107C84.9515 133.505 85.3019 133.069 85.9234 133.069C86.3466 133.069 86.6375 133.274 86.7632 133.624L87.1863 133.399C86.9946 132.936 86.5846 132.612 85.9234 132.612C84.9581 132.612 84.3828 133.313 84.3828 134.398C84.3828 135.475 84.9515 136.183 85.9301 136.183Z" fill="black"/>
<path d="M89.6104 136.183C90.5691 136.183 91.1576 135.482 91.1576 134.398C91.1576 133.313 90.5691 132.612 89.6104 132.612C88.6516 132.612 88.0632 133.313 88.0632 134.398C88.0632 135.482 88.6516 136.183 89.6104 136.183ZM89.6104 135.727C89.0219 135.727 88.6252 135.376 88.6252 134.642V134.153C88.6252 133.419 89.0219 133.069 89.6104 133.069C90.1989 133.069 90.5956 133.419 90.5956 134.153V134.642C90.5956 135.376 90.1989 135.727 89.6104 135.727Z" fill="black"/>
<path d="M92.775 137.036H93.218L93.9784 135.204H93.1254L92.775 137.036Z" fill="black"/>
<path d="M101.161 136.183C102.007 136.183 102.357 135.674 102.582 135.171L102.106 134.953C101.941 135.363 101.723 135.7 101.161 135.7C100.427 135.7 100.076 135.098 100.076 134.173V133.419C100.076 132.493 100.427 131.892 101.161 131.892C101.723 131.892 101.941 132.229 102.106 132.639L102.582 132.421C102.357 131.918 102.007 131.409 101.161 131.409C100.036 131.409 99.4877 132.262 99.4877 133.796C99.4877 135.33 100.036 136.183 101.161 136.183Z" fill="black"/>
<path d="M106.593 136.104L105.178 131.488H104.444L103.029 136.104H103.604L103.995 134.788H105.614L106.005 136.104H106.593ZM105.482 134.305H104.127L104.775 132.077H104.834L105.482 134.305Z" fill="black"/>
<path d="M113.967 133.181C113.967 132.083 113.372 131.409 112.4 131.409C111.461 131.409 110.846 132.03 110.846 132.936C110.846 133.809 111.421 134.358 112.228 134.358C112.803 134.358 113.14 134.074 113.365 133.697L113.398 133.71C113.14 134.781 112.585 135.383 111.58 136.104H112.294C113.048 135.621 113.967 134.55 113.967 133.181ZM112.407 133.902C111.778 133.902 111.408 133.538 111.408 132.916V132.864C111.408 132.242 111.778 131.878 112.407 131.878C113.035 131.878 113.405 132.242 113.405 132.864V132.916C113.405 133.538 113.035 133.902 112.407 133.902Z" fill="black"/>
<path d="M117.251 136.104V135.198H117.938V134.741H117.251V131.488H116.444L114.447 134.708V135.198H116.722V136.104H117.251ZM116.695 131.918H116.722V134.741H114.943L116.695 131.918Z" fill="black"/>
<path d="M121.678 136.104V135.621H120.461V131.488H119.595L118.372 132.632L118.696 132.983L119.86 131.898H119.906V135.621H118.584V136.104H121.678Z" fill="black"/>
<path d="M123.805 136.183C124.929 136.183 125.418 135.303 125.418 133.796C125.418 132.288 124.929 131.409 123.805 131.409C122.681 131.409 122.191 132.288 122.191 133.796C122.191 135.303 122.681 136.183 123.805 136.183ZM123.805 135.7C123.064 135.7 122.767 135.098 122.767 134.173V133.419C122.767 132.493 123.064 131.892 123.805 131.892C124.545 131.892 124.843 132.493 124.843 133.419V134.173C124.843 135.098 124.545 135.7 123.805 135.7ZM123.805 134.186C124.109 134.186 124.215 134.047 124.215 133.869V133.723C124.215 133.545 124.109 133.406 123.805 133.406C123.5 133.406 123.395 133.545 123.395 133.723V133.869C123.395 134.047 123.5 134.186 123.805 134.186Z" fill="black"/>
<path d="M128.933 131.488H126.42L126.255 134.027L126.725 134.093C126.923 133.875 127.135 133.703 127.571 133.703C128.212 133.703 128.569 134.067 128.569 134.675V134.728C128.569 135.33 128.219 135.7 127.584 135.7C127.015 135.7 126.764 135.442 126.52 135.079L126.103 135.396C126.387 135.793 126.791 136.183 127.571 136.183C128.556 136.183 129.145 135.555 129.145 134.655C129.145 133.763 128.556 133.234 127.749 133.234C127.26 133.234 127.009 133.426 126.784 133.736H126.738L126.87 131.971H128.933V131.488Z" fill="black"/>
<path d="M42.0312 99C42.0312 97.8954 42.9267 97 44.0312 97H69.5312C70.6358 97 71.5312 97.8954 71.5312 99C71.5312 100.105 70.6358 101 69.5312 101H44.0312C42.9267 101 42.0312 100.105 42.0312 99Z" fill="#E6E6E6"/>
<path d="M40 103.612H74.5862V115.311H40V103.612Z" fill="#4767D0" fill-opacity="0.15"/>
<path fill-rule="evenodd" clip-rule="evenodd" d="M73.569 104.63H41.0172V114.293H73.569V104.63ZM40 103.612V115.311H74.5862V103.612H40Z" fill="#4767D0"/>
<path d="M40 115.31H132.06V139.723H40V115.31Z" fill="#DD4FDF" fill-opacity="0.15"/>
<path fill-rule="evenodd" clip-rule="evenodd" d="M131.043 116.327H41.0172V138.706H131.043V116.327ZM40 115.31V139.723H132.06V115.31H40Z" fill="#DD4FDF"/>
<path fill-rule="evenodd" clip-rule="evenodd" d="M141 55L141 231L140 231L140 55L141 55Z" fill="#333333"/>
<path d="M43.8774 171.85H44.2874V171.175C45.18 171.103 45.6825 170.607 45.6825 169.84C45.6825 169.218 45.385 168.702 44.4791 168.55L44.2808 168.517V166.897C44.7172 166.944 45.0081 167.142 45.2461 167.459L45.6627 167.162C45.3321 166.712 44.8957 166.461 44.2874 166.415V165.74H43.8774V166.415C43.0443 166.474 42.5286 166.924 42.5286 167.664C42.5286 168.266 42.8195 168.795 43.732 168.947L43.8841 168.974V170.699C43.4212 170.653 43.084 170.435 42.7666 170.038L42.3633 170.369C42.6807 170.812 43.1435 171.129 43.8774 171.175V171.85ZM43.0642 167.664C43.0642 167.208 43.3617 166.944 43.8841 166.891V168.451C43.2956 168.332 43.0642 168.094 43.0642 167.664ZM45.147 169.846C45.147 170.329 44.8362 170.633 44.2808 170.693V169.04C44.8957 169.145 45.147 169.377 45.147 169.846Z" fill="black"/>
<path d="M47.8223 171.182C48.7612 171.182 49.3761 170.56 49.3761 169.655C49.3761 168.782 48.8009 168.233 47.9942 168.233C47.4189 168.233 47.0817 168.517 46.8569 168.894L46.8238 168.881C47.0817 167.81 47.6371 167.208 48.6422 166.487H47.9281C47.1743 166.97 46.2552 168.041 46.2552 169.41C46.2552 170.508 46.8503 171.182 47.8223 171.182ZM47.8157 170.713C47.1875 170.713 46.8172 170.349 46.8172 169.727V169.674C46.8172 169.053 47.1875 168.689 47.8157 168.689C48.4438 168.689 48.8141 169.053 48.8141 169.674V169.727C48.8141 170.349 48.4438 170.713 47.8157 170.713Z" fill="black"/>
<path d="M51.615 171.182C52.7391 171.182 53.2284 170.303 53.2284 168.795C53.2284 167.287 52.7391 166.408 51.615 166.408C50.491 166.408 50.0017 167.287 50.0017 168.795C50.0017 170.303 50.491 171.182 51.615 171.182ZM51.615 170.699C50.8745 170.699 50.5769 170.098 50.5769 169.172V168.418C50.5769 167.492 50.8745 166.891 51.615 166.891C52.3556 166.891 52.6531 167.492 52.6531 168.418V169.172C52.6531 170.098 52.3556 170.699 51.615 170.699ZM51.615 169.185C51.9192 169.185 52.025 169.046 52.025 168.868V168.722C52.025 168.544 51.9192 168.405 51.615 168.405C51.3109 168.405 51.2051 168.544 51.2051 168.722V168.868C51.2051 169.046 51.3109 169.185 51.615 169.185Z" fill="black"/>
<path d="M54.7796 172.035H55.2226L55.983 170.203H55.1301L54.7796 172.035Z" fill="black"/>
<path d="M59.2137 171.182C60.3378 171.182 60.8271 170.303 60.8271 168.795C60.8271 167.287 60.3378 166.408 59.2137 166.408C58.0897 166.408 57.6004 167.287 57.6004 168.795C57.6004 170.303 58.0897 171.182 59.2137 171.182ZM59.2137 170.699C58.4732 170.699 58.1756 170.098 58.1756 169.172V168.418C58.1756 167.492 58.4732 166.891 59.2137 166.891C59.9543 166.891 60.2518 167.492 60.2518 168.418V169.172C60.2518 170.098 59.9543 170.699 59.2137 170.699ZM59.2137 169.185C59.5179 169.185 59.6237 169.046 59.6237 168.868V168.722C59.6237 168.544 59.5179 168.405 59.2137 168.405C58.9096 168.405 58.8038 168.544 58.8038 168.722V168.868C58.8038 169.046 58.9096 169.185 59.2137 169.185Z" fill="black"/>
<path d="M63.0131 171.182C64.1371 171.182 64.6264 170.303 64.6264 168.795C64.6264 167.287 64.1371 166.408 63.0131 166.408C61.889 166.408 61.3997 167.287 61.3997 168.795C61.3997 170.303 61.889 171.182 63.0131 171.182ZM63.0131 170.699C62.2725 170.699 61.975 170.098 61.975 169.172V168.418C61.975 167.492 62.2725 166.891 63.0131 166.891C63.7536 166.891 64.0512 167.492 64.0512 168.418V169.172C64.0512 170.098 63.7536 170.699 63.0131 170.699ZM63.0131 169.185C63.3172 169.185 63.423 169.046 63.423 168.868V168.722C63.423 168.544 63.3172 168.405 63.0131 168.405C62.7089 168.405 62.6031 168.544 62.6031 168.722V168.868C62.6031 169.046 62.7089 169.185 63.0131 169.185Z" fill="black"/>
<path d="M66.8124 171.182C67.9365 171.182 68.4258 170.303 68.4258 168.795C68.4258 167.287 67.9365 166.408 66.8124 166.408C65.6884 166.408 65.1991 167.287 65.1991 168.795C65.1991 170.303 65.6884 171.182 66.8124 171.182ZM66.8124 170.699C66.0719 170.699 65.7743 170.098 65.7743 169.172V168.418C65.7743 167.492 66.0719 166.891 66.8124 166.891C67.553 166.891 67.8505 167.492 67.8505 168.418V169.172C67.8505 170.098 67.553 170.699 66.8124 170.699ZM66.8124 169.185C67.1166 169.185 67.2224 169.046 67.2224 168.868V168.722C67.2224 168.544 67.1166 168.405 66.8124 168.405C66.5083 168.405 66.4025 168.544 66.4025 168.722V168.868C66.4025 169.046 66.5083 169.185 66.8124 169.185Z" fill="black"/>
<path d="M70.6118 171.162C70.9689 171.162 71.1011 170.99 71.1011 170.765V170.646C71.1011 170.422 70.9689 170.25 70.6118 170.25C70.2547 170.25 70.1225 170.422 70.1225 170.646V170.765C70.1225 170.99 70.2547 171.162 70.6118 171.162Z" fill="black"/>
<path d="M74.4112 171.182C75.5352 171.182 76.0245 170.303 76.0245 168.795C76.0245 167.287 75.5352 166.408 74.4112 166.408C73.2871 166.408 72.7978 167.287 72.7978 168.795C72.7978 170.303 73.2871 171.182 74.4112 171.182ZM74.4112 170.699C73.6706 170.699 73.3731 170.098 73.3731 169.172V168.418C73.3731 167.492 73.6706 166.891 74.4112 166.891C75.1517 166.891 75.4492 167.492 75.4492 168.418V169.172C75.4492 170.098 75.1517 170.699 74.4112 170.699ZM74.4112 169.185C74.7153 169.185 74.8211 169.046 74.8211 168.868V168.722C74.8211 168.544 74.7153 168.405 74.4112 168.405C74.107 168.405 74.0012 168.544 74.0012 168.722V168.868C74.0012 169.046 74.107 169.185 74.4112 169.185Z" fill="black"/>
<path d="M78.2105 171.182C79.3346 171.182 79.8239 170.303 79.8239 168.795C79.8239 167.287 79.3346 166.408 78.2105 166.408C77.0865 166.408 76.5972 167.287 76.5972 168.795C76.5972 170.303 77.0865 171.182 78.2105 171.182ZM78.2105 170.699C77.47 170.699 77.1724 170.098 77.1724 169.172V168.418C77.1724 167.492 77.47 166.891 78.2105 166.891C78.9511 166.891 79.2486 167.492 79.2486 168.418V169.172C79.2486 170.098 78.9511 170.699 78.2105 170.699ZM78.2105 169.185C78.5147 169.185 78.6205 169.046 78.6205 168.868V168.722C78.6205 168.544 78.5147 168.405 78.2105 168.405C77.9064 168.405 77.8006 168.544 77.8006 168.722V168.868C77.8006 169.046 77.9064 169.185 78.2105 169.185Z" fill="black"/>
<path d="M43.8774 198.298H44.2874V197.624C45.18 197.551 45.6825 197.055 45.6825 196.288C45.6825 195.666 45.385 195.151 44.4791 194.999L44.2808 194.966V193.346C44.7172 193.392 45.0081 193.59 45.2461 193.908L45.6627 193.61C45.3321 193.16 44.8957 192.909 44.2874 192.863V192.188H43.8774V192.863C43.0443 192.922 42.5286 193.372 42.5286 194.113C42.5286 194.714 42.8195 195.243 43.732 195.395L43.8841 195.422V197.148C43.4212 197.101 43.084 196.883 42.7666 196.486L42.3633 196.817C42.6807 197.26 43.1435 197.577 43.8774 197.624V198.298ZM43.0642 194.113C43.0642 193.656 43.3617 193.392 43.8841 193.339V194.899C43.2956 194.78 43.0642 194.542 43.0642 194.113ZM45.147 196.295C45.147 196.777 44.8362 197.081 44.2808 197.141V195.488C44.8957 195.594 45.147 195.825 45.147 196.295Z" fill="black"/>
<path d="M47.8157 197.63C48.8868 197.63 49.4356 197.055 49.4356 196.295C49.4356 195.666 49.0587 195.303 48.4967 195.151V195.098C48.986 194.932 49.2968 194.542 49.2968 194.013C49.2968 193.313 48.748 192.856 47.8157 192.856C46.8834 192.856 46.3346 193.313 46.3346 194.013C46.3346 194.542 46.6453 194.932 47.1346 195.098V195.151C46.5726 195.303 46.1957 195.666 46.1957 196.295C46.1957 197.055 46.7445 197.63 47.8157 197.63ZM47.8157 197.161C47.1677 197.161 46.7709 196.85 46.7709 196.328V196.182C46.7709 195.653 47.1544 195.349 47.8157 195.349C48.4769 195.349 48.8604 195.653 48.8604 196.182V196.328C48.8604 196.85 48.4636 197.161 47.8157 197.161ZM47.8157 194.899C47.2206 194.899 46.8966 194.628 46.8966 194.159V194.066C46.8966 193.597 47.2338 193.326 47.8157 193.326C48.3975 193.326 48.7347 193.597 48.7347 194.066V194.159C48.7347 194.628 48.4107 194.899 47.8157 194.899Z" fill="black"/>
<path d="M50.9803 198.483H51.4233L52.1837 196.652H51.3307L50.9803 198.483Z" fill="black"/>
<path d="M55.421 197.63C56.3599 197.63 56.9748 197.009 56.9748 196.103C56.9748 195.23 56.3996 194.681 55.5929 194.681C55.0176 194.681 54.6804 194.966 54.4556 195.342L54.4226 195.329C54.6804 194.258 55.2358 193.656 56.2409 192.936H55.5268C54.773 193.418 53.8539 194.489 53.8539 195.858C53.8539 196.956 54.449 197.63 55.421 197.63ZM55.4144 197.161C54.7862 197.161 54.4159 196.797 54.4159 196.176V196.123C54.4159 195.501 54.7862 195.137 55.4144 195.137C56.0425 195.137 56.4128 195.501 56.4128 196.123V196.176C56.4128 196.797 56.0425 197.161 55.4144 197.161Z" fill="black"/>
<path d="M58.5062 194.893V195.369H59.055C59.7295 195.369 60.0733 195.686 60.0733 196.228V196.281C60.0733 196.83 59.7096 197.148 59.0616 197.148C58.4798 197.148 58.2087 196.89 57.964 196.526L57.5475 196.843C57.8318 197.24 58.2484 197.63 59.0616 197.63C60.0204 197.63 60.6552 197.081 60.6552 196.288C60.6552 195.594 60.1725 195.223 59.6633 195.124V195.098C60.1659 194.972 60.5626 194.615 60.5626 194.02C60.5626 193.273 59.9344 192.856 59.1476 192.856C58.3938 192.856 57.9839 193.24 57.7458 193.61L58.1624 193.927C58.3542 193.577 58.6451 193.339 59.1344 193.339C59.6369 193.339 59.9807 193.59 59.9807 194.08V194.126C59.9807 194.569 59.6567 194.893 59.0154 194.893H58.5062Z" fill="black"/>
<path d="M64.3421 192.936H61.8295L61.6642 195.475L62.1337 195.541C62.332 195.323 62.5436 195.151 62.98 195.151C63.6214 195.151 63.9784 195.514 63.9784 196.123V196.176C63.9784 196.777 63.628 197.148 62.9932 197.148C62.4246 197.148 62.1734 196.89 61.9287 196.526L61.5121 196.843C61.7965 197.24 62.1998 197.63 62.98 197.63C63.9652 197.63 64.5537 197.002 64.5537 196.103C64.5537 195.21 63.9652 194.681 63.1585 194.681C62.6693 194.681 62.418 194.873 62.1932 195.184H62.1469L62.2791 193.418H64.3421V192.936Z" fill="black"/>
<path d="M66.8124 197.61C67.1695 197.61 67.3017 197.438 67.3017 197.214V197.095C67.3017 196.87 67.1695 196.698 66.8124 196.698C66.4554 196.698 66.3231 196.87 66.3231 197.095V197.214C66.3231 197.438 66.4554 197.61 66.8124 197.61Z" fill="black"/>
<path d="M70.6118 197.63C71.7359 197.63 72.2251 196.751 72.2251 195.243C72.2251 193.736 71.7359 192.856 70.6118 192.856C69.4877 192.856 68.9985 193.736 68.9985 195.243C68.9985 196.751 69.4877 197.63 70.6118 197.63ZM70.6118 197.148C69.8712 197.148 69.5737 196.546 69.5737 195.62V194.866C69.5737 193.941 69.8712 193.339 70.6118 193.339C71.3524 193.339 71.6499 193.941 71.6499 194.866V195.62C71.6499 196.546 71.3524 197.148 70.6118 197.148ZM70.6118 195.633C70.916 195.633 71.0217 195.495 71.0217 195.316V195.171C71.0217 194.992 70.916 194.853 70.6118 194.853C70.3076 194.853 70.2019 194.992 70.2019 195.171V195.316C70.2019 195.495 70.3076 195.633 70.6118 195.633Z" fill="black"/>
<path d="M74.4112 197.63C75.5352 197.63 76.0245 196.751 76.0245 195.243C76.0245 193.736 75.5352 192.856 74.4112 192.856C73.2871 192.856 72.7978 193.736 72.7978 195.243C72.7978 196.751 73.2871 197.63 74.4112 197.63ZM74.4112 197.148C73.6706 197.148 73.3731 196.546 73.3731 195.62V194.866C73.3731 193.941 73.6706 193.339 74.4112 193.339C75.1517 193.339 75.4492 193.941 75.4492 194.866V195.62C75.4492 196.546 75.1517 197.148 74.4112 197.148ZM74.4112 195.633C74.7153 195.633 74.8211 195.495 74.8211 195.316V195.171C74.8211 194.992 74.7153 194.853 74.4112 194.853C74.107 194.853 74.0012 194.992 74.0012 195.171V195.316C74.0012 195.495 74.107 195.633 74.4112 195.633Z" fill="black"/>
<path d="M42.0312 158C42.0312 156.895 42.9267 156 44.0312 156H69.5312C70.6358 156 71.5312 156.895 71.5312 158C71.5312 159.105 70.6358 160 69.5312 160H44.0312C42.9267 160 42.0312 159.105 42.0312 158Z" fill="#E6E6E6"/>
<path d="M42.0312 184.448C42.0312 183.344 42.9267 182.448 44.0312 182.448H69.5312C70.6358 182.448 71.5312 183.344 71.5312 184.448C71.5312 185.553 70.6358 186.448 69.5312 186.448H44.0312C42.9267 186.448 42.0312 185.553 42.0312 184.448Z" fill="#E6E6E6"/>
<path d="M40 189.061H79.6724V200.759H40V189.061Z" fill="#5B9790" fill-opacity="0.15"/>
<path fill-rule="evenodd" clip-rule="evenodd" d="M78.6552 190.078H41.0172V199.742H78.6552V190.078ZM40 189.061V200.759H79.6724V189.061H40Z" fill="#5B9790"/>
<path d="M40 162.612H82.2155V174.311H40V162.612Z" fill="#60B058" fill-opacity="0.15"/>
<path fill-rule="evenodd" clip-rule="evenodd" d="M81.1983 163.63H41.0172V173.293H81.1983V163.63ZM40 162.612V174.311H82.2155V162.612H40Z" fill="#60B058"/>
<path d="M42.0312 220C42.0312 218.895 42.9267 218 44.0312 218H129.498C130.603 218 131.498 218.895 131.498 220C131.498 221.105 130.603 222 129.498 222H44.0312C42.9267 222 42.0312 221.105 42.0312 220Z" fill="#E6E6E6"/>
<path d="M242.768 27.0003V26.2203H240.553V21.5559H239.672V27.0003H242.768Z" fill="#808080"/>
<path d="M248.129 27.0003L246.273 21.5559H245.165L243.309 27.0003H244.206L244.682 25.5261H246.717L247.209 27.0003H248.129ZM246.499 24.7695H244.892L245.68 22.3671H245.719L246.499 24.7695Z" fill="#808080"/>
<path d="M248.972 27.0003H251.624C252.428 27.0003 253.028 26.3139 253.028 25.4325C253.028 24.5199 252.334 24.1767 251.89 24.1611V24.1143C252.334 24.0753 252.833 23.7789 252.833 22.9599C252.833 22.1097 252.28 21.5559 251.383 21.5559H248.972V27.0003ZM249.854 24.5901H251.367C251.819 24.5901 252.1 24.8397 252.1 25.2843V25.5495C252.1 25.9941 251.819 26.2437 251.367 26.2437H249.854V24.5901ZM249.854 22.3125H251.219C251.648 22.3125 251.905 22.5465 251.905 22.9599V23.2095C251.905 23.6229 251.648 23.8569 251.219 23.8569H249.854V22.3125Z" fill="#808080"/>
<path d="M257.601 27.0003V26.2203H254.995V24.6291H257.359V23.8491H254.995V22.3359H257.601V21.5559H254.114V27.0003H257.601Z" fill="#808080"/>
<path d="M261.834 27.0003V26.2203H259.619V21.5559H258.738V27.0003H261.834Z" fill="#808080"/>
<path d="M264.367 27.0939C265.615 27.0939 266.34 26.4153 266.34 25.4013C266.34 24.5355 265.849 24.0519 264.765 23.8413L264.281 23.7399C263.696 23.6229 263.415 23.4279 263.415 22.9755C263.415 22.4997 263.774 22.2423 264.398 22.2423C264.999 22.2423 265.389 22.4763 265.67 22.8429L266.286 22.2969C265.865 21.7587 265.264 21.4623 264.445 21.4623C263.291 21.4623 262.542 22.0551 262.542 23.0223C262.542 23.8881 263.08 24.3795 264.133 24.5745L264.617 24.6603C265.248 24.7851 265.467 25.0269 265.467 25.4481C265.467 25.9707 265.108 26.3139 264.414 26.3139C263.821 26.3139 263.369 26.0721 262.986 25.6041L262.378 26.1735C262.83 26.7351 263.454 27.0939 264.367 27.0939Z" fill="#808080"/>
<path d="M269.062 24.5745C269.062 26.0877 269.671 27.4059 270.451 28.0767H271.254C270.404 27.2967 269.866 26.0721 269.866 24.8865V24.2625C269.866 23.0769 270.404 21.8523 271.254 21.0723H270.451C269.671 21.7431 269.062 23.0613 269.062 24.5745Z" fill="#808080"/>
<path d="M275.154 21.5559H272.065L271.862 24.5901L272.588 24.6915C272.783 24.4731 273.04 24.2625 273.508 24.2625C274.148 24.2625 274.514 24.6369 274.514 25.2609V25.3545C274.514 25.9785 274.148 26.3529 273.508 26.3529C272.9 26.3529 272.595 26.0409 272.33 25.6119L271.691 26.1189C272.018 26.6181 272.525 27.0939 273.492 27.0939C274.725 27.0939 275.435 26.3217 275.435 25.2375C275.435 24.1689 274.725 23.5371 273.789 23.5371C273.165 23.5371 272.892 23.8179 272.65 24.2469H272.595L272.736 22.3203H275.154V21.5559Z" fill="#808080"/>
<path d="M277.998 24.5745C277.998 23.0613 277.389 21.7431 276.609 21.0723H275.806C276.656 21.8523 277.194 23.0769 277.194 24.2625V24.8865C277.194 26.0721 276.656 27.2967 275.806 28.0767H276.609C277.389 27.4059 277.998 26.0877 277.998 24.5745Z" fill="#808080"/>
<path d="M278.498 51.0015V50.3307H275.862V48.5835H278.303V47.9127H275.862V46.2279H278.498V45.5571H275.105V51.0015H278.498Z" fill="black"/>
<path d="M280.354 51.0015V48.2325C280.354 47.7411 280.799 47.4993 281.259 47.4993C281.813 47.4993 282.07 47.8503 282.07 48.5289V51.0015H282.795V48.2325C282.795 47.7411 283.224 47.4993 283.692 47.4993C284.254 47.4993 284.511 47.8503 284.511 48.5289V51.0015H285.237V48.4197C285.237 47.4369 284.753 46.8675 283.942 46.8675C283.263 46.8675 282.858 47.2497 282.71 47.6865H282.694C282.483 47.1171 282.008 46.8675 281.469 46.8675C280.931 46.8675 280.565 47.2107 280.393 47.6241H280.354V46.9611H279.629V51.0015H280.354Z" fill="black"/>
<path d="M286.469 52.5615H287.194V50.3385H287.225C287.413 50.8377 287.834 51.0951 288.388 51.0951C289.402 51.0951 290.01 50.2917 290.01 48.9813C290.01 47.6709 289.402 46.8675 288.388 46.8675C287.834 46.8675 287.413 47.1249 287.225 47.6241H287.194V46.9611H286.469V52.5615ZM288.177 50.4633C287.631 50.4633 287.194 50.1513 287.194 49.7223V48.2403C287.194 47.8113 287.631 47.4993 288.177 47.4993C288.824 47.4993 289.238 47.9595 289.238 48.6381V49.3245C289.238 50.0031 288.824 50.4633 288.177 50.4633Z" fill="black"/>
<path d="M292.334 51.0015V50.3853H291.757V45.2295H291.032V50.2605C291.032 50.7051 291.289 51.0015 291.788 51.0015H292.334Z" fill="black"/>
<path d="M294.755 51.0951C295.854 51.0951 296.595 50.2683 296.595 48.9813C296.595 47.6943 295.854 46.8675 294.755 46.8675C293.655 46.8675 292.914 47.6943 292.914 48.9813C292.914 50.2683 293.655 51.0951 294.755 51.0951ZM294.755 50.4711C294.123 50.4711 293.686 50.0733 293.686 49.2855V48.6771C293.686 47.8893 294.123 47.4915 294.755 47.4915C295.386 47.4915 295.823 47.8893 295.823 48.6771V49.2855C295.823 50.0733 295.386 50.4711 294.755 50.4711Z" fill="black"/>
<path d="M299.12 49.5429L298.886 50.2995H298.847L298.636 49.5429L297.739 46.9611H297.014L298.512 51.1653L298.239 51.9453H297.576V52.5615H297.973C298.59 52.5615 298.785 52.3899 298.972 51.8829L300.727 46.9611H300.025L299.12 49.5429Z" fill="black"/>
<path d="M302.981 51.0951C303.738 51.0951 304.323 50.7441 304.603 50.2215L304.135 49.8237C303.917 50.2371 303.55 50.4789 303.043 50.4789C302.318 50.4789 301.905 49.9953 301.905 49.3245V49.1607H304.752V48.8565C304.752 47.7255 304.112 46.8675 302.981 46.8675C301.858 46.8675 301.148 47.7021 301.148 48.9813C301.148 50.2605 301.858 51.0951 302.981 51.0951ZM302.981 47.4525C303.589 47.4525 303.979 47.9049 303.979 48.5757V48.6537H301.905V48.5991C301.905 47.9361 302.349 47.4525 302.981 47.4525Z" fill="black"/>
<path d="M306.466 51.0015V48.3495C306.466 47.9517 306.856 47.6865 307.527 47.6865H307.885V46.9611H307.644C306.996 46.9611 306.637 47.3355 306.505 47.7333H306.466V46.9611H305.74V51.0015H306.466Z" fill="black"/>
<path d="M253.757 51.001H254.685L252.548 47.8732L254.537 45.5566H253.632L252.064 47.4286L251.292 48.3958H251.261V45.5566H250.504V51.001H251.261V49.2382L252.017 48.3802L253.757 51.001Z" fill="#808080"/>
<path d="M256.83 51.0946C257.587 51.0946 258.172 50.7436 258.453 50.221L257.985 49.8232C257.766 50.2366 257.4 50.4784 256.893 50.4784C256.167 50.4784 255.754 49.9948 255.754 49.324V49.1602H258.601V48.856C258.601 47.725 257.961 46.867 256.83 46.867C255.707 46.867 254.997 47.7016 254.997 48.9808C254.997 50.26 255.707 51.0946 256.83 51.0946ZM256.83 47.452C257.439 47.452 257.829 47.9044 257.829 48.5752V48.6532H255.754V48.5986C255.754 47.9356 256.199 47.452 256.83 47.452Z" fill="#808080"/>
<path d="M261.135 49.5424L260.901 50.299H260.862L260.651 49.5424L259.754 46.9606H259.029L260.527 51.1648L260.254 51.9448H259.591V52.561H259.988C260.605 52.561 260.8 52.3894 260.987 51.8824L262.742 46.9606H262.04L261.135 49.5424Z" fill="#808080"/>
<path d="M277.067 64.0572C277.426 64.0572 277.582 63.8544 277.582 63.5658V63.4488C277.582 63.2148 277.473 63.0432 277.239 62.9964C277.332 62.6298 277.535 62.349 277.855 62.0214H277.285C276.825 62.4036 276.552 62.9886 276.552 63.4488V63.5658C276.552 63.8544 276.708 64.0572 277.067 64.0572ZM275.452 64.0572C275.811 64.0572 275.967 63.8544 275.967 63.5658V63.4488C275.967 63.2148 275.858 63.0432 275.624 62.9964C275.718 62.6298 275.92 62.349 276.24 62.0214H275.671C275.211 62.4036 274.938 62.9886 274.938 63.4488V63.5658C274.938 63.8544 275.093 64.0572 275.452 64.0572Z" fill="black"/>
<path d="M282.588 67.8012L280.708 62.3568H279.757L277.869 67.8012H278.634L279.156 66.2646H281.278L281.793 67.8012H282.588ZM281.091 65.5938H279.336L280.194 63.051H280.233L281.091 65.5938Z" fill="black"/>
<path d="M284.931 67.8948C285.704 67.8948 286.234 67.5204 286.491 66.912L285.961 66.5844C285.758 67.0212 285.423 67.2708 284.931 67.2708C284.237 67.2708 283.886 66.795 283.886 66.132V65.43C283.886 64.767 284.237 64.2912 284.931 64.2912C285.399 64.2912 285.727 64.533 285.86 64.9308L286.46 64.6344C286.226 64.0572 285.727 63.6672 284.931 63.6672C283.777 63.6672 283.114 64.4862 283.114 65.781C283.114 67.0758 283.777 67.8948 284.931 67.8948Z" fill="black"/>
<path d="M288.066 67.8012V65.0322C288.066 64.5408 288.511 64.299 288.971 64.299C289.525 64.299 289.782 64.65 289.782 65.3286V67.8012H290.507V65.0322C290.507 64.5408 290.936 64.299 291.404 64.299C291.966 64.299 292.223 64.65 292.223 65.3286V67.8012H292.949V65.2194C292.949 64.2366 292.465 63.6672 291.654 63.6672C290.975 63.6672 290.57 64.0494 290.422 64.4862H290.406C290.195 63.9168 289.72 63.6672 289.181 63.6672C288.643 63.6672 288.277 64.0104 288.105 64.4238H288.066V63.7608H287.341V67.8012H288.066Z" fill="black"/>
<path d="M295.725 67.8948C296.482 67.8948 297.067 67.5438 297.348 67.0212L296.88 66.6234C296.661 67.0368 296.295 67.2786 295.788 67.2786C295.062 67.2786 294.649 66.795 294.649 66.1242V65.9604H297.496V65.6562C297.496 64.5252 296.856 63.6672 295.725 63.6672C294.602 63.6672 293.892 64.5018 293.892 65.781C293.892 67.0602 294.602 67.8948 295.725 67.8948ZM295.725 64.2522C296.334 64.2522 296.724 64.7046 296.724 65.3754V65.4534H294.649V65.3988C294.649 64.7358 295.093 64.2522 295.725 64.2522Z" fill="black"/>
<path d="M302.364 67.8948C303.284 67.8948 303.947 67.419 304.298 66.639L303.69 66.2724C303.487 66.834 303.035 67.2162 302.364 67.2162C301.475 67.2162 300.936 66.5532 300.936 65.4924V64.6656C300.936 63.6048 301.475 62.9418 302.364 62.9418C303.019 62.9418 303.44 63.2928 303.643 63.831L304.267 63.4722C303.916 62.6922 303.284 62.2632 302.364 62.2632C300.975 62.2632 300.125 63.2616 300.125 65.079C300.125 66.8964 300.975 67.8948 302.364 67.8948Z" fill="black"/>
<path d="M306.77 67.8948C307.87 67.8948 308.611 67.068 308.611 65.781C308.611 64.494 307.87 63.6672 306.77 63.6672C305.671 63.6672 304.93 64.494 304.93 65.781C304.93 67.068 305.671 67.8948 306.77 67.8948ZM306.77 67.2708C306.139 67.2708 305.702 66.873 305.702 66.0852V65.4768C305.702 64.689 306.139 64.2912 306.77 64.2912C307.402 64.2912 307.839 64.689 307.839 65.4768V66.0852C307.839 66.873 307.402 67.2708 306.77 67.2708Z" fill="black"/>
<path d="M310.323 67.8012V65.1492C310.323 64.7514 310.713 64.4862 311.384 64.4862H311.743V63.7608H311.501C310.854 63.7608 310.495 64.1352 310.362 64.533H310.323V63.7608H309.598V67.8012H310.323Z" fill="black"/>
<path d="M312.523 69.3612H313.248V67.1382H313.28C313.467 67.6374 313.888 67.8948 314.442 67.8948C315.456 67.8948 316.064 67.0914 316.064 65.781C316.064 64.4706 315.456 63.6672 314.442 63.6672C313.888 63.6672 313.467 63.9246 313.28 64.4238H313.248V63.7608H312.523V69.3612ZM314.231 67.263C313.685 67.263 313.248 66.951 313.248 66.522V65.04C313.248 64.611 313.685 64.299 314.231 64.299C314.879 64.299 315.292 64.7592 315.292 65.4378V66.1242C315.292 66.8028 314.879 67.263 314.231 67.263Z" fill="black"/>
<path d="M318.955 61.9512C318.596 61.9512 318.44 62.154 318.44 62.4426V62.5596C318.44 62.7936 318.549 62.9652 318.783 63.012C318.69 63.3786 318.487 63.6594 318.167 63.987H318.737C319.197 63.6048 319.47 63.0198 319.47 62.5596V62.4426C319.47 62.154 319.314 61.9512 318.955 61.9512ZM317.34 61.9512C316.982 61.9512 316.826 62.154 316.826 62.4426V62.5596C316.826 62.7936 316.935 62.9652 317.169 63.012C317.075 63.3786 316.872 63.6594 316.553 63.987H317.122C317.582 63.6048 317.855 63.0198 317.855 62.5596V62.4426C317.855 62.154 317.699 61.9512 317.34 61.9512Z" fill="black"/>
<path d="M252.648 67.8023L254.465 62.3579H253.693L252.812 65.0801L252.235 67.0613H252.196L251.626 65.0801L250.745 62.3579H249.949L251.751 67.8023H252.648Z" fill="#808080"/>
<path d="M258.357 67.8023V67.1861H257.905V65.0567C257.905 64.1831 257.328 63.6683 256.322 63.6683C255.573 63.6683 255.097 64.0193 254.855 64.4561L255.292 64.8539C255.503 64.5107 255.807 64.2767 256.283 64.2767C256.891 64.2767 257.18 64.5809 257.18 65.1191V65.4857H256.415C255.261 65.4857 254.691 65.9069 254.691 66.6869C254.691 67.4279 255.183 67.8959 256.025 67.8959C256.602 67.8959 257.031 67.6307 257.195 67.1315H257.234C257.289 67.5215 257.499 67.8023 257.944 67.8023H258.357ZM256.189 67.3109C255.737 67.3109 255.448 67.1003 255.448 66.7259V66.5699C255.448 66.1955 255.744 65.9927 256.407 65.9927H257.18V66.6167C257.18 67.0223 256.758 67.3109 256.189 67.3109Z" fill="#808080"/>
<path d="M260.526 67.8023V67.1861H259.949V62.0303H259.223V67.0613C259.223 67.5059 259.481 67.8023 259.98 67.8023H260.526Z" fill="#808080"/>
<path d="M263.867 67.8023H264.592V63.7619H263.867V66.5231C263.867 67.0301 263.399 67.2641 262.939 67.2641C262.369 67.2641 262.081 66.9131 262.081 66.2345V63.7619H261.355V66.3437C261.355 67.3265 261.87 67.8959 262.697 67.8959C263.368 67.8959 263.68 67.5293 263.828 67.1393H263.867V67.8023Z" fill="#808080"/>
<path d="M267.417 67.8959C268.174 67.8959 268.759 67.5449 269.04 67.0223L268.572 66.6245C268.353 67.0379 267.987 67.2797 267.48 67.2797C266.754 67.2797 266.341 66.7961 266.341 66.1253V65.9615H269.188V65.6573C269.188 64.5263 268.548 63.6683 267.417 63.6683C266.294 63.6683 265.584 64.5029 265.584 65.7821C265.584 67.0613 266.294 67.8959 267.417 67.8959ZM267.417 64.2533C268.026 64.2533 268.416 64.7057 268.416 65.3765V65.4545H266.341V65.3999C266.341 64.7369 266.786 64.2533 267.417 64.2533Z" fill="#808080"/>
<path d="M239 42.8012C239 42.4698 239.269 42.2012 239.6 42.2012H242C242.331 42.2012 242.6 42.4698 242.6 42.8012V70.4012C242.6 70.7325 242.331 71.0012 242 71.0012H239.6C239.269 71.0012 239 70.7325 239 70.4012V42.8012Z" fill="#D4354F"/>
<path d="M278.393 91.7999H279.236V86.3555H278.502V90.7001H278.479L277.73 89.3351L275.944 86.3555H275.102V91.7999H275.835V87.4553H275.858L276.607 88.8203L278.393 91.7999Z" fill="black"/>
<path d="M283.931 91.7999V91.1837H283.478V89.0543C283.478 88.1807 282.901 87.6659 281.895 87.6659C281.146 87.6659 280.67 88.0169 280.429 88.4537L280.865 88.8515C281.076 88.5083 281.38 88.2743 281.856 88.2743C282.464 88.2743 282.753 88.5785 282.753 89.1167V89.4833H281.989C280.834 89.4833 280.265 89.9045 280.265 90.6845C280.265 91.4255 280.756 91.8935 281.599 91.8935C282.176 91.8935 282.605 91.6283 282.769 91.1291H282.808C282.862 91.5191 283.073 91.7999 283.517 91.7999H283.931ZM281.762 91.3085C281.31 91.3085 281.021 91.0979 281.021 90.7235V90.5675C281.021 90.1931 281.318 89.9903 281.981 89.9903H282.753V90.6143C282.753 91.0199 282.332 91.3085 281.762 91.3085Z" fill="black"/>
<path d="M285.522 91.7999V89.0309C285.522 88.5395 285.967 88.2977 286.427 88.2977C286.981 88.2977 287.238 88.6487 287.238 89.3273V91.7999H287.964V89.0309C287.964 88.5395 288.393 88.2977 288.861 88.2977C289.422 88.2977 289.68 88.6487 289.68 89.3273V91.7999H290.405V89.2181C290.405 88.2353 289.921 87.6659 289.11 87.6659C288.432 87.6659 288.026 88.0481 287.878 88.4849H287.862C287.652 87.9155 287.176 87.6659 286.638 87.6659C286.099 87.6659 285.733 88.0091 285.561 88.4225H285.522V87.7595H284.797V91.7999H285.522Z" fill="black"/>
<path d="M293.181 91.8935C293.938 91.8935 294.523 91.5425 294.804 91.0199L294.336 90.6221C294.117 91.0355 293.751 91.2773 293.244 91.2773C292.518 91.2773 292.105 90.7937 292.105 90.1229V89.9591H294.952V89.6549C294.952 88.5239 294.312 87.6659 293.181 87.6659C292.058 87.6659 291.348 88.5005 291.348 89.7797C291.348 91.0589 292.058 91.8935 293.181 91.8935ZM293.181 88.2509C293.79 88.2509 294.18 88.7033 294.18 89.3741V89.4521H292.105V89.3975C292.105 88.7345 292.55 88.2509 293.181 88.2509Z" fill="black"/>
<path d="M253.757 91.7999H254.685L252.548 88.6721L254.537 86.3555H253.632L252.064 88.2275L251.292 89.1947H251.261V86.3555H250.504V91.7999H251.261V90.0371L252.017 89.1791L253.757 91.7999Z" fill="#808080"/>
<path d="M256.83 91.8935C257.587 91.8935 258.172 91.5425 258.453 91.0199L257.985 90.6221C257.766 91.0355 257.4 91.2773 256.893 91.2773C256.167 91.2773 255.754 90.7937 255.754 90.1229V89.9591H258.601V89.6549C258.601 88.5239 257.961 87.6659 256.83 87.6659C255.707 87.6659 254.997 88.5005 254.997 89.7797C254.997 91.0589 255.707 91.8935 256.83 91.8935ZM256.83 88.2509C257.439 88.2509 257.829 88.7033 257.829 89.3741V89.4521H255.754V89.3975C255.754 88.7345 256.199 88.2509 256.83 88.2509Z" fill="#808080"/>
<path d="M261.135 90.3413L260.901 91.0979H260.862L260.651 90.3413L259.754 87.7595H259.029L260.527 91.9637L260.254 92.7437H259.591V93.3599H259.988C260.605 93.3599 260.8 93.1883 260.987 92.6813L262.742 87.7595H262.04L261.135 90.3413Z" fill="#808080"/>
<path d="M277.067 104.856C277.426 104.856 277.582 104.653 277.582 104.365V104.248C277.582 104.014 277.473 103.842 277.239 103.795C277.332 103.429 277.535 103.148 277.855 102.82H277.285C276.825 103.202 276.552 103.787 276.552 104.248V104.365C276.552 104.653 276.708 104.856 277.067 104.856ZM275.452 104.856C275.811 104.856 275.967 104.653 275.967 104.365V104.248C275.967 104.014 275.858 103.842 275.624 103.795C275.718 103.429 275.92 103.148 276.24 102.82H275.671C275.211 103.202 274.938 103.787 274.938 104.248V104.365C274.938 104.653 275.093 104.856 275.452 104.856Z" fill="black"/>
<path d="M278.905 103.156V103.826H280.73V107.056C280.73 107.703 280.41 108.015 279.895 108.015C279.373 108.015 279.107 107.711 279.006 107.243L278.312 107.399C278.468 108.171 278.998 108.694 279.887 108.694C280.839 108.694 281.486 108.093 281.486 107.157V103.156H278.905Z" fill="black"/>
<path d="M286.14 108.6V107.984H285.687V105.854C285.687 104.981 285.11 104.466 284.104 104.466C283.355 104.466 282.879 104.817 282.637 105.254L283.074 105.652C283.285 105.308 283.589 105.074 284.065 105.074C284.673 105.074 284.962 105.379 284.962 105.917V106.283H284.197C283.043 106.283 282.474 106.705 282.474 107.485C282.474 108.226 282.965 108.694 283.807 108.694C284.385 108.694 284.814 108.428 284.977 107.929H285.016C285.071 108.319 285.282 108.6 285.726 108.6H286.14ZM283.971 108.109C283.519 108.109 283.23 107.898 283.23 107.524V107.368C283.23 106.993 283.527 106.79 284.19 106.79H284.962V107.414C284.962 107.82 284.541 108.109 283.971 108.109Z" fill="black"/>
<path d="M287.731 108.6V105.831C287.731 105.34 288.191 105.098 288.667 105.098C289.236 105.098 289.517 105.449 289.517 106.127V108.6H290.243V106.018C290.243 105.035 289.736 104.466 288.909 104.466C288.3 104.466 287.957 104.778 287.77 105.223H287.731V104.56H287.006V108.6H287.731Z" fill="black"/>
<path d="M293.021 108.694C293.778 108.694 294.363 108.343 294.644 107.82L294.176 107.422C293.957 107.836 293.591 108.077 293.084 108.077C292.358 108.077 291.945 107.594 291.945 106.923V106.759H294.792V106.455C294.792 105.324 294.152 104.466 293.021 104.466C291.898 104.466 291.188 105.301 291.188 106.58C291.188 107.859 291.898 108.694 293.021 108.694ZM293.021 105.051C293.63 105.051 294.02 105.503 294.02 106.174V106.252H291.945V106.198C291.945 105.535 292.389 105.051 293.021 105.051Z" fill="black"/>
<path d="M297.686 108.6H299.55C300.931 108.6 301.82 107.695 301.82 105.878C301.82 104.06 300.931 103.156 299.55 103.156H297.686V108.6ZM298.443 107.929V103.826H299.55C300.416 103.826 301.009 104.404 301.009 105.441V106.315C301.009 107.352 300.416 107.929 299.55 107.929H298.443Z" fill="black"/>
<path d="M304.447 108.694C305.547 108.694 306.288 107.867 306.288 106.58C306.288 105.293 305.547 104.466 304.447 104.466C303.347 104.466 302.606 105.293 302.606 106.58C302.606 107.867 303.347 108.694 304.447 108.694ZM304.447 108.07C303.815 108.07 303.379 107.672 303.379 106.884V106.276C303.379 105.488 303.815 105.09 304.447 105.09C305.079 105.09 305.516 105.488 305.516 106.276V106.884C305.516 107.672 305.079 108.07 304.447 108.07Z" fill="black"/>
<path d="M308.819 108.694C309.576 108.694 310.161 108.343 310.442 107.82L309.974 107.422C309.755 107.836 309.389 108.077 308.882 108.077C308.156 108.077 307.743 107.594 307.743 106.923V106.759H310.59V106.455C310.59 105.324 309.95 104.466 308.819 104.466C307.696 104.466 306.986 105.301 306.986 106.58C306.986 107.859 307.696 108.694 308.819 108.694ZM308.819 105.051C309.428 105.051 309.818 105.503 309.818 106.174V106.252H307.743V106.198C307.743 105.535 308.187 105.051 308.819 105.051Z" fill="black"/>
<path d="M313.448 102.75C313.089 102.75 312.933 102.953 312.933 103.241V103.358C312.933 103.592 313.042 103.764 313.276 103.811C313.183 104.177 312.98 104.458 312.66 104.786H313.229C313.69 104.404 313.963 103.819 313.963 103.358V103.241C313.963 102.953 313.807 102.75 313.448 102.75ZM311.833 102.75C311.474 102.75 311.318 102.953 311.318 103.241V103.358C311.318 103.592 311.428 103.764 311.662 103.811C311.568 104.177 311.365 104.458 311.045 104.786H311.615C312.075 104.404 312.348 103.819 312.348 103.358V103.241C312.348 102.953 312.192 102.75 311.833 102.75Z" fill="black"/>
<path d="M252.648 108.6L254.465 103.156H253.693L252.812 105.878L252.235 107.859H252.196L251.626 105.878L250.745 103.156H249.949L251.751 108.6H252.648Z" fill="#808080"/>
<path d="M258.357 108.6V107.984H257.905V105.855C257.905 104.981 257.328 104.466 256.322 104.466C255.573 104.466 255.097 104.817 254.855 105.254L255.292 105.652C255.503 105.309 255.807 105.075 256.283 105.075C256.891 105.075 257.18 105.379 257.18 105.917V106.284H256.415C255.261 106.284 254.691 106.705 254.691 107.485C254.691 108.226 255.183 108.694 256.025 108.694C256.602 108.694 257.031 108.429 257.195 107.929H257.234C257.289 108.319 257.499 108.6 257.944 108.6H258.357ZM256.189 108.109C255.737 108.109 255.448 107.898 255.448 107.524V107.368C255.448 106.993 255.744 106.791 256.407 106.791H257.18V107.415C257.18 107.82 256.758 108.109 256.189 108.109Z" fill="#808080"/>
<path d="M260.526 108.6V107.984H259.949V102.828H259.223V107.859C259.223 108.304 259.481 108.6 259.98 108.6H260.526Z" fill="#808080"/>
<path d="M263.867 108.6H264.592V104.56H263.867V107.321C263.867 107.828 263.399 108.062 262.939 108.062C262.369 108.062 262.081 107.711 262.081 107.032V104.56H261.355V107.142C261.355 108.124 261.87 108.694 262.697 108.694C263.368 108.694 263.68 108.327 263.828 107.937H263.867V108.6Z" fill="#808080"/>
<path d="M267.417 108.694C268.174 108.694 268.759 108.343 269.04 107.82L268.572 107.422C268.353 107.836 267.987 108.078 267.48 108.078C266.754 108.078 266.341 107.594 266.341 106.923V106.759H269.188V106.455C269.188 105.324 268.548 104.466 267.417 104.466C266.294 104.466 265.584 105.301 265.584 106.58C265.584 107.859 266.294 108.694 267.417 108.694ZM267.417 105.051C268.026 105.051 268.416 105.504 268.416 106.174V106.252H266.341V106.198C266.341 105.535 266.786 105.051 267.417 105.051Z" fill="#808080"/>
<path d="M239 83.599C239 83.2677 239.269 82.999 239.6 82.999H242C242.331 82.999 242.6 83.2677 242.6 83.599V111.199C242.6 111.53 242.331 111.799 242 111.799H239.6C239.269 111.799 239 111.53 239 111.199V83.599Z" fill="#4767D0"/>
<path d="M276.727 132.601L277.445 129.839L277.913 127.999H277.928L278.381 129.839L279.09 132.601H279.933L281.306 127.156H280.549L279.948 129.777L279.519 131.704H279.496L279.02 129.777L278.365 127.156H277.515L276.844 129.777L276.368 131.711H276.353L275.931 129.777L275.354 127.156H274.574L275.877 132.601H276.727Z" fill="black"/>
<path d="M285.366 132.601V131.984H284.914V129.855C284.914 128.981 284.336 128.467 283.33 128.467C282.581 128.467 282.106 128.818 281.864 129.254L282.301 129.652C282.511 129.309 282.815 129.075 283.291 129.075C283.9 129.075 284.188 129.379 284.188 129.917V130.284H283.424C282.269 130.284 281.7 130.705 281.7 131.485C281.7 132.226 282.191 132.694 283.034 132.694C283.611 132.694 284.04 132.429 284.204 131.93H284.243C284.297 132.32 284.508 132.601 284.953 132.601H285.366ZM283.198 132.109C282.745 132.109 282.457 131.899 282.457 131.524V131.368C282.457 130.994 282.753 130.791 283.416 130.791H284.188V131.415C284.188 131.821 283.767 132.109 283.198 132.109Z" fill="black"/>
<path d="M289.703 133.014C289.703 132.335 289.274 131.922 288.275 131.922H287.355C286.988 131.922 286.762 131.852 286.762 131.618C286.762 131.392 286.988 131.259 287.222 131.189C287.355 131.22 287.519 131.236 287.675 131.236C288.65 131.236 289.243 130.674 289.243 129.855C289.243 129.41 289.063 129.036 288.736 128.794V128.576H289.531V127.967H288.915C288.572 127.967 288.424 128.186 288.424 128.521V128.607C288.205 128.521 287.956 128.467 287.675 128.467C286.708 128.467 286.115 129.036 286.115 129.855C286.115 130.409 286.388 130.853 286.864 131.08V131.111C286.466 131.204 286.162 131.407 286.162 131.813C286.162 132.101 286.302 132.304 286.559 132.406V132.491C286.146 132.593 285.896 132.835 285.896 133.271C285.896 133.895 286.411 134.254 287.698 134.254C289.063 134.254 289.703 133.849 289.703 133.014ZM289.024 133.084C289.024 133.498 288.65 133.7 287.963 133.7H287.417C286.786 133.7 286.544 133.435 286.544 133.1C286.544 132.874 286.645 132.702 286.871 132.585H288.229C288.821 132.585 289.024 132.78 289.024 133.084ZM287.683 130.69C287.168 130.69 286.848 130.448 286.848 129.956V129.754C286.848 129.262 287.168 129.02 287.683 129.02C288.197 129.02 288.517 129.262 288.517 129.754V129.956C288.517 130.448 288.197 130.69 287.683 130.69Z" fill="black"/>
<path d="M291.89 132.694C292.646 132.694 293.231 132.343 293.512 131.821L293.044 131.423C292.826 131.836 292.459 132.078 291.952 132.078C291.227 132.078 290.813 131.594 290.813 130.924V130.76H293.66V130.456C293.66 129.325 293.021 128.467 291.89 128.467C290.766 128.467 290.057 129.301 290.057 130.58C290.057 131.86 290.766 132.694 291.89 132.694ZM291.89 129.052C292.498 129.052 292.888 129.504 292.888 130.175V130.253H290.813V130.198C290.813 129.535 291.258 129.052 291.89 129.052Z" fill="black"/>
<path d="M295.889 132.694C296.841 132.694 297.433 132.203 297.433 131.415C297.433 130.791 297.067 130.401 296.178 130.268L295.834 130.214C295.366 130.144 295.132 129.995 295.132 129.637C295.132 129.293 295.382 129.067 295.873 129.067C296.357 129.067 296.7 129.293 296.895 129.551L297.355 129.114C297.012 128.708 296.583 128.467 295.897 128.467C295.047 128.467 294.43 128.888 294.43 129.683C294.43 130.432 294.969 130.752 295.741 130.861L296.084 130.916C296.575 130.986 296.731 131.197 296.731 131.493C296.731 131.867 296.451 132.094 295.936 132.094C295.444 132.094 295.07 131.875 294.766 131.493L294.274 131.914C294.649 132.39 295.14 132.694 295.889 132.694Z" fill="black"/>
<path d="M253.757 132.601H254.685L252.548 129.473L254.537 127.156H253.632L252.064 129.028L251.292 129.995H251.261V127.156H250.504V132.601H251.261V130.838L252.017 129.98L253.757 132.601Z" fill="#808080"/>
<path d="M256.83 132.694C257.587 132.694 258.172 132.343 258.453 131.821L257.985 131.423C257.766 131.836 257.4 132.078 256.893 132.078C256.167 132.078 255.754 131.594 255.754 130.924V130.76H258.601V130.456C258.601 129.325 257.961 128.467 256.83 128.467C255.707 128.467 254.997 129.301 254.997 130.58C254.997 131.86 255.707 132.694 256.83 132.694ZM256.83 129.052C257.439 129.052 257.829 129.504 257.829 130.175V130.253H255.754V130.198C255.754 129.535 256.199 129.052 256.83 129.052Z" fill="#808080"/>
<path d="M261.135 131.142L260.901 131.899H260.862L260.651 131.142L259.754 128.56H259.029L260.527 132.764L260.254 133.544H259.591V134.161H259.988C260.605 134.161 260.8 133.989 260.987 133.482L262.742 128.56H262.04L261.135 131.142Z" fill="#808080"/>
<path d="M276.751 149.494C277.866 149.494 278.607 148.745 278.607 147.669C278.607 146.639 277.929 145.992 277.001 145.992C276.33 145.992 275.955 146.343 275.706 146.78L275.667 146.764C275.948 145.539 276.618 144.822 277.812 143.956H276.821C275.94 144.541 274.879 145.789 274.879 147.388C274.879 148.691 275.589 149.494 276.751 149.494ZM276.743 148.862C276.065 148.862 275.659 148.472 275.659 147.77V147.7C275.659 146.998 276.065 146.608 276.743 146.608C277.422 146.608 277.827 146.998 277.827 147.7V147.77C277.827 148.472 277.422 148.862 276.743 148.862Z" fill="black"/>
<path d="M281.42 149.494C282.746 149.494 283.339 148.457 283.339 146.678C283.339 144.9 282.746 143.862 281.42 143.862C280.094 143.862 279.501 144.9 279.501 146.678C279.501 148.457 280.094 149.494 281.42 149.494ZM281.42 148.831C280.609 148.831 280.297 148.145 280.297 147.138V146.218C280.297 145.212 280.609 144.525 281.42 144.525C282.231 144.525 282.543 145.212 282.543 146.218V147.138C282.543 148.145 282.231 148.831 281.42 148.831Z" fill="black"/>
<path d="M286.097 149.494C287.423 149.494 288.016 148.457 288.016 146.678C288.016 144.9 287.423 143.862 286.097 143.862C284.771 143.862 284.178 144.9 284.178 146.678C284.178 148.457 284.771 149.494 286.097 149.494ZM286.097 148.831C285.286 148.831 284.974 148.145 284.974 147.138V146.218C284.974 145.212 285.286 144.525 286.097 144.525C286.908 144.525 287.22 145.212 287.22 146.218V147.138C287.22 148.145 286.908 148.831 286.097 148.831Z" fill="black"/>
<path d="M290.774 149.494C292.1 149.494 292.693 148.457 292.693 146.678C292.693 144.9 292.1 143.862 290.774 143.862C289.448 143.862 288.855 144.9 288.855 146.678C288.855 148.457 289.448 149.494 290.774 149.494ZM290.774 148.831C289.963 148.831 289.651 148.145 289.651 147.138V146.218C289.651 145.212 289.963 144.525 290.774 144.525C291.585 144.525 291.897 145.212 291.897 146.218V147.138C291.897 148.145 291.585 148.831 290.774 148.831Z" fill="black"/>
<path d="M295.451 149.494C296.777 149.494 297.37 148.457 297.37 146.678C297.37 144.9 296.777 143.862 295.451 143.862C294.125 143.862 293.532 144.9 293.532 146.678C293.532 148.457 294.125 149.494 295.451 149.494ZM295.451 148.831C294.64 148.831 294.328 148.145 294.328 147.138V146.218C294.328 145.212 294.64 144.525 295.451 144.525C296.262 144.525 296.574 145.212 296.574 146.218V147.138C296.574 148.145 296.262 148.831 295.451 148.831Z" fill="black"/>
<path d="M252.648 149.401L254.465 143.957H253.693L252.812 146.679L252.235 148.66H252.196L251.626 146.679L250.745 143.957H249.949L251.751 149.401H252.648Z" fill="#808080"/>
<path d="M258.357 149.401V148.785H257.905V146.655C257.905 145.782 257.328 145.267 256.322 145.267C255.573 145.267 255.097 145.618 254.855 146.055L255.292 146.453C255.503 146.109 255.807 145.875 256.283 145.875C256.891 145.875 257.18 146.18 257.18 146.718V147.084H256.415C255.261 147.084 254.691 147.506 254.691 148.286C254.691 149.027 255.183 149.495 256.025 149.495C256.602 149.495 257.031 149.229 257.195 148.73H257.234C257.289 149.12 257.499 149.401 257.944 149.401H258.357ZM256.189 148.91C255.737 148.91 255.448 148.699 255.448 148.325V148.169C255.448 147.794 255.744 147.591 256.407 147.591H257.18V148.215C257.18 148.621 256.758 148.91 256.189 148.91Z" fill="#808080"/>
<path d="M260.526 149.401V148.785H259.949V143.629H259.223V148.66C259.223 149.105 259.481 149.401 259.98 149.401H260.526Z" fill="#808080"/>
<path d="M263.867 149.401H264.592V145.361H263.867V148.122C263.867 148.629 263.399 148.863 262.939 148.863C262.369 148.863 262.081 148.512 262.081 147.833V145.361H261.355V147.942C261.355 148.925 261.87 149.495 262.697 149.495C263.368 149.495 263.68 149.128 263.828 148.738H263.867V149.401Z" fill="#808080"/>
<path d="M267.417 149.495C268.174 149.495 268.759 149.144 269.04 148.621L268.572 148.223C268.353 148.637 267.987 148.878 267.48 148.878C266.754 148.878 266.341 148.395 266.341 147.724V147.56H269.188V147.256C269.188 146.125 268.548 145.267 267.417 145.267C266.294 145.267 265.584 146.102 265.584 147.381C265.584 148.66 266.294 149.495 267.417 149.495ZM267.417 145.852C268.026 145.852 268.416 146.304 268.416 146.975V147.053H266.341V146.999C266.341 146.336 266.786 145.852 267.417 145.852Z" fill="#808080"/>
<path d="M239 124.403C239 124.071 239.269 123.803 239.6 123.803H242C242.331 123.803 242.6 124.071 242.6 124.403V152.003C242.6 152.334 242.331 152.603 242 152.603H239.6C239.269 152.603 239 152.334 239 152.003V124.403Z" fill="#60B058"/>
<path d="M275.862 214.201V211.954H277.352C278.335 211.954 278.896 211.322 278.896 210.355C278.896 209.388 278.335 208.756 277.352 208.756H275.105V214.201H275.862ZM275.862 209.427H277.321C277.804 209.427 278.093 209.692 278.093 210.16V210.55C278.093 211.018 277.804 211.283 277.321 211.283H275.862V209.427Z" fill="black"/>
<path d="M280.499 214.201V211.549C280.499 211.151 280.889 210.886 281.56 210.886H281.918V210.16H281.677C281.029 210.16 280.67 210.535 280.538 210.932H280.499V210.16H279.773V214.201H280.499Z" fill="black"/>
<path d="M283.065 209.318C283.369 209.318 283.502 209.154 283.502 208.92V208.811C283.502 208.577 283.369 208.413 283.065 208.413C282.761 208.413 282.628 208.577 282.628 208.811V208.92C282.628 209.154 282.761 209.318 283.065 209.318ZM282.698 214.201H283.424V210.16H282.698V214.201Z" fill="black"/>
<path d="M286.23 214.294C287.003 214.294 287.533 213.92 287.79 213.311L287.26 212.984C287.057 213.421 286.722 213.67 286.23 213.67C285.536 213.67 285.185 213.194 285.185 212.531V211.829C285.185 211.166 285.536 210.691 286.23 210.691C286.698 210.691 287.026 210.932 287.159 211.33L287.759 211.034C287.525 210.457 287.026 210.067 286.23 210.067C285.076 210.067 284.413 210.886 284.413 212.18C284.413 213.475 285.076 214.294 286.23 214.294Z" fill="black"/>
<path d="M290.138 214.294C290.895 214.294 291.48 213.943 291.761 213.421L291.293 213.023C291.074 213.436 290.708 213.678 290.201 213.678C289.475 213.678 289.062 213.194 289.062 212.524V212.36H291.909V212.056C291.909 210.925 291.269 210.067 290.138 210.067C289.015 210.067 288.305 210.901 288.305 212.18C288.305 213.46 289.015 214.294 290.138 214.294ZM290.138 210.652C290.747 210.652 291.137 211.104 291.137 211.775V211.853H289.062V211.798C289.062 211.135 289.507 210.652 290.138 210.652Z" fill="black"/>
<path d="M253.757 214.2H254.685L252.548 211.072L254.537 208.756H253.632L252.064 210.628L251.292 211.595H251.261V208.756H250.504V214.2H251.261V212.437L252.017 211.579L253.757 214.2Z" fill="#808080"/>
<path d="M256.83 214.294C257.587 214.294 258.172 213.943 258.453 213.42L257.985 213.022C257.766 213.436 257.4 213.678 256.893 213.678C256.167 213.678 255.754 213.194 255.754 212.523V212.359H258.601V212.055C258.601 210.924 257.961 210.066 256.83 210.066C255.707 210.066 254.997 210.901 254.997 212.18C254.997 213.459 255.707 214.294 256.83 214.294ZM256.83 210.651C257.439 210.651 257.829 211.104 257.829 211.774V211.852H255.754V211.798C255.754 211.135 256.199 210.651 256.83 210.651Z" fill="#808080"/>
<path d="M261.135 212.742L260.901 213.498H260.862L260.651 212.742L259.754 210.16H259.029L260.527 214.364L260.254 215.144H259.591V215.76H259.988C260.605 215.76 260.8 215.589 260.987 215.082L262.742 210.16H262.04L261.135 212.742Z" fill="#808080"/>
<path d="M278.323 225.557H275.32L275.125 228.567L275.757 228.653C275.967 228.427 276.217 228.209 276.7 228.209C277.402 228.209 277.785 228.599 277.785 229.285V229.363C277.785 230.049 277.402 230.439 276.7 230.439C276.061 230.439 275.788 230.143 275.515 229.714L274.953 230.143C275.281 230.627 275.764 231.095 276.7 231.095C277.886 231.095 278.58 230.338 278.58 229.269C278.58 228.209 277.886 227.577 276.95 227.577C276.357 227.577 276.076 227.834 275.827 228.224H275.764L275.913 226.22H278.323V225.557Z" fill="black"/>
<path d="M280.16 231.095C280.519 231.095 280.675 230.892 280.675 230.611V230.494C280.675 230.213 280.519 230.01 280.16 230.01C279.802 230.01 279.646 230.213 279.646 230.494V230.611C279.646 230.892 279.802 231.095 280.16 231.095Z" fill="black"/>
<path d="M285.529 231.001V230.33H284.164V225.557H282.994L281.583 226.976L282.035 227.421L283.353 226.11H283.408V230.33H281.918V231.001H285.529Z" fill="black"/>
<path d="M289.848 225.557H286.845L286.65 228.567L287.281 228.653C287.492 228.427 287.742 228.209 288.225 228.209C288.927 228.209 289.309 228.599 289.309 229.285V229.363C289.309 230.049 288.927 230.439 288.225 230.439C287.586 230.439 287.313 230.143 287.04 229.714L286.478 230.143C286.806 230.627 287.289 231.095 288.225 231.095C289.411 231.095 290.105 230.338 290.105 229.269C290.105 228.209 289.411 227.577 288.475 227.577C287.882 227.577 287.601 227.834 287.352 228.224H287.289L287.437 226.22H289.848V225.557Z" fill="black"/>
<path d="M252.648 231.001L254.465 225.556H253.693L252.812 228.278L252.235 230.26H252.196L251.626 228.278L250.745 225.556H249.949L251.751 231.001H252.648Z" fill="#808080"/>
<path d="M258.357 231.001V230.384H257.905V228.255C257.905 227.381 257.328 226.867 256.322 226.867C255.573 226.867 255.097 227.218 254.855 227.654L255.292 228.052C255.503 227.709 255.807 227.475 256.283 227.475C256.891 227.475 257.18 227.779 257.18 228.317V228.684H256.415C255.261 228.684 254.691 229.105 254.691 229.885C254.691 230.626 255.183 231.094 256.025 231.094C256.602 231.094 257.031 230.829 257.195 230.33H257.234C257.289 230.72 257.499 231.001 257.944 231.001H258.357ZM256.189 230.509C255.737 230.509 255.448 230.299 255.448 229.924V229.768C255.448 229.394 255.744 229.191 256.407 229.191H257.18V229.815C257.18 230.221 256.758 230.509 256.189 230.509Z" fill="#808080"/>
<path d="M260.526 231.001V230.384H259.949V225.229H259.223V230.26C259.223 230.704 259.481 231.001 259.98 231.001H260.526Z" fill="#808080"/>
<path d="M263.867 231.001H264.592V226.96H263.867V229.721C263.867 230.228 263.399 230.462 262.939 230.462C262.369 230.462 262.081 230.111 262.081 229.433V226.96H261.355V229.542C261.355 230.525 261.87 231.094 262.697 231.094C263.368 231.094 263.68 230.728 263.828 230.338H263.867V231.001Z" fill="#808080"/>
<path d="M267.417 231.094C268.174 231.094 268.759 230.743 269.04 230.221L268.572 229.823C268.353 230.236 267.987 230.478 267.48 230.478C266.754 230.478 266.341 229.994 266.341 229.324V229.16H269.188V228.856C269.188 227.725 268.548 226.867 267.417 226.867C266.294 226.867 265.584 227.701 265.584 228.98C265.584 230.26 266.294 231.094 267.417 231.094ZM267.417 227.452C268.026 227.452 268.416 227.904 268.416 228.575V228.653H266.341V228.598C266.341 227.935 266.786 227.452 267.417 227.452Z" fill="#808080"/>
<path d="M239 206.001C239 205.67 239.269 205.401 239.6 205.401H242C242.331 205.401 242.6 205.67 242.6 206.001V233.601C242.6 233.933 242.331 234.201 242 234.201H239.6C239.269 234.201 239 233.933 239 233.601V206.001Z" fill="#DD4FDF"/>
<path d="M275.862 173.4V170.982H278.171V170.311H275.862V168.626H278.42V167.956H275.105V173.4H275.862Z" fill="black"/>
<path d="M280.785 173.494C281.541 173.494 282.126 173.143 282.407 172.62L281.939 172.222C281.721 172.636 281.354 172.877 280.847 172.877C280.122 172.877 279.708 172.394 279.708 171.723V171.559H282.555V171.255C282.555 170.124 281.916 169.266 280.785 169.266C279.661 169.266 278.952 170.101 278.952 171.38C278.952 172.659 279.661 173.494 280.785 173.494ZM280.785 169.851C281.393 169.851 281.783 170.303 281.783 170.974V171.052H279.708V170.998C279.708 170.335 280.153 169.851 280.785 169.851Z" fill="black"/>
<path d="M286.102 173.4H286.828V167.628H286.102V170.023H286.071C285.884 169.523 285.463 169.266 284.909 169.266C283.895 169.266 283.286 170.069 283.286 171.38C283.286 172.69 283.895 173.494 284.909 173.494C285.463 173.494 285.884 173.236 286.071 172.737H286.102V173.4ZM285.119 172.862C284.472 172.862 284.059 172.402 284.059 171.723V171.037C284.059 170.358 284.472 169.898 285.119 169.898C285.665 169.898 286.102 170.21 286.102 170.639V172.121C286.102 172.55 285.665 172.862 285.119 172.862Z" fill="black"/>
<path d="M289.331 173.4H290.088V168.626H291.773V167.956H287.646V168.626H289.331V173.4Z" fill="black"/>
<path d="M295.399 173.4V172.784H294.946V170.654C294.946 169.781 294.369 169.266 293.363 169.266C292.614 169.266 292.138 169.617 291.896 170.054L292.333 170.452C292.544 170.108 292.848 169.874 293.324 169.874C293.932 169.874 294.221 170.179 294.221 170.717V171.083H293.456C292.302 171.083 291.733 171.505 291.733 172.285C291.733 173.026 292.224 173.494 293.066 173.494C293.644 173.494 294.073 173.228 294.236 172.729H294.275C294.33 173.119 294.541 173.4 294.985 173.4H295.399ZM293.23 172.909C292.778 172.909 292.489 172.698 292.489 172.324V172.168C292.489 171.793 292.786 171.59 293.449 171.59H294.221V172.214C294.221 172.62 293.8 172.909 293.23 172.909Z" fill="black"/>
<path d="M295.789 173.4H296.584L297.637 171.871H297.661L298.659 173.4H299.502L298.066 171.333L299.478 169.36H298.683L297.684 170.818H297.661L296.686 169.36H295.843L297.255 171.364L295.789 173.4Z" fill="black"/>
<path d="M301.91 173.4L302.628 170.639L303.096 168.798H303.111L303.564 170.639L304.274 173.4H305.116L306.489 167.956H305.732L305.132 170.576L304.703 172.503H304.679L304.203 170.576L303.548 167.956H302.698L302.027 170.576L301.551 172.511H301.536L301.115 170.576L300.537 167.956H299.757L301.06 173.4H301.91Z" fill="black"/>
<path d="M307.668 168.517C307.973 168.517 308.105 168.353 308.105 168.119V168.01C308.105 167.776 307.973 167.612 307.668 167.612C307.364 167.612 307.232 167.776 307.232 168.01V168.119C307.232 168.353 307.364 168.517 307.668 168.517ZM307.302 173.4H308.027V169.36H307.302V173.4Z" fill="black"/>
<path d="M311.06 173.4V172.784H310.257V169.976H311.123V169.36H310.257V168.244H309.602V168.985C309.602 169.258 309.516 169.36 309.243 169.36H308.884V169.976H309.531V172.636C309.531 173.104 309.797 173.4 310.296 173.4H311.06Z" fill="black"/>
<path d="M312.093 173.4H312.818V170.631C312.818 170.14 313.279 169.898 313.754 169.898C314.324 169.898 314.605 170.249 314.605 170.927V173.4H315.33V170.818C315.33 169.835 314.823 169.266 313.996 169.266C313.388 169.266 313.045 169.578 312.857 170.023H312.818V167.628H312.093V173.4Z" fill="black"/>
<path d="M316.564 173.4H317.29V170.631C317.29 170.14 317.75 169.898 318.226 169.898C318.795 169.898 319.076 170.249 319.076 170.927V173.4H319.801V170.818C319.801 169.835 319.294 169.266 318.468 169.266C317.859 169.266 317.516 169.578 317.329 170.023H317.29V167.628H316.564V173.4Z" fill="black"/>
<path d="M322.58 173.494C323.337 173.494 323.922 173.143 324.202 172.62L323.734 172.222C323.516 172.636 323.149 172.877 322.642 172.877C321.917 172.877 321.504 172.394 321.504 171.723V171.559H324.351V171.255C324.351 170.124 323.711 169.266 322.58 169.266C321.457 169.266 320.747 170.101 320.747 171.38C320.747 172.659 321.457 173.494 322.58 173.494ZM322.58 169.851C323.188 169.851 323.578 170.303 323.578 170.974V171.052H321.504V170.998C321.504 170.335 321.948 169.851 322.58 169.851Z" fill="black"/>
<path d="M326.642 173.4V172.784H326.065V167.628H325.339V172.659C325.339 173.104 325.597 173.4 326.096 173.4H326.642Z" fill="black"/>
<path d="M330.069 173.4H330.794V167.628H330.069V170.023H330.037C329.85 169.523 329.429 169.266 328.875 169.266C327.861 169.266 327.253 170.069 327.253 171.38C327.253 172.69 327.861 173.494 328.875 173.494C329.429 173.494 329.85 173.236 330.037 172.737H330.069V173.4ZM329.086 172.862C328.438 172.862 328.025 172.402 328.025 171.723V171.037C328.025 170.358 328.438 169.898 329.086 169.898C329.632 169.898 330.069 170.21 330.069 170.639V172.121C330.069 172.55 329.632 172.862 329.086 172.862Z" fill="black"/>
<path d="M253.757 173.4H254.685L252.548 170.273L254.537 167.956H253.632L252.064 169.828L251.292 170.795H251.261V167.956H250.504V173.4H251.261V171.638L252.017 170.78L253.757 173.4Z" fill="#808080"/>
<path d="M256.83 173.494C257.587 173.494 258.172 173.143 258.453 172.62L257.985 172.223C257.766 172.636 257.4 172.878 256.893 172.878C256.167 172.878 255.754 172.394 255.754 171.723V171.56H258.601V171.255C258.601 170.124 257.961 169.266 256.83 169.266C255.707 169.266 254.997 170.101 254.997 171.38C254.997 172.659 255.707 173.494 256.83 173.494ZM256.83 169.851C257.439 169.851 257.829 170.304 257.829 170.975V171.053H255.754V170.998C255.754 170.335 256.199 169.851 256.83 169.851Z" fill="#808080"/>
<path d="M261.135 171.942L260.901 172.698H260.862L260.651 171.942L259.754 169.36H259.029L260.527 173.564L260.254 174.344H259.591V174.96H259.988C260.605 174.96 260.8 174.789 260.987 174.282L262.742 169.36H262.04L261.135 171.942Z" fill="#808080"/>
<path d="M276.743 190.294C277.991 190.294 278.654 189.615 278.654 188.718C278.654 187.985 278.217 187.556 277.562 187.377V187.314C278.124 187.119 278.49 186.667 278.49 186.043C278.49 185.216 277.851 184.662 276.743 184.662C275.635 184.662 274.996 185.216 274.996 186.043C274.996 186.667 275.362 187.119 275.924 187.314V187.377C275.269 187.556 274.832 187.985 274.832 188.718C274.832 189.615 275.495 190.294 276.743 190.294ZM276.743 189.662C276.033 189.662 275.628 189.319 275.628 188.742V188.578C275.628 188.001 276.033 187.657 276.743 187.657C277.453 187.657 277.858 188.001 277.858 188.578V188.742C277.858 189.319 277.453 189.662 276.743 189.662ZM276.743 187.049C276.103 187.049 275.752 186.76 275.752 186.23V186.113C275.752 185.583 276.103 185.294 276.743 185.294C277.383 185.294 277.734 185.583 277.734 186.113V186.23C277.734 186.76 277.383 187.049 276.743 187.049Z" fill="black"/>
<path d="M281.428 190.294C282.543 190.294 283.284 189.545 283.284 188.469C283.284 187.439 282.606 186.792 281.677 186.792C281.007 186.792 280.632 187.143 280.383 187.579L280.344 187.564C280.624 186.339 281.295 185.622 282.489 184.756H281.498C280.617 185.341 279.556 186.589 279.556 188.188C279.556 189.49 280.266 190.294 281.428 190.294ZM281.42 189.662C280.741 189.662 280.336 189.272 280.336 188.57V188.5C280.336 187.798 280.741 187.408 281.42 187.408C282.099 187.408 282.504 187.798 282.504 188.5V188.57C282.504 189.272 282.099 189.662 281.42 189.662Z" fill="black"/>
<path d="M285.223 187.033V187.681H285.855C286.573 187.681 286.963 188.024 286.963 188.625V188.695C286.963 189.295 286.573 189.639 285.855 189.639C285.208 189.639 284.88 189.342 284.615 188.913L284.046 189.342C284.389 189.826 284.888 190.294 285.863 190.294C286.994 190.294 287.751 189.646 287.751 188.703C287.751 187.899 287.205 187.462 286.604 187.345V187.314C287.181 187.174 287.649 186.753 287.649 186.051C287.649 185.169 286.916 184.662 285.941 184.662C285.06 184.662 284.576 185.099 284.272 185.559L284.802 185.988C285.036 185.575 285.387 185.317 285.925 185.317C286.479 185.317 286.854 185.598 286.854 186.136V186.191C286.854 186.675 286.503 187.033 285.801 187.033H285.223Z" fill="black"/>
<path d="M292.357 184.756H289.354L289.159 187.767L289.791 187.852C290.002 187.626 290.251 187.408 290.735 187.408C291.437 187.408 291.819 187.798 291.819 188.484V188.562C291.819 189.249 291.437 189.639 290.735 189.639C290.095 189.639 289.822 189.342 289.549 188.913L288.988 189.342C289.315 189.826 289.799 190.294 290.735 190.294C291.92 190.294 292.615 189.537 292.615 188.469C292.615 187.408 291.92 186.776 290.984 186.776C290.392 186.776 290.111 187.033 289.861 187.423H289.799L289.947 185.419H292.357V184.756Z" fill="black"/>
<path d="M252.648 190.2L254.465 184.755H253.693L252.812 187.478L252.235 189.459H252.196L251.626 187.478L250.745 184.755H249.949L251.751 190.2H252.648Z" fill="#808080"/>
<path d="M258.357 190.2V189.584H257.905V187.454C257.905 186.581 257.328 186.066 256.322 186.066C255.573 186.066 255.097 186.417 254.855 186.854L255.292 187.251C255.503 186.908 255.807 186.674 256.283 186.674C256.891 186.674 257.18 186.978 257.18 187.517V187.883H256.415C255.261 187.883 254.691 188.304 254.691 189.084C254.691 189.825 255.183 190.293 256.025 190.293C256.602 190.293 257.031 190.028 257.195 189.529H257.234C257.289 189.919 257.499 190.2 257.944 190.2H258.357ZM256.189 189.708C255.737 189.708 255.448 189.498 255.448 189.123V188.967C255.448 188.593 255.744 188.39 256.407 188.39H257.18V189.014C257.18 189.42 256.758 189.708 256.189 189.708Z" fill="#808080"/>
<path d="M260.526 190.2V189.584H259.949V184.428H259.223V189.459C259.223 189.903 259.481 190.2 259.98 190.2H260.526Z" fill="#808080"/>
<path d="M263.867 190.2H264.592V186.159H263.867V188.921C263.867 189.428 263.399 189.662 262.939 189.662C262.369 189.662 262.081 189.311 262.081 188.632V186.159H261.355V188.741C261.355 189.724 261.87 190.293 262.697 190.293C263.368 190.293 263.68 189.927 263.828 189.537H263.867V190.2Z" fill="#808080"/>
<path d="M267.417 190.293C268.174 190.293 268.759 189.942 269.04 189.42L268.572 189.022C268.353 189.435 267.987 189.677 267.48 189.677C266.754 189.677 266.341 189.194 266.341 188.523V188.359H269.188V188.055C269.188 186.924 268.548 186.066 267.417 186.066C266.294 186.066 265.584 186.9 265.584 188.18C265.584 189.459 266.294 190.293 267.417 190.293ZM267.417 186.651C268.026 186.651 268.416 187.103 268.416 187.774V187.852H266.341V187.797C266.341 187.134 266.786 186.651 267.417 186.651Z" fill="#808080"/>
<path d="M239 165.202C239 164.87 239.269 164.602 239.6 164.602H242C242.331 164.602 242.6 164.87 242.6 165.202V192.802C242.6 193.133 242.331 193.402 242 193.402H239.6C239.269 193.402 239 193.133 239 192.802V165.202Z" fill="#5B9790"/>
</g>
<defs>
<filter id="filter0_i" x="225" y="0" width="120" height="288" filterUnits="userSpaceOnUse" color-interpolation-filters="sRGB">
<feFlood flood-opacity="0" result="BackgroundImageFix"/>
<feBlend mode="normal" in="SourceGraphic" in2="BackgroundImageFix" result="shape"/>
<feColorMatrix in="SourceAlpha" type="matrix" values="0 0 0 0 0 0 0 0 0 0 0 0 0 0 0 0 0 0 127 0" result="hardAlpha"/>
<feOffset dx="1"/>
<feComposite in2="hardAlpha" operator="arithmetic" k2="-1" k3="1"/>
<feColorMatrix type="matrix" values="0 0 0 0 0 0 0 0 0 0 0 0 0 0 0 0 0 0 0.1 0"/>
<feBlend mode="normal" in2="shape" result="effect1_innerShadow"/>
</filter>
<filter id="filter1_d" x="1.71" y="35.85" width="221.58" height="260.58" filterUnits="userSpaceOnUse" color-interpolation-filters="sRGB">
<feFlood flood-opacity="0" result="BackgroundImageFix"/>
<feColorMatrix in="SourceAlpha" type="matrix" values="0 0 0 0 0 0 0 0 0 0 0 0 0 0 0 0 0 0 127 0"/>
<feOffset dy="11.14"/>
<feGaussianBlur stdDeviation="11.145"/>
<feColorMatrix type="matrix" values="0 0 0 0 0.290196 0 0 0 0 0.290196 0 0 0 0 0.545098 0 0 0 0.15 0"/>
<feBlend mode="normal" in2="BackgroundImageFix" result="effect1_dropShadow"/>
<feBlend mode="normal" in="SourceGraphic" in2="effect1_dropShadow" result="shape"/>
</filter>
<clipPath id="clip0">
<rect width="345" height="288" fill="white"/>
</clipPath>
</defs>
</svg>
