<svg width="48" height="48" viewBox="0 0 48 48" fill="none" xmlns="http://www.w3.org/2000/svg">
<path d="M33.6 3C27.312 3 22.2 8.112 22.2 14.4V19.8H25.8V14.4C25.8 10.104 29.304 6.6 33.6 6.6C37.896 6.6 41.4 10.104 41.4 14.4C41.4 18.696 37.896 22.2 33.6 22.2H14.4C8.112 22.2 3 27.312 3 33.6C3 39.888 8.112 45 14.4 45C20.688 45 25.8 39.888 25.8 33.6V28.2H22.2V33.6C22.2 37.896 18.696 41.4 14.4 41.4C10.104 41.4 6.6 37.896 6.6 33.6C6.6 29.304 10.104 25.8 14.4 25.8H33.6C39.888 25.8 45 20.688 45 14.4C45 8.112 39.888 3 33.6 3Z" fill="black"/>
<path d="M38.4002 14.4L40.1162 15.876L42.0002 14.4C42.0002 9.756 38.2442 6 33.6002 6C28.9562 6 25.2002 9.756 25.2002 14.4V19.2L27.0722 20.616L28.8002 19.2V14.4C28.8002 11.748 30.9482 9.6 33.6002 9.6C36.2522 9.6 38.4002 11.748 38.4002 14.4Z" fill="#6B80D2"/>
<path d="M33.6002 3.6C39.5642 3.6 44.4002 8.436 44.4002 14.4L46.2242 15.876L48.0002 14.4C48.0002 6.444 41.5562 0 33.6002 0C25.6442 0 19.2002 6.444 19.2002 14.4V19.2L21.0122 20.616L22.8002 19.2V14.4C22.8002 8.436 27.6362 3.6 33.6002 3.6Z" fill="#6B80D2"/>
<path d="M9.6 33.6L7.884 32.124L6 33.6C6 38.244 9.756 42 14.4 42C19.044 42 22.8 38.244 22.8 33.6V28.8L20.928 27.384L19.2 28.8V33.6C19.2 36.252 17.052 38.4 14.4 38.4C11.748 38.4 9.6 36.252 9.6 33.6Z" fill="#86BFF2"/>
<path d="M14.4 44.4C8.436 44.4 3.6 39.564 3.6 33.6L1.776 32.124L0 33.6C0 41.556 6.444 48 14.4 48C22.356 48 28.8 41.556 28.8 33.6V28.8L26.988 27.384L25.2 28.8V33.6C25.2 39.564 20.364 44.4 14.4 44.4Z" fill="#86BFF2"/>
<path d="M14.4 22.8H33.6C38.244 22.8 42 19.044 42 14.4H38.4C38.4 17.052 36.252 19.2 33.6 19.2H14.4C6.444 19.2 0 25.644 0 33.6H3.6C3.6 27.636 8.436 22.8 14.4 22.8Z" fill="#C88BC4"/>
<path d="M44.4 14.4C44.4 20.364 39.564 25.2 33.6 25.2H14.4C9.756 25.2 6 28.956 6 33.6H9.6C9.6 30.948 11.748 28.8 14.4 28.8H33.6C41.556 28.8 48 22.356 48 14.4H44.4Z" fill="#C88BC4"/>
</svg>
