<svg width="41" height="48" viewBox="0 0 41 48" fill="none" xmlns="http://www.w3.org/2000/svg">
<g clip-path="url(#clip0)">
<path d="M24.5999 0C15.6479 0 8.3999 7.248 8.3999 16.2C8.3999 21.816 11.2559 26.76 15.5999 29.664V38.892V46.8C15.5999 47.868 16.8959 48.408 17.6519 47.652L24.5999 40.704L31.5479 47.652C32.3039 48.408 33.5999 47.868 33.5999 46.8V38.892V29.664C37.9439 26.76 40.7999 21.816 40.7999 16.2C40.7999 7.248 33.5519 0 24.5999 0Z" fill="#6B80D2"/>
<path d="M22.8002 37.404L19.2002 41.004V38.892V31.452C20.3522 31.86 21.5522 32.148 22.8002 32.292V37.404Z" fill="black"/>
<path d="M24.6 28.8C31.5588 28.8 37.2 23.1588 37.2 16.2C37.2 9.24122 31.5588 3.60001 24.6 3.60001C17.6412 3.60001 12 9.24122 12 16.2C12 23.1588 17.6412 28.8 24.6 28.8Z" fill="black"/>
<path d="M24.5998 26.4C30.2278 26.4 34.7998 21.828 34.7998 16.2C34.7998 10.572 30.2278 6 24.5998 6L19.7998 16.2L24.5998 26.4Z" fill="#86BFF2"/>
<path d="M24.5999 6C18.9719 6 14.3999 10.572 14.3999 16.2C14.3999 21.828 18.9719 26.4 24.5999 26.4V6Z" fill="#C88BC4"/>
<path d="M30.7441 16.788L26.2921 17.904L25.1761 22.356C25.0201 22.956 24.1681 22.956 24.0121 22.356L22.8961 17.904L18.4441 16.788C17.8441 16.632 17.8441 15.78 18.4441 15.624L22.8961 14.508L24.0121 10.056C24.1681 9.456 25.0201 9.456 25.1761 10.056L26.2921 14.508L30.7441 15.624C31.3561 15.768 31.3561 16.632 30.7441 16.788Z" fill="black"/>
<path d="M7.94414 29.988L5.41214 30.624L4.77614 33.156C4.62014 33.756 3.76814 33.756 3.61214 33.156L2.97614 30.624L0.444141 29.988C-0.155859 29.832 -0.155859 28.98 0.444141 28.824L2.97614 28.188L3.61214 25.656C3.76814 25.056 4.62014 25.056 4.77614 25.656L5.41214 28.188L7.94414 28.824C8.55614 28.968 8.55614 29.832 7.94414 29.988Z" fill="#86BFF2"/>
<path d="M10.1999 37.2C11.194 37.2 11.9999 36.3941 11.9999 35.4C11.9999 34.4059 11.194 33.6 10.1999 33.6C9.20579 33.6 8.3999 34.4059 8.3999 35.4C8.3999 36.3941 9.20579 37.2 10.1999 37.2Z" fill="#C88BC4"/>
</g>
<defs>
<clipPath id="clip0">
<rect width="40.8" height="48" fill="white"/>
</clipPath>
</defs>
</svg>
