<svg width="48" height="50" viewBox="0 0 48 50" fill="none" xmlns="http://www.w3.org/2000/svg">
<g clip-path="url(#clip0)">
<path d="M23.7374 26.25C10.8374 26.25 0.337389 36.5375 -0.000111154 49.35C-0.0126112 49.7125 0.287389 50 0.637389 50H3.13739C3.47489 50 3.73739 49.725 3.74989 49.3875C4.07489 38.625 12.8999 30 23.7374 30C34.5749 30 43.4124 38.625 43.7249 49.3875C43.7374 49.725 43.9999 50 44.3374 50H46.8374C47.1874 50 47.4874 49.7125 47.4749 49.35C47.1374 36.5375 36.6374 26.25 23.7374 26.25Z" fill="#6B80D2"/>
<path d="M23.7374 32.5C14.2999 32.5 6.59989 39.9875 6.24989 49.35C6.23739 49.7 6.53739 50 6.88739 50H9.38739C9.72489 50 9.98739 49.725 9.99989 49.4C10.3249 42.075 16.3499 36.25 23.7374 36.25C31.1249 36.25 37.1624 42.0875 37.4749 49.4C37.4874 49.7375 37.7499 50 38.0874 50H40.5874C40.9374 50 41.2374 49.7 41.2249 49.35C40.8874 39.9875 33.1874 32.5 23.7374 32.5Z" fill="#C88BC4"/>
<path d="M23.7373 0C15.4498 0 8.7373 6.7125 8.7373 15C8.7373 23.2875 15.4498 30 23.7373 30C32.0248 30 38.7373 23.2875 38.7373 15C38.7373 6.7125 32.0248 0 23.7373 0ZM23.7373 26.25C17.5248 26.25 12.4873 21.2125 12.4873 15C12.4873 8.7875 17.5248 3.75 23.7373 3.75C29.9498 3.75 34.9873 8.7875 34.9873 15C34.9873 21.2125 29.9498 26.25 23.7373 26.25Z" fill="#6B80D2"/>
<path d="M23.7373 6.25C18.8998 6.25 14.9873 10.1625 14.9873 15C14.9873 19.8375 18.8998 23.75 23.7373 23.75C28.5748 23.75 32.4873 19.8375 32.4873 15C32.4873 10.1625 28.5748 6.25 23.7373 6.25ZM23.7373 20C20.9748 20 18.7373 17.7625 18.7373 15C18.7373 12.2375 20.9748 10 23.7373 10C26.4998 10 28.7373 12.2375 28.7373 15C28.7373 17.7625 26.4998 20 23.7373 20Z" fill="#86BFF2"/>
</g>
<defs>
<clipPath id="clip0">
<rect width="47.4875" height="50" fill="white"/>
</clipPath>
</defs>
</svg>
