<svg width="46" height="50" viewBox="0 0 46 50" fill="none" xmlns="http://www.w3.org/2000/svg">
<g clip-path="url(#clip0)">
<path d="M19.2213 25.5528L12.9022 29.196C12.4876 29.4347 11.96 29.1332 11.96 28.6558V21.3568C11.96 20.8794 12.4876 20.5653 12.9022 20.8166L19.2213 24.4598C19.6484 24.6985 19.6484 25.3015 19.2213 25.5528Z" fill="#86BFF2"/>
<path d="M20.4772 27.7262L14.1581 31.3694C13.7435 31.6081 13.7435 32.2111 14.1581 32.4624L20.4772 36.1056C20.8918 36.3443 21.4194 36.0428 21.4194 35.5654V28.279C21.4194 27.789 20.9043 27.4875 20.4772 27.7262Z" fill="#86BFF2"/>
<path d="M20.4772 13.9071L14.1581 17.5503C13.7435 17.789 13.7435 18.392 14.1581 18.6433L20.4772 22.2865C20.8918 22.5252 21.4194 22.2237 21.4194 21.7463V14.4599C21.4194 13.9699 20.9043 13.6684 20.4772 13.9071Z" fill="#86BFF2"/>
<path d="M32.4499 20.8167L26.1308 24.4599C25.7162 24.6986 25.7162 25.3016 26.1308 25.5529L32.4499 29.1961C32.8644 29.4348 33.3921 29.1333 33.3921 28.6559V21.3569C33.3921 20.8795 32.8644 20.578 32.4499 20.8167Z" fill="#86BFF2"/>
<path d="M24.8743 22.2864L31.1934 18.6432C31.608 18.4045 31.608 17.8015 31.1934 17.5503L24.8743 13.907C24.4598 13.6683 23.9321 13.9698 23.9321 14.4472V21.7337C23.9321 22.2236 24.4598 22.5251 24.8743 22.2864Z" fill="#86BFF2"/>
<path d="M24.8743 27.7261C24.4598 27.4874 23.9321 27.7889 23.9321 28.2663V35.5528C23.9321 36.0301 24.4598 36.3442 24.8743 36.093L31.1934 32.4497C31.608 32.2111 31.608 31.608 31.1934 31.3568L24.8743 27.7261Z" fill="#86BFF2"/>
<path d="M0 21.7338V14.4473C0 13.97 0.527638 13.6559 0.942211 13.9071L7.26131 17.5504C7.67588 17.7891 7.67588 18.3921 7.26131 18.6433L0.942211 22.2865C0.527638 22.5252 0 22.2237 0 21.7338Z" fill="#C88BC4"/>
<path d="M7.26131 31.3693L0.942211 27.7261C0.527638 27.4874 0 27.7889 0 28.2663V35.5528C0 36.0301 0.527638 36.3442 0.942211 36.093L7.26131 32.4497C7.67588 32.2111 7.67588 31.608 7.26131 31.3693Z" fill="#C88BC4"/>
<path d="M8.51772 34.6358L2.19862 38.279C1.78405 38.5177 1.78405 39.1207 2.19862 39.372L8.51772 43.0152C8.93229 43.2539 9.45993 42.9524 9.45993 42.475V35.176C9.45993 34.6986 8.93229 34.3971 8.51772 34.6358Z" fill="#C88BC4"/>
<path d="M8.51772 20.8167L2.19862 24.4599C1.78405 24.6986 1.78405 25.3016 2.19862 25.5529L8.51772 29.1961C8.93229 29.4348 9.45993 29.1333 9.45993 28.6559V21.3569C9.45993 20.8795 8.93229 20.578 8.51772 20.8167Z" fill="#C88BC4"/>
<path d="M8.51772 6.99761L2.19862 10.6408C1.78405 10.8795 1.78405 11.4825 2.19862 11.7338L8.51772 15.377C8.93229 15.6157 9.45993 15.3142 9.45993 14.8368V7.53781C9.45993 7.06043 8.93229 6.75892 8.51772 6.99761Z" fill="#C88BC4"/>
<path d="M12.9144 15.377L19.2335 11.7338C19.648 11.4951 19.648 10.8921 19.2335 10.6408L12.9144 6.99761C12.4872 6.75892 11.9722 7.06043 11.9722 7.53781V14.8242C11.9722 15.3142 12.4872 15.6157 12.9144 15.377Z" fill="#C88BC4"/>
<path d="M19.2209 39.372C19.6355 39.1333 19.6355 38.5303 19.2209 38.279L16.0676 36.4574L12.9144 34.6358C12.4872 34.3971 11.9722 34.6986 11.9722 35.176V42.4624C11.9722 42.9398 12.4998 43.2539 12.9144 43.0026L16.0676 41.181L19.2209 39.372Z" fill="#C88BC4"/>
<path d="M20.4772 41.5453L14.1581 45.1885C13.7435 45.4272 13.7435 46.0302 14.1581 46.2815L20.4772 49.9247C20.8918 50.1634 21.4194 49.8619 21.4194 49.3845V42.0981C21.4194 41.6081 20.9043 41.3066 20.4772 41.5453Z" fill="#C88BC4"/>
<path d="M20.4772 0.0879437L14.1581 3.73116C13.7435 3.96985 13.7435 4.57287 14.1581 4.82412L20.4772 8.46734C20.8918 8.70603 21.4194 8.40453 21.4194 7.92714V0.628145C21.4194 0.150758 20.9043 -0.15075 20.4772 0.0879437Z" fill="#C88BC4"/>
<path d="M44.422 27.7262L38.1029 31.3694C37.6883 31.6081 37.6883 32.2111 38.1029 32.4624L44.422 36.1056C44.8366 36.3443 45.3642 36.0428 45.3642 35.5654V28.279C45.3642 27.789 44.8366 27.4875 44.422 27.7262Z" fill="#6B80D2"/>
<path d="M44.422 13.9071L38.1029 17.5503C37.6883 17.789 37.6883 18.392 38.1029 18.6433L44.422 22.2865C44.8366 22.5252 45.3642 22.2237 45.3642 21.7463V14.4599C45.3642 13.9699 44.8366 13.6684 44.422 13.9071Z" fill="#6B80D2"/>
<path d="M36.8465 15.377L43.1656 11.7338C43.5802 11.4951 43.5802 10.8921 43.1656 10.6408L36.8465 6.99761C36.4319 6.75892 35.9043 7.06043 35.9043 7.53781V14.8242C35.9043 15.3142 36.4319 15.6157 36.8465 15.377Z" fill="#6B80D2"/>
<path d="M36.8465 29.1961L43.1656 25.5529C43.5802 25.3142 43.5802 24.7112 43.1656 24.4599L36.8465 20.8167C36.4319 20.578 35.9043 20.8795 35.9043 21.3569V28.6433C35.9043 29.1333 36.4319 29.4348 36.8465 29.1961Z" fill="#6B80D2"/>
<path d="M36.8465 34.6358C36.4319 34.3971 35.9043 34.6986 35.9043 35.176V42.4624C35.9043 42.9398 36.4319 43.2539 36.8465 43.0026L43.1656 39.3594C43.5802 39.1207 43.5802 38.5177 43.1656 38.2664L36.8465 34.6358Z" fill="#6B80D2"/>
<path d="M32.4499 34.6358L26.1308 38.279C25.7162 38.5177 25.7162 39.1207 26.1308 39.372L32.4499 43.0152C32.8644 43.2539 33.3921 42.9524 33.3921 42.475V35.176C33.3921 34.6986 32.8644 34.3971 32.4499 34.6358Z" fill="#6B80D2"/>
<path d="M32.4499 6.99761L29.2966 8.81922L26.1308 10.6408C25.7162 10.8795 25.7162 11.4825 26.1308 11.7338L29.284 13.5554L32.4373 15.377C32.8519 15.6157 33.3795 15.3142 33.3795 14.8368V7.53781C33.3921 7.06043 32.8644 6.75892 32.4499 6.99761Z" fill="#6B80D2"/>
<path d="M24.8743 8.46734L31.1934 4.82412C31.608 4.58543 31.608 3.98242 31.1934 3.73116L24.8743 0.0879437C24.4598 -0.15075 23.9321 0.150758 23.9321 0.628145V7.91458C23.9321 8.40453 24.4598 8.70603 24.8743 8.46734Z" fill="#6B80D2"/>
<path d="M24.8743 41.5452C24.4598 41.3065 23.9321 41.608 23.9321 42.0854V49.3718C23.9321 49.8492 24.4598 50.1633 24.8743 49.9121L31.1934 46.2688C31.608 46.0301 31.608 45.4271 31.1934 45.1759L24.8743 41.5452Z" fill="#6B80D2"/>
</g>
<defs>
<clipPath id="clip0">
<rect width="45.3643" height="50" fill="white"/>
</clipPath>
</defs>
</svg>
