<svg width="48" height="48" viewBox="0 0 48 48" fill="none" xmlns="http://www.w3.org/2000/svg">
<g clip-path="url(#clip0)">
<path d="M33.5997 5.18401L28.7637 0.348009C28.2957 -0.119991 27.5397 -0.119991 27.0717 0.348009L21.4437 5.97601C21.2157 6.20401 21.0957 6.50401 21.0957 6.82801V11.664C21.0957 12.324 21.6357 12.864 22.2957 12.864H27.1317C27.4557 12.864 27.7557 12.732 27.9837 12.516L33.2517 7.24801L33.6117 6.88801C34.0677 6.42001 34.0677 5.66401 33.5997 5.18401ZM24.8277 10.812C24.3597 11.28 23.6037 11.28 23.1357 10.812C22.6677 10.344 22.6677 9.58801 23.1357 9.12001C23.6037 8.65201 24.3597 8.65201 24.8277 9.12001C25.2957 9.58801 25.2957 10.344 24.8277 10.812Z" fill="#6B80D2"/>
<path d="M25.7158 35.136H20.8798C20.5558 35.136 20.2558 35.268 20.0278 35.484L14.7598 40.752L14.3998 41.112C13.9318 41.58 13.9318 42.336 14.3998 42.804L19.2358 47.6401C19.7038 48.1081 20.4598 48.1081 20.9278 47.6401L26.5558 42.012C26.7838 41.784 26.9038 41.484 26.9038 41.16V36.324C26.9158 35.676 26.3758 35.136 25.7158 35.136ZM24.8638 38.88C24.3958 39.348 23.6398 39.348 23.1718 38.88C22.7038 38.412 22.7038 37.656 23.1718 37.188C23.6398 36.72 24.3958 36.72 24.8638 37.188C25.3318 37.656 25.3318 38.412 24.8638 38.88Z" fill="#6B80D2"/>
<path d="M17.4838 3.91199H10.6438C9.98385 3.91199 9.44385 4.45199 9.44385 5.11199V13.068C9.44385 13.392 9.57585 13.692 9.79185 13.92L13.2118 17.34C13.6798 17.808 14.4358 17.808 14.9038 17.34L18.3238 13.92C18.5518 13.692 18.6718 13.392 18.6718 13.068V5.62799V5.11199C18.6838 4.45199 18.1438 3.91199 17.4838 3.91199ZM14.0638 15.288C13.4038 15.288 12.8638 14.748 12.8638 14.088C12.8638 13.428 13.4038 12.888 14.0638 12.888C14.7238 12.888 15.2638 13.428 15.2638 14.088C15.2638 14.748 14.7238 15.288 14.0638 15.288Z" fill="#C88BC4"/>
<path d="M38.5556 34.932C38.5556 34.608 38.4236 34.308 38.2076 34.08L34.7876 30.66C34.3196 30.192 33.5636 30.192 33.0956 30.66L29.6756 34.08C29.4476 34.308 29.3276 34.608 29.3276 34.932V42.372V42.888C29.3276 43.548 29.8676 44.088 30.5276 44.088H37.3676C38.0276 44.088 38.5676 43.548 38.5676 42.888L38.5556 34.932ZM33.9356 35.112C33.2756 35.112 32.7356 34.572 32.7356 33.912C32.7356 33.252 33.2756 32.712 33.9356 32.712C34.5956 32.712 35.1356 33.252 35.1356 33.912C35.1356 34.572 34.5956 35.112 33.9356 35.112Z" fill="#C88BC4"/>
<path d="M12.5158 20.028L7.24779 14.76L6.88779 14.4C6.41979 13.932 5.66379 13.932 5.19579 14.4L0.359789 19.236C-0.108211 19.704 -0.108211 20.46 0.359789 20.928L5.98779 26.556C6.21579 26.784 6.51579 26.904 6.83979 26.904H11.6758C12.3358 26.904 12.8758 26.364 12.8758 25.704V20.88C12.8638 20.556 12.7438 20.256 12.5158 20.028ZM10.8118 24.864C10.3438 25.332 9.58779 25.332 9.11979 24.864C8.65179 24.396 8.65179 23.64 9.11979 23.172C9.58779 22.704 10.3438 22.704 10.8118 23.172C11.2798 23.64 11.2798 24.396 10.8118 24.864Z" fill="#6B80D2"/>
<path d="M47.6517 27.06L42.0237 21.432C41.7957 21.204 41.4957 21.084 41.1717 21.084H36.3357C35.6757 21.084 35.1357 21.624 35.1357 22.284V27.12C35.1357 27.444 35.2677 27.744 35.4837 27.972L40.7517 33.24L41.1117 33.6C41.5797 34.068 42.3357 34.068 42.8037 33.6L47.6397 28.764C48.1197 28.296 48.1197 27.528 47.6517 27.06ZM38.8797 24.828C38.4117 25.296 37.6557 25.296 37.1877 24.828C36.7197 24.36 36.7197 23.604 37.1877 23.136C37.6557 22.668 38.4117 22.668 38.8797 23.136C39.3477 23.604 39.3477 24.36 38.8797 24.828Z" fill="#6B80D2"/>
<path d="M17.3396 33.084L13.9196 29.664C13.6916 29.436 13.3916 29.316 13.0676 29.316H5.62762H5.11162C4.45162 29.316 3.91162 29.856 3.91162 30.516V37.356C3.91162 38.016 4.45162 38.556 5.11162 38.556H13.0676C13.3916 38.556 13.6916 38.424 13.9196 38.208L17.3396 34.788C17.8076 34.32 17.8076 33.552 17.3396 33.084ZM14.0876 35.136C13.4276 35.136 12.8876 34.596 12.8876 33.936C12.8876 33.276 13.4276 32.736 14.0876 32.736C14.7476 32.736 15.2876 33.276 15.2876 33.936C15.2876 34.596 14.7476 35.136 14.0876 35.136Z" fill="#86BFF2"/>
<path d="M42.8876 9.44403H34.9316C34.6076 9.44403 34.3076 9.57603 34.0796 9.79203L30.6596 13.212C30.1916 13.68 30.1916 14.436 30.6596 14.904L34.0796 18.324C34.3076 18.552 34.6076 18.672 34.9316 18.672H42.3716H42.8876C43.5476 18.672 44.0876 18.132 44.0876 17.472V10.632C44.0876 9.98403 43.5476 9.44403 42.8876 9.44403ZM33.9116 15.264C33.2516 15.264 32.7116 14.724 32.7116 14.064C32.7116 13.404 33.2516 12.864 33.9116 12.864C34.5716 12.864 35.1116 13.404 35.1116 14.064C35.1116 14.724 34.5716 15.264 33.9116 15.264Z" fill="#86BFF2"/>
</g>
<defs>
<clipPath id="clip0">
<rect width="48" height="48" fill="white"/>
</clipPath>
</defs>
</svg>
