<svg width="752" height="320" viewBox="0 0 752 320" fill="none" xmlns="http://www.w3.org/2000/svg">
<rect width="752" height="320" fill="#F1F1F1"/>
<rect width="752" height="320" fill="white"/>
<path d="M23 188C23 184.686 25.6863 182 29 182H177C180.314 182 183 184.686 183 188V290C183 293.314 180.314 296 177 296H29C25.6863 296 23 293.314 23 290V188Z" fill="#F7FAFC"/>
<path d="M204 188C204 184.686 206.686 182 210 182H358C361.314 182 364 184.686 364 188V290C364 293.314 361.314 296 358 296H210C206.686 296 204 293.314 204 290V188Z" fill="#F7FAFC"/>
<path d="M568 188C568 184.686 570.686 182 574 182H722C725.314 182 728 184.686 728 188V290C728 293.314 725.314 296 722 296H574C570.686 296 568 293.314 568 290V188Z" fill="#F7FAFC"/>
<path d="M385 188C385 184.686 387.686 182 391 182H539C542.314 182 545 184.686 545 188V290C545 293.314 542.314 296 539 296H391C387.686 296 385 293.314 385 290V188Z" fill="#F7FAFC"/>
<path d="M35.3864 32.1818C35.3864 28.4602 33.1591 26.2045 30.1477 26.2045C27.125 26.2045 24.9034 28.4602 24.9034 32.1818C24.9034 35.8977 27.125 38.1591 30.1477 38.1591C30.8977 38.1591 31.5966 38.0227 32.2216 37.7557L33.2159 39.0455H35.0114L33.4432 37C34.6477 35.983 35.3864 34.3239 35.3864 32.1818ZM29.5568 34.2273L31.2102 36.3977C30.8807 36.5057 30.5227 36.5568 30.1477 36.5568C28.142 36.5568 26.6477 35.017 26.6477 32.1818C26.6477 29.3466 28.142 27.8068 30.1477 27.8068C32.1477 27.8068 33.6477 29.3466 33.6477 32.1818C33.6477 33.7727 33.1761 34.9602 32.4034 35.6875L31.2841 34.2273H29.5568ZM42.9673 34.3807C42.973 35.8636 41.8707 36.5682 40.9162 36.5682C39.8651 36.5682 39.1378 35.8068 39.1378 34.6193V29.2727H37.4389V34.8239C37.4389 36.9886 38.6264 38.1136 40.3026 38.1136C41.6151 38.1136 42.5071 37.4205 42.9105 36.4886H43.0014V38H44.6719V29.2727H42.9673V34.3807ZM49.4943 38.1932C50.9375 38.1932 51.75 37.4602 52.0739 36.8068H52.142V38H53.8011V32.2045C53.8011 29.6648 51.8011 29.1591 50.4148 29.1591C48.8352 29.1591 47.3807 29.7955 46.8125 31.3864L48.4091 31.75C48.6591 31.1307 49.2955 30.5341 50.4375 30.5341C51.5341 30.5341 52.0966 31.108 52.0966 32.0966V32.1364C52.0966 32.7557 51.4602 32.7443 49.892 32.9261C48.2386 33.1193 46.5455 33.5511 46.5455 35.5341C46.5455 37.25 47.8352 38.1932 49.4943 38.1932ZM49.8636 36.8295C48.9034 36.8295 48.2102 36.3977 48.2102 35.5568C48.2102 34.6477 49.017 34.3239 50 34.1932C50.5511 34.1193 51.858 33.9716 52.1023 33.7273V34.8523C52.1023 35.8864 51.2784 36.8295 49.8636 36.8295ZM57.7628 26.3636H56.0639V38H57.7628V26.3636ZM60.0483 38H61.7472V29.2727H60.0483V38ZM60.9062 27.9261C61.4915 27.9261 61.9801 27.4716 61.9801 26.9148C61.9801 26.358 61.4915 25.8977 60.9062 25.8977C60.3153 25.8977 59.8324 26.358 59.8324 26.9148C59.8324 27.4716 60.3153 27.9261 60.9062 27.9261ZM68.1065 29.2727H66.3168V27.1818H64.6179V29.2727H63.3395V30.6364H64.6179V35.7898C64.6122 37.375 65.8224 38.142 67.1634 38.1136C67.7031 38.108 68.0668 38.0057 68.2656 37.9318L67.9588 36.5284C67.8452 36.5511 67.6349 36.6023 67.3622 36.6023C66.8111 36.6023 66.3168 36.4205 66.3168 35.4375V30.6364H68.1065V29.2727ZM71.0597 41.2727C72.4631 41.2727 73.3494 40.5398 73.8551 39.1648L77.4631 29.2898L75.6278 29.2727L73.4176 36.0455H73.3267L71.1165 29.2727H69.2983L72.4915 38.1136L72.2812 38.6932C71.8494 39.8523 71.2415 39.9489 70.3097 39.6932L69.9006 41.0852C70.1051 41.1761 70.5483 41.2727 71.0597 41.2727ZM83.4347 26.3636V38H85.1051V29.5739H85.2131L88.6449 37.983H90.0312L93.4631 29.5795H93.571V38H95.2415V26.3636H93.1108L89.4062 35.4091H89.2699L85.5653 26.3636H83.4347ZM101.419 38.1761C103.322 38.1761 104.669 37.2386 105.055 35.8182L103.447 35.5284C103.141 36.3523 102.402 36.7727 101.436 36.7727C99.9815 36.7727 99.0043 35.8295 98.9588 34.1477H105.163V33.5455C105.163 30.392 103.277 29.1591 101.3 29.1591C98.8679 29.1591 97.2656 31.0114 97.2656 33.6932C97.2656 36.4034 98.8452 38.1761 101.419 38.1761ZM98.9645 32.875C99.0327 31.6364 99.9304 30.5625 101.311 30.5625C102.629 30.5625 103.493 31.5398 103.499 32.875H98.9645ZM111.122 29.2727H109.332V27.1818H107.634V29.2727H106.355V30.6364H107.634V35.7898C107.628 37.375 108.838 38.142 110.179 38.1136C110.719 38.108 111.082 38.0057 111.281 37.9318L110.974 36.5284C110.861 36.5511 110.651 36.6023 110.378 36.6023C109.827 36.6023 109.332 36.4205 109.332 35.4375V30.6364H111.122V29.2727ZM113.001 38H114.7V32.6705C114.7 31.5284 115.581 30.7045 116.786 30.7045C117.138 30.7045 117.536 30.767 117.672 30.8068V29.1818C117.501 29.1591 117.166 29.142 116.95 29.142C115.928 29.142 115.053 29.7216 114.734 30.6591H114.643V29.2727H113.001V38ZM119.142 38H120.841V29.2727H119.142V38ZM120 27.9261C120.585 27.9261 121.074 27.4716 121.074 26.9148C121.074 26.358 120.585 25.8977 120 25.8977C119.409 25.8977 118.926 26.358 118.926 26.9148C118.926 27.4716 119.409 27.9261 120 27.9261ZM126.803 38.1761C128.865 38.1761 130.2 36.9375 130.388 35.2386H128.734C128.518 36.1818 127.786 36.7386 126.814 36.7386C125.376 36.7386 124.45 35.5398 124.45 33.6364C124.45 31.767 125.393 30.5909 126.814 30.5909C127.893 30.5909 128.553 31.2727 128.734 32.0909H130.388C130.206 30.3295 128.768 29.1591 126.786 29.1591C124.325 29.1591 122.734 31.0114 122.734 33.6761C122.734 36.3068 124.268 38.1761 126.803 38.1761ZM138.744 31.4034C138.392 30.0455 137.33 29.1591 135.443 29.1591C133.472 29.1591 132.074 30.1989 132.074 31.7443C132.074 32.983 132.824 33.8068 134.46 34.1705L135.938 34.4943C136.778 34.6818 137.17 35.0568 137.17 35.6023C137.17 36.2784 136.449 36.8068 135.335 36.8068C134.318 36.8068 133.665 36.3693 133.46 35.5114L131.818 35.7614C132.102 37.3068 133.386 38.1761 135.347 38.1761C137.455 38.1761 138.915 37.0568 138.915 35.4773C138.915 34.2443 138.131 33.483 136.528 33.1136L135.142 32.7955C134.182 32.5682 133.767 32.2443 133.773 31.6534C133.767 30.983 134.494 30.5057 135.46 30.5057C136.517 30.5057 137.006 31.0909 137.205 31.6761L138.744 31.4034Z" fill="black"/>
<path d="M25.6506 73L26.6747 70.1165H30.7912L31.8153 73H33.108L29.3693 62.8182H28.0966L24.358 73H25.6506ZM27.0625 69.0227L28.6932 64.429H28.7727L30.4034 69.0227H27.0625ZM37.6371 73.1591C39.3274 73.1591 40.4411 72.125 40.6399 70.7727H39.4666C39.2479 71.608 38.5518 72.1051 37.6371 72.1051C36.245 72.1051 35.3501 70.9517 35.3501 69.1818C35.3501 67.4517 36.2649 66.3182 37.6371 66.3182C38.6712 66.3182 39.2876 66.9545 39.4666 67.6506H40.6399C40.4411 66.2188 39.228 65.2642 37.6172 65.2642C35.549 65.2642 34.1768 66.8949 34.1768 69.2216C34.1768 71.5085 35.4893 73.1591 37.6371 73.1591ZM45.4574 73.1591C47.1477 73.1591 48.2614 72.125 48.4602 70.7727H47.2869C47.0682 71.608 46.3722 72.1051 45.4574 72.1051C44.0653 72.1051 43.1705 70.9517 43.1705 69.1818C43.1705 67.4517 44.0852 66.3182 45.4574 66.3182C46.4915 66.3182 47.108 66.9545 47.2869 67.6506H48.4602C48.2614 66.2188 47.0483 65.2642 45.4375 65.2642C43.3693 65.2642 41.9972 66.8949 41.9972 69.2216C41.9972 71.5085 43.3097 73.1591 45.4574 73.1591ZM54.9879 69.8778C54.9879 71.3097 53.8942 71.9659 53.0192 71.9659C52.0447 71.9659 51.3487 71.25 51.3487 70.1364V65.3636H50.1754V70.2159C50.1754 72.1648 51.2095 73.0994 52.6413 73.0994C53.7947 73.0994 54.5504 72.483 54.9084 71.7074H54.9879V73H56.1612V65.3636H54.9879V69.8778ZM58.3102 73H59.4835V68.1676C59.4835 67.1335 60.2988 66.3778 61.4125 66.3778C61.7257 66.3778 62.0488 66.4375 62.1284 66.4574V65.2642C61.9941 65.2543 61.6859 65.2443 61.5119 65.2443C60.5971 65.2443 59.8017 65.7614 59.5233 66.517H59.4437V65.3636H58.3102V73ZM65.7663 73.179C67.0987 73.179 67.7947 72.4631 68.0334 71.9659H68.093V73H69.2663V67.9688C69.2663 65.5426 67.4169 65.2642 66.4425 65.2642C65.2891 65.2642 63.9766 65.6619 63.38 67.054L64.4936 67.4517C64.7521 66.8949 65.3636 66.2983 66.4822 66.2983C67.5611 66.2983 68.093 66.87 68.093 67.8494V67.8892C68.093 68.456 67.5163 68.4062 66.1243 68.5852C64.7074 68.7692 63.1612 69.0824 63.1612 70.8324C63.1612 72.3239 64.3146 73.179 65.7663 73.179ZM65.9453 72.125C65.0107 72.125 64.3345 71.7074 64.3345 70.892C64.3345 69.9972 65.1499 69.7188 66.0646 69.5994C66.5618 69.5398 67.8942 69.4006 68.093 69.1619V70.2358C68.093 71.1903 67.3374 72.125 65.9453 72.125ZM74.5101 73.1591C76.2005 73.1591 77.3141 72.125 77.513 70.7727H76.3397C76.1209 71.608 75.4249 72.1051 74.5101 72.1051C73.1181 72.1051 72.2232 70.9517 72.2232 69.1818C72.2232 67.4517 73.138 66.3182 74.5101 66.3182C75.5442 66.3182 76.1607 66.9545 76.3397 67.6506H77.513C77.3141 66.2188 76.101 65.2642 74.4902 65.2642C72.4221 65.2642 71.0499 66.8949 71.0499 69.2216C71.0499 71.5085 72.3624 73.1591 74.5101 73.1591ZM79.9838 75.8636C81.0428 75.8636 81.7885 75.3018 82.231 74.1136L85.4824 65.3835L84.1998 65.3636L82.0918 71.4489H82.0123L79.9043 65.3636H78.6316L81.4554 73.0398L81.2367 73.6364C80.8091 74.7997 80.2821 74.9091 79.427 74.6903L79.1287 75.7244C79.248 75.7841 79.5861 75.8636 79.9838 75.8636ZM96.3814 67.0739C96.0135 65.9901 95.1882 65.2642 93.6768 65.2642C92.0661 65.2642 90.8729 66.179 90.8729 67.4716C90.8729 68.5256 91.4993 69.2315 92.9013 69.5597L94.174 69.858C94.9446 70.0369 95.3075 70.4048 95.3075 70.9318C95.3075 71.5881 94.6115 72.125 93.5178 72.125C92.5582 72.125 91.9567 71.7124 91.7479 70.892L90.6342 71.1705C90.9077 72.468 91.9766 73.1591 93.5376 73.1591C95.3125 73.1591 96.5206 72.1896 96.5206 70.8722C96.5206 69.8082 95.8544 69.1371 94.4922 68.804L93.3587 68.5256C92.4538 68.3018 92.0462 67.9986 92.0462 67.4119C92.0462 66.7557 92.7422 66.2784 93.6768 66.2784C94.701 66.2784 95.1236 66.8452 95.3274 67.3722L96.3814 67.0739ZM101.389 73.1591C103.079 73.1591 104.193 72.125 104.392 70.7727H103.219C103 71.608 102.304 72.1051 101.389 72.1051C99.997 72.1051 99.1021 70.9517 99.1021 69.1818C99.1021 67.4517 100.017 66.3182 101.389 66.3182C102.423 66.3182 103.04 66.9545 103.219 67.6506H104.392C104.193 66.2188 102.98 65.2642 101.369 65.2642C99.301 65.2642 97.9288 66.8949 97.9288 69.2216C97.9288 71.5085 99.2413 73.1591 101.389 73.1591ZM109.209 73.1591C111.278 73.1591 112.67 71.5881 112.67 69.2216C112.67 66.8352 111.278 65.2642 109.209 65.2642C107.141 65.2642 105.749 66.8352 105.749 69.2216C105.749 71.5881 107.141 73.1591 109.209 73.1591ZM109.209 72.1051C107.638 72.1051 106.922 70.7528 106.922 69.2216C106.922 67.6903 107.638 66.3182 109.209 66.3182C110.78 66.3182 111.496 67.6903 111.496 69.2216C111.496 70.7528 110.78 72.1051 109.209 72.1051ZM114.461 73H115.634V68.1676C115.634 67.1335 116.449 66.3778 117.563 66.3778C117.876 66.3778 118.199 66.4375 118.279 66.4574V65.2642C118.145 65.2543 117.836 65.2443 117.662 65.2443C116.748 65.2443 115.952 65.7614 115.674 66.517H115.594V65.3636H114.461V73ZM122.639 73.1591C124.19 73.1591 125.324 72.3835 125.681 71.2301L124.548 70.9119C124.25 71.7074 123.559 72.1051 122.639 72.1051C121.262 72.1051 120.312 71.2152 120.257 69.5795H125.801V69.0824C125.801 66.2386 124.11 65.2642 122.52 65.2642C120.451 65.2642 119.079 66.8949 119.079 69.2415C119.079 71.5881 120.431 73.1591 122.639 73.1591ZM120.257 68.5653C120.337 67.3771 121.177 66.3182 122.52 66.3182C123.792 66.3182 124.608 67.2727 124.608 68.5653H120.257ZM132.995 67.0739C132.627 65.9901 131.801 65.2642 130.29 65.2642C128.679 65.2642 127.486 66.179 127.486 67.4716C127.486 68.5256 128.113 69.2315 129.515 69.5597L130.787 69.858C131.558 70.0369 131.921 70.4048 131.921 70.9318C131.921 71.5881 131.225 72.125 130.131 72.125C129.172 72.125 128.57 71.7124 128.361 70.892L127.248 71.1705C127.521 72.468 128.59 73.1591 130.151 73.1591C131.926 73.1591 133.134 72.1896 133.134 70.8722C133.134 69.8082 132.468 69.1371 131.105 68.804L129.972 68.5256C129.067 68.3018 128.659 67.9986 128.659 67.4119C128.659 66.7557 129.355 66.2784 130.29 66.2784C131.314 66.2784 131.737 66.8452 131.941 67.3722L132.995 67.0739ZM138.997 73H140.13V71.8267H140.269C140.528 72.2443 141.025 73.1591 142.497 73.1591C144.406 73.1591 145.738 71.6278 145.738 69.2017C145.738 66.7955 144.406 65.2642 142.477 65.2642C140.985 65.2642 140.528 66.179 140.269 66.5767H140.17V62.8182H138.997V73ZM140.15 69.1818C140.15 67.4716 140.906 66.3182 142.338 66.3182C143.829 66.3182 144.565 67.571 144.565 69.1818C144.565 70.8125 143.809 72.1051 142.338 72.1051C140.926 72.1051 140.15 70.9119 140.15 69.1818ZM149.78 73.179C151.112 73.179 151.808 72.4631 152.047 71.9659H152.107V73H153.28V67.9688C153.28 65.5426 151.431 65.2642 150.456 65.2642C149.303 65.2642 147.99 65.6619 147.394 67.054L148.507 67.4517C148.766 66.8949 149.377 66.2983 150.496 66.2983C151.575 66.2983 152.107 66.87 152.107 67.8494V67.8892C152.107 68.456 151.53 68.4062 150.138 68.5852C148.721 68.7692 147.175 69.0824 147.175 70.8324C147.175 72.3239 148.328 73.179 149.78 73.179ZM149.959 72.125C149.024 72.125 148.348 71.7074 148.348 70.892C148.348 69.9972 149.164 69.7188 150.078 69.5994C150.575 69.5398 151.908 69.4006 152.107 69.1619V70.2358C152.107 71.1903 151.351 72.125 149.959 72.125ZM160.831 67.0739C160.463 65.9901 159.637 65.2642 158.126 65.2642C156.515 65.2642 155.322 66.179 155.322 67.4716C155.322 68.5256 155.949 69.2315 157.35 69.5597L158.623 69.858C159.394 70.0369 159.757 70.4048 159.757 70.9318C159.757 71.5881 159.061 72.125 157.967 72.125C157.007 72.125 156.406 71.7124 156.197 70.892L155.083 71.1705C155.357 72.468 156.426 73.1591 157.987 73.1591C159.762 73.1591 160.97 72.1896 160.97 70.8722C160.97 69.8082 160.304 69.1371 158.941 68.804L157.808 68.5256C156.903 68.3018 156.495 67.9986 156.495 67.4119C156.495 66.7557 157.191 66.2784 158.126 66.2784C159.15 66.2784 159.573 66.8452 159.777 67.3722L160.831 67.0739ZM165.938 73.1591C167.489 73.1591 168.622 72.3835 168.98 71.2301L167.847 70.9119C167.548 71.7074 166.857 72.1051 165.938 72.1051C164.561 72.1051 163.611 71.2152 163.556 69.5795H169.1V69.0824C169.1 66.2386 167.409 65.2642 165.818 65.2642C163.75 65.2642 162.378 66.8949 162.378 69.2415C162.378 71.5881 163.73 73.1591 165.938 73.1591ZM163.556 68.5653C163.636 67.3771 164.476 66.3182 165.818 66.3182C167.091 66.3182 167.906 67.2727 167.906 68.5653H163.556ZM173.768 73.1591C175.24 73.1591 175.737 72.2443 175.995 71.8267H176.134V73H177.268V62.8182H176.095V66.5767H175.995C175.737 66.179 175.279 65.2642 173.788 65.2642C171.859 65.2642 170.526 66.7955 170.526 69.2017C170.526 71.6278 171.859 73.1591 173.768 73.1591ZM173.927 72.1051C172.455 72.1051 171.7 70.8125 171.7 69.1818C171.7 67.571 172.436 66.3182 173.927 66.3182C175.359 66.3182 176.115 67.4716 176.115 69.1818C176.115 70.9119 175.339 72.1051 173.927 72.1051ZM186.619 73.1591C188.688 73.1591 190.08 71.5881 190.08 69.2216C190.08 66.8352 188.688 65.2642 186.619 65.2642C184.551 65.2642 183.159 66.8352 183.159 69.2216C183.159 71.5881 184.551 73.1591 186.619 73.1591ZM186.619 72.1051C185.048 72.1051 184.333 70.7528 184.333 69.2216C184.333 67.6903 185.048 66.3182 186.619 66.3182C188.191 66.3182 188.906 67.6903 188.906 69.2216C188.906 70.7528 188.191 72.1051 186.619 72.1051ZM193.044 68.4062C193.044 67.0739 193.869 66.3182 194.993 66.3182C196.082 66.3182 196.743 67.0291 196.743 68.2273V73H197.916V68.1477C197.916 66.1989 196.877 65.2642 195.331 65.2642C194.178 65.2642 193.462 65.7812 193.104 66.5568H193.004V65.3636H191.871V73H193.044V68.4062ZM207.319 65.3636H205.688V63.5341H204.515V65.3636H203.361V66.358H204.515V71.1307C204.515 72.4631 205.589 73.0994 206.583 73.0994C207.02 73.0994 207.299 73.0199 207.458 72.9602L207.219 71.9062C207.12 71.9261 206.961 71.9659 206.702 71.9659C206.185 71.9659 205.688 71.8068 205.688 70.8125V66.358H207.319V65.3636ZM211.331 73.179C212.663 73.179 213.359 72.4631 213.598 71.9659H213.657V73H214.831V67.9688C214.831 65.5426 212.981 65.2642 212.007 65.2642C210.854 65.2642 209.541 65.6619 208.944 67.054L210.058 67.4517C210.317 66.8949 210.928 66.2983 212.047 66.2983C213.126 66.2983 213.657 66.87 213.657 67.8494V67.8892C213.657 68.456 213.081 68.4062 211.689 68.5852C210.272 68.7692 208.726 69.0824 208.726 70.8324C208.726 72.3239 209.879 73.179 211.331 73.179ZM211.51 72.125C210.575 72.125 209.899 71.7074 209.899 70.892C209.899 69.9972 210.714 69.7188 211.629 69.5994C212.126 69.5398 213.459 69.4006 213.657 69.1619V70.2358C213.657 71.1903 212.902 72.125 211.51 72.125ZM222.381 67.0739C222.013 65.9901 221.188 65.2642 219.677 65.2642C218.066 65.2642 216.873 66.179 216.873 67.4716C216.873 68.5256 217.499 69.2315 218.901 69.5597L220.174 69.858C220.945 70.0369 221.308 70.4048 221.308 70.9318C221.308 71.5881 220.612 72.125 219.518 72.125C218.558 72.125 217.957 71.7124 217.748 70.892L216.634 71.1705C216.908 72.468 217.977 73.1591 219.538 73.1591C221.312 73.1591 222.521 72.1896 222.521 70.8722C222.521 69.8082 221.854 69.1371 220.492 68.804L219.359 68.5256C218.454 68.3018 218.046 67.9986 218.046 67.4119C218.046 66.7557 218.742 66.2784 219.677 66.2784C220.701 66.2784 221.124 66.8452 221.327 67.3722L222.381 67.0739ZM224.287 73H225.46V70.1413L226.28 69.3807L229.139 73H230.631L227.165 68.625L230.392 65.3636H228.94L225.599 68.7642H225.46V62.8182H224.287V73ZM237.311 67.0739C236.943 65.9901 236.118 65.2642 234.607 65.2642C232.996 65.2642 231.803 66.179 231.803 67.4716C231.803 68.5256 232.429 69.2315 233.831 69.5597L235.104 69.858C235.874 70.0369 236.237 70.4048 236.237 70.9318C236.237 71.5881 235.541 72.125 234.447 72.125C233.488 72.125 232.886 71.7124 232.678 70.892L231.564 71.1705C231.837 72.468 232.906 73.1591 234.467 73.1591C236.242 73.1591 237.45 72.1896 237.45 70.8722C237.45 69.8082 236.784 69.1371 235.422 68.804L234.288 68.5256C233.384 68.3018 232.976 67.9986 232.976 67.4119C232.976 66.7557 233.672 66.2784 234.607 66.2784C235.631 66.2784 236.053 66.8452 236.257 67.3722L237.311 67.0739ZM243.91 75.8636C244.969 75.8636 245.714 75.3018 246.157 74.1136L249.408 65.3835L248.126 65.3636L246.018 71.4489H245.938L243.83 65.3636H242.557L245.381 73.0398L245.162 73.6364C244.735 74.7997 244.208 74.9091 243.353 74.6903L243.055 75.7244C243.174 75.7841 243.512 75.8636 243.91 75.8636ZM253.789 73.1591C255.858 73.1591 257.25 71.5881 257.25 69.2216C257.25 66.8352 255.858 65.2642 253.789 65.2642C251.721 65.2642 250.329 66.8352 250.329 69.2216C250.329 71.5881 251.721 73.1591 253.789 73.1591ZM253.789 72.1051C252.218 72.1051 251.502 70.7528 251.502 69.2216C251.502 67.6903 252.218 66.3182 253.789 66.3182C255.36 66.3182 256.076 67.6903 256.076 69.2216C256.076 70.7528 255.36 72.1051 253.789 72.1051ZM263.853 69.8778C263.853 71.3097 262.759 71.9659 261.884 71.9659C260.91 71.9659 260.214 71.25 260.214 70.1364V65.3636H259.041V70.2159C259.041 72.1648 260.075 73.0994 261.507 73.0994C262.66 73.0994 263.416 72.483 263.774 71.7074H263.853V73H265.026V65.3636H263.853V69.8778ZM268.19 62.8182H267.096V66.3182H268.19V62.8182ZM276.523 65.3636H275.251L273.143 71.4489H273.063L270.955 65.3636H269.682L272.506 73H273.699L276.523 65.3636ZM281 73.1591C282.551 73.1591 283.685 72.3835 284.043 71.2301L282.909 70.9119C282.611 71.7074 281.92 72.1051 281 72.1051C279.623 72.1051 278.673 71.2152 278.619 69.5795H284.162V69.0824C284.162 66.2386 282.472 65.2642 280.881 65.2642C278.813 65.2642 277.441 66.8949 277.441 69.2415C277.441 71.5881 278.793 73.1591 281 73.1591ZM278.619 68.5653C278.698 67.3771 279.539 66.3182 280.881 66.3182C282.154 66.3182 282.969 67.2727 282.969 68.5653H278.619ZM289.884 73H291.058V68.1676C291.058 67.1335 291.873 66.3778 292.987 66.3778C293.3 66.3778 293.623 66.4375 293.703 66.4574V65.2642C293.568 65.2543 293.26 65.2443 293.086 65.2443C292.171 65.2443 291.376 65.7614 291.097 66.517H291.018V65.3636H289.884V73ZM298.063 73.1591C299.614 73.1591 300.747 72.3835 301.105 71.2301L299.972 70.9119C299.673 71.7074 298.982 72.1051 298.063 72.1051C296.686 72.1051 295.736 71.2152 295.681 69.5795H301.225V69.0824C301.225 66.2386 299.534 65.2642 297.943 65.2642C295.875 65.2642 294.503 66.8949 294.503 69.2415C294.503 71.5881 295.855 73.1591 298.063 73.1591ZM295.681 68.5653C295.761 67.3771 296.601 66.3182 297.943 66.3182C299.216 66.3182 300.031 67.2727 300.031 68.5653H295.681ZM309.021 65.3636H307.749L305.641 71.4489H305.561L303.453 65.3636H302.18L305.004 73H306.197L309.021 65.3636ZM310.57 73H311.743V65.3636H310.57V73ZM311.167 64.0909C311.624 64.0909 312.002 63.733 312.002 63.2955C312.002 62.858 311.624 62.5 311.167 62.5C310.709 62.5 310.331 62.858 310.331 63.2955C310.331 63.733 310.709 64.0909 311.167 64.0909ZM317.094 73.1591C318.645 73.1591 319.779 72.3835 320.137 71.2301L319.003 70.9119C318.705 71.7074 318.014 72.1051 317.094 72.1051C315.717 72.1051 314.767 71.2152 314.713 69.5795H320.256V69.0824C320.256 66.2386 318.566 65.2642 316.975 65.2642C314.906 65.2642 313.534 66.8949 313.534 69.2415C313.534 71.5881 314.887 73.1591 317.094 73.1591ZM314.713 68.5653C314.792 67.3771 315.632 66.3182 316.975 66.3182C318.247 66.3182 319.063 67.2727 319.063 68.5653H314.713ZM323.771 73H324.924L326.595 67.1335H326.714L328.384 73H329.538L331.865 65.3636H330.632L328.981 71.1903H328.901L327.291 65.3636H326.038L324.407 71.2102H324.328L322.677 65.3636H321.444L323.771 73ZM336.358 73.1591C337.909 73.1591 339.042 72.3835 339.4 71.2301L338.267 70.9119C337.968 71.7074 337.277 72.1051 336.358 72.1051C334.98 72.1051 334.031 71.2152 333.976 69.5795H339.52V69.0824C339.52 66.2386 337.829 65.2642 336.238 65.2642C334.17 65.2642 332.798 66.8949 332.798 69.2415C332.798 71.5881 334.15 73.1591 336.358 73.1591ZM333.976 68.5653C334.056 67.3771 334.896 66.3182 336.238 66.3182C337.511 66.3182 338.326 67.2727 338.326 68.5653H333.976ZM344.188 73.1591C345.659 73.1591 346.157 72.2443 346.415 71.8267H346.554V73H347.688V62.8182H346.515V66.5767H346.415C346.157 66.179 345.699 65.2642 344.208 65.2642C342.279 65.2642 340.946 66.7955 340.946 69.2017C340.946 71.6278 342.279 73.1591 344.188 73.1591ZM344.347 72.1051C342.875 72.1051 342.12 70.8125 342.12 69.1818C342.12 67.571 342.855 66.3182 344.347 66.3182C345.779 66.3182 346.534 67.4716 346.534 69.1818C346.534 70.9119 345.759 72.1051 344.347 72.1051Z" fill="#4A5568"/>
<path d="M68.2232 221.088C68.2232 215.112 65.0192 211.44 59.7992 211.44C54.7592 211.44 51.4472 214.824 51.4472 219.756C51.4472 224.508 54.5432 227.496 58.8632 227.496C61.9232 227.496 63.7232 225.948 64.9112 223.896L65.0912 223.968C63.7232 229.8 60.7352 233.076 55.3712 237H59.2592C63.2912 234.372 68.2232 228.54 68.2232 221.088ZM59.8352 224.94C56.5232 224.94 54.5792 223.032 54.5792 219.648V219.36C54.5792 215.976 56.5232 214.068 59.8352 214.068C63.1472 214.068 65.0912 215.976 65.0912 219.36V219.648C65.0912 223.032 63.1472 224.94 59.8352 224.94ZM89.8091 221.088C89.8091 215.112 86.6051 211.44 81.3851 211.44C76.3451 211.44 73.0331 214.824 73.0331 219.756C73.0331 224.508 76.1291 227.496 80.4491 227.496C83.5091 227.496 85.3091 225.948 86.4971 223.896L86.6771 223.968C85.3091 229.8 82.3211 233.076 76.9571 237H80.8451C84.8771 234.372 89.8091 228.54 89.8091 221.088ZM81.4211 224.94C78.1091 224.94 76.1651 223.032 76.1651 219.648V219.36C76.1651 215.976 78.1091 214.068 81.4211 214.068C84.7331 214.068 86.6771 215.976 86.6771 219.36V219.648C86.6771 223.032 84.7331 224.94 81.4211 224.94ZM97.103 237.432C98.615 237.432 99.299 236.568 99.299 235.344V234.876C99.299 233.652 98.615 232.788 97.103 232.788C95.591 232.788 94.907 233.652 94.907 234.876V235.344C94.907 236.568 95.591 237.432 97.103 237.432ZM121.204 234.336H107.992L114.76 228.252C117.964 225.372 120.268 222.636 120.268 218.748C120.268 214.464 117.46 211.44 112.564 211.44C107.704 211.44 105.472 214.392 104.5 217.344L107.2 218.388C107.884 216.012 109.324 214.14 112.42 214.14C115.516 214.14 117.064 216.048 117.064 218.82V219.252C117.064 221.664 115.264 224.184 112.924 226.344L104.716 233.904V237H121.204V234.336ZM132.962 237L150.386 211.872H147.614L130.19 237H132.962ZM131.63 225.696C135.266 225.696 137.318 223.176 137.318 218.568C137.318 213.96 135.266 211.44 131.63 211.44C127.994 211.44 125.942 213.96 125.942 218.568C125.942 223.176 127.994 225.696 131.63 225.696ZM131.63 223.824C129.542 223.824 128.534 222.384 128.534 219.648V217.488C128.534 214.752 129.542 213.312 131.63 213.312C133.718 213.312 134.726 214.752 134.726 217.488V219.648C134.726 222.384 133.718 223.824 131.63 223.824ZM148.946 237.432C152.582 237.432 154.634 234.912 154.634 230.304C154.634 225.696 152.582 223.176 148.946 223.176C145.31 223.176 143.258 225.696 143.258 230.304C143.258 234.912 145.31 237.432 148.946 237.432ZM148.946 235.56C146.858 235.56 145.85 234.12 145.85 231.384V229.224C145.85 226.488 146.858 225.048 148.946 225.048C151.034 225.048 152.042 226.488 152.042 229.224V231.384C152.042 234.12 151.034 235.56 148.946 235.56Z" fill="#FE805B"/>
<path d="M75.9534 275L73.0974 266.624H71.3934L68.5374 275H69.9174L70.6494 272.732H73.7814L74.5374 275H75.9534ZM73.4454 271.568H70.9734L72.1854 267.872H72.2454L73.4454 271.568ZM81.1369 275.144C82.5889 275.144 83.5969 274.412 84.1609 273.2L83.0689 272.54C82.7689 273.356 82.1329 273.932 81.1369 273.932C79.8529 273.932 79.0609 272.996 79.0609 271.448V270.176C79.0609 268.628 79.8529 267.692 81.1369 267.692C82.1089 267.692 82.6969 268.208 82.9849 269L84.1249 268.376C83.5609 267.128 82.5889 266.48 81.1369 266.48C78.9529 266.48 77.6209 268.004 77.6209 270.812C77.6209 273.62 78.9529 275.144 81.1369 275.144ZM89.5901 275.144C91.0421 275.144 92.0501 274.412 92.6141 273.2L91.5221 272.54C91.2221 273.356 90.5861 273.932 89.5901 273.932C88.3061 273.932 87.5141 272.996 87.5141 271.448V270.176C87.5141 268.628 88.3061 267.692 89.5901 267.692C90.5621 267.692 91.1501 268.208 91.4381 269L92.5781 268.376C92.0141 267.128 91.0421 266.48 89.5901 266.48C87.4061 266.48 86.0741 268.004 86.0741 270.812C86.0741 273.62 87.4061 275.144 89.5901 275.144ZM95.0035 266.624V271.568C95.0035 274.016 95.8435 275.144 98.1355 275.144C100.428 275.144 101.268 274.016 101.268 271.568V266.624H99.9355V271.784C99.9355 273.2 99.4435 273.932 98.1355 273.932C96.8275 273.932 96.3355 273.2 96.3355 271.784V266.624H95.0035ZM105.634 271.616H107.302L108.982 275H110.494L108.682 271.472C109.75 271.16 110.314 270.332 110.314 269.144C110.314 267.596 109.39 266.624 107.89 266.624H104.278V275H105.634V271.616ZM105.634 270.476V267.812H107.794C108.478 267.812 108.886 268.184 108.886 268.856V269.432C108.886 270.104 108.478 270.476 107.794 270.476H105.634ZM119.789 275L116.933 266.624H115.229L112.373 275H113.753L114.485 272.732H117.617L118.373 275H119.789ZM117.281 271.568H114.809L116.021 267.872H116.081L117.281 271.568ZM124.973 275.144C126.425 275.144 127.433 274.412 127.997 273.2L126.905 272.54C126.605 273.356 125.969 273.932 124.973 273.932C123.689 273.932 122.897 272.996 122.897 271.448V270.176C122.897 268.628 123.689 267.692 124.973 267.692C125.945 267.692 126.533 268.208 126.821 269L127.961 268.376C127.397 267.128 126.425 266.48 124.973 266.48C122.789 266.48 121.457 268.004 121.457 270.812C121.457 273.62 122.789 275.144 124.973 275.144ZM133.688 275V271.676L136.592 266.624H135.104L133.076 270.356H133.04L131 266.624H129.452L132.332 271.7V275H133.688Z" fill="#FE805B"/>
<path d="M269.074 222.528V225.156H272.026C275.554 225.156 277.426 226.848 277.426 229.8V230.088C277.426 233.04 275.554 234.732 272.026 234.732C268.966 234.732 267.49 233.4 266.194 231.42L263.926 233.148C265.474 235.308 267.706 237.432 272.062 237.432C277.174 237.432 280.594 234.444 280.594 230.124C280.594 226.344 278.002 224.328 275.302 223.788V223.644C277.966 222.96 280.126 221.016 280.126 217.776C280.126 213.708 276.742 211.44 272.494 211.44C268.462 211.44 266.266 213.528 265.006 215.544L267.238 217.272C268.282 215.364 269.83 214.14 272.422 214.14C275.086 214.14 276.922 215.472 276.922 218.1V218.352C276.922 220.764 275.194 222.528 271.81 222.528H269.074ZM303.188 234.336H289.976L296.744 228.252C299.948 225.372 302.252 222.636 302.252 218.748C302.252 214.464 299.444 211.44 294.548 211.44C289.688 211.44 287.456 214.392 286.484 217.344L289.184 218.388C289.868 216.012 291.308 214.14 294.404 214.14C297.5 214.14 299.048 216.048 299.048 218.82V219.252C299.048 221.664 297.248 224.184 294.908 226.344L286.7 233.904V237H303.188V234.336Z" fill="#943CFF"/>
<path d="M248.802 277H250.158V269.824H252.654V268.624H246.306V269.824H248.802V277ZM260.838 277L257.982 268.624H256.278L253.422 277H254.802L255.534 274.732H258.666L259.422 277H260.838ZM258.33 273.568H255.858L257.07 269.872H257.13L258.33 273.568ZM265.644 277.144C267.564 277.144 268.68 276.1 268.68 274.54C268.68 273.208 267.924 272.464 266.256 272.14L265.512 271.984C264.612 271.804 264.18 271.504 264.18 270.808C264.18 270.076 264.732 269.68 265.692 269.68C266.616 269.68 267.216 270.04 267.648 270.604L268.596 269.764C267.948 268.936 267.024 268.48 265.764 268.48C263.988 268.48 262.836 269.392 262.836 270.88C262.836 272.212 263.664 272.968 265.284 273.268L266.028 273.4C267 273.592 267.336 273.964 267.336 274.612C267.336 275.416 266.784 275.944 265.716 275.944C264.804 275.944 264.108 275.572 263.52 274.852L262.584 275.728C263.28 276.592 264.24 277.144 265.644 277.144ZM276.359 277H277.991L274.763 272.152L277.751 268.624H276.167L273.911 271.348L272.711 272.872H272.663V268.624H271.307V277H272.663V274.408L273.815 273.088L276.359 277ZM282.655 277.144C284.575 277.144 285.691 276.1 285.691 274.54C285.691 273.208 284.935 272.464 283.267 272.14L282.523 271.984C281.623 271.804 281.191 271.504 281.191 270.808C281.191 270.076 281.743 269.68 282.703 269.68C283.627 269.68 284.227 270.04 284.659 270.604L285.607 269.764C284.959 268.936 284.035 268.48 282.775 268.48C280.999 268.48 279.847 269.392 279.847 270.88C279.847 272.212 280.675 272.968 282.295 273.268L283.039 273.4C284.011 273.592 284.347 273.964 284.347 274.612C284.347 275.416 283.795 275.944 282.727 275.944C281.815 275.944 281.119 275.572 280.531 274.852L279.595 275.728C280.291 276.592 281.251 277.144 282.655 277.144ZM297.399 277.948H296.115V277.084C297.891 276.784 299.007 275.308 299.007 272.812C299.007 269.992 297.579 268.48 295.395 268.48C293.211 268.48 291.783 269.992 291.783 272.812C291.783 275.38 292.971 276.868 294.843 277.108V277.744C294.843 278.56 295.275 279.076 296.211 279.076H297.399V277.948ZM295.395 275.932C294.099 275.932 293.235 274.996 293.235 273.472V272.152C293.235 270.628 294.099 269.692 295.395 269.692C296.691 269.692 297.555 270.628 297.555 272.152V273.472C297.555 274.996 296.691 275.932 295.395 275.932ZM308.088 277L305.232 268.624H303.528L300.672 277H302.052L302.784 274.732H305.916L306.672 277H308.088ZM305.58 273.568H303.108L304.32 269.872H304.38L305.58 273.568ZM310.856 271.72V268.12H309.692V271.72H310.856ZM313.823 277H316.787C318.923 277 320.327 275.608 320.327 272.812C320.327 270.016 318.923 268.624 316.787 268.624H313.823V277ZM315.179 275.8V269.824H316.787C318.035 269.824 318.875 270.628 318.875 272.14V273.484C318.875 274.996 318.035 275.8 316.787 275.8H315.179Z" fill="#943CFF"/>
<path d="M634.8 235.432C640.812 235.432 643.44 230.644 643.44 222.436C643.44 214.228 640.812 209.44 634.8 209.44C628.788 209.44 626.16 214.228 626.16 222.436C626.16 230.644 628.788 235.432 634.8 235.432ZM634.8 232.804C630.876 232.804 629.328 229.348 629.328 224.488V220.384C629.328 215.524 630.876 212.068 634.8 212.068C638.724 212.068 640.272 215.524 640.272 220.384V224.488C640.272 229.348 638.724 232.804 634.8 232.804ZM654.946 235L672.37 209.872H669.598L652.174 235H654.946ZM653.614 223.696C657.25 223.696 659.302 221.176 659.302 216.568C659.302 211.96 657.25 209.44 653.614 209.44C649.978 209.44 647.926 211.96 647.926 216.568C647.926 221.176 649.978 223.696 653.614 223.696ZM653.614 221.824C651.526 221.824 650.518 220.384 650.518 217.648V215.488C650.518 212.752 651.526 211.312 653.614 211.312C655.702 211.312 656.71 212.752 656.71 215.488V217.648C656.71 220.384 655.702 221.824 653.614 221.824ZM670.93 235.432C674.566 235.432 676.618 232.912 676.618 228.304C676.618 223.696 674.566 221.176 670.93 221.176C667.294 221.176 665.242 223.696 665.242 228.304C665.242 232.912 667.294 235.432 670.93 235.432ZM670.93 233.56C668.842 233.56 667.834 232.12 667.834 229.384V227.224C667.834 224.488 668.842 223.048 670.93 223.048C673.018 223.048 674.026 224.488 674.026 227.224V229.384C674.026 232.12 673.018 233.56 670.93 233.56Z" fill="#D71920"/>
<path d="M609.857 269V267.896H608.705V261.728H609.857V260.624H606.209V261.728H607.349V267.896H606.209V269H609.857ZM618.553 269H620.065V260.624H618.769V267.032H618.733L617.809 265.256L615.073 260.624H613.561V269H614.857V262.592H614.893L615.817 264.368L618.553 269ZM627.272 269.144C628.724 269.144 629.732 268.412 630.296 267.2L629.204 266.54C628.904 267.356 628.268 267.932 627.272 267.932C625.988 267.932 625.196 266.996 625.196 265.448V264.176C625.196 262.628 625.988 261.692 627.272 261.692C628.244 261.692 628.832 262.208 629.12 263L630.26 262.376C629.696 261.128 628.724 260.48 627.272 260.48C625.088 260.48 623.756 262.004 623.756 264.812C623.756 267.62 625.088 269.144 627.272 269.144ZM636.821 269.144C639.005 269.144 640.433 267.632 640.433 264.812C640.433 261.992 639.005 260.48 636.821 260.48C634.637 260.48 633.209 261.992 633.209 264.812C633.209 267.632 634.637 269.144 636.821 269.144ZM636.821 267.932C635.525 267.932 634.661 266.996 634.661 265.472V264.152C634.661 262.628 635.525 261.692 636.821 261.692C638.117 261.692 638.981 262.628 638.981 264.152V265.472C638.981 266.996 638.117 267.932 636.821 267.932ZM645.48 265.616H647.148L648.828 269H650.34L648.528 265.472C649.596 265.16 650.16 264.332 650.16 263.144C650.16 261.596 649.236 260.624 647.736 260.624H644.124V269H645.48V265.616ZM645.48 264.476V261.812H647.64C648.324 261.812 648.732 262.184 648.732 262.856V263.432C648.732 264.104 648.324 264.476 647.64 264.476H645.48ZM655.343 265.616H657.011L658.691 269H660.203L658.391 265.472C659.459 265.16 660.023 264.332 660.023 263.144C660.023 261.596 659.099 260.624 657.599 260.624H653.987V269H655.343V265.616ZM655.343 264.476V261.812H657.503C658.187 261.812 658.595 262.184 658.595 262.856V263.432C658.595 264.104 658.187 264.476 657.503 264.476H655.343ZM669.214 269V267.8H665.206V265.352H668.842V264.152H665.206V261.824H669.214V260.624H663.85V269H669.214ZM676.108 269.144C677.56 269.144 678.568 268.412 679.132 267.2L678.04 266.54C677.74 267.356 677.104 267.932 676.108 267.932C674.824 267.932 674.032 266.996 674.032 265.448V264.176C674.032 262.628 674.824 261.692 676.108 261.692C677.08 261.692 677.668 262.208 677.956 263L679.096 262.376C678.532 261.128 677.56 260.48 676.108 260.48C673.924 260.48 672.592 262.004 672.592 264.812C672.592 267.62 673.924 269.144 676.108 269.144ZM684.321 269H685.677V261.824H688.173V260.624H681.825V261.824H684.321V269Z" fill="#D71920"/>
<path d="M435.631 238V235.336H429.151V212.872H424.435L417.775 219.1L419.539 221.008L425.875 215.104H426.127V235.336H419.107V238H435.631ZM448.325 238.432C454.337 238.432 456.965 233.644 456.965 225.436C456.965 217.228 454.337 212.44 448.325 212.44C442.313 212.44 439.685 217.228 439.685 225.436C439.685 233.644 442.313 238.432 448.325 238.432ZM448.325 235.804C444.401 235.804 442.853 232.348 442.853 227.488V223.384C442.853 218.524 444.401 215.068 448.325 215.068C452.249 215.068 453.797 218.524 453.797 223.384V227.488C453.797 232.348 452.249 235.804 448.325 235.804ZM469.911 238.432C475.923 238.432 478.551 233.644 478.551 225.436C478.551 217.228 475.923 212.44 469.911 212.44C463.899 212.44 461.271 217.228 461.271 225.436C461.271 233.644 463.899 238.432 469.911 238.432ZM469.911 235.804C465.987 235.804 464.439 232.348 464.439 227.488V223.384C464.439 218.524 465.987 215.068 469.911 215.068C473.835 215.068 475.383 218.524 475.383 223.384V227.488C475.383 232.348 473.835 235.804 469.911 235.804ZM490.057 238L507.481 212.872H504.709L487.285 238H490.057ZM488.725 226.696C492.361 226.696 494.413 224.176 494.413 219.568C494.413 214.96 492.361 212.44 488.725 212.44C485.089 212.44 483.037 214.96 483.037 219.568C483.037 224.176 485.089 226.696 488.725 226.696ZM488.725 224.824C486.637 224.824 485.629 223.384 485.629 220.648V218.488C485.629 215.752 486.637 214.312 488.725 214.312C490.813 214.312 491.821 215.752 491.821 218.488V220.648C491.821 223.384 490.813 224.824 488.725 224.824ZM506.041 238.432C509.677 238.432 511.729 235.912 511.729 231.304C511.729 226.696 509.677 224.176 506.041 224.176C502.405 224.176 500.353 226.696 500.353 231.304C500.353 235.912 502.405 238.432 506.041 238.432ZM506.041 236.56C503.953 236.56 502.945 235.12 502.945 232.384V230.224C502.945 227.488 503.953 226.048 506.041 226.048C508.129 226.048 509.137 227.488 509.137 230.224V232.384C509.137 235.12 508.129 236.56 506.041 236.56Z" fill="#00BFA5"/>
<path d="M438.992 277.144C440.444 277.144 441.452 276.412 442.016 275.2L440.924 274.54C440.624 275.356 439.988 275.932 438.992 275.932C437.708 275.932 436.916 274.996 436.916 273.448V272.176C436.916 270.628 437.708 269.692 438.992 269.692C439.964 269.692 440.552 270.208 440.84 271L441.98 270.376C441.416 269.128 440.444 268.48 438.992 268.48C436.808 268.48 435.476 270.004 435.476 272.812C435.476 275.62 436.808 277.144 438.992 277.144ZM447.542 277.144C449.726 277.144 451.154 275.632 451.154 272.812C451.154 269.992 449.726 268.48 447.542 268.48C445.358 268.48 443.93 269.992 443.93 272.812C443.93 275.632 445.358 277.144 447.542 277.144ZM447.542 275.932C446.246 275.932 445.382 274.996 445.382 273.472V272.152C445.382 270.628 446.246 269.692 447.542 269.692C448.838 269.692 449.702 270.628 449.702 272.152V273.472C449.702 274.996 448.838 275.932 447.542 275.932ZM455.201 273.616H456.869L458.549 277H460.061L458.249 273.472C459.317 273.16 459.881 272.332 459.881 271.144C459.881 269.596 458.957 268.624 457.457 268.624H453.845V277H455.201V273.616ZM455.201 272.476V269.812H457.361C458.045 269.812 458.453 270.184 458.453 270.856V271.432C458.453 272.104 458.045 272.476 457.361 272.476H455.201ZM464.064 273.616H465.732L467.412 277H468.924L467.112 273.472C468.18 273.16 468.744 272.332 468.744 271.144C468.744 269.596 467.82 268.624 466.32 268.624H462.708V277H464.064V273.616ZM464.064 272.476V269.812H466.224C466.908 269.812 467.316 270.184 467.316 270.856V271.432C467.316 272.104 466.908 272.476 466.224 272.476H464.064ZM476.935 277V275.8H472.927V273.352H476.563V272.152H472.927V269.824H476.935V268.624H471.571V277H476.935ZM482.828 277.144C484.28 277.144 485.288 276.412 485.852 275.2L484.76 274.54C484.46 275.356 483.824 275.932 482.828 275.932C481.544 275.932 480.752 274.996 480.752 273.448V272.176C480.752 270.628 481.544 269.692 482.828 269.692C483.8 269.692 484.388 270.208 484.676 271L485.816 270.376C485.252 269.128 484.28 268.48 482.828 268.48C480.644 268.48 479.312 270.004 479.312 272.812C479.312 275.62 480.644 277.144 482.828 277.144ZM490.042 277H491.398V269.824H493.894V268.624H487.546V269.824H490.042V277Z" fill="#00BFA5"/>
<line x1="-4.37114e-08" y1="103.5" x2="752" y2="103.5" stroke="#F1F1F1"/>
<path fill-rule="evenodd" clip-rule="evenodd" d="M414 131C414 126.582 417.582 123 422 123H560C564.418 123 568 126.582 568 131V150C568 154.418 564.418 158 560 158H422C417.582 158 414 154.418 414 150V131Z" fill="#F7FAFC"/>
<path d="M517.972 136.273H516.915L514.733 137.722V138.795L516.864 137.381H516.915V145H517.972V136.273ZM523.584 135.864H522.663L519.851 146.312H520.771L523.584 135.864ZM527.827 136.273H526.77L524.588 137.722V138.795L526.719 137.381H526.77V145H527.827V136.273ZM533.405 136.273H532.348L530.167 137.722V138.795L532.297 137.381H532.348V145H533.405V136.273ZM539.017 135.864H538.097L535.284 146.312H536.205L539.017 135.864ZM543.261 136.273H542.204L540.022 137.722V138.795L542.153 137.381H542.204V145H543.261V136.273ZM546.043 145H547.151L551.038 137.261V136.273H545.447V137.21H549.947V137.278L546.043 145Z" fill="black"/>
<path d="M433.972 136.273H432.915L430.733 137.722V138.795L432.864 137.381H432.915V145H433.972V136.273ZM439.584 135.864H438.663L435.851 146.312H436.771L439.584 135.864ZM443.827 136.273H442.77L440.588 137.722V138.795L442.719 137.381H442.77V145H443.827V136.273ZM449.405 136.273H448.348L446.167 137.722V138.795L448.297 137.381H448.348V145H449.405V136.273ZM455.017 135.864H454.097L451.284 146.312H452.205L455.017 135.864ZM459.261 136.273H458.204L456.022 137.722V138.795L458.153 137.381H458.204V145H459.261V136.273ZM462.043 145H463.151L467.038 137.261V136.273H461.447V137.21H465.947V137.278L462.043 145Z" fill="black"/>
<path d="M484.618 137.509H486.905V144H487.785V137.509H490.072V136.727H484.618V137.509ZM497.265 140.364C497.265 138.062 495.916 136.628 494.055 136.628C492.194 136.628 490.845 138.062 490.845 140.364C490.845 142.665 492.194 144.099 494.055 144.099C495.916 144.099 497.265 142.665 497.265 140.364ZM496.413 140.364C496.413 142.253 495.376 143.276 494.055 143.276C492.734 143.276 491.697 142.253 491.697 140.364C491.697 138.474 492.734 137.452 494.055 137.452C495.376 137.452 496.413 138.474 496.413 140.364Z" fill="#718096"/>
<path d="M590.784 136.273V141.966C590.784 143.244 589.906 144.165 588.449 144.165C586.991 144.165 586.114 143.244 586.114 141.966V136.273H585.057V142.051C585.057 143.841 586.395 145.153 588.449 145.153C590.503 145.153 591.841 143.841 591.841 142.051V136.273H590.784ZM594.474 137.21H597.218V145H598.275V137.21H601.02V136.273H594.474V137.21ZM610.31 139C609.986 137.21 608.554 136.153 606.799 136.153C604.566 136.153 602.946 137.875 602.946 140.636C602.946 143.398 604.566 145.119 606.799 145.119C608.554 145.119 609.986 144.062 610.31 142.273H609.253C608.998 143.483 607.958 144.131 606.799 144.131C605.213 144.131 603.969 142.903 603.969 140.636C603.969 138.369 605.213 137.142 606.799 137.142C607.958 137.142 608.998 137.79 609.253 139H610.31Z" fill="#718096"/>
<path fill-rule="evenodd" clip-rule="evenodd" d="M26.5 131C24.8431 131 23.5 132.343 23.5 134V147C23.5 148.657 24.8431 150 26.5 150H131.5C133.157 150 134.5 148.657 134.5 147V134C134.5 132.343 133.157 131 131.5 131H26.5Z" fill="white"/>
<path d="M26.5 130.5C24.567 130.5 23 132.067 23 134V147C23 148.933 24.567 150.5 26.5 150.5H131.5C133.433 150.5 135 148.933 135 147V134C135 132.067 133.433 130.5 131.5 130.5H26.5Z" stroke="black" stroke-opacity="0.15"/>
<path d="M32.5795 137.21H35.3239V145H36.3807V137.21H39.125V136.273H32.5795V137.21ZM41.6552 145.153C42.7972 145.153 43.3938 144.54 43.5984 144.114H43.6495V145H44.6552V140.688C44.6552 138.608 43.07 138.369 42.2347 138.369C41.2461 138.369 40.1211 138.71 39.6097 139.903L40.5643 140.244C40.7859 139.767 41.31 139.256 42.2688 139.256C43.1935 139.256 43.6495 139.746 43.6495 140.585V140.619C43.6495 141.105 43.1552 141.062 41.962 141.216C40.7475 141.374 39.4222 141.642 39.4222 143.142C39.4222 144.42 40.4109 145.153 41.6552 145.153ZM41.8086 144.25C41.0075 144.25 40.4279 143.892 40.4279 143.193C40.4279 142.426 41.1268 142.188 41.9109 142.085C42.337 142.034 43.479 141.915 43.6495 141.71V142.631C43.6495 143.449 43.0018 144.25 41.8086 144.25ZM51.1271 139.92C50.8118 138.991 50.1044 138.369 48.8089 138.369C47.4283 138.369 46.4055 139.153 46.4055 140.261C46.4055 141.165 46.9425 141.77 48.1442 142.051L49.2351 142.307C49.8956 142.46 50.2067 142.776 50.2067 143.227C50.2067 143.79 49.6101 144.25 48.6726 144.25C47.8501 144.25 47.3345 143.896 47.1555 143.193L46.201 143.432C46.4354 144.544 47.3516 145.136 48.6896 145.136C50.2109 145.136 51.2464 144.305 51.2464 143.176C51.2464 142.264 50.6754 141.689 49.5078 141.403L48.5362 141.165C47.7607 140.973 47.4112 140.713 47.4112 140.21C47.4112 139.648 48.0078 139.239 48.8089 139.239C49.6868 139.239 50.049 139.724 50.2237 140.176L51.1271 139.92ZM52.7603 145H53.766V142.55L54.4691 141.898L56.9194 145H58.1978L55.2276 141.25L57.9933 138.455H56.7489L53.8853 141.369H53.766V136.273H52.7603V145ZM62.3217 137.21H65.0661V145H66.1229V137.21H68.8672V136.273H62.3217V137.21ZM70.2596 147.455C71.1673 147.455 71.8065 146.973 72.1857 145.955L74.9727 138.472L73.8732 138.455L72.0664 143.67H71.9982L70.1914 138.455H69.1005L71.521 145.034L71.3335 145.545C70.967 146.543 70.5153 146.636 69.7823 146.449L69.5266 147.335C69.6289 147.386 69.9187 147.455 70.2596 147.455ZM76.3033 147.455H77.3089V143.994H77.3942C77.6158 144.352 78.0419 145.136 79.3033 145.136C80.9396 145.136 82.0817 143.824 82.0817 141.744C82.0817 139.682 80.9396 138.369 79.2862 138.369C78.0078 138.369 77.6158 139.153 77.3942 139.494H77.2749V138.455H76.3033V147.455ZM77.2919 141.727C77.2919 140.261 77.9396 139.273 79.1669 139.273C80.4453 139.273 81.076 140.347 81.076 141.727C81.076 143.125 80.4283 144.233 79.1669 144.233C77.9567 144.233 77.2919 143.21 77.2919 141.727ZM86.3601 145.136C87.6896 145.136 88.6612 144.472 88.968 143.483L87.9964 143.21C87.7408 143.892 87.1484 144.233 86.3601 144.233C85.1797 144.233 84.3658 143.47 84.3189 142.068H89.0703V141.642C89.0703 139.205 87.6214 138.369 86.2578 138.369C84.4851 138.369 83.3089 139.767 83.3089 141.778C83.3089 143.79 84.468 145.136 86.3601 145.136ZM84.3189 141.199C84.3871 140.18 85.1072 139.273 86.2578 139.273C87.3487 139.273 88.0476 140.091 88.0476 141.199H84.3189Z" fill="#252525"/>
<path d="M132 150.25H118.75V130.75H132C133.519 130.75 134.75 131.981 134.75 133.5V147.5C134.75 149.019 133.519 150.25 132 150.25Z" fill="url(#paint0_linear)" stroke="url(#paint1_linear)" stroke-width="0.5"/>
<path fill-rule="evenodd" clip-rule="evenodd" d="M130 142L126.75 145.508L123.5 142M130 138.5L126.75 134.992L123.5 138.5" fill="white"/>
<path d="M180.75 140C180.75 144.28 177.28 147.75 173 147.75C168.72 147.75 165.25 144.28 165.25 140C165.25 135.72 168.72 132.25 173 132.25C177.28 132.25 180.75 135.72 180.75 140Z" fill="#3B99FC" stroke="#2D91FB" stroke-width="0.5"/>
<g filter="url(#filter0_d)">
<path fill-rule="evenodd" clip-rule="evenodd" d="M173 143C174.657 143 176 141.657 176 140C176 138.343 174.657 137 173 137C171.343 137 170 138.343 170 140C170 141.657 171.343 143 173 143Z" fill="white"/>
</g>
<path d="M192.75 145C195.409 145 196.909 143.347 196.909 140.619C196.909 137.909 195.409 136.273 192.869 136.273H190.057V145H192.75ZM191.114 144.062V137.21H192.801C194.847 137.21 195.886 138.506 195.886 140.619C195.886 142.75 194.847 144.062 192.682 144.062H191.114ZM200.472 145.153C201.614 145.153 202.21 144.54 202.415 144.114H202.466V145H203.472V140.688C203.472 138.608 201.886 138.369 201.051 138.369C200.062 138.369 198.938 138.71 198.426 139.903L199.381 140.244C199.602 139.767 200.126 139.256 201.085 139.256C202.01 139.256 202.466 139.746 202.466 140.585V140.619C202.466 141.105 201.972 141.062 200.778 141.216C199.564 141.374 198.239 141.642 198.239 143.142C198.239 144.42 199.227 145.153 200.472 145.153ZM200.625 144.25C199.824 144.25 199.244 143.892 199.244 143.193C199.244 142.426 199.943 142.188 200.727 142.085C201.153 142.034 202.295 141.915 202.466 141.71V142.631C202.466 143.449 201.818 144.25 200.625 144.25ZM208.154 138.455H206.756V136.886H205.75V138.455H204.762V139.307H205.75V143.398C205.75 144.54 206.671 145.085 207.523 145.085C207.898 145.085 208.137 145.017 208.273 144.966L208.069 144.062C207.983 144.08 207.847 144.114 207.625 144.114C207.182 144.114 206.756 143.977 206.756 143.125V139.307H208.154V138.455ZM211.593 145.153C212.735 145.153 213.331 144.54 213.536 144.114H213.587V145H214.593V140.688C214.593 138.608 213.007 138.369 212.172 138.369C211.184 138.369 210.059 138.71 209.547 139.903L210.502 140.244C210.723 139.767 211.248 139.256 212.206 139.256C213.131 139.256 213.587 139.746 213.587 140.585V140.619C213.587 141.105 213.093 141.062 211.9 141.216C210.685 141.374 209.36 141.642 209.36 143.142C209.36 144.42 210.348 145.153 211.593 145.153ZM211.746 144.25C210.945 144.25 210.365 143.892 210.365 143.193C210.365 142.426 211.064 142.188 211.848 142.085C212.275 142.034 213.417 141.915 213.587 141.71V142.631C213.587 143.449 212.939 144.25 211.746 144.25ZM224.712 138.455H225.735C225.688 137.138 224.474 136.153 222.786 136.153C221.116 136.153 219.803 137.125 219.803 138.591C219.803 139.767 220.656 140.466 222.019 140.858L223.093 141.165C224.013 141.42 224.832 141.744 224.832 142.614C224.832 143.568 223.911 144.199 222.701 144.199C221.661 144.199 220.741 143.739 220.656 142.75H219.565C219.667 144.182 220.826 145.153 222.701 145.153C224.712 145.153 225.854 144.045 225.854 142.631C225.854 140.994 224.303 140.466 223.4 140.227L222.513 139.989C221.866 139.818 220.826 139.477 220.826 138.54C220.826 137.705 221.593 137.091 222.752 137.091C223.809 137.091 224.61 137.594 224.712 138.455ZM230.2 145.136C231.529 145.136 232.501 144.472 232.808 143.483L231.836 143.21C231.581 143.892 230.988 144.233 230.2 144.233C229.02 144.233 228.206 143.47 228.159 142.068H232.91V141.642C232.91 139.205 231.461 138.369 230.098 138.369C228.325 138.369 227.149 139.767 227.149 141.778C227.149 143.79 228.308 145.136 230.2 145.136ZM228.159 141.199C228.227 140.18 228.947 139.273 230.098 139.273C231.189 139.273 231.887 140.091 231.887 141.199H228.159ZM235.446 141.062C235.446 139.92 236.153 139.273 237.116 139.273C238.049 139.273 238.616 139.882 238.616 140.909V145H239.622V140.841C239.622 139.17 238.731 138.369 237.406 138.369C236.417 138.369 235.804 138.812 235.497 139.477H235.412V138.455H234.44V145H235.446V141.062ZM244.306 138.455H242.908V136.886H241.903V138.455H240.914V139.307H241.903V143.398C241.903 144.54 242.823 145.085 243.675 145.085C244.05 145.085 244.289 145.017 244.425 144.966L244.221 144.062C244.136 144.08 243.999 144.114 243.778 144.114C243.335 144.114 242.908 143.977 242.908 143.125V139.307H244.306V138.455Z" fill="black"/>
<g filter="url(#filter1_ii)">
<path fill-rule="evenodd" clip-rule="evenodd" d="M283 148C287.418 148 291 144.418 291 140C291 135.582 287.418 132 283 132C278.582 132 275 135.582 275 140C275 144.418 278.582 148 283 148Z" fill="white"/>
</g>
<path d="M290.75 140C290.75 144.28 287.28 147.75 283 147.75C278.72 147.75 275.25 144.28 275.25 140C275.25 135.72 278.72 132.25 283 132.25C287.28 132.25 290.75 135.72 290.75 140Z" stroke="black" stroke-opacity="0.2" stroke-width="0.5"/>
<path d="M302.75 145C305.409 145 306.909 143.347 306.909 140.619C306.909 137.909 305.409 136.273 302.869 136.273H300.057V145H302.75ZM301.114 144.062V137.21H302.801C304.847 137.21 305.886 138.506 305.886 140.619C305.886 142.75 304.847 144.062 302.682 144.062H301.114ZM310.472 145.153C311.614 145.153 312.21 144.54 312.415 144.114H312.466V145H313.472V140.688C313.472 138.608 311.886 138.369 311.051 138.369C310.062 138.369 308.938 138.71 308.426 139.903L309.381 140.244C309.602 139.767 310.126 139.256 311.085 139.256C312.01 139.256 312.466 139.746 312.466 140.585V140.619C312.466 141.105 311.972 141.062 310.778 141.216C309.564 141.374 308.239 141.642 308.239 143.142C308.239 144.42 309.227 145.153 310.472 145.153ZM310.625 144.25C309.824 144.25 309.244 143.892 309.244 143.193C309.244 142.426 309.943 142.188 310.727 142.085C311.153 142.034 312.295 141.915 312.466 141.71V142.631C312.466 143.449 311.818 144.25 310.625 144.25ZM318.154 138.455H316.756V136.886H315.75V138.455H314.762V139.307H315.75V143.398C315.75 144.54 316.671 145.085 317.523 145.085C317.898 145.085 318.137 145.017 318.273 144.966L318.069 144.062C317.983 144.08 317.847 144.114 317.625 144.114C317.182 144.114 316.756 143.977 316.756 143.125V139.307H318.154V138.455ZM321.593 145.153C322.735 145.153 323.331 144.54 323.536 144.114H323.587V145H324.593V140.688C324.593 138.608 323.007 138.369 322.172 138.369C321.184 138.369 320.059 138.71 319.547 139.903L320.502 140.244C320.723 139.767 321.248 139.256 322.206 139.256C323.131 139.256 323.587 139.746 323.587 140.585V140.619C323.587 141.105 323.093 141.062 321.9 141.216C320.685 141.374 319.36 141.642 319.36 143.142C319.36 144.42 320.348 145.153 321.593 145.153ZM321.746 144.25C320.945 144.25 320.365 143.892 320.365 143.193C320.365 142.426 321.064 142.188 321.848 142.085C322.275 142.034 323.417 141.915 323.587 141.71V142.631C323.587 143.449 322.939 144.25 321.746 144.25ZM336.962 139C336.638 137.21 335.207 136.153 333.451 136.153C331.218 136.153 329.599 137.875 329.599 140.636C329.599 143.398 331.218 145.119 333.451 145.119C335.207 145.119 336.638 144.062 336.962 142.273H335.906C335.65 143.483 334.61 144.131 333.451 144.131C331.866 144.131 330.621 142.903 330.621 140.636C330.621 138.369 331.866 137.142 333.451 137.142C334.61 137.142 335.65 137.79 335.906 139H336.962ZM341.193 145.136C342.966 145.136 344.159 143.79 344.159 141.761C344.159 139.716 342.966 138.369 341.193 138.369C339.42 138.369 338.227 139.716 338.227 141.761C338.227 143.79 339.42 145.136 341.193 145.136ZM341.193 144.233C339.846 144.233 339.233 143.074 339.233 141.761C339.233 140.449 339.846 139.273 341.193 139.273C342.539 139.273 343.153 140.449 343.153 141.761C343.153 143.074 342.539 144.233 341.193 144.233ZM345.694 145H346.7V140.909C346.7 139.95 347.398 139.273 348.183 139.273C348.945 139.273 349.478 139.771 349.478 140.517V145H350.501V140.739C350.501 139.895 351.029 139.273 351.95 139.273C352.665 139.273 353.279 139.652 353.279 140.619V145H354.285V140.619C354.285 139.081 353.458 138.369 352.29 138.369C351.353 138.369 350.667 138.8 350.33 139.477H350.262C349.938 138.778 349.367 138.369 348.506 138.369C347.654 138.369 347.023 138.778 346.751 139.477H346.665V138.455H345.694V145ZM356.124 147.455H357.129V143.994H357.214C357.436 144.352 357.862 145.136 359.124 145.136C360.76 145.136 361.902 143.824 361.902 141.744C361.902 139.682 360.76 138.369 359.107 138.369C357.828 138.369 357.436 139.153 357.214 139.494H357.095V138.455H356.124V147.455ZM357.112 141.727C357.112 140.261 357.76 139.273 358.987 139.273C360.266 139.273 360.896 140.347 360.896 141.727C360.896 143.125 360.249 144.233 358.987 144.233C357.777 144.233 357.112 143.21 357.112 141.727ZM364.442 136.273H363.436V145H364.442V136.273ZM369.028 145.136C370.358 145.136 371.329 144.472 371.636 143.483L370.664 143.21C370.409 143.892 369.816 144.233 369.028 144.233C367.848 144.233 367.034 143.47 366.987 142.068H371.738V141.642C371.738 139.205 370.289 138.369 368.926 138.369C367.153 138.369 365.977 139.767 365.977 141.778C365.977 143.79 367.136 145.136 369.028 145.136ZM366.987 141.199C367.055 140.18 367.775 139.273 368.926 139.273C370.017 139.273 370.716 140.091 370.716 141.199H366.987ZM376.115 138.455H374.717V136.886H373.711V138.455H372.723V139.307H373.711V143.398C373.711 144.54 374.632 145.085 375.484 145.085C375.859 145.085 376.098 145.017 376.234 144.966L376.029 144.062C375.944 144.08 375.808 144.114 375.586 144.114C375.143 144.114 374.717 143.977 374.717 143.125V139.307H376.115V138.455ZM380.301 145.136C381.631 145.136 382.603 144.472 382.909 143.483L381.938 143.21C381.682 143.892 381.09 144.233 380.301 144.233C379.121 144.233 378.307 143.47 378.26 142.068H383.012V141.642C383.012 139.205 381.563 138.369 380.199 138.369C378.426 138.369 377.25 139.767 377.25 141.778C377.25 143.79 378.409 145.136 380.301 145.136ZM378.26 141.199C378.328 140.18 379.049 139.273 380.199 139.273C381.29 139.273 381.989 140.091 381.989 141.199H378.26ZM387.013 145.136C388.275 145.136 388.701 144.352 388.922 143.994H389.042V145H390.013V136.273H389.007V139.494H388.922C388.701 139.153 388.309 138.369 387.03 138.369C385.377 138.369 384.235 139.682 384.235 141.744C384.235 143.824 385.377 145.136 387.013 145.136ZM387.15 144.233C385.888 144.233 385.24 143.125 385.24 141.727C385.24 140.347 385.871 139.273 387.15 139.273C388.377 139.273 389.025 140.261 389.025 141.727C389.025 143.21 388.36 144.233 387.15 144.233Z" fill="black"/>
<defs>
<filter id="filter0_d" x="169" y="136.5" width="8" height="8" filterUnits="userSpaceOnUse" color-interpolation-filters="sRGB">
<feFlood flood-opacity="0" result="BackgroundImageFix"/>
<feColorMatrix in="SourceAlpha" type="matrix" values="0 0 0 0 0 0 0 0 0 0 0 0 0 0 0 0 0 0 127 0"/>
<feOffset dy="0.5"/>
<feGaussianBlur stdDeviation="0.5"/>
<feColorMatrix type="matrix" values="0 0 0 0 0.129412 0 0 0 0 0.498039 0 0 0 0 0.886275 0 0 0 1 0"/>
<feBlend mode="normal" in2="BackgroundImageFix" result="effect1_dropShadow"/>
<feBlend mode="normal" in="SourceGraphic" in2="effect1_dropShadow" result="shape"/>
</filter>
<filter id="filter1_ii" x="275" y="132" width="16" height="17" filterUnits="userSpaceOnUse" color-interpolation-filters="sRGB">
<feFlood flood-opacity="0" result="BackgroundImageFix"/>
<feBlend mode="normal" in="SourceGraphic" in2="BackgroundImageFix" result="shape"/>
<feColorMatrix in="SourceAlpha" type="matrix" values="0 0 0 0 0 0 0 0 0 0 0 0 0 0 0 0 0 0 127 0" result="hardAlpha"/>
<feOffset/>
<feGaussianBlur stdDeviation="1"/>
<feComposite in2="hardAlpha" operator="arithmetic" k2="-1" k3="1"/>
<feColorMatrix type="matrix" values="0 0 0 0 0 0 0 0 0 0 0 0 0 0 0 0 0 0 0.1 0"/>
<feBlend mode="normal" in2="shape" result="effect1_innerShadow"/>
<feColorMatrix in="SourceAlpha" type="matrix" values="0 0 0 0 0 0 0 0 0 0 0 0 0 0 0 0 0 0 127 0" result="hardAlpha"/>
<feOffset dy="1.5"/>
<feGaussianBlur stdDeviation="0.5"/>
<feComposite in2="hardAlpha" operator="arithmetic" k2="-1" k3="1"/>
<feColorMatrix type="matrix" values="0 0 0 0 0 0 0 0 0 0 0 0 0 0 0 0 0 0 0.15 0"/>
<feBlend mode="normal" in2="effect1_innerShadow" result="effect2_innerShadow"/>
</filter>
<linearGradient id="paint0_linear" x1="118.5" y1="130.5" x2="118.5" y2="150.5" gradientUnits="userSpaceOnUse">
<stop stop-color="#6CB3FA"/>
<stop offset="1" stop-color="#057EFF"/>
</linearGradient>
<linearGradient id="paint1_linear" x1="118.5" y1="130.5" x2="118.5" y2="150.5" gradientUnits="userSpaceOnUse">
<stop stop-color="#4CA2F9"/>
<stop offset="1" stop-color="#005CFF"/>
</linearGradient>
</defs>
</svg>
