<svg width="82" height="21" viewBox="0 0 82 21" fill="none" xmlns="http://www.w3.org/2000/svg">
<path d="M30.6622 4.47888H26.1236C25.8117 4.47888 25.5463 4.70449 25.4998 5.00972L23.6618 16.6482C23.622 16.8805 23.8012 17.0862 24.0334 17.0862H26.1965C26.5084 17.0862 26.7738 16.8606 26.8203 16.5554L27.3179 13.4168C27.3644 13.1116 27.6298 12.886 27.9417 12.886H29.3815C32.3741 12.886 34.0927 11.4394 34.5439 8.57294C34.7496 7.31884 34.5505 6.33016 33.9666 5.64672C33.323 4.87701 32.1817 4.47888 30.6622 4.47888ZM31.1864 8.72555C30.9409 10.3512 29.6934 10.3512 28.4924 10.3512H27.8089L28.2867 7.31221C28.3132 7.12642 28.4725 6.99371 28.6583 6.99371H28.9701C29.7929 6.99371 30.5626 6.99371 30.9608 7.45819C31.2063 7.74351 31.2793 8.15491 31.1864 8.72555Z" fill="#fff"/>
<path d="M44.2263 8.67276H42.0499C41.8641 8.67276 41.7048 8.80546 41.6783 8.99126L41.5787 9.60172L41.4261 9.38275C40.955 8.6993 39.9066 8.47369 38.8582 8.47369C36.4562 8.47369 34.4058 10.2918 34.0077 12.8464C33.802 14.1204 34.094 15.3347 34.8172 16.1841C35.4808 16.967 36.4297 17.2922 37.551 17.2922C39.4886 17.2922 40.5569 16.0447 40.5569 16.0447L40.4574 16.6485C40.4175 16.8808 40.5967 17.0865 40.8289 17.0865H42.7864C43.0983 17.0865 43.357 16.8609 43.4101 16.5556L44.5846 9.11733C44.6377 8.88509 44.4585 8.67276 44.2263 8.67276ZM41.2005 12.9062C40.9882 14.147 40.0061 14.983 38.7521 14.983C38.1217 14.983 37.6174 14.7773 37.2923 14.3991C36.9738 14.0209 36.8477 13.4768 36.9539 12.873C37.1463 11.6454 38.1549 10.7828 39.3891 10.7828C40.0061 10.7828 40.5104 10.9885 40.8356 11.3734C41.1607 11.7582 41.2934 12.3023 41.2005 12.9062Z" fill="#fff"/>
<path d="M55.8049 8.67261H53.6152C53.4095 8.67261 53.2104 8.77877 53.091 8.9513L50.0785 13.3904L48.8045 9.12382C48.7249 8.8584 48.4794 8.67261 48.2007 8.67261H46.0574C45.7987 8.67261 45.6129 8.92475 45.6991 9.17026L48.1011 16.2304L45.8385 19.422C45.6593 19.6741 45.8385 20.0192 46.1437 20.0192H48.3267C48.5324 20.0192 48.7249 19.9196 48.8443 19.7471L56.1101 9.26316C56.2892 9.01765 56.1101 8.67261 55.8049 8.67261Z" fill="#fff"/>
<path d="M63.0313 4.47888H58.4927C58.1808 4.47888 57.922 4.70449 57.869 5.00972L56.031 16.6482C55.9911 16.8805 56.1703 17.0862 56.4025 17.0862H58.7316C58.9505 17.0862 59.1363 16.9269 59.1695 16.7146L59.6937 13.4168C59.7402 13.1116 60.0056 12.886 60.3174 12.886H61.7507C64.7433 12.886 66.4685 11.4394 66.913 8.57294C67.1187 7.31884 66.9197 6.33016 66.3358 5.64672C65.6921 4.87701 64.5508 4.47888 63.0313 4.47888ZM63.5555 8.72555C63.31 10.3512 62.0625 10.3512 60.8615 10.3512H60.1781L60.6558 7.31221C60.6824 7.12642 60.8416 6.99371 61.0274 6.99371H61.3393C62.1554 6.99371 62.9318 6.99371 63.3299 7.45819C63.5754 7.74351 63.6484 8.15491 63.5555 8.72555Z" fill="#fff"/>
<path d="M76.5939 8.67276H74.4241C74.2383 8.67276 74.079 8.80546 74.0525 8.99126L73.9596 9.60172L73.807 9.38275C73.3359 8.6993 72.2875 8.47369 71.2391 8.47369C68.8371 8.47369 66.7867 10.2918 66.3886 12.8464C66.1829 14.1204 66.4748 15.3347 67.1981 16.1841C67.8616 16.967 68.8105 17.2922 69.9319 17.2922C71.8694 17.2922 72.9377 16.0447 72.9377 16.0447L72.8382 16.6485C72.7984 16.8808 72.9776 17.0865 73.2098 17.0865H75.1672C75.4791 17.0865 75.7379 16.8609 75.791 16.5556L76.9721 9.11069C77.0053 8.88509 76.8261 8.67276 76.5939 8.67276ZM73.5681 12.9062C73.3624 14.147 72.3737 14.983 71.1196 14.983C70.4893 14.983 69.985 14.7773 69.6598 14.3991C69.3413 14.0209 69.2153 13.4768 69.3214 12.873C69.5205 11.6454 70.5224 10.7828 71.7566 10.7828C72.3737 10.7828 72.878 10.9885 73.2032 11.3734C73.5349 11.7582 73.661 12.3023 73.5681 12.9062Z" fill="#fff"/>
<path d="M79.1553 4.79738L77.2907 16.6482C77.2509 16.8805 77.4301 17.0862 77.6623 17.0862H79.5335C79.8454 17.0862 80.1108 16.8606 80.1572 16.5554L81.9952 4.91682C82.035 4.68458 81.8559 4.47888 81.6236 4.47888H79.5269C79.3477 4.47888 79.1884 4.61159 79.1553 4.79738Z" fill="#fff"/>
<path d="M4.82372 19.3415L5.16876 17.1386L4.39242 17.1187H0.703125L3.27103 0.855243C3.27767 0.808795 3.30421 0.762347 3.33739 0.72917C3.3772 0.695993 3.42365 0.676086 3.47673 0.676086H9.70076C11.7644 0.676086 13.191 1.10739 13.9408 1.95672C14.2925 2.35485 14.5114 2.77288 14.6176 3.23072C14.7304 3.70847 14.7304 4.28576 14.6242 4.98248L14.6176 5.03556V5.48677L14.9693 5.68583C15.2612 5.83845 15.5001 6.0176 15.6793 6.2233C15.9779 6.56171 16.1703 6.99301 16.2499 7.51057C16.3362 8.04141 16.303 8.66514 16.1703 9.37513C16.011 10.1913 15.7523 10.9013 15.4072 11.4852C15.0887 12.0227 14.6773 12.4672 14.1929 12.8123C13.7285 13.1374 13.1844 13.3896 12.5606 13.5488C11.9568 13.7081 11.2734 13.781 10.5236 13.781H10.0392C9.69412 13.781 9.35572 13.9071 9.0903 14.1261C8.82488 14.3517 8.65236 14.6636 8.59928 15.0086L8.55947 15.2077L7.94901 19.0894L7.92246 19.2354C7.91583 19.2818 7.90256 19.3017 7.88265 19.315C7.86938 19.3283 7.84284 19.3349 7.8163 19.3349C7.80966 19.3415 4.82372 19.3415 4.82372 19.3415Z" fill="#fff"/>
<path d="M15.2943 5.08936C15.2744 5.20879 15.2545 5.32823 15.228 5.4543C14.4052 9.6678 11.5984 11.1276 8.01528 11.1276H6.19054C5.7526 11.1276 5.38102 11.4461 5.31467 11.8774L4.37907 17.8028L4.11365 19.4816C4.06721 19.7669 4.28617 20.0191 4.57813 20.0191H7.81622C8.20107 20.0191 8.52621 19.7404 8.58593 19.3622L8.61911 19.1963L9.22956 15.3278L9.26938 15.1155C9.3291 14.7373 9.65423 14.4586 10.0391 14.4586H10.5235C13.662 14.4586 16.1171 13.1846 16.8338 9.49528C17.1324 7.95586 16.9797 6.66859 16.1835 5.76617C15.938 5.50075 15.6394 5.27515 15.2943 5.08936Z" fill="#fff"/>
<path d="M14.4323 4.74423C14.3062 4.71105 14.1802 4.67787 14.0474 4.6447C13.9147 4.61816 13.7754 4.59161 13.636 4.56507C13.145 4.48545 12.6076 4.45227 12.0236 4.45227H7.14661C7.02717 4.45227 6.91437 4.47881 6.8082 4.52526C6.58923 4.63806 6.41671 4.8504 6.3769 5.10918L5.34177 11.6782L5.30859 11.8707C5.37495 11.4394 5.74653 11.1209 6.18447 11.1209H8.00921C11.5923 11.1209 14.4058 9.66771 15.2219 5.44758C15.2485 5.32151 15.2684 5.20207 15.2883 5.08264C15.0826 4.96983 14.857 4.87694 14.6115 4.79731C14.5584 4.78404 14.4987 4.76414 14.4323 4.74423Z" fill="#737373"/>
<path d="M6.37708 5.10928C6.4169 4.85049 6.58278 4.63816 6.80839 4.52536C6.90792 4.47891 7.02736 4.45237 7.14679 4.45237H12.0238C12.6011 4.45237 13.1386 4.49218 13.6362 4.57181C13.7756 4.59171 13.9149 4.61825 14.0476 4.65143C14.1803 4.68461 14.313 4.71115 14.4325 4.75096C14.4922 4.77087 14.5586 4.79078 14.6183 4.81068C14.8572 4.89031 15.0828 4.9832 15.2951 5.096C15.5406 3.53668 15.2951 2.48165 14.4524 1.51951C13.5234 0.451209 11.8447 0 9.70143 0H3.47741C3.03947 0 2.66788 0.3185 2.60153 0.749803L0.0070799 17.1857C-0.0460035 17.5109 0.206143 17.8028 0.537914 17.8028H4.37982L5.34196 11.6783L6.37708 5.10928Z" fill="#A3A3A3"/>
</svg>
