<svg width="100" height="32" viewBox="0 0 100 32" fill="none" xmlns="http://www.w3.org/2000/svg">
<path d="M71.6258 31.975C70.7756 31.975 70.0755 31.2744 70.0755 30.4238V1.55121C70.0755 0.700548 70.7756 0 71.6258 0C72.476 0 73.1762 0.700548 73.1762 1.55121V30.4238C73.1762 31.2995 72.476 31.975 71.6258 31.975ZM98.0571 27.9218C98.6072 27.2713 98.5322 26.2955 97.882 25.7451C97.2319 25.1947 96.2567 25.2697 95.7065 25.9202C94.1061 27.7967 91.7056 28.8726 89.155 28.8726C84.904 28.8726 81.4281 25.3948 81.4281 21.1415C81.4281 16.8882 84.904 13.4105 89.155 13.4105C92.6308 13.4105 95.5065 15.9124 96.1316 19.19H86.6794C85.8292 19.19 85.129 19.8905 85.129 20.7412C85.129 21.5919 85.8292 22.2924 86.6794 22.2924H97.807C98.6572 22.2924 99.3574 21.5919 99.3574 20.7412V20.541C99.3574 14.9116 94.7813 10.3331 89.155 10.3331C83.1786 10.3331 78.3274 15.1869 78.3274 21.1665C78.3274 27.1462 83.1786 32 89.155 32C92.6308 31.975 95.8815 30.4988 98.0571 27.9218ZM64.9242 30.4238V20.516C64.9242 14.8866 60.3481 10.3081 54.7218 10.3081C48.7454 10.3081 43.8943 15.1618 43.8943 21.1415C43.8943 27.1212 48.7454 31.975 54.7218 31.975C55.572 31.975 56.2722 31.2744 56.2722 30.4238C56.2722 29.5731 55.572 28.8726 54.7218 28.8726C50.4708 28.8726 46.995 25.3948 46.995 21.1415C46.995 16.8882 50.4708 13.4105 54.7218 13.4105C58.6477 13.4105 61.8235 16.613 61.8235 20.516V30.4238C61.8235 31.2744 62.5237 31.975 63.3739 31.975C64.2241 31.975 64.9242 31.2995 64.9242 30.4238ZM18.1132 25.7952C18.1132 24.294 17.563 22.2174 14.9124 20.9914C13.337 20.2408 11.3366 19.9406 9.41112 19.6403C4.91006 18.9398 3.30967 18.3643 3.30967 16.5129C3.30967 14.4863 6.13534 13.4105 8.91099 13.4105C10.6614 13.4105 13.187 13.7607 15.2375 15.4371C15.8877 15.9875 16.8629 15.8874 17.413 15.2369C17.9631 14.5864 17.8631 13.6106 17.213 13.0602C14.4623 10.7834 11.1865 10.3081 8.936 10.3081C2.95959 10.3081 0.258949 13.5106 0.258949 16.4879C0.258949 18.0141 0.809076 20.0907 3.4597 21.3167C5.06008 22.0672 7.06057 22.3675 8.98602 22.6677C13.4621 23.3432 15.0625 23.9187 15.0625 25.7701C15.0625 27.6216 12.8619 28.8726 9.56115 28.8726C6.18535 28.8726 3.63475 27.4965 2.40946 26.6959C1.70929 26.2205 0.734061 26.4206 0.258949 27.1212C-0.216163 27.8217 -0.0161017 28.7975 0.684064 29.2729C3.30968 30.9992 6.46041 31.975 9.53614 31.975C15.4625 31.975 18.1132 28.8726 18.1132 25.7952ZM40.5435 27.4214C41.0186 26.7209 40.8185 25.7451 40.1184 25.2697C39.4182 24.7944 38.443 24.9945 37.9679 25.6951C36.6426 27.6966 34.417 28.8726 32.0415 28.8726C27.7905 28.8726 24.3146 25.3948 24.3146 21.1415C24.3146 16.8882 27.7905 13.4105 32.0415 13.4105C34.417 13.4105 36.6426 14.6114 37.9679 16.588C38.443 17.2885 39.3932 17.4887 40.1184 17.0133C40.8185 16.5379 41.0186 15.5872 40.5435 14.8616C38.643 12.0094 35.4673 10.283 32.0415 10.283C26.065 10.283 21.2139 15.1368 21.2139 21.1165C21.2139 27.0962 26.065 31.95 32.0415 31.95C35.4423 31.975 38.643 30.2737 40.5435 27.4214Z" fill="#A3A3A3"/>
</svg>
