<svg width="100" height="100" viewBox="0 0 100 100" fill="none" xmlns="http://www.w3.org/2000/svg">
<path d="M93.3 25L71.66 12.5L56.94 15.68L50 25L71.66 37.5L85.1 33.74L93.3 25Z" fill="#6B80D2"/>
<path d="M93.2999 25L71.6599 37.5V62.5L84.5399 60.6L93.2999 50V25Z" fill="#86BFF2"/>
<path d="M28.3399 62.5V37.5L17.52 39.4L6.69995 50V75L20.32 71.5L28.3399 62.5Z" fill="#6B80D2"/>
<path d="M39.18 81.24V68.76L28.34 62.5L6.69995 75L28.34 87.5H36.32L39.18 81.24Z" fill="#86BFF2"/>
<path d="M71.66 12.5L50 0L6.69995 25V50L71.66 12.5Z" fill="#C88BC4"/>
<path d="M28.3398 87.5L49.9998 100L93.2999 75V50L28.3398 87.5Z" fill="#BBDEF2"/>
</svg>
