<svg width="300" height="220" viewBox="0 0 300 220" fill="none" xmlns="http://www.w3.org/2000/svg">
<g clip-path="url(#clip0)">
<rect width="300" height="220" fill="#6A11EA"/>
<rect x="28" y="83" width="244" height="119" rx="8" fill="black"/>
<rect x="28" y="73" width="244" height="119" rx="8" fill="white"/>
<path fill-rule="evenodd" clip-rule="evenodd" d="M124.658 36.9563C124.294 36.9563 124 37.3354 124 37.8042V41.1959C124 41.6647 124.294 42.0438 124.658 42.0438C125.022 42.0438 125.317 41.6647 125.317 41.1959V37.8042C125.317 37.3354 125.022 36.9563 124.658 36.9563ZM127.292 33.5653C126.928 33.5653 126.634 33.9436 126.634 34.4132V44.5868C126.634 45.0563 126.928 45.4347 127.292 45.4347C127.656 45.4347 127.95 45.0563 127.95 44.5868V34.4132C127.95 33.9436 127.656 33.5653 127.292 33.5653ZM129.925 35.2611C129.561 35.2611 129.267 35.6395 129.267 36.1083V42.8917C129.267 43.3605 129.561 43.7389 129.925 43.7389C130.289 43.7389 130.584 43.3605 130.584 42.8917V36.1083C130.584 35.6395 130.289 35.2611 129.925 35.2611ZM132.559 28.4785C132.194 28.4785 131.901 28.8569 131.901 29.3264V49.6736C131.901 50.1431 132.194 50.5215 132.559 50.5215C132.923 50.5215 133.217 50.1431 133.217 49.6736V29.3264C133.217 28.8569 132.923 28.4785 132.559 28.4785ZM135.192 35.2611C134.828 35.2611 134.534 35.6395 134.534 36.1083V42.8917C134.534 43.3605 134.828 43.7389 135.192 43.7389C135.556 43.7389 135.851 43.3605 135.851 42.8917V36.1083C135.851 35.6395 135.556 35.2611 135.192 35.2611ZM137.826 20C137.461 20 137.168 20.3784 137.168 20.8479V58.1521C137.168 58.6216 137.461 59 137.826 59C138.19 59 138.484 58.6216 138.484 58.1521V20.8479C138.484 20.3784 138.19 20 137.826 20ZM140.459 26.7826C140.095 26.7826 139.801 27.161 139.801 27.6305V51.3694C139.801 51.839 140.095 52.2173 140.459 52.2173C140.823 52.2173 141.118 51.839 141.118 51.3694V27.6305C141.118 27.161 140.823 26.7826 140.459 26.7826ZM143.093 30.1736C142.728 30.1736 142.435 30.5527 142.435 31.0216V47.9785C142.435 48.4473 142.728 48.8264 143.093 48.8264C143.457 48.8264 143.751 48.4473 143.751 47.9785V31.0216C143.751 30.5527 143.457 30.1736 143.093 30.1736ZM145.726 35.2611C145.362 35.2611 145.068 35.6395 145.068 36.1083V42.8917C145.068 43.3605 145.362 43.7389 145.726 43.7389C146.09 43.7389 146.385 43.3605 146.385 42.8917V36.1083C146.385 35.6395 146.09 35.2611 145.726 35.2611ZM148.359 36.9563C147.995 36.9563 147.702 37.3354 147.702 37.8042V41.1959C147.702 41.6647 147.995 42.0438 148.359 42.0438C148.724 42.0438 149.018 41.6647 149.018 41.1959V37.8042C149.018 37.3354 148.724 36.9563 148.359 36.9563ZM150.993 30.1736C150.629 30.1736 150.335 30.5527 150.335 31.0216V46.2827C150.335 46.7515 150.629 47.1306 150.993 47.1306C151.357 47.1306 151.652 46.7515 151.652 46.2827V31.0216C151.652 30.5527 151.357 30.1736 150.993 30.1736ZM153.627 35.2611C153.262 35.2611 152.968 35.6395 152.968 36.1083V42.8917C152.968 43.3605 153.262 43.7389 153.627 43.7389C153.991 43.7389 154.285 43.3605 154.285 42.8917V36.1083C154.285 35.6395 153.991 35.2611 153.627 35.2611ZM156.26 36.9563C155.896 36.9563 155.602 37.3354 155.602 37.8042V41.1959C155.602 41.6647 155.896 42.0438 156.26 42.0438C156.624 42.0438 156.919 41.6647 156.919 41.1959V37.8042C156.919 37.3354 156.624 36.9563 156.26 36.9563ZM158.689 38.1665C158.325 38.1665 158.03 38.3982 158.03 38.6847V40.7574C158.03 41.0439 158.325 41.2756 158.689 41.2756C159.053 41.2756 159.347 41.0439 159.347 40.7574V38.6847C159.347 38.3982 159.053 38.1665 158.689 38.1665ZM161.322 36.0943C160.958 36.0943 160.664 36.3255 160.664 36.6125V42.8297C160.664 43.1166 160.958 43.3478 161.322 43.3478C161.687 43.3478 161.981 43.1166 161.981 42.8297V36.6125C161.981 36.3255 161.687 36.0943 161.322 36.0943ZM163.956 37.1306C163.592 37.1306 163.297 37.3619 163.297 37.6484V41.7938C163.297 42.0803 163.592 42.3115 163.956 42.3115C164.32 42.3115 164.614 42.0803 164.614 41.7938V37.6484C164.614 37.3619 164.32 37.1306 163.956 37.1306ZM166.59 32.9857C166.225 32.9857 165.931 33.2169 165.931 33.5038V45.9382C165.931 46.2252 166.225 46.4564 166.59 46.4564C166.954 46.4564 167.248 46.2252 167.248 45.9382V33.5038C167.248 33.2169 166.954 32.9857 166.59 32.9857ZM169.223 37.1306C168.859 37.1306 168.564 37.3619 168.564 37.6484V41.7938C168.564 42.0803 168.859 42.3115 169.223 42.3115C169.587 42.3115 169.881 42.0803 169.881 41.7938V37.6484C169.881 37.3619 169.587 37.1306 169.223 37.1306ZM171.856 27.8044C171.492 27.8044 171.198 28.0356 171.198 28.3226V51.1195C171.198 51.4065 171.492 51.6377 171.856 51.6377C172.221 51.6377 172.514 51.4065 172.514 51.1195V28.3226C172.514 28.0356 172.221 27.8044 171.856 27.8044ZM174.49 31.9494C174.126 31.9494 173.831 32.1806 173.831 32.4675V46.9746C173.831 47.2616 174.126 47.4928 174.49 47.4928C174.854 47.4928 175.148 47.2616 175.148 46.9746V32.4675C175.148 32.1806 174.854 31.9494 174.49 31.9494ZM177.124 34.0216C176.759 34.0216 176.465 34.2533 176.465 34.5398V44.9024C176.465 45.1889 176.759 45.4205 177.124 45.4205C177.488 45.4205 177.781 45.1889 177.781 44.9024V34.5398C177.781 34.2533 177.488 34.0216 177.124 34.0216ZM179.757 37.1306C179.393 37.1306 179.098 37.3619 179.098 37.6484V41.7938C179.098 42.0803 179.393 42.3115 179.757 42.3115C180.121 42.3115 180.415 42.0803 180.415 41.7938V37.6484C180.415 37.3619 180.121 37.1306 179.757 37.1306ZM182.39 38.1665C182.026 38.1665 181.732 38.3982 181.732 38.6847V40.7574C181.732 41.0439 182.026 41.2756 182.39 41.2756C182.755 41.2756 183.048 41.0439 183.048 40.7574V38.6847C183.048 38.3982 182.755 38.1665 182.39 38.1665ZM185.024 34.0216C184.66 34.0216 184.365 34.2533 184.365 34.5398V43.866C184.365 44.1525 184.66 44.3842 185.024 44.3842C185.388 44.3842 185.682 44.1525 185.682 43.866V34.5398C185.682 34.2533 185.388 34.0216 185.024 34.0216ZM187.657 37.1306C187.293 37.1306 186.999 37.3619 186.999 37.6484V41.7938C186.999 42.0803 187.293 42.3115 187.657 42.3115C188.021 42.3115 188.315 42.0803 188.315 41.7938V37.6484C188.315 37.3619 188.021 37.1306 187.657 37.1306ZM190.291 38.1665C189.927 38.1665 189.632 38.3982 189.632 38.6847V40.7574C189.632 41.0439 189.927 41.2756 190.291 41.2756C190.655 41.2756 190.949 41.0439 190.949 40.7574V38.6847C190.949 38.3982 190.655 38.1665 190.291 38.1665ZM192.719 37.6013C192.355 37.6013 192.061 37.9172 192.061 38.3079V41.1343C192.061 41.525 192.355 41.8409 192.719 41.8409C193.083 41.8409 193.378 41.525 193.378 41.1343V38.3079C193.378 37.9172 193.083 37.6013 192.719 37.6013ZM195.353 34.7754C194.989 34.7754 194.695 35.0908 194.695 35.482V43.96C194.695 44.3513 194.989 44.6666 195.353 44.6666C195.717 44.6666 196.011 44.3513 196.011 43.96V35.482C196.011 35.0908 195.717 34.7754 195.353 34.7754ZM197.986 36.1887C197.622 36.1887 197.328 36.504 197.328 36.8947V42.5475C197.328 42.9382 197.622 43.2535 197.986 43.2535C198.35 43.2535 198.645 42.9382 198.645 42.5475V36.8947C198.645 36.504 198.35 36.1887 197.986 36.1887ZM200.62 30.5365C200.256 30.5365 199.962 30.8518 199.962 31.2431V48.1991C199.962 48.5904 200.256 48.9057 200.62 48.9057C200.984 48.9057 201.278 48.5904 201.278 48.1991V31.2431C201.278 30.8518 200.984 30.5365 200.62 30.5365ZM203.253 36.1887C202.889 36.1887 202.595 36.504 202.595 36.8947V42.5475C202.595 42.9382 202.889 43.2535 203.253 43.2535C203.617 43.2535 203.912 42.9382 203.912 42.5475V36.8947C203.912 36.504 203.617 36.1887 203.253 36.1887ZM205.886 23.4711C205.522 23.4711 205.229 23.7864 205.229 24.1777V55.2645C205.229 55.6557 205.522 55.9711 205.886 55.9711C206.251 55.9711 206.545 55.6557 206.545 55.2645V24.1777C206.545 23.7864 206.251 23.4711 205.886 23.4711ZM208.52 29.1233C208.156 29.1233 207.862 29.4386 207.862 29.8299V49.6123C207.862 50.0036 208.156 50.3189 208.52 50.3189C208.884 50.3189 209.179 50.0036 209.179 49.6123V29.8299C209.179 29.4386 208.884 29.1233 208.52 29.1233ZM211.154 31.9491C210.789 31.9491 210.496 32.265 210.496 32.6557V46.7865C210.496 47.1772 210.789 47.4931 211.154 47.4931C211.518 47.4931 211.812 47.1772 211.812 46.7865V32.6557C211.812 32.265 211.518 31.9491 211.154 31.9491ZM213.787 36.1887C213.423 36.1887 213.129 36.504 213.129 36.8947V42.5475C213.129 42.9382 213.423 43.2535 213.787 43.2535C214.151 43.2535 214.446 42.9382 214.446 42.5475V36.8947C214.446 36.504 214.151 36.1887 213.787 36.1887ZM216.42 37.6013C216.056 37.6013 215.762 37.9172 215.762 38.3079V41.1343C215.762 41.525 216.056 41.8409 216.42 41.8409C216.785 41.8409 217.079 41.525 217.079 41.1343V38.3079C217.079 37.9172 216.785 37.6013 216.42 37.6013ZM219.054 31.9491C218.69 31.9491 218.396 32.265 218.396 32.6557V45.3733C218.396 45.764 218.69 46.0799 219.054 46.0799C219.418 46.0799 219.713 45.764 219.713 45.3733V32.6557C219.713 32.265 219.418 31.9491 219.054 31.9491ZM221.688 36.1887C221.323 36.1887 221.029 36.504 221.029 36.8947V42.5475C221.029 42.9382 221.323 43.2535 221.688 43.2535C222.052 43.2535 222.346 42.9382 222.346 42.5475V36.8947C222.346 36.504 222.052 36.1887 221.688 36.1887ZM224.321 37.6013C223.957 37.6013 223.663 37.9172 223.663 38.3079V41.1343C223.663 41.525 223.957 41.8409 224.321 41.8409C224.685 41.8409 224.979 41.525 224.979 41.1343V38.3079C224.979 37.9172 224.685 37.6013 224.321 37.6013Z" fill="white"/>
<path fill-rule="evenodd" clip-rule="evenodd" d="M94.9922 59C106.034 59 114.984 50.0457 114.984 39C114.984 27.9543 106.034 19 94.9922 19C83.9508 19 75 27.9543 75 39C75 50.0457 83.9508 59 94.9922 59Z" fill="black"/>
<path fill-rule="evenodd" clip-rule="evenodd" d="M102.164 39.7167L91.6513 45.7765C91.1987 46.0257 90.6441 45.6953 90.6465 45.1788V33.0321C90.6331 32.493 91.219 32.1533 91.6785 32.4344L102.191 38.5214C102.661 38.7886 102.646 39.4698 102.164 39.7167Z" fill="white"/>
<rect x="43" y="88" width="215" height="12" fill="black"/>
<rect x="43" y="108" width="215" height="12" fill="black"/>
<rect x="43" y="128" width="215" height="12" fill="black"/>
<rect x="43" y="148" width="215" height="12" fill="black"/>
<rect x="43" y="168" width="215" height="12" fill="black"/>
</g>
<defs>
<clipPath id="clip0">
<rect width="300" height="220" fill="white"/>
</clipPath>
</defs>
</svg>
