<svg width="300" height="220" viewBox="0 0 300 220" fill="none" xmlns="http://www.w3.org/2000/svg">
<rect width="300" height="220" fill="#6A11EA"/>
<circle cx="64" cy="110" r="34" fill="white"/>
<path d="M64 135C77.8071 135 89 123.807 89 110C89 96.1929 77.8071 85 64 85C50.1929 85 39 96.1929 39 110C39 123.807 50.1929 135 64 135Z" fill="#F0F0F0"/>
<path d="M62.9128 110H88.9998C88.9998 107.744 88.699 105.558 88.1385 103.478H62.9128V110Z" fill="#D80027"/>
<path d="M62.9128 96.9566H85.3304C83.8 94.4593 81.8433 92.252 79.5619 90.4348H62.9128V96.9566Z" fill="#D80027"/>
<path d="M63.9999 135C69.8835 135 75.2915 132.966 79.562 129.565H48.4377C52.7083 132.966 58.1162 135 63.9999 135Z" fill="#D80027"/>
<path d="M42.6692 123.044H85.3305C86.5591 121.039 87.512 118.847 88.1386 116.522H39.8611C40.4877 118.847 41.4406 121.039 42.6692 123.044Z" fill="#D80027"/>
<path d="M50.5805 88.9041H52.8587L50.7396 90.4437L51.549 92.9348L49.43 91.3952L47.3109 92.9348L48.0102 90.7827C46.1443 92.3369 44.509 94.1578 43.1613 96.1867H43.8913L42.5424 97.1667C42.3322 97.5173 42.1307 97.8734 41.9375 98.2349L42.5816 100.217L41.3799 99.3442C41.0812 99.9771 40.8079 100.624 40.5623 101.285L41.272 103.469H43.8913L41.7722 105.009L42.5816 107.5L40.4626 105.96L39.1933 106.883C39.0662 107.904 39 108.944 39 110H64C64 96.193 64 94.5652 64 85C59.0613 85 54.4575 86.4326 50.5805 88.9041ZM51.549 107.5L49.43 105.96L47.3109 107.5L48.1204 105.009L46.0013 103.469H48.6206L49.43 100.978L50.2394 103.469H52.8587L50.7396 105.009L51.549 107.5ZM50.7396 97.7263L51.549 100.217L49.43 98.6778L47.3109 100.217L48.1204 97.7263L46.0013 96.1867H48.6206L49.43 93.6956L50.2394 96.1867H52.8587L50.7396 97.7263ZM60.5164 107.5L58.3974 105.96L56.2783 107.5L57.0878 105.009L54.9687 103.469H57.588L58.3974 100.978L59.2067 103.469H61.8261L59.7069 105.009L60.5164 107.5ZM59.7069 97.7263L60.5164 100.217L58.3974 98.6778L56.2783 100.217L57.0878 97.7263L54.9687 96.1867H57.588L58.3974 93.6956L59.2067 96.1867H61.8261L59.7069 97.7263ZM59.7069 90.4437L60.5164 92.9348L58.3974 91.3952L56.2783 92.9348L57.0878 90.4437L54.9687 88.9041H57.588L58.3974 86.413L59.2067 88.9041H61.8261L59.7069 90.4437Z" fill="#0052B4"/>
<g clip-path="url(#clip0)">
<rect width="0.0976562" height="0.0976562" transform="translate(44.8594 87.6367)" fill="white"/>
<path d="M44.8594 87.6855C44.8594 87.6915 44.8604 87.6972 44.8624 87.7025L44.9082 87.7068L44.954 87.7025C44.956 87.6972 44.957 87.6915 44.957 87.6855C44.957 87.6796 44.956 87.6738 44.954 87.6686L44.9082 87.6643L44.8624 87.6686C44.8604 87.6738 44.8594 87.6796 44.8594 87.6855Z" fill="#FFDA44"/>
<path d="M44.9539 87.6686C44.947 87.65 44.9291 87.6367 44.9081 87.6367C44.8871 87.6367 44.8692 87.65 44.8623 87.6686H44.9539Z" fill="#D80027"/>
<path d="M44.8623 87.7025C44.8692 87.7211 44.8871 87.7344 44.9081 87.7344C44.9291 87.7344 44.947 87.7211 44.9539 87.7025H44.8623Z" fill="#D80027"/>
</g>
<circle cx="150" cy="110" r="34" fill="white"/>
<path d="M125 110C125 113.058 125.55 115.987 126.555 118.696L150 120.87L173.445 118.696C174.45 115.987 175 113.058 175 110C175 106.942 174.45 104.013 173.445 101.304L150 99.1305L126.555 101.304C125.55 104.013 125 106.942 125 110Z" fill="#FFDA44"/>
<path d="M173.445 101.304C169.913 91.7845 160.749 85 150 85C139.251 85 130.087 91.7845 126.555 101.304H173.445Z" fill="#D80027"/>
<path d="M126.555 118.696C130.087 128.216 139.251 135 150 135C160.749 135 169.913 128.216 173.445 118.696H126.555Z" fill="#D80027"/>
<circle cx="236" cy="110" r="34" fill="white"/>
<path d="M212.555 118.696C216.087 128.215 225.251 135 236 135C246.749 135 255.913 128.215 259.445 118.696L236 116.522L212.555 118.696Z" fill="#FFDA44"/>
<path d="M236 85C225.251 85 216.087 91.7844 212.555 101.304L236 103.478L259.445 101.304C255.913 91.7844 246.749 85 236 85Z" fill="black"/>
<path d="M212.555 101.304C211.55 104.013 211 106.942 211 110C211 113.058 211.55 115.987 212.555 118.696H259.445C260.45 115.987 261 113.058 261 110C261 106.942 260.45 104.013 259.445 101.304H212.555Z" fill="#D80027"/>
<defs>
<clipPath id="clip0">
<rect width="0.0976562" height="0.0976562" fill="white" transform="translate(44.8594 87.6367)"/>
</clipPath>
</defs>
</svg>
