<svg width="50" height="50" viewBox="0 0 50 50" fill="none" xmlns="http://www.w3.org/2000/svg">
<path d="M18.6252 15.975C18.8752 16.225 18.8752 16.6125 18.6252 16.8625L16.8627 18.625C16.6127 18.8625 16.2252 18.8625 15.9752 18.625L11.1127 13.7625L8.2002 16.675C7.8127 17.0625 7.1377 16.7875 7.1377 16.2375V7.76245C7.1377 7.41245 7.4127 7.13745 7.7627 7.13745H16.2377C16.8002 7.13745 17.0752 7.81245 16.6752 8.19995L13.7627 11.1125L18.6252 15.975Z" fill="#C88BC4"/>
<path d="M41.8 33.325L38.8875 36.2375L34.025 31.375C33.775 31.125 33.3875 31.125 33.1375 31.375L31.375 33.1375C31.125 33.3875 31.125 33.775 31.375 34.025L36.2375 38.8875L33.325 41.8C32.9375 42.1875 33.2125 42.8625 33.7625 42.8625H42.2375C42.5875 42.8625 42.8625 42.5875 42.8625 42.2375V33.7625C42.8625 33.2125 42.1875 32.925 41.8 33.325Z" fill="#C88BC4"/>
<path d="M16.8627 31.375C16.6127 31.125 16.2252 31.125 15.9752 31.375L11.1127 36.2375L8.2002 33.325C7.8127 32.9375 7.1377 33.2125 7.1377 33.7625V42.2375C7.1377 42.5875 7.4127 42.8625 7.7627 42.8625H16.2377C16.8002 42.8625 17.0752 42.1875 16.6752 41.8L13.7627 38.8875L18.6252 34.025C18.8752 33.775 18.8752 33.3875 18.6252 33.1375L16.8627 31.375Z" fill="#86BFF2"/>
<path d="M42.2375 7.13745H33.7625C33.2 7.13745 32.925 7.81245 33.325 8.19995L36.2375 11.1125L31.375 15.975C31.125 16.225 31.125 16.6125 31.375 16.8625L33.1375 18.625C33.375 18.8625 33.775 18.8625 34.025 18.625L38.8875 13.7625L41.8 16.675C42.1875 17.0625 42.8625 16.7875 42.8625 16.2375V7.76245C42.8625 7.42495 42.575 7.13745 42.2375 7.13745Z" fill="#86BFF2"/>
<path d="M14.7375 23.75V26.25C14.7375 26.6 14.4625 26.875 14.1125 26.875H7.2375V30.9875C7.2375 31.55 6.5625 31.825 6.175 31.425L0.1875 25.4375C-0.0625 25.2 -0.0625 24.8 0.1875 24.55L6.175 18.5625C6.5625 18.175 7.2375 18.45 7.2375 19V23.1125H14.1125C14.4625 23.125 14.7375 23.4 14.7375 23.75ZM49.8125 24.5625L43.825 18.575C43.4375 18.1875 42.7625 18.4625 42.7625 19.0125V23.125H35.8875C35.5375 23.125 35.2625 23.4 35.2625 23.75V26.25C35.2625 26.6 35.5375 26.875 35.8875 26.875H42.7625V30.9875C42.7625 31.55 43.4375 31.825 43.825 31.425L49.8125 25.4375C50.0625 25.2 50.0625 24.8 49.8125 24.5625ZM30.9875 42.7625H26.875V35.8875C26.875 35.5375 26.6 35.2625 26.25 35.2625H23.75C23.4 35.2625 23.125 35.5375 23.125 35.8875V42.7625H19.0125C18.45 42.7625 18.175 43.4375 18.575 43.825L24.5625 49.8125C24.8125 50.0625 25.2 50.0625 25.45 49.8125L31.4375 43.825C31.825 43.4375 31.55 42.7625 30.9875 42.7625ZM25.4375 0.1875C25.1875 -0.0625 24.8 -0.0625 24.55 0.1875L18.5625 6.175C18.175 6.5625 18.45 7.2375 19 7.2375H23.1125V14.1125C23.1125 14.4625 23.3875 14.7375 23.7375 14.7375H26.2375C26.5875 14.7375 26.8625 14.4625 26.8625 14.1125V7.2375H30.975C31.5375 7.2375 31.8125 6.5625 31.4125 6.175L25.4375 0.1875Z" fill="#6B80D2"/>
</svg>
