<svg width="54" height="50" viewBox="0 0 54 50" fill="none" xmlns="http://www.w3.org/2000/svg">
<g clip-path="url(#clip0_931:889)">
<path d="M27 3.55015L26.6625 3.33765L26.325 3.55015C19.6625 7.85015 15.5125 15.4376 15.5125 23.3501C15.5125 29.4751 17.85 35.2751 22.1 39.6751L22.425 40.0126L26.0625 38.1001L25.4375 37.5001C21.575 33.7501 19.3625 28.5626 19.3625 23.2626C19.3625 17.3876 22.075 11.6876 26.65 7.92515C30.7875 11.2751 33.4375 16.2001 33.9375 21.5126L33.9625 21.7876L37.7875 24.5626V23.3376C37.8 15.4251 33.6625 7.83765 27 3.55015Z" fill="black"/>
<path d="M3.15 43.6877L3.125 44.0877L3.4875 44.2752C10.5375 47.9002 19.1875 47.7002 26.0375 43.7377C31.3375 40.6752 35.1875 35.7502 36.8875 29.8752L37.0125 29.4252L33.5375 27.2377L33.325 28.0752C32 33.2877 28.625 37.8002 24.025 40.4502C18.9375 43.3877 12.6375 43.8877 7.1 41.8002C7.9375 36.5502 10.875 31.7877 15.2125 28.6877L15.4375 28.5252L15.925 23.8252L14.8625 24.4377C8.0375 28.3877 3.5375 35.7752 3.15 43.6877Z" fill="black"/>
<path d="M49.825 44.2751L50.1875 44.0876L50.1625 43.6876C49.775 35.7626 45.275 28.3876 38.425 24.4251C33.125 21.3626 26.9375 20.4876 20.9875 21.9626L20.5375 22.0751L20.375 26.1751L21.2 25.9376C26.375 24.4751 31.975 25.1501 36.5625 27.8001C41.65 30.7376 45.225 35.9376 46.2 41.7751C41.2375 43.6751 35.65 43.5126 30.7875 41.3001L30.5375 41.1876L26.2125 43.1126L27.275 43.7251C34.125 47.6876 42.775 47.9001 49.825 44.2751Z" fill="black"/>
<path d="M6.42505 42.2L9.53755 41.85L10.85 39.65C11.8375 36.65 13.675 33.975 16.1 31.9625L14.875 28.175C10.275 31.45 7.17505 36.5875 6.42505 42.2Z" fill="#6B80D2"/>
<path d="M3.775 43.7252C4.15 35.9877 8.4625 28.8752 15.2 24.9752C16.1 24.4627 16.4 23.3127 15.8875 22.4127C15.375 21.5127 14.225 21.2127 13.325 21.7252C5.1125 26.4752 0 35.3252 0 44.8252L2.35 45.0002L3.775 43.7252Z" fill="#6B80D2"/>
<path d="M46.8874 42.1875L45.0249 39.675L42.4624 39.6375C39.3624 40.275 36.1374 40.025 33.1874 38.925L30.5249 41.875C35.6624 44.225 41.6624 44.35 46.8874 42.1875Z" fill="#C88BC4"/>
<path d="M49.5374 43.725C42.6374 47.2625 34.3249 47.0875 27.5874 43.2C26.6874 42.6875 25.5499 42.9875 25.0249 43.8875C24.4999 44.7875 24.8124 45.925 25.7124 46.45C33.9374 51.2 44.1499 51.2 52.3874 46.45L51.3624 44.3375L49.5374 43.725Z" fill="#C88BC4"/>
<path d="M26.6626 7.125L25.4126 9.9875L26.6626 12.225C28.7626 14.5875 30.1626 17.5125 30.6876 20.6125L34.5751 21.4375C34.0376 15.8375 31.1376 10.575 26.6626 7.125Z" fill="#86BFF2"/>
<path d="M26.6624 4.075C33.1749 8.275 37.1874 15.5625 37.1874 23.35C37.1874 24.3875 38.0249 25.225 39.0624 25.225C40.0999 25.225 40.9374 24.3875 40.9374 23.35C40.9374 13.8625 35.8249 5.0125 27.5999 0.25L26.2749 2.2L26.6624 4.075Z" fill="#86BFF2"/>
<path d="M26.6625 34.25C24.025 31.225 22.5 27.3 22.5 23.2625C22.5 19.225 24.025 15.3 26.6625 12.275V7.125C21.75 10.9625 18.75 16.9875 18.75 23.25C18.75 29.5125 21.75 35.5375 26.6625 39.375L28.2 36.925L26.6625 34.25Z" fill="#86BFF2"/>
<path d="M27.5875 0.250117C26.9625 -0.112383 26.2125 -0.0623828 25.6375 0.300117C17.4625 5.06262 12.3875 13.8876 12.3875 23.3501C12.3875 30.2876 15.0375 36.8501 19.85 41.8501C20.2125 42.2376 23.275 39.9876 22.55 39.2501C18.4125 34.9626 16.1375 29.3126 16.1375 23.3626C16.1375 15.5751 20.1375 8.28762 26.6625 4.08762L28.225 2.75012L27.5875 0.250117Z" fill="#86BFF2"/>
<path d="M29.9124 28.6376C28.6124 32.4376 25.9749 35.7126 22.4749 37.7376C18.9749 39.7501 14.8249 40.4001 10.8749 39.6251L6.41235 42.2001C12.1999 44.5376 18.9124 44.1251 24.3374 40.9876C29.7624 37.8501 33.4874 32.2501 34.3499 26.0751L31.4499 25.9626L29.9124 28.6376Z" fill="#6B80D2"/>
<path d="M0 44.8251C0 45.5501 0.4125 46.1751 1.0125 46.4876C9.225 51.1876 19.4125 51.1751 27.6 46.4376C33.6 42.9751 37.975 37.3876 39.8875 30.7251C40.0375 30.2126 36.575 28.6876 36.2875 29.6876C34.6375 35.4126 30.8875 40.2001 25.725 43.1876C18.9875 47.0751 10.6625 47.2626 3.775 43.7126L1.825 43.0251L0 44.8251Z" fill="#6B80D2"/>
<path d="M23.4124 28.6376C27.3499 27.8626 31.5124 28.5001 35.0124 30.5251C38.5124 32.5376 41.1374 35.8251 42.4374 39.6251L46.8999 42.2001C46.0374 36.0251 42.3124 30.4126 36.8874 27.2876C31.4624 24.1626 24.7499 23.7376 18.9624 26.0751L20.3124 28.6376H23.4124Z" fill="#C88BC4"/>
<path d="M52.3873 46.4376C53.0123 46.0751 53.3498 45.4001 53.3248 44.7251C53.2873 35.2626 48.1873 26.4501 39.9873 21.7251C33.9873 18.2626 26.9623 17.2626 20.2373 18.9376C19.7248 19.0626 20.1373 22.8251 21.1373 22.5751C26.9248 21.1376 32.9498 21.9876 38.1123 24.9751C44.8498 28.8626 49.1623 35.9751 49.5373 43.7251L49.9123 45.7501L52.3873 46.4376Z" fill="#C88BC4"/>
<path d="M25.2 32.3C23.4625 29.625 22.4875 26.4875 22.4875 23.2625C22.4875 19.225 24.0125 15.3 26.65 12.275V7.125C21.7375 10.9625 18.7375 16.9875 18.7375 23.25C18.7375 26.4 19.5 29.5 20.8875 32.2875H25.2V32.3Z" fill="#86BFF2"/>
</g>
<defs>
<clipPath id="clip0_931:889">
<rect width="53.3125" height="50" fill="white"/>
</clipPath>
</defs>
</svg>
