<svg width="752" height="171" viewBox="0 0 752 171" fill="none" xmlns="http://www.w3.org/2000/svg">
<g clip-path="url(#clip0)">
<path d="M752 0H0V170.864H752V0Z" fill="white"/>
<path d="M34.7124 29.9486C34.3173 27.4764 32.3813 26.0314 29.9374 26.0314C26.9458 26.0314 24.7389 28.2722 24.7389 31.9692C24.7389 35.6663 26.9345 37.9071 29.9374 37.9071C32.4773 37.9071 34.3342 36.3153 34.7124 34.0294L32.9514 34.0238C32.6522 35.5026 31.4105 36.3153 29.9486 36.3153C27.9675 36.3153 26.4717 34.797 26.4717 31.9692C26.4717 29.1641 27.9618 27.6231 29.9542 27.6231C31.4275 27.6231 32.6635 28.4528 32.9514 29.9486H34.7124ZM38.3515 32.6014C38.3515 31.2185 39.2264 30.4284 40.4286 30.4284C41.5914 30.4284 42.2857 31.1678 42.2857 32.4377V37.749H43.9732V32.2346C43.9732 30.0728 42.7879 28.9665 41.0044 28.9665C39.6553 28.9665 38.8426 29.5535 38.4362 30.4905H38.329V26.1895H36.6639V37.749H38.3515V32.6014ZM49.9618 37.924C51.8526 37.924 53.1904 36.9926 53.5742 35.5816L51.9768 35.2937C51.672 36.1122 50.9383 36.5298 49.9788 36.5298C48.5338 36.5298 47.5631 35.5929 47.5179 33.9222H53.6815V33.3239C53.6815 30.1913 51.8075 28.9665 49.8433 28.9665C47.4276 28.9665 45.8358 30.8066 45.8358 33.4707C45.8358 36.163 47.405 37.924 49.9618 37.924ZM47.5235 32.6579C47.5913 31.4274 48.483 30.3606 49.8546 30.3606C51.1641 30.3606 52.022 31.3315 52.0277 32.6579H47.5235ZM59.2058 37.924C61.2546 37.924 62.5811 36.6935 62.7674 35.0059H61.1248C60.9103 35.9428 60.1823 36.4959 59.2171 36.4959C57.7891 36.4959 56.8691 35.3051 56.8691 33.4142C56.8691 31.5572 57.806 30.3889 59.2171 30.3889C60.2894 30.3889 60.9442 31.0662 61.1248 31.8789H62.7674C62.5867 30.1292 61.1587 28.9665 59.1889 28.9665C56.7449 28.9665 55.1644 30.8066 55.1644 33.4537C55.1644 36.067 56.6884 37.924 59.2058 37.924ZM64.5721 37.749H66.2598V34.6729L67.1008 33.8319L70.0471 37.749H72.1185L68.3707 32.7989L71.8815 29.0794H69.8608L66.4065 32.7482H66.2598V26.1895H64.5721V37.749ZM77.1913 27.6909H80.7923V37.749H82.5308V27.6909H86.1375V26.1895H77.1913V27.6909ZM89.3223 37.9409C90.756 37.9409 91.5631 37.2128 91.8848 36.5637H91.9525V37.749H93.6007V31.9918C93.6007 29.4689 91.6139 28.9665 90.2366 28.9665C88.6676 28.9665 87.2227 29.5987 86.6582 31.1791L88.2443 31.5403C88.4926 30.9251 89.1247 30.3324 90.2593 30.3324C91.3486 30.3324 91.9074 30.9025 91.9074 31.8846V31.9241C91.9074 32.5394 91.2752 32.528 89.7174 32.7086C88.0749 32.9006 86.3929 33.3295 86.3929 35.2994C86.3929 37.004 87.6742 37.9409 89.3223 37.9409ZM89.6892 36.5862C88.7353 36.5862 88.0467 36.1573 88.0467 35.322C88.0467 34.4189 88.8482 34.0972 89.8247 33.9674C90.3721 33.8939 91.6703 33.7472 91.913 33.5045V34.6221C91.913 35.6494 91.0946 36.5862 89.6892 36.5862ZM102.346 31.196C101.995 29.8471 100.94 28.9665 99.0657 28.9665C97.1071 28.9665 95.7187 29.9994 95.7187 31.5346C95.7187 32.7652 96.4637 33.5835 98.0893 33.9448L99.5571 34.2665C100.393 34.4527 100.782 34.8253 100.782 35.3672C100.782 36.0388 100.065 36.5637 98.9585 36.5637C97.9482 36.5637 97.2991 36.1291 97.0959 35.2769L95.4647 35.5252C95.7469 37.0604 97.0225 37.924 98.9698 37.924C101.064 37.924 102.514 36.812 102.514 35.243C102.514 34.0181 101.736 33.2619 100.144 32.8949L98.7666 32.5789C97.8128 32.3531 97.4007 32.0313 97.4064 31.4443C97.4007 30.7784 98.1232 30.3042 99.0827 30.3042C100.132 30.3042 100.618 30.8856 100.816 31.4669L102.346 31.196ZM104.37 37.749H106.058V34.6729L106.898 33.8319L109.845 37.749H111.917L108.169 32.7989L111.679 29.0794H109.659L106.205 32.7482H106.058V26.1895H104.37V37.749ZM127.601 31.9692C127.601 28.2722 125.388 26.0314 122.396 26.0314C119.394 26.0314 117.187 28.2722 117.187 31.9692C117.187 35.6606 119.394 37.9071 122.396 37.9071C123.141 37.9071 123.836 37.7716 124.457 37.5063L125.444 38.7876H127.228L125.67 36.7556C126.866 35.7453 127.601 34.0972 127.601 31.9692ZM121.809 34.0012L123.452 36.1573C123.124 36.2646 122.769 36.3153 122.396 36.3153C120.404 36.3153 118.919 34.7857 118.919 31.9692C118.919 29.1528 120.404 27.6231 122.396 27.6231C124.383 27.6231 125.873 29.1528 125.873 31.9692C125.873 33.5496 125.405 34.7293 124.637 35.4518L123.526 34.0012H121.809ZM135.132 34.1536C135.137 35.6267 134.042 36.3267 133.094 36.3267C132.05 36.3267 131.327 35.5703 131.327 34.3906V29.0794H129.639V34.5939C129.639 36.7443 130.819 37.8619 132.484 37.8619C133.788 37.8619 134.675 37.1733 135.075 36.2476H135.165V37.749H136.824V29.0794H135.132V34.1536ZM141.615 37.9409C143.049 37.9409 143.856 37.2128 144.177 36.5637H144.246V37.749H145.894V31.9918C145.894 29.4689 143.907 28.9665 142.529 28.9665C140.961 28.9665 139.515 29.5987 138.951 31.1791L140.538 31.5403C140.786 30.9251 141.418 30.3324 142.552 30.3324C143.642 30.3324 144.2 30.9025 144.2 31.8846V31.9241C144.2 32.5394 143.568 32.528 142.011 32.7086C140.368 32.9006 138.686 33.3295 138.686 35.2994C138.686 37.004 139.967 37.9409 141.615 37.9409ZM141.982 36.5862C141.028 36.5862 140.34 36.1573 140.34 35.322C140.34 34.4189 141.142 34.0972 142.117 33.9674C142.665 33.8939 143.963 33.7472 144.206 33.5045V34.6221C144.206 35.6494 143.388 36.5862 141.982 36.5862ZM149.829 26.1895H148.141V37.749H149.829V26.1895ZM152.1 37.749H153.787V29.0794H152.1V37.749ZM152.952 27.7417C153.533 27.7417 154.019 27.2902 154.019 26.737C154.019 26.1839 153.533 25.7267 152.952 25.7267C152.365 25.7267 151.885 26.1839 151.885 26.737C151.885 27.2902 152.365 27.7417 152.952 27.7417ZM160.104 29.0794H158.326V27.0023H156.639V29.0794H155.369V30.4341H156.639V35.5534C156.634 37.1281 157.836 37.8901 159.168 37.8619C159.704 37.8563 160.065 37.7547 160.262 37.6813L159.957 36.2871C159.845 36.3097 159.636 36.3605 159.365 36.3605C158.818 36.3605 158.326 36.1799 158.326 35.2034V30.4341H160.104V29.0794ZM163.038 41.0001C164.433 41.0001 165.313 40.272 165.816 38.9061L169.4 29.0963L167.576 29.0794L165.38 35.8074H165.29L163.095 29.0794H161.289L164.461 37.8619L164.252 38.4376C163.823 39.5891 163.219 39.685 162.293 39.431L161.887 40.8138C162.09 40.9041 162.53 41.0001 163.038 41.0001Z" fill="black"/>
<path d="M25.4812 72.5178L26.4985 69.6534H30.5878L31.6052 72.5178H32.8893L29.1753 62.4033H27.911L24.1971 72.5178H25.4812ZM26.8837 68.5668L28.5037 64.0034H28.5827L30.2026 68.5668H26.8837ZM39.0874 69.4163C39.0874 70.8387 38.0009 71.4906 37.1317 71.4906C36.1636 71.4906 35.4722 70.7794 35.4722 69.6731V64.9319H34.3067V69.7521C34.3067 71.6882 35.334 72.6166 36.7563 72.6166C37.9021 72.6166 38.6528 72.0042 39.0084 71.2338H39.0874V72.5178H40.253V64.9319H39.0874V69.4163ZM45.2522 72.6759C46.7141 72.6759 47.2079 71.7671 47.4648 71.3523H47.6031V72.5178H48.7291V62.4033H47.5635V66.137H47.4648C47.2079 65.7419 46.7536 64.8331 45.272 64.8331C43.3557 64.8331 42.0321 66.3543 42.0321 68.7446C42.0321 71.1547 43.3557 72.6759 45.2522 72.6759ZM45.4103 71.6289C43.9484 71.6289 43.1977 70.3448 43.1977 68.7249C43.1977 67.1247 43.9286 65.8802 45.4103 65.8802C46.8326 65.8802 47.5833 67.026 47.5833 68.7249C47.5833 70.4435 46.8128 71.6289 45.4103 71.6289ZM51.0256 72.5178H52.1912V64.9319H51.0256V72.5178ZM51.6183 63.6676C52.0727 63.6676 52.448 63.312 52.448 62.8774C52.448 62.4428 52.0727 62.0872 51.6183 62.0872C51.1639 62.0872 50.7885 62.4428 50.7885 62.8774C50.7885 63.312 51.1639 63.6676 51.6183 63.6676ZM57.6251 64.9319H56.0051V63.1145H54.8396V64.9319H53.6938V65.9197H54.8396V70.6609C54.8396 71.9845 55.9064 72.6166 56.8941 72.6166C57.3287 72.6166 57.6053 72.5376 57.7633 72.4783L57.5262 71.4313C57.4275 71.451 57.2694 71.4906 57.0126 71.4906C56.4989 71.4906 56.0051 71.3325 56.0051 70.3448V65.9197H57.6251V64.9319ZM65.522 72.6957C66.8456 72.6957 67.5371 71.9845 67.7742 71.4906H67.8334V72.5178H68.9989V67.5199C68.9989 65.1097 67.1617 64.8331 66.1938 64.8331C65.048 64.8331 63.7442 65.2282 63.1515 66.6111L64.2577 67.0062C64.5145 66.4531 65.122 65.8604 66.2333 65.8604C67.305 65.8604 67.8334 66.4283 67.8334 67.4013V67.4408C67.8334 68.0038 67.2605 67.9544 65.8777 68.1322C64.4701 68.315 62.9342 68.6261 62.9342 70.3646C62.9342 71.8462 64.0799 72.6957 65.522 72.6957ZM65.6999 71.6486C64.7714 71.6486 64.0997 71.2338 64.0997 70.4238C64.0997 69.5349 64.9097 69.2583 65.8184 69.1397C66.3123 69.0805 67.6359 68.9422 67.8334 68.7051V69.7719C67.8334 70.7201 67.0828 71.6486 65.6999 71.6486ZM75.0379 72.5178H76.2033V67.7174C76.2033 66.6901 77.0133 65.9394 78.1196 65.9394C78.4307 65.9394 78.7518 65.9987 78.8308 66.0184V64.8331C78.6974 64.8233 78.3913 64.8134 78.2184 64.8134C77.3097 64.8134 76.5194 65.327 76.2429 66.0777H76.1639V64.9319H75.0379V72.5178ZM82.4447 72.6957C83.7683 72.6957 84.4597 71.9845 84.6968 71.4906H84.7561V72.5178H85.9216V67.5199C85.9216 65.1097 84.0844 64.8331 83.1164 64.8331C81.9706 64.8331 80.6667 65.2282 80.0741 66.6111L81.1804 67.0062C81.4372 66.4531 82.0447 65.8604 83.1559 65.8604C84.2276 65.8604 84.7561 66.4283 84.7561 67.4013V67.4408C84.7561 68.0038 84.1832 67.9544 82.8004 68.1322C81.3927 68.315 79.8568 68.6261 79.8568 70.3646C79.8568 71.8462 81.0026 72.6957 82.4447 72.6957ZM82.6225 71.6486C81.694 71.6486 81.0224 71.2338 81.0224 70.4238C81.0224 69.5349 81.8323 69.2583 82.7411 69.1397C83.235 69.0805 84.5585 68.9422 84.7561 68.7051V69.7719C84.7561 70.7201 84.0053 71.6486 82.6225 71.6486ZM89.2145 67.9544C89.2145 66.6309 90.0344 65.8802 91.1505 65.8802C92.2321 65.8802 92.889 66.5864 92.889 67.7767V72.5178H94.0545V67.6976C94.0545 65.7617 93.0223 64.8331 91.4863 64.8331C90.3405 64.8331 89.6294 65.3467 89.2738 66.1172H89.175V64.9319H88.049V72.5178H89.2145V67.9544ZM99.0488 72.6759C100.511 72.6759 101.004 71.7671 101.262 71.3523H101.4V72.5178H102.525V62.4033H101.36V66.137H101.262C101.004 65.7419 100.55 64.8331 99.0686 64.8331C97.1523 64.8331 95.8287 66.3543 95.8287 68.7446C95.8287 71.1547 97.1523 72.6759 99.0488 72.6759ZM99.2069 71.6289C97.745 71.6289 96.9943 70.3448 96.9943 68.7249C96.9943 67.1247 97.7252 65.8802 99.2069 65.8802C100.629 65.8802 101.38 67.026 101.38 68.7249C101.38 70.4435 100.609 71.6289 99.2069 71.6289ZM107.904 72.6759C109.959 72.6759 111.342 71.1153 111.342 68.7644C111.342 66.3938 109.959 64.8331 107.904 64.8331C105.849 64.8331 104.466 66.3938 104.466 68.7644C104.466 71.1153 105.849 72.6759 107.904 72.6759ZM107.904 71.6289C106.343 71.6289 105.633 70.2855 105.633 68.7644C105.633 67.2432 106.343 65.8802 107.904 65.8802C109.464 65.8802 110.175 67.2432 110.175 68.7644C110.175 70.2855 109.464 71.6289 107.904 71.6289ZM113.121 72.5178H114.286V67.7767C114.286 66.6655 115.096 65.8802 116.005 65.8802C116.889 65.8802 117.506 66.458 117.506 67.3223V72.5178H118.692V67.5791C118.692 66.6012 119.304 65.8802 120.371 65.8802C121.2 65.8802 121.911 66.3197 121.911 67.4408V72.5178H123.077V67.4408C123.077 65.6579 122.119 64.8331 120.766 64.8331C119.679 64.8331 118.885 65.3319 118.494 66.1172H118.415C118.039 65.3073 117.378 64.8331 116.38 64.8331C115.393 64.8331 114.662 65.3073 114.346 66.1172H114.246V64.9319H113.121V72.5178ZM134.493 66.6309C134.127 65.5542 133.308 64.8331 131.807 64.8331C130.206 64.8331 129.021 65.7419 129.021 67.026C129.021 68.073 129.643 68.7742 131.036 69.1003L132.3 69.3966C133.065 69.5743 133.426 69.9398 133.426 70.4633C133.426 71.1153 132.734 71.6486 131.649 71.6486C130.695 71.6486 130.098 71.2387 129.89 70.4238L128.784 70.7004C129.056 71.9894 130.117 72.6759 131.669 72.6759C133.431 72.6759 134.631 71.7128 134.631 70.4041C134.631 69.3471 133.969 68.6805 132.616 68.3496L131.491 68.073C130.592 67.8507 130.186 67.5495 130.186 66.9666C130.186 66.3148 130.878 65.8406 131.807 65.8406C132.824 65.8406 133.243 66.4037 133.446 66.9272L134.493 66.6309ZM138.618 72.6957C139.942 72.6957 140.633 71.9845 140.87 71.4906H140.929V72.5178H142.095V67.5199C142.095 65.1097 140.257 64.8331 139.29 64.8331C138.143 64.8331 136.84 65.2282 136.247 66.6111L137.354 67.0062C137.611 66.4531 138.218 65.8604 139.33 65.8604C140.401 65.8604 140.929 66.4283 140.929 67.4013V67.4408C140.929 68.0038 140.357 67.9544 138.974 68.1322C137.566 68.315 136.031 68.6261 136.031 70.3646C136.031 71.8462 137.176 72.6957 138.618 72.6957ZM138.796 71.6486C137.867 71.6486 137.196 71.2338 137.196 70.4238C137.196 69.5349 138.005 69.2583 138.914 69.1397C139.408 69.0805 140.732 68.9422 140.929 68.7051V69.7719C140.929 70.7201 140.179 71.6486 138.796 71.6486ZM144.222 72.5178H145.388V67.7767C145.388 66.6655 146.198 65.8802 147.107 65.8802C147.991 65.8802 148.608 66.458 148.608 67.3223V72.5178H149.793V67.5791C149.793 66.6012 150.406 65.8802 151.473 65.8802C152.302 65.8802 153.014 66.3197 153.014 67.4408V72.5178H154.179V67.4408C154.179 65.6579 153.221 64.8331 151.867 64.8331C150.781 64.8331 149.986 65.3319 149.595 66.1172H149.517C149.141 65.3073 148.48 64.8331 147.482 64.8331C146.494 64.8331 145.763 65.3073 145.447 66.1172H145.349V64.9319H144.222V72.5178ZM156.31 75.3625H157.476V71.3523H157.574C157.832 71.7671 158.325 72.6759 159.787 72.6759C161.683 72.6759 163.007 71.1547 163.007 68.7446C163.007 66.3543 161.683 64.8331 159.767 64.8331C158.286 64.8331 157.832 65.7419 157.574 66.137H157.436V64.9319H156.31V75.3625ZM157.456 68.7249C157.456 67.026 158.206 65.8802 159.629 65.8802C161.111 65.8802 161.841 67.1247 161.841 68.7249C161.841 70.3448 161.091 71.6289 159.629 71.6289C158.226 71.6289 157.456 70.4435 157.456 68.7249ZM165.951 62.4033H164.785V72.5178H165.951V62.4033ZM171.265 72.6759C172.807 72.6759 173.933 71.9054 174.288 70.7596L173.163 70.4435C172.866 71.2338 172.179 71.6289 171.265 71.6289C169.897 71.6289 168.955 70.7448 168.9 69.1199H174.406V68.6261C174.406 65.8011 172.728 64.8331 171.147 64.8331C169.093 64.8331 167.73 66.4531 167.73 68.7842C167.73 71.1153 169.073 72.6759 171.265 72.6759ZM168.9 68.1124C168.979 66.9321 169.814 65.8802 171.147 65.8802C172.412 65.8802 173.221 66.8284 173.221 68.1124H168.9ZM183.173 72.6759C185.227 72.6759 186.61 71.1153 186.61 68.7644C186.61 66.3938 185.227 64.8331 183.173 64.8331C181.119 64.8331 179.736 66.3938 179.736 68.7644C179.736 71.1153 181.119 72.6759 183.173 72.6759ZM183.173 71.6289C181.612 71.6289 180.901 70.2855 180.901 68.7644C180.901 67.2432 181.612 65.8802 183.173 65.8802C184.734 65.8802 185.445 67.2432 185.445 68.7644C185.445 70.2855 184.734 71.6289 183.173 71.6289ZM191.768 64.9319H190.069V64.1615C190.069 63.4108 190.385 63.0157 191.155 63.0157C191.491 63.0157 191.688 63.0947 191.808 63.1342L192.143 62.1267C191.966 62.0476 191.61 61.9291 191.037 61.9291C189.95 61.9291 188.903 62.5811 188.903 63.8849V64.9319H187.678V65.9197H188.903V72.5178H190.069V65.9197H191.768V64.9319ZM200.612 64.9319H198.992V63.1145H197.827V64.9319H196.68V65.9197H197.827V70.6609C197.827 71.9845 198.894 72.6166 199.881 72.6166C200.315 72.6166 200.592 72.5376 200.75 72.4783L200.513 71.4313C200.414 71.451 200.256 71.4906 199.999 71.4906C199.486 71.4906 198.992 71.3325 198.992 70.3448V65.9197H200.612V64.9319ZM204.598 72.6957C205.921 72.6957 206.612 71.9845 206.85 71.4906H206.908V72.5178H208.075V67.5199C208.075 65.1097 206.237 64.8331 205.269 64.8331C204.123 64.8331 202.819 65.2282 202.226 66.6111L203.333 67.0062C203.59 66.4531 204.197 65.8604 205.309 65.8604C206.38 65.8604 206.908 66.4283 206.908 67.4013V67.4408C206.908 68.0038 206.336 67.9544 204.953 68.1322C203.546 68.315 202.01 68.6261 202.01 70.3646C202.01 71.8462 203.155 72.6957 204.598 72.6957ZM204.775 71.6486C203.847 71.6486 203.175 71.2338 203.175 70.4238C203.175 69.5349 203.985 69.2583 204.894 69.1397C205.387 69.0805 206.712 68.9422 206.908 68.7051V69.7719C206.908 70.7201 206.158 71.6486 204.775 71.6486ZM215.575 66.6309C215.209 65.5542 214.39 64.8331 212.889 64.8331C211.288 64.8331 210.103 65.7419 210.103 67.026C210.103 68.073 210.725 68.7742 212.118 69.1003L213.382 69.3966C214.148 69.5743 214.508 69.9398 214.508 70.4633C214.508 71.1153 213.816 71.6486 212.731 71.6486C211.777 71.6486 211.18 71.2387 210.972 70.4238L209.866 70.7004C210.138 71.9894 211.2 72.6759 212.75 72.6759C214.513 72.6759 215.714 71.7128 215.714 70.4041C215.714 69.3471 215.051 68.6805 213.698 68.3496L212.573 68.073C211.674 67.8507 211.268 67.5495 211.268 66.9666C211.268 66.3148 211.96 65.8406 212.889 65.8406C213.906 65.8406 214.326 66.4037 214.528 66.9272L215.575 66.6309ZM217.468 72.5178H218.633V69.678L219.448 68.9224L222.288 72.5178H223.769L220.327 68.1717L223.533 64.9319H222.09L218.771 68.31H218.633V62.4033H217.468V72.5178ZM230.406 66.6309C230.04 65.5542 229.221 64.8331 227.719 64.8331C226.12 64.8331 224.934 65.7419 224.934 67.026C224.934 68.073 225.556 68.7742 226.949 69.1003L228.214 69.3966C228.979 69.5743 229.339 69.9398 229.339 70.4633C229.339 71.1153 228.648 71.6486 227.561 71.6486C226.608 71.6486 226.01 71.2387 225.804 70.4238L224.697 70.7004C224.968 71.9894 226.03 72.6759 227.581 72.6759C229.344 72.6759 230.544 71.7128 230.544 70.4041C230.544 69.3471 229.883 68.6805 228.53 68.3496L227.403 68.073C226.504 67.8507 226.1 67.5495 226.1 66.9666C226.1 66.3148 226.791 65.8406 227.719 65.8406C228.737 65.8406 229.156 66.4037 229.359 66.9272L230.406 66.6309ZM239.588 64.9319H237.889V64.1615C237.889 63.4108 238.205 63.0157 238.976 63.0157C239.312 63.0157 239.51 63.0947 239.628 63.1342L239.963 62.1267C239.786 62.0476 239.43 61.9291 238.858 61.9291C237.771 61.9291 236.724 62.5811 236.724 63.8849V64.9319H235.499V65.9197H236.724V72.5178H237.889V65.9197H239.588V64.9319ZM243.992 72.6759C246.046 72.6759 247.429 71.1153 247.429 68.7644C247.429 66.3938 246.046 64.8331 243.992 64.8331C241.936 64.8331 240.554 66.3938 240.554 68.7644C240.554 71.1153 241.936 72.6759 243.992 72.6759ZM243.992 71.6289C242.431 71.6289 241.72 70.2855 241.72 68.7644C241.72 67.2432 242.431 65.8802 243.992 65.8802C245.552 65.8802 246.264 67.2432 246.264 68.7644C246.264 70.2855 245.552 71.6289 243.992 71.6289ZM249.208 72.5178H250.373V67.7174C250.373 66.6901 251.184 65.9394 252.29 65.9394C252.6 65.9394 252.922 65.9987 253.001 66.0184V64.8331C252.868 64.8233 252.562 64.8134 252.389 64.8134C251.48 64.8134 250.689 65.327 250.413 66.0777H250.334V64.9319H249.208V72.5178ZM264.635 75.3625V64.9319H263.509V66.137H263.371C263.115 65.7419 262.66 64.8331 261.178 64.8331C259.262 64.8331 257.938 66.3543 257.938 68.7446C257.938 71.1547 259.262 72.6759 261.159 72.6759C262.62 72.6759 263.115 71.7671 263.371 71.3523H263.47V75.3625H264.635ZM263.489 68.7249C263.489 70.4435 262.719 71.6289 261.317 71.6289C259.854 71.6289 259.104 70.3448 259.104 68.7249C259.104 67.1247 259.834 65.8802 261.317 65.8802C262.739 65.8802 263.489 67.026 263.489 68.7249ZM271.549 69.4163C271.549 70.8387 270.463 71.4906 269.593 71.4906C268.626 71.4906 267.935 70.7794 267.935 69.6731V64.9319H266.769V69.7521C266.769 71.6882 267.796 72.6166 269.219 72.6166C270.364 72.6166 271.115 72.0042 271.471 71.2338H271.549V72.5178H272.715V64.9319H271.549V69.4163ZM277.083 72.6957C278.406 72.6957 279.097 71.9845 279.335 71.4906H279.393V72.5178H280.56V67.5199C280.56 65.1097 278.722 64.8331 277.754 64.8331C276.608 64.8331 275.305 65.2282 274.711 66.6111L275.818 67.0062C276.074 66.4531 276.682 65.8604 277.793 65.8604C278.865 65.8604 279.393 66.4283 279.393 67.4013V67.4408C279.393 68.0038 278.821 67.9544 277.437 68.1322C276.031 68.315 274.494 68.6261 274.494 70.3646C274.494 71.8462 275.64 72.6957 277.083 72.6957ZM277.261 71.6486C276.332 71.6486 275.66 71.2338 275.66 70.4238C275.66 69.5349 276.47 69.2583 277.379 69.1397C277.872 69.0805 279.196 68.9422 279.393 68.7051V69.7719C279.393 70.7201 278.643 71.6486 277.261 71.6486ZM283.852 62.4033H282.686V72.5178H283.852V62.4033ZM285.986 72.5178H287.153V64.9319H285.986V72.5178ZM286.58 63.6676C287.034 63.6676 287.409 63.312 287.409 62.8774C287.409 62.4428 287.034 62.0872 286.58 62.0872C286.126 62.0872 285.75 62.4428 285.75 62.8774C285.75 63.312 286.126 63.6676 286.58 63.6676ZM292.587 64.9319H290.966V63.1145H289.801V64.9319H288.655V65.9197H289.801V70.6609C289.801 71.9845 290.867 72.6166 291.855 72.6166C292.29 72.6166 292.567 72.5376 292.725 72.4783L292.487 71.4313C292.389 71.451 292.231 71.4906 291.974 71.4906C291.46 71.4906 290.966 71.3325 290.966 70.3448V65.9197H292.587V64.9319ZM295.09 75.3625C296.142 75.3625 296.883 74.8044 297.322 73.6241L300.553 64.9516L299.278 64.9319L297.184 70.977H297.106L295.011 64.9319H293.747L296.552 72.5574L296.335 73.15C295.91 74.3056 295.386 74.4143 294.537 74.197L294.241 75.2242C294.359 75.2836 294.695 75.3625 295.09 75.3625ZM308.239 72.6957C309.562 72.6957 310.253 71.9845 310.491 71.4906H310.55V72.5178H311.715V67.5199C311.715 65.1097 309.878 64.8331 308.91 64.8331C307.765 64.8331 306.46 65.2282 305.867 66.6111L306.974 67.0062C307.231 66.4531 307.838 65.8604 308.95 65.8604C310.022 65.8604 310.55 66.4283 310.55 67.4013V67.4408C310.55 68.0038 309.977 67.9544 308.594 68.1322C307.187 68.315 305.651 68.6261 305.651 70.3646C305.651 71.8462 306.796 72.6957 308.239 72.6957ZM308.416 71.6486C307.488 71.6486 306.816 71.2338 306.816 70.4238C306.816 69.5349 307.626 69.2583 308.535 69.1397C309.028 69.0805 310.352 68.9422 310.55 68.7051V69.7719C310.55 70.7201 309.799 71.6486 308.416 71.6486ZM319.216 66.6309C318.851 65.5542 318.03 64.8331 316.529 64.8331C314.929 64.8331 313.744 65.7419 313.744 67.026C313.744 68.073 314.366 68.7742 315.759 69.1003L317.023 69.3966C317.789 69.5743 318.15 69.9398 318.15 70.4633C318.15 71.1153 317.458 71.6486 316.371 71.6486C315.418 71.6486 314.821 71.2387 314.613 70.4238L313.507 70.7004C313.779 71.9894 314.841 72.6759 316.391 72.6759C318.155 72.6759 319.355 71.7128 319.355 70.4041C319.355 69.3471 318.692 68.6805 317.339 68.3496L316.214 68.073C315.314 67.8507 314.909 67.5495 314.909 66.9666C314.909 66.3148 315.601 65.8406 316.529 65.8406C317.547 65.8406 317.967 66.4037 318.169 66.9272L319.216 66.6309ZM326.482 66.6309C326.117 65.5542 325.297 64.8331 323.795 64.8331C322.196 64.8331 321.01 65.7419 321.01 67.026C321.01 68.073 321.632 68.7742 323.025 69.1003L324.289 69.3966C325.055 69.5743 325.415 69.9398 325.415 70.4633C325.415 71.1153 324.724 71.6486 323.637 71.6486C322.684 71.6486 322.086 71.2387 321.879 70.4238L320.773 70.7004C321.044 71.9894 322.106 72.6759 323.657 72.6759C325.42 72.6759 326.62 71.7128 326.62 70.4041C326.62 69.3471 325.959 68.6805 324.606 68.3496L323.479 68.073C322.58 67.8507 322.176 67.5495 322.176 66.9666C322.176 66.3148 322.867 65.8406 323.795 65.8406C324.812 65.8406 325.233 66.4037 325.435 66.9272L326.482 66.6309ZM333.156 69.4163C333.156 70.8387 332.069 71.4906 331.2 71.4906C330.232 71.4906 329.541 70.7794 329.541 69.6731V64.9319H328.375V69.7521C328.375 71.6882 329.402 72.6166 330.824 72.6166C331.971 72.6166 332.721 72.0042 333.076 71.2338H333.156V72.5178H334.321V64.9319H333.156V69.4163ZM336.456 72.5178H337.621V67.7174C337.621 66.6901 338.432 65.9394 339.537 65.9394C339.848 65.9394 340.17 65.9987 340.249 66.0184V64.8331C340.116 64.8233 339.81 64.8134 339.637 64.8134C338.728 64.8134 337.937 65.327 337.661 66.0777H337.582V64.9319H336.456V72.5178ZM343.863 72.6957C345.187 72.6957 345.878 71.9845 346.115 71.4906H346.174V72.5178H347.34V67.5199C347.34 65.1097 345.503 64.8331 344.534 64.8331C343.389 64.8331 342.084 65.2282 341.492 66.6111L342.598 67.0062C342.855 66.4531 343.462 65.8604 344.574 65.8604C345.646 65.8604 346.174 66.4283 346.174 67.4013V67.4408C346.174 68.0038 345.601 67.9544 344.218 68.1322C342.811 68.315 341.275 68.6261 341.275 70.3646C341.275 71.8462 342.42 72.6957 343.863 72.6957ZM344.04 71.6486C343.112 71.6486 342.44 71.2338 342.44 70.4238C342.44 69.5349 343.251 69.2583 344.159 69.1397C344.653 69.0805 345.977 68.9422 346.174 68.7051V69.7719C346.174 70.7201 345.423 71.6486 344.04 71.6486ZM350.633 67.9544C350.633 66.6309 351.452 65.8802 352.569 65.8802C353.651 65.8802 354.307 66.5864 354.307 67.7767V72.5178H355.472V67.6976C355.472 65.7617 354.44 64.8331 352.905 64.8331C351.758 64.8331 351.048 65.3467 350.692 66.1172H350.593V64.9319H349.467V72.5178H350.633V67.9544ZM360.684 72.6759C362.364 72.6759 363.469 71.6486 363.667 70.3052H362.502C362.284 71.135 361.593 71.6289 360.684 71.6289C359.301 71.6289 358.412 70.4831 358.412 68.7249C358.412 67.0062 359.321 65.8802 360.684 65.8802C361.711 65.8802 362.324 66.5123 362.502 67.2038H363.667C363.469 65.7814 362.264 64.8331 360.664 64.8331C358.61 64.8331 357.247 66.4531 357.247 68.7644C357.247 71.0362 358.551 72.6759 360.684 72.6759ZM368.552 72.6759C370.092 72.6759 371.219 71.9054 371.574 70.7596L370.448 70.4435C370.152 71.2338 369.465 71.6289 368.552 71.6289C367.184 71.6289 366.24 70.7448 366.186 69.1199H371.693V68.6261C371.693 65.8011 370.014 64.8331 368.433 64.8331C366.379 64.8331 365.015 66.4531 365.015 68.7842C365.015 71.1153 366.359 72.6759 368.552 72.6759ZM366.186 68.1124C366.265 66.9321 367.099 65.8802 368.433 65.8802C369.698 65.8802 370.508 66.8284 370.508 68.1124H366.186ZM374.315 72.5968C374.804 72.5968 375.204 72.1968 375.204 71.7079C375.204 71.219 374.804 70.8189 374.315 70.8189C373.826 70.8189 373.426 71.219 373.426 71.7079C373.426 72.1968 373.826 72.5968 374.315 72.5968Z" fill="#4A5568"/>
<path d="M0 102.816H752" stroke="#EDF2F7"/>
<path d="M152.453 143.049H153.58V141.884H153.718C153.975 142.298 154.469 143.207 155.93 143.207C157.827 143.207 159.151 141.686 159.151 139.276C159.151 136.885 157.827 135.364 155.91 135.364C154.429 135.364 153.975 136.273 153.718 136.668H153.62V132.934H152.453V143.049ZM153.6 139.256C153.6 137.557 154.35 136.411 155.772 136.411C157.254 136.411 157.986 137.656 157.986 139.256C157.986 140.875 157.235 142.16 155.772 142.16C154.37 142.16 153.6 140.975 153.6 139.256ZM164.114 143.207C165.655 143.207 166.781 142.437 167.137 141.291L166.01 140.975C165.714 141.764 165.028 142.16 164.114 142.16C162.746 142.16 161.803 141.276 161.749 139.651H167.255V139.157C167.255 136.333 165.576 135.364 163.996 135.364C161.941 135.364 160.578 136.984 160.578 139.315C160.578 141.646 161.921 143.207 164.114 143.207ZM161.749 138.643C161.827 137.463 162.662 136.411 163.996 136.411C165.26 136.411 166.07 137.36 166.07 138.643H161.749ZM172.327 135.463H170.707V133.645H169.542V135.463H168.396V136.451H169.542V141.192C169.542 142.515 170.609 143.147 171.596 143.147C172.031 143.147 172.307 143.069 172.465 143.009L172.229 141.962C172.13 141.982 171.972 142.022 171.715 142.022C171.201 142.022 170.707 141.864 170.707 140.875V136.451H172.327V135.463ZM175.799 143.049H176.945L178.604 137.222H178.723L180.383 143.049H181.528L183.84 135.463H182.615L180.975 141.251H180.896L179.296 135.463H178.051L176.431 141.271H176.352L174.712 135.463H173.487L175.799 143.049ZM188.303 143.207C189.844 143.207 190.97 142.437 191.325 141.291L190.199 140.975C189.903 141.764 189.217 142.16 188.303 142.16C186.935 142.16 185.991 141.276 185.937 139.651H191.444V139.157C191.444 136.333 189.764 135.364 188.185 135.364C186.129 135.364 184.766 136.984 184.766 139.315C184.766 141.646 186.11 143.207 188.303 143.207ZM185.937 138.643C186.016 137.463 186.851 136.411 188.185 136.411C189.448 136.411 190.259 137.36 190.259 138.643H185.937ZM196.397 143.207C197.938 143.207 199.064 142.437 199.42 141.291L198.294 140.975C197.998 141.764 197.311 142.16 196.397 142.16C195.029 142.16 194.087 141.276 194.032 139.651H199.538V139.157C199.538 136.333 197.859 135.364 196.279 135.364C194.225 135.364 192.862 136.984 192.862 139.315C192.862 141.646 194.205 143.207 196.397 143.207ZM194.032 138.643C194.11 137.463 194.946 136.411 196.279 136.411C197.544 136.411 198.353 137.36 198.353 138.643H194.032ZM202.477 138.485C202.477 137.162 203.297 136.411 204.413 136.411C205.495 136.411 206.151 137.117 206.151 138.307V143.049H207.317V138.229C207.317 136.293 206.284 135.364 204.749 135.364C203.603 135.364 202.892 135.878 202.536 136.648H202.438V135.463H201.311V143.049H202.477V138.485Z" fill="#4F4F4F"/>
<path fill-rule="evenodd" clip-rule="evenodd" d="M224.507 128.148C224.507 123.759 228.066 120.201 232.454 120.201H375.503C379.892 120.201 383.45 123.759 383.45 128.148V147.022C383.45 151.411 379.892 154.97 375.503 154.97H232.454C228.066 154.97 224.507 151.411 224.507 147.022V128.148Z" fill="#F7FAFC"/>
<path d="M331.102 132.663H329.964L327.616 134.223V135.378L329.908 133.856H329.964V142.055H331.102V132.663ZM337.14 132.223H336.15L333.123 143.468H334.115L337.14 132.223ZM341.707 132.663H340.57L338.222 134.223V135.378L340.515 133.856H340.57V142.055H341.707V132.663ZM347.71 132.663H346.573L344.225 134.223V135.378L346.518 133.856H346.573V142.055H347.71V132.663ZM353.75 132.223H352.76L349.733 143.468H350.723L353.75 132.223ZM358.317 132.663H357.179L354.832 134.223V135.378L357.124 133.856H357.179V142.055H358.317V132.663ZM361.312 142.055H362.504L366.686 133.727V132.663H360.669V133.672H365.512V133.746L361.312 142.055Z" fill="black"/>
<path d="M244.742 132.663H243.605L241.257 134.223V135.378L243.55 133.856H243.605V142.055H244.742V132.663ZM250.782 132.223H249.791L246.764 143.468H247.755L250.782 132.223ZM255.348 132.663H254.211L251.863 134.223V135.378L254.156 133.856H254.211V142.055H255.348V132.663ZM261.351 132.663H260.214L257.866 134.223V135.378L260.159 133.856H260.214V142.055H261.351V132.663ZM267.391 132.223H266.401L263.374 143.468H264.364L267.391 132.223ZM271.958 132.663H270.82L268.472 134.223V135.378L270.766 133.856H270.82V142.055H271.958V132.663ZM274.952 142.055H276.145L280.327 133.727V132.663H274.31V133.672H279.153V133.746L274.952 142.055Z" fill="black"/>
<path d="M297.639 134.614H299.911V141.062H300.785V134.614H303.057V133.837H297.639V134.614ZM310.203 137.45C310.203 135.163 308.862 133.739 307.014 133.739C305.165 133.739 303.825 135.163 303.825 137.45C303.825 139.736 305.165 141.16 307.014 141.16C308.862 141.16 310.203 139.736 310.203 137.45ZM309.356 137.45C309.356 139.327 308.326 140.343 307.014 140.343C305.701 140.343 304.671 139.327 304.671 137.45C304.671 135.573 305.701 134.557 307.014 134.557C308.326 134.557 309.356 135.573 309.356 137.45Z" fill="#718096"/>
<path d="M406.104 133.386V139.042C406.104 140.311 405.232 141.226 403.783 141.226C402.336 141.226 401.464 140.311 401.464 139.042V133.386H400.414V139.126C400.414 140.904 401.743 142.207 403.783 142.207C405.824 142.207 407.153 140.904 407.153 139.126V133.386H406.104ZM408.776 134.317H411.502V142.055H412.552V134.317H415.278V133.386H408.776V134.317ZM423.514 136.095C423.192 134.317 421.77 133.267 420.025 133.267C417.807 133.267 416.199 134.978 416.199 137.72C416.199 140.464 417.807 142.174 420.025 142.174C421.77 142.174 423.192 141.124 423.514 139.346H422.464C422.21 140.548 421.177 141.192 420.025 141.192C418.451 141.192 417.215 139.972 417.215 137.72C417.215 135.468 418.451 134.249 420.025 134.249C421.177 134.249 422.21 134.893 422.464 136.095H423.514Z" fill="#718096"/>
<path fill-rule="evenodd" clip-rule="evenodd" d="M27.3184 128.148C25.6724 128.148 24.3382 129.482 24.3382 131.128V144.042C24.3382 145.688 25.6724 147.022 27.3184 147.022H131.625C133.271 147.022 134.605 145.688 134.605 144.042V131.128C134.605 129.482 133.271 128.148 131.625 128.148H27.3184Z" fill="white"/>
<path d="M27.3184 127.651C25.3981 127.651 23.8415 129.208 23.8415 131.128V144.042C23.8415 145.962 25.3981 147.519 27.3184 147.519H131.625C133.545 147.519 135.102 145.962 135.102 144.042V131.128C135.102 129.208 133.545 127.651 131.625 127.651H27.3184Z" stroke="black" stroke-opacity="0.15"/>
<path d="M33.4057 133.672H36.3592V142.055H37.4964V133.672H40.4499V132.663H33.4057V133.672ZM43.1728 142.22C44.4018 142.22 45.0438 141.56 45.264 141.102H45.319V142.055H46.4013V137.414C46.4013 135.176 44.6953 134.92 43.7964 134.92C42.7325 134.92 41.5218 135.286 40.9715 136.571L41.9988 136.938C42.2372 136.424 42.8012 135.874 43.8332 135.874C44.8283 135.874 45.319 136.401 45.319 137.304V137.341C45.319 137.864 44.787 137.818 43.503 137.984C42.196 138.152 40.7696 138.442 40.7696 140.056C40.7696 141.432 41.8337 142.22 43.1728 142.22ZM43.3379 141.249C42.4757 141.249 41.8519 140.863 41.8519 140.111C41.8519 139.286 42.604 139.029 43.4479 138.918C43.9065 138.864 45.1355 138.736 45.319 138.515V139.505C45.319 140.387 44.6219 141.249 43.3379 141.249ZM53.3663 136.589C53.0268 135.589 52.2656 134.92 50.8715 134.92C49.3857 134.92 48.285 135.763 48.285 136.955C48.285 137.928 48.8628 138.58 50.156 138.882L51.33 139.157C52.0409 139.323 52.3757 139.661 52.3757 140.148C52.3757 140.753 51.7336 141.249 50.7247 141.249C49.8396 141.249 49.2847 140.867 49.0921 140.111L48.0648 140.368C48.3171 141.565 49.3031 142.202 50.743 142.202C52.3802 142.202 53.4946 141.308 53.4946 140.093C53.4946 139.111 52.8801 138.492 51.6236 138.185L50.5779 137.928C49.7433 137.721 49.3673 137.442 49.3673 136.901C49.3673 136.296 50.0093 135.856 50.8715 135.856C51.8162 135.856 52.206 136.378 52.394 136.864L53.3663 136.589ZM55.1238 142.055H56.2061V139.419L56.9628 138.717L59.5997 142.055H60.9755L57.7791 138.02L60.7555 135.011H59.4163L56.3345 138.148H56.2061V132.663H55.1238V142.055ZM65.4136 133.672H68.367V142.055H69.5043V133.672H72.4577V132.663H65.4136V133.672ZM73.9562 144.697C74.933 144.697 75.6209 144.178 76.029 143.083L79.0283 135.03L77.8451 135.011L75.9007 140.625H75.8272L73.8828 135.011H72.7088L75.3137 142.092L75.1118 142.643C74.7174 143.715 74.2314 143.817 73.4425 143.615L73.1674 144.569C73.2774 144.623 73.5893 144.697 73.9562 144.697ZM80.4602 144.697H81.5425V140.974H81.6342C81.8727 141.358 82.3313 142.202 83.6888 142.202C85.4498 142.202 86.6788 140.79 86.6788 138.552C86.6788 136.333 85.4498 134.92 83.6704 134.92C82.2946 134.92 81.8727 135.763 81.6342 136.131H81.5059V135.011H80.4602V144.697ZM81.5242 138.534C81.5242 136.955 82.2212 135.891 83.5421 135.891C84.9178 135.891 85.5966 137.048 85.5966 138.534C85.5966 140.038 84.8995 141.23 83.5421 141.23C82.2396 141.23 81.5242 140.129 81.5242 138.534ZM91.2832 142.202C92.714 142.202 93.7596 141.487 94.0898 140.423L93.0442 140.129C92.769 140.863 92.1315 141.23 91.2832 141.23C90.0128 141.23 89.1369 140.409 89.0865 138.9H94.1999V138.442C94.1999 135.819 92.6406 134.92 91.1731 134.92C89.2653 134.92 87.9996 136.424 87.9996 138.589C87.9996 140.753 89.247 142.202 91.2832 142.202ZM89.0865 137.965C89.1599 136.869 89.9348 135.891 91.1731 135.891C92.3471 135.891 93.0992 136.773 93.0992 137.965H89.0865Z" fill="#252525"/>
<path d="M132.122 147.271H118.959V127.9H132.122C133.63 127.9 134.853 129.122 134.853 130.631V144.539C134.853 146.048 133.63 147.271 132.122 147.271Z" fill="url(#paint0_linear)" stroke="url(#paint1_linear)" stroke-width="0.5"/>
<path fill-rule="evenodd" clip-rule="evenodd" d="M130.135 139.075L126.906 142.56L123.678 139.075H130.135ZM130.135 135.598L126.906 132.114L123.678 135.598" fill="white"/>
<path d="M449.015 137.089C449.015 128.31 456.13 121.194 464.909 121.194H558.288C567.067 121.194 574.182 128.31 574.182 137.089C574.182 145.867 567.067 152.983 558.288 152.983H464.909C456.13 152.983 449.015 145.867 449.015 137.089Z" fill="black"/>
<path d="M473.901 135.718C473.58 133.709 472.008 132.535 470.022 132.535C467.591 132.535 465.798 134.356 465.798 137.36C465.798 140.364 467.582 142.184 470.022 142.184C472.085 142.184 473.594 140.89 473.901 139.034L472.471 139.029C472.227 140.231 471.219 140.89 470.031 140.89C468.421 140.89 467.206 139.657 467.206 137.36C467.206 135.08 468.417 133.828 470.036 133.828C471.233 133.828 472.237 134.503 472.471 135.718H473.901ZM475.895 142.055H477.312V137.96H481.994V142.055H483.416V132.663H481.994V136.745H477.312V132.663H475.895V142.055ZM485.778 142.055H491.722V140.836H487.195V137.96H491.359V136.745H487.195V133.883H491.666V132.663H485.778V142.055ZM501.658 135.718C501.337 133.709 499.764 132.535 497.778 132.535C495.347 132.535 493.554 134.356 493.554 137.36C493.554 140.364 495.339 142.184 497.778 142.184C499.842 142.184 501.351 140.89 501.658 139.034L500.227 139.029C499.984 140.231 498.975 140.89 497.787 140.89C496.178 140.89 494.962 139.657 494.962 137.36C494.962 135.08 496.173 133.828 497.792 133.828C498.989 133.828 499.994 134.503 500.227 135.718H501.658ZM503.651 142.055H505.069V139.134L506.178 137.859L509.214 142.055H510.92L507.118 136.892L510.907 132.663H509.123L505.183 137.148H505.069V132.663H503.651V142.055ZM515.778 133.883H518.704V142.055H520.116V133.883H523.046V132.663H515.778V133.883ZM524.622 142.055L525.484 139.57H529.153L530.01 142.055H531.515L528.134 132.663H526.497L523.118 142.055H524.622ZM525.896 138.378L527.282 134.37H527.356L528.74 138.378H525.896ZM538.215 135.131H539.582C539.542 133.627 538.211 132.535 536.303 132.535C534.419 132.535 532.974 133.613 532.974 135.232C532.974 136.538 533.91 137.304 535.418 137.712L536.529 138.015C537.533 138.282 538.308 138.611 538.308 139.446C538.308 140.364 537.432 140.969 536.226 140.969C535.134 140.969 534.226 140.483 534.144 139.46H532.722C532.813 141.161 534.13 142.211 536.235 142.211C538.441 142.211 539.71 141.051 539.71 139.46C539.71 137.768 538.203 137.111 537.009 136.818L536.093 136.58C535.358 136.392 534.382 136.047 534.387 135.149C534.387 134.351 535.116 133.76 536.271 133.76C537.349 133.76 538.115 134.264 538.215 135.131ZM541.702 142.055H543.12V139.134L544.229 137.859L547.265 142.055H548.971L545.169 136.892L548.957 132.663H547.173L543.234 137.148H543.12V132.663H541.702V142.055ZM555.673 135.131H557.04C556.999 133.627 555.668 132.535 553.761 132.535C551.877 132.535 550.431 133.613 550.431 135.232C550.431 136.538 551.367 137.304 552.876 137.712L553.986 138.015C554.99 138.282 555.765 138.611 555.765 139.446C555.765 140.364 554.89 140.969 553.684 140.969C552.592 140.969 551.684 140.483 551.601 139.46H550.18C550.271 141.161 551.588 142.211 553.693 142.211C555.898 142.211 557.168 141.051 557.168 139.46C557.168 137.768 555.659 137.111 554.467 136.818L553.55 136.58C552.816 136.392 551.84 136.047 551.844 135.149C551.844 134.351 552.573 133.76 553.729 133.76C554.807 133.76 555.573 134.264 555.673 135.131Z" fill="white"/>
</g>
<defs>
<linearGradient id="paint0_linear" x1="118.711" y1="127.651" x2="118.711" y2="147.519" gradientUnits="userSpaceOnUse">
<stop stop-color="#6CB3FA"/>
<stop offset="1" stop-color="#057EFF"/>
</linearGradient>
<linearGradient id="paint1_linear" x1="118.711" y1="127.651" x2="118.711" y2="147.519" gradientUnits="userSpaceOnUse">
<stop stop-color="#4CA2F9"/>
<stop offset="1" stop-color="#005CFF"/>
</linearGradient>
<clipPath id="clip0">
<rect width="752" height="170.864" fill="white"/>
</clipPath>
</defs>
</svg>
