<svg width="57" height="16" viewBox="0 0 57 16" fill="none" xmlns="http://www.w3.org/2000/svg">
<path d="M7.67964 0.00683594C6.28499 0.00683594 5.18919 0.523038 4.19301 1.51922V0.378139H0V15.6197H4.19301V6.65407C4.19301 5.18697 5.37937 4.00061 6.83741 4.00061C8.29546 4.00061 9.48182 5.18697 9.48182 6.65407V15.6197H13.6748V6.74463C13.6839 2.71463 11.2659 0.00683594 7.67964 0.00683594Z" fill="#fff"/>
<path d="M25.6199 0.378077V9.34369C25.5927 10.8108 24.3882 11.97 22.9211 11.9428C21.4993 11.9156 20.3492 10.7655 20.322 9.34369V0.378077H16.129V9.17162C16.129 13.3194 18.8006 16 22.9302 16C26.9874 16 29.8129 13.1926 29.8129 9.17162V0.378077H25.6199Z" fill="#fff"/>
<path d="M53.7212 2.34329C50.5969 -0.781095 45.5345 -0.781095 42.4101 2.34329C39.2857 5.46767 39.2857 10.5301 42.4101 13.6545C45.5345 16.7788 50.5969 16.7788 53.7212 13.6545C56.8456 10.5301 56.8456 5.46767 53.7212 2.34329ZM51.2761 8.52865L48.5864 11.2183C47.5359 12.2326 45.8605 12.2055 44.8371 11.1549C43.841 10.1316 43.841 8.50149 44.8371 7.46908L47.5268 4.7794C48.5411 3.72888 50.2165 3.70171 51.2761 4.716C52.3266 5.7303 52.3538 7.40569 51.3395 8.46526C51.3123 8.49243 51.2942 8.51054 51.2761 8.52865Z" fill="#fff"/>
<path d="M39.3311 0.00683594H39.1409C35.0837 0.00683594 32.2582 2.81425 32.2582 6.83519V15.6287H36.4512V6.66313C36.4512 5.19602 37.6829 4.00967 39.1409 4.00967H39.3311V0.00683594Z" fill="#fff"/>
</svg>
