<svg width="118" height="80" viewBox="0 0 118 80" fill="none" xmlns="http://www.w3.org/2000/svg">
<path fill-rule="evenodd" clip-rule="evenodd" d="M111.029 18.5715H117.143V35.7144H111.414V38.5715C111.414 41.7001 113.929 44.2715 117.129 44.2858V60.0001V60.7144V61.4286H116.429H116.414H116.4C110.471 61.2429 104.957 58.9001 100.886 54.8286C96.6286 50.5572 94.2857 44.7858 94.2857 38.5715V22.8572C94.2857 18.7001 89.8143 15.5572 85.4286 18.0001C83.8286 18.8858 82.8571 20.6001 82.8571 22.4287V27.1429H90V44.3001H82.8571C82.8571 48.7429 81.1572 52.9572 78.0714 56.1715C75 59.3715 70.8714 61.2429 66.4572 61.4286H66.4286H66.4H65.7143V60.7144V60.4572V22.4715C65.7143 14.0001 72.1572 4.52866 80.0857 1.57151C94.3143 -3.75706 108.471 5.10008 111.029 18.5715ZM17.1429 47.1429V1.42865H0V44.2858C0 56.0572 7.77143 61.4287 15 61.4287C17.1571 61.4287 19.3143 60.9287 21.2429 60.0287C21.5286 59.9001 21.9857 59.6144 21.9857 59.6144C21.9857 59.6144 21.5571 59.1572 21.3714 58.9572C18.6286 55.8287 17.1429 51.7715 17.1429 47.1429ZM44.2857 41.8286C44.2857 42.5429 43.9429 43.2286 43.3572 43.6286C41.0572 45.2429 38.5715 43.6143 38.5715 41.4286V18.5715H21.4286V47.1429C21.4286 55.0143 27.8429 61.4286 35.7143 61.4286C39.1143 61.4286 42.4143 60.2143 45 58C44.7286 60.1143 43.5715 61.8572 41.6286 63.0715C39.8143 64.2143 37.4429 64.8143 34.7857 64.8143C32.0429 64.8143 29.2572 64.1715 26.7286 62.9572C26.7286 62.9572 26.2714 62.7429 25.7 62.4143V77.6429C29.5143 79.1858 33.7 80 37.7429 80C44.1429 80 49.9857 78 54.2 74.3572C58.9286 70.2858 61.4286 64.3286 61.4286 57.1429V18.5715H44.2857V41.8286Z" fill="#fff"/>
</svg>
