<svg width="152" height="19" viewBox="0 0 152 19" fill="none" xmlns="http://www.w3.org/2000/svg">
<path fill-rule="evenodd" clip-rule="evenodd" d="M16.5154 4.67692L16.2231 4.82308C15.4923 3.94615 14.9077 3.21538 14.1769 2.63077C13.5923 1.9 12.8615 1.46154 12.2769 1.16923C11.9846 1.02308 11.4 1.02308 10.6692 0.876923C9.93846 0.730769 9.06154 0.730769 8.03846 0.730769C7.89231 0.730769 7.6 0.730769 7.45385 0.730769C7.16154 0.730769 7.01538 0.730769 6.86923 0.730769C6.72308 0.730769 6.43077 0.730769 6.28462 0.730769C6.13846 0.730769 5.99231 0.730769 5.84615 0.730769C5.84615 0.876923 5.84615 0.876923 5.84615 1.02308C5.84615 1.16923 5.84615 1.31538 5.84615 1.31538C5.84615 1.46154 5.84615 1.60769 5.84615 1.9C5.84615 2.04615 5.84615 2.33846 5.84615 2.63077C5.84615 3.21538 5.84615 3.94615 5.84615 4.67692C5.84615 5.40769 5.84615 6.13846 5.84615 6.72308V9.20769H6.28462C6.57692 9.20769 6.86923 9.20769 7.16154 9.20769C7.45385 9.20769 7.89231 9.20769 8.18462 9.20769C8.47692 9.20769 8.91538 9.20769 9.06154 9.06154C9.64615 8.91538 10.2308 8.76923 10.5231 8.47692C10.8154 8.18462 11.1077 8.03846 11.4 7.74615C11.5462 7.45385 11.6923 7.16154 11.8385 6.72308C11.6923 6.28462 11.8385 5.84615 11.8385 5.55385H12.1308V13.8846H11.8385C11.6923 13.3 11.5462 12.7154 11.2538 12.1308C10.9615 11.5462 10.6692 11.1077 10.3769 10.6692C9.93846 10.3769 9.64615 10.0846 9.20769 9.93846C8.91538 9.79231 8.47692 9.79231 7.89231 9.79231C7.6 9.79231 7.45385 9.79231 7.16154 9.79231C7.01538 9.79231 6.72308 9.79231 6.57692 9.79231H5.55385V13.0077C5.55385 13.4462 5.55385 13.8846 5.55385 14.3231C5.55385 14.7615 5.55385 15.0538 5.55385 15.3462C5.55385 15.9308 5.55385 16.3692 5.7 16.9538C5.7 17.3923 5.84615 17.8308 5.99231 18.1231C6.13846 18.4154 6.43077 18.5615 6.72308 18.7077C7.16154 18.8538 7.6 18.8538 8.33077 19H0V18.7077C0.438462 18.7077 0.876923 18.5615 1.16923 18.4154C1.60769 18.2692 1.9 17.9769 2.04615 17.8308C2.19231 17.6846 2.19231 17.5385 2.19231 17.3923C2.19231 17.2462 2.33846 16.9538 2.33846 16.6615C2.33846 16.3692 2.48462 16.0769 2.48462 15.7846C2.48462 15.4923 2.48462 15.2 2.48462 14.9077C2.48462 14.6154 2.48462 14.3231 2.48462 13.8846C2.48462 13.4462 2.48462 13.0077 2.48462 12.5692C2.48462 12.1308 2.48462 11.5462 2.48462 11.1077V4.53077C2.48462 4.23846 2.48462 3.94615 2.48462 3.50769C2.48462 3.21538 2.48462 2.92308 2.48462 2.63077C2.48462 2.33846 2.48462 2.04615 2.33846 1.9C2.33846 1.60769 2.19231 1.46154 2.04615 1.46154C1.9 1.02308 1.60769 0.876923 1.31538 0.876923C1.02308 0.876923 0.730769 0.730769 0.292308 0.584615V0.292308H14.6154L16.5154 4.67692ZM44.8692 19V18.7077C44.8692 18.7077 45.0154 18.7077 45.3077 18.7077C45.6 18.7077 45.7462 18.5615 45.8923 18.5615C46.0385 18.4154 46.3308 18.4154 46.4769 18.2692C46.6231 18.1231 46.7692 17.9769 46.7692 17.6846C46.7692 17.5385 46.7692 17.2462 46.6231 16.9538C46.4769 16.6615 46.3308 16.2231 46.1846 15.6385C46.0385 15.2 45.7462 14.6154 45.6 13.8846C45.3077 13.1538 45.0154 12.5692 44.7231 11.8385H37.8538C37.5615 12.4231 37.4154 13.1538 37.1231 13.7385C36.8308 14.3231 36.6846 14.9077 36.3923 15.4923C36.1 16.3692 35.8077 17.1 35.8077 17.3923C35.8077 17.6846 35.8077 17.8308 35.9538 17.9769C36.1 18.1231 36.2462 18.2692 36.5385 18.2692C36.6846 18.4154 36.9769 18.4154 37.2692 18.4154C37.5615 18.4154 37.7077 18.5615 38 18.5615V19H32.4462V18.7077C32.8846 18.7077 33.3231 18.5615 33.6154 18.4154C33.9077 18.2692 34.0538 18.1231 34.2 17.9769C34.3462 17.8308 34.4923 17.5385 34.7846 17.1C35.0769 16.6615 35.3692 15.9308 35.8077 15.0538C36.1 14.1769 36.5385 13.3 36.9769 12.2769C37.4154 11.2538 37.8538 10.2308 38.4385 9.06154C39.0231 7.89231 39.3154 6.86923 39.9 5.7C40.3385 4.53077 40.7769 3.50769 41.2154 2.63077L40.9231 2.19231C41.2154 2.04615 41.5077 1.9 41.8 1.75385C41.9462 1.46154 42.2385 1.31538 42.3846 1.02308C42.5308 0.730769 42.6769 0.584615 42.8231 0.438462C42.9692 0.292308 43.1154 0.146154 43.1154 0H43.2615C43.8462 1.46154 44.2846 2.77692 44.7231 4.09231C45.1615 5.40769 45.6 6.57692 46.1846 7.74615C46.7692 8.91538 47.0615 10.0846 47.5 11.2538C47.9385 12.4231 48.3769 13.4462 48.8154 14.6154C48.9615 15.2 49.2538 15.6385 49.4 15.9308C49.5462 16.2231 49.6923 16.6615 49.9846 17.1C49.9846 17.1 50.1308 17.2462 50.2769 17.3923C50.4231 17.5385 50.5692 17.6846 50.7154 17.9769C50.8615 18.1231 51.1538 18.2692 51.4462 18.4154C51.7385 18.5615 52.0308 18.5615 52.4692 18.7077V19H44.8692ZM41.5077 3.36154C41.3615 3.50769 41.2154 3.94615 40.9231 4.38462C40.7769 4.82308 40.4846 5.40769 40.1923 6.13846C39.9 6.86923 39.6077 7.6 39.1692 8.47692C38.8769 9.35385 38.4385 10.2308 38 11.2538H44.4308C44.1385 10.5231 43.8462 9.64615 43.5538 8.91538C43.2615 8.18462 42.9692 7.45385 42.6769 6.72308C42.3846 5.99231 42.0923 5.40769 41.9462 4.82308C41.8 4.23846 41.6538 3.65385 41.5077 3.36154ZM78.0462 19H70.1538V18.7077C70.5923 18.7077 71.0308 18.5615 71.3231 18.4154C71.7615 18.2692 72.0538 17.9769 72.2 17.6846C72.3462 17.5385 72.3462 17.3923 72.3462 17.2462C72.3462 17.1 72.4923 16.8077 72.4923 16.5154C72.4923 16.2231 72.4923 15.9308 72.4923 15.6385C72.4923 15.3462 72.4923 15.0538 72.4923 14.7615C72.4923 14.4692 72.4923 14.1769 72.4923 13.7385C72.4923 13.3 72.4923 12.8615 72.4923 12.4231C72.4923 11.9846 72.4923 11.4 72.4923 10.9615V3.65385C72.4923 3.36154 72.4923 3.06923 72.4923 2.77692C72.4923 2.48462 72.4923 2.33846 72.3462 2.04615C72.3462 1.9 72.2 1.60769 72.0538 1.60769C71.7615 1.31538 71.4692 1.16923 71.1769 1.02308C70.8846 0.876923 70.5923 0.730769 70.1538 0.584615V0.292308H77.9V0.584615C77.6077 0.584615 77.1692 0.730769 76.7308 0.876923C76.2923 1.02308 76 1.31538 75.8538 1.75385C75.7077 2.04615 75.5615 2.48462 75.5615 2.92308C75.5615 3.36154 75.5615 3.8 75.5615 4.23846C75.5615 4.67692 75.5615 5.11538 75.5615 5.55385C75.5615 5.99231 75.5615 6.43077 75.5615 6.86923V15.4923C75.5615 15.9308 75.5615 16.5154 75.5615 16.9538C75.5615 17.3923 75.7077 17.6846 75.8538 17.9769C76 18.2692 76.4385 18.5615 76.8769 18.7077C77.3154 18.8538 77.7538 19 78.0462 19ZM117.362 19H112.1C111.954 18.8538 111.808 18.7077 111.808 18.7077C111.808 18.5615 111.662 18.5615 111.515 18.4154C111.369 18.2692 111.369 18.1231 111.223 17.9769C111.077 17.8308 110.931 17.5385 110.638 17.1C110.346 16.6615 110.054 16.2231 109.762 15.7846C109.469 15.3462 109.323 15.0538 109.031 14.6154C108.738 14.1769 108.446 13.8846 108.154 13.4462C107.862 13.0077 107.423 12.5692 107.131 12.1308C106.838 11.6923 106.4 11.4 105.962 10.9615C105.523 10.5231 105.085 10.3769 104.646 10.3769C104.208 10.2308 103.915 10.2308 103.769 10.2308C103.623 10.2308 103.477 10.2308 103.185 10.2308V13.1538C103.185 14.0308 103.185 14.6154 103.185 15.2C103.185 15.7846 103.185 16.2231 103.185 16.6615C103.185 17.1 103.331 17.3923 103.477 17.6846C103.623 17.9769 103.915 18.1231 104.354 18.4154C104.792 18.7077 105.377 18.8538 105.962 18.8538V19H97.6308V18.7077C98.0692 18.7077 98.5077 18.5615 98.9461 18.4154C99.3846 18.2692 99.6769 18.1231 99.8231 17.8308C99.9692 17.6846 99.9692 17.5385 99.9692 17.3923C99.9692 17.2462 100.115 16.9538 100.115 16.6615C100.115 16.3692 100.115 16.0769 100.115 15.7846C100.115 15.4923 100.115 15.2 100.115 14.9077C100.115 14.6154 100.115 14.3231 100.115 13.8846C100.115 13.4462 100.115 13.0077 100.115 12.5692C100.115 12.1308 100.115 11.5462 100.115 11.1077V4.53077C100.115 4.23846 100.115 3.94615 100.115 3.65385C100.115 3.36154 100.115 3.06923 100.115 2.77692C100.115 2.48462 100.115 2.19231 99.9692 2.04615C99.9692 1.75385 99.8231 1.60769 99.6769 1.60769C99.3846 1.31538 99.0923 1.16923 98.8 1.02308C98.5077 0.876923 98.0692 0.876923 97.6308 0.730769V0.292308H98.6538C99.2385 0.292308 99.9692 0.292308 100.7 0.292308C101.431 0.292308 102.162 0.292308 102.892 0.292308H104.646C105.815 0.292308 106.838 0.292308 107.715 0.438462C108.592 0.438462 109.469 0.730769 110.2 1.16923C110.931 1.60769 111.515 2.04615 112.1 2.77692C112.538 3.50769 112.831 4.38462 112.831 5.40769C112.831 5.99231 112.685 6.57692 112.538 7.16154C112.246 7.6 111.954 8.18462 111.662 8.47692C111.223 8.91538 110.785 9.20769 110.346 9.5C109.908 9.79231 109.323 9.93846 108.738 10.2308C109.031 10.3769 109.323 10.6692 109.615 10.9615C109.908 11.2538 110.2 11.5462 110.492 11.9846C110.931 12.5692 111.369 13.3 111.954 14.1769C112.538 15.0538 112.977 15.6385 113.415 16.2231C114 17.1 114.731 17.8308 115.315 18.1231C115.9 18.4154 116.631 18.8538 117.508 18.8538V19H117.362ZM110.054 5.11538C110.054 4.23846 109.908 3.50769 109.469 2.77692C109.031 2.04615 108.446 1.60769 107.569 1.16923C107.131 1.02308 106.692 0.876923 106.254 0.730769C105.815 0.584615 105.377 0.584615 104.792 0.584615C104.5 0.584615 104.062 0.584615 103.915 0.584615C103.623 0.584615 103.477 0.584615 103.331 0.584615C103.331 0.730769 103.331 0.730769 103.331 0.876923C103.331 1.02308 103.331 1.02308 103.331 1.16923C103.331 1.31538 103.331 1.46154 103.331 1.60769C103.331 1.75385 103.331 2.19231 103.331 2.48462C103.331 3.06923 103.331 3.8 103.331 4.53077C103.331 5.26154 103.331 5.99231 103.331 6.72308V9.5C104.062 9.5 104.646 9.5 105.377 9.35385C105.962 9.35385 106.546 9.20769 107.131 8.91538C107.715 8.76923 108.154 8.47692 108.592 8.18462C109.031 7.89231 109.323 7.6 109.615 7.16154C109.615 7.30769 109.762 7.01538 109.908 6.57692C110.054 6.13846 110.054 5.7 110.054 5.11538ZM152 14.0308L150.685 19H134.754V18.7077C135.192 18.7077 135.631 18.5615 135.923 18.4154C136.362 18.2692 136.654 17.9769 136.8 17.8308C136.946 17.6846 136.946 17.5385 136.946 17.3923C136.946 17.2462 137.092 16.9538 137.092 16.6615C137.092 16.3692 137.385 16.0769 137.385 15.7846C137.385 15.4923 137.385 15.2 137.385 14.9077C137.385 14.6154 137.385 14.3231 137.385 13.8846C137.385 13.4462 137.385 13.0077 137.385 12.5692C137.385 12.1308 137.385 11.5462 137.385 11.1077C137.385 10.5231 137.385 10.0846 137.385 9.64615V4.53077C137.385 4.23846 137.385 3.94615 137.385 3.50769C137.385 3.06923 137.385 2.92308 137.385 2.63077C137.385 2.33846 137.385 2.04615 137.238 1.9C137.238 1.60769 137.092 1.46154 136.946 1.46154C136.654 1.16923 136.362 1.02308 136.069 0.876923C135.777 0.730769 135.338 0.730769 134.9 0.584615V0.292308H149.223L150.977 4.53077L150.685 4.67692C149.223 2.92308 147.908 1.75385 146.738 1.16923C146.446 1.02308 145.862 0.876923 145.131 0.876923C144.4 0.876923 143.377 0.730769 142.208 0.730769C141.915 0.730769 141.477 0.730769 141.038 0.730769C140.6 0.730769 140.308 0.730769 140.162 0.876923C140.162 1.16923 140.162 1.75385 140.015 2.63077C140.015 3.50769 140.015 4.53077 140.015 5.7C140.015 6.28462 140.015 6.86923 140.015 7.30769C140.015 7.74615 140.015 8.18462 140.015 8.47692C140.015 8.76923 140.015 8.91538 140.015 9.20769C140.015 9.35385 140.015 9.5 140.015 9.5C140.162 9.5 140.308 9.5 140.6 9.5C140.892 9.5 141.185 9.5 141.477 9.5C141.769 9.5 142.208 9.5 142.5 9.5C142.792 9.5 143.085 9.5 143.377 9.35385C143.962 9.20769 144.4 9.06154 144.692 8.91538C144.985 8.76923 145.277 8.47692 145.569 8.18462C145.715 7.89231 146.008 7.6 146.154 7.16154C146.3 6.72308 146.446 6.28462 146.446 5.84615H146.738V14.0308H146.446C146.3 13.4462 146.154 12.8615 145.862 12.2769C145.569 11.6923 145.277 11.2538 144.985 10.9615C144.692 10.6692 144.4 10.5231 143.962 10.3769C143.523 10.2308 143.085 10.0846 142.646 10.0846C142.354 10.0846 142.208 10.0846 142.062 10.0846C141.915 10.0846 141.769 10.0846 141.477 10.0846C141.331 10.0846 141.185 10.0846 140.892 10.0846C140.746 10.0846 140.454 10.0846 140.162 10.0846C140.162 10.3769 140.162 10.6692 140.162 11.1077C140.162 11.5462 140.162 11.9846 140.162 12.5692C140.162 12.8615 140.162 13.0077 140.162 13.3C140.162 13.5923 140.162 13.8846 140.162 14.1769C140.162 14.4692 140.162 14.7615 140.162 14.9077C140.162 15.2 140.162 15.3462 140.162 15.4923C140.162 16.0769 140.162 16.5154 140.308 17.1C140.308 17.5385 140.454 17.9769 140.6 18.2692C140.746 18.5615 141.185 18.7077 141.769 18.8538C142.354 19 142.938 19 143.669 19C143.962 19 144.4 19 144.838 19C145.277 19 145.715 19 146.3 18.8538C146.885 18.8538 147.323 18.7077 147.762 18.4154C148.2 18.2692 148.638 17.9769 149.077 17.5385C149.515 17.2462 149.954 16.6615 150.392 16.2231C150.831 15.6385 151.269 15.0538 151.708 14.3231L152 14.0308Z" fill="white"/>
</svg>
