<svg width="156" height="38" viewBox="0 0 156 38" fill="none" xmlns="http://www.w3.org/2000/svg">
<path d="M153.252 35.5905C153.252 35.5905 153.256 35.5905 153.26 35.5905C153.641 35.5905 153.956 35.2746 153.956 34.8925C153.956 34.8808 153.956 34.8652 153.956 34.8535C153.956 34.3311 153.641 34.0776 152.991 34.0776H151.945V36.8225H152.338V35.6255H152.82L152.832 35.6411L153.583 36.8225H154.003L153.197 35.5982L153.252 35.5905ZM152.797 35.3136H152.342V34.3857H152.921C153.221 34.3857 153.559 34.4363 153.559 34.8262C153.559 35.2785 153.213 35.3136 152.797 35.3136ZM0 5.57983H5.80753V26.7787H16.5591V32.1515H0V5.57983ZM19.1225 14.1381H24.7005V32.1437H19.1225V14.1381ZM21.9115 5.18604C23.6852 5.18604 25.1478 6.65206 25.1478 8.43001C25.1478 10.2079 23.6852 11.674 21.9115 11.674C20.1377 11.674 18.6751 10.2079 18.6751 8.43001C18.6751 6.65206 20.1338 5.18604 21.9115 5.18604ZM48.0356 5.57594H53.6137V21.4566L59.9347 14.1264H66.773L59.4523 22.4625L66.6213 32.1476H59.6118L53.6915 23.2462H53.6176V32.1476H48.0395L48.0356 5.57594ZM27.7929 14.1381H33.1492V16.5984H33.227C34.3162 14.7269 36.3506 13.6079 38.5094 13.6898C44.1653 13.6898 45.2077 17.4211 45.2077 22.2676V32.1437H39.6297V23.3866C39.6297 21.2967 39.5908 18.6103 36.724 18.6103C33.8261 18.6103 33.3787 20.8873 33.3787 23.2345V32.1398H27.7968L27.7929 14.1381Z" fill="#fff"/>
<path d="M78.5204 21.0471C78.5204 21.0198 78.5204 20.9926 78.5204 20.9692C78.5204 19.1288 77.0111 17.616 75.1751 17.616C75.1479 17.616 75.1207 17.616 75.0934 17.616C73.0785 17.4913 71.3086 19.0275 71.153 21.0471H78.5204ZM83.2465 29.0245C81.3716 31.3054 78.5671 32.6233 75.6186 32.6077C70.0405 32.6077 65.575 28.8763 65.575 23.0941C65.575 17.3119 70.0405 13.5845 75.6186 13.5845C80.831 13.5845 84.1023 17.3119 84.1023 23.0941V24.8487H71.1569C71.4876 26.8956 73.2924 28.4007 75.3618 28.3539C76.9722 28.3422 78.4737 27.5156 79.3411 26.1548L83.2465 29.0245ZM95.729 18.4894C92.94 18.4894 91.2674 20.357 91.2674 23.0746C91.2674 25.7961 92.94 27.6637 95.729 27.6637C98.5181 27.6637 100.195 25.8 100.195 23.0746C100.195 20.3531 98.5219 18.4894 95.729 18.4894ZM105.333 32.1398H100.198V29.7536H100.121C98.8176 31.5121 96.7637 32.5648 94.5738 32.5882C89.2136 32.5882 85.6816 28.7126 85.6816 23.2267C85.6816 18.1892 88.8051 13.5689 93.9436 13.5689C96.2542 13.5689 98.4091 14.2005 99.6733 15.955H99.7472V5.5759H105.329L105.333 32.1398ZM142.991 32.1515H137.413V23.3943C137.413 21.3045 137.374 18.6181 134.511 18.6181C131.605 18.6181 131.162 20.8912 131.162 23.2423V32.1515H125.584V14.142H130.94V16.6023H131.014C132.103 14.7347 134.137 13.6117 136.296 13.6936C141.948 13.6936 142.991 17.4211 142.991 22.2714V32.1515ZM119.29 11.6817C117.512 11.6817 116.053 10.2157 116.053 8.43777C116.053 6.65593 117.516 5.1938 119.29 5.1938C121.064 5.1938 122.526 6.65982 122.526 8.43777C122.526 10.2157 121.064 11.6817 119.29 11.6817ZM122.079 32.1515H116.493V14.142H122.079V32.1515ZM145.772 0.000328747H113.692C112.187 -0.0152673 110.934 1.20902 110.915 2.72183V35.0134C110.934 36.5223 112.187 37.7544 113.692 37.7349H145.772C147.281 37.7544 148.541 36.5262 148.561 35.0134V2.71793C148.541 1.20512 147.281 -0.0230653 145.772 0.000328747ZM152.844 32.8533C151.443 32.865 150.3 34.023 150.3 35.4267C150.3 36.8381 151.459 38 152.867 38C154.275 38 155.434 36.8381 155.434 35.4267C155.434 34.023 154.291 32.8689 152.89 32.8533H152.844ZM152.844 37.7037C152.832 37.7037 152.82 37.7037 152.805 37.7037C151.572 37.7037 150.556 36.686 150.556 35.4462C150.556 34.2102 151.572 33.1886 152.805 33.1886C154.026 33.1886 155.037 34.1829 155.057 35.4072V35.4462C155.08 36.6587 154.112 37.6764 152.902 37.6998L152.844 37.7037Z" fill="#fff"/>
</svg>
