<svg width="166" height="21" viewBox="0 0 166 21" fill="none" xmlns="http://www.w3.org/2000/svg">
<path d="M104.286 0.000366211C108.652 0.00537931 113.02 -0.0046456 117.387 0.00638321C117.388 1.21153 117.388 2.41668 117.386 3.62283C114.599 3.63988 111.804 3.60378 109.018 3.64088C109.028 5.217 109.019 6.79312 109.023 8.36823C111.156 8.38327 113.29 8.36823 115.424 8.37625C115.425 9.53929 115.425 10.7023 115.423 11.8654C113.29 11.8694 111.157 11.8604 109.023 11.8694C109.021 13.4806 109.023 15.0908 109.022 16.702C111.809 16.7191 114.599 16.702 117.386 16.71C117.388 17.9202 117.388 19.1304 117.386 20.3405C113.019 20.3445 108.651 20.3435 104.285 20.3415C104.283 13.5618 104.28 6.78108 104.286 0.000366211Z" fill="#fff"/>
<path d="M118.104 0.00237188C119.463 0.000366639 120.822 0.00237145 122.18 0.000366211C122.57 0.00237145 122.944 0.0384667 123.253 0.302156C123.695 0.665104 123.883 1.13834 124.126 1.63764C124.905 3.23281 125.676 4.83199 126.454 6.42816C126.938 7.42376 127.439 8.40934 127.873 9.428C128.083 8.78231 128.387 8.18876 128.681 7.58017C129.636 5.59599 130.591 3.6118 131.544 1.62662C131.749 1.21654 131.883 0.815496 132.223 0.493655C132.513 0.19688 132.885 0.0093901 133.305 0.00537962C134.722 -0.00364396 136.141 0.00337395 137.557 0.00337395C135.205 4.03591 132.846 8.06544 130.49 12.096C130.375 12.3105 130.167 12.5492 130.187 12.8018C130.188 15.3144 130.189 17.828 130.187 20.3415C128.614 20.3425 127.041 20.3445 125.468 20.3405C125.466 17.829 125.466 15.3134 125.468 12.8018C125.493 12.5321 125.267 12.2795 125.145 12.0478C122.797 8.03336 120.451 4.01786 118.104 0.00237188Z" fill="#fff"/>
<path d="M138.973 0.00943888C143.324 -0.00560042 147.716 0.000415423 152.07 0.00643114C152.072 1.21158 152.072 2.41673 152.07 3.62188C149.283 3.63491 146.493 3.61486 143.706 3.63291C143.708 5.21203 143.705 6.79116 143.707 8.37028C145.841 8.38231 147.974 8.36728 150.107 8.3773C150.107 9.54034 150.109 10.7024 150.107 11.8644C147.973 11.8694 145.841 11.8614 143.708 11.8694C143.705 13.4806 143.707 15.0918 143.707 16.7031C146.493 16.7271 149.287 16.682 152.072 16.7261C152.07 17.9313 152.073 19.1354 152.07 20.3406C147.703 20.3446 143.334 20.3436 138.966 20.3406C138.969 13.5879 138.956 6.75206 138.973 0.00943888Z" fill="#fff"/>
<path d="M0.00150393 0.329346C5.22315 0.329346 10.4448 0.330348 15.6664 0.329346C15.6694 1.08833 15.6674 1.84731 15.6674 2.6063C13.5148 2.6073 11.3622 2.60529 9.20956 2.6063C9.20856 8.51874 9.21057 14.4302 9.20856 20.3416C8.3062 20.3446 7.40385 20.3426 6.50149 20.3426C6.50049 14.4322 6.50049 8.52175 6.50149 2.61131C4.33483 2.60028 2.16817 2.6093 0.00150393 2.6063C-0.00050131 1.84731 -0.00050131 1.08833 0.00150393 0.329346Z" fill="#fff"/>
<path d="M18.9871 0.330235C19.8894 0.327227 20.7908 0.330234 21.6932 0.329232C21.6952 7.00066 21.6942 13.6711 21.6932 20.3425C20.7908 20.3425 19.8894 20.3445 18.9871 20.3415C18.9861 13.6711 18.9861 7.00066 18.9871 0.330235Z" fill="#fff"/>
<path d="M27.055 0.329249C27.6816 0.329249 28.3082 0.32925 28.9359 0.328247C29.1745 0.334263 29.4643 0.329249 29.6828 0.437532C29.8743 0.568875 29.9956 0.81953 30.1099 1.01705C32.3528 5.0185 34.5987 9.01896 36.8425 13.0204C37.1102 13.5027 37.3198 14.007 37.5063 14.5253C37.5734 14.398 37.6406 14.2717 37.6918 14.1363C37.9414 13.4686 38.2863 12.879 38.6252 12.2604C40.7096 8.46952 42.7971 4.67962 44.8815 0.888711C44.9738 0.732303 45.0791 0.54381 45.2315 0.439538C45.45 0.330252 45.7398 0.334263 45.9794 0.328247C46.6061 0.32925 47.2327 0.329249 47.8603 0.329249C47.8613 7.00068 47.8613 13.6711 47.8603 20.3425C47.0733 20.3435 46.2872 20.3425 45.5002 20.3425C45.4992 15.4247 45.5002 10.5068 45.5002 5.58899C45.4992 5.16789 45.5292 4.74679 45.5363 4.32569C45.2104 4.96937 44.8485 5.59501 44.5066 6.22967C42.5916 9.7258 40.6756 13.2219 38.7616 16.7181C38.561 17.08 38.3074 17.3938 37.8702 17.449C37.4882 17.4811 37.0381 17.5071 36.7152 17.2645C36.4355 17.055 36.263 16.672 36.0896 16.3752C33.8487 12.3507 31.5958 8.33316 29.357 4.30765C29.377 4.76885 29.4272 5.22705 29.4232 5.68926C29.4232 10.574 29.4232 15.4578 29.4232 20.3425C28.6331 20.3425 27.844 20.3435 27.054 20.3425C27.054 13.6711 27.053 7.00068 27.055 0.329249Z" fill="#fff"/>
<path d="M70.8625 0.32919C74.9722 0.333201 79.083 0.322173 83.1927 0.335207C83.1817 1.06812 83.2148 1.80404 83.1737 2.53696C79.9753 2.53696 76.7769 2.53596 73.5786 2.53696C73.5776 4.75275 73.5786 6.96854 73.5786 9.18433C76.1684 9.18533 78.7581 9.18433 81.3489 9.18433C81.3459 9.89619 81.3569 10.608 81.3419 11.3189C78.7541 11.3179 76.1663 11.3179 73.5786 11.3189C73.5786 13.5908 73.5776 15.8638 73.5786 18.1367C76.783 18.1437 79.9893 18.1237 83.1927 18.1467C83.1877 18.8546 83.1997 19.5624 83.1897 20.2703C83.1396 20.3284 83.0764 20.3525 82.9992 20.3425C78.9536 20.3425 74.9081 20.3435 70.8625 20.3425C70.8615 13.6711 70.8605 7.00062 70.8625 0.32919Z" fill="#fff"/>
<path d="M154.999 0.845601C156.448 0.844598 157.897 0.844598 159.345 0.845601C159.346 1.12633 159.345 1.40807 159.344 1.6888C158.793 1.68981 158.241 1.6888 157.69 1.68981C157.689 3.24587 157.691 4.80094 157.689 6.357C157.342 6.36001 156.996 6.36101 156.649 6.34698C156.653 4.79392 156.65 3.24186 156.651 1.68981C156.101 1.6888 155.55 1.68981 155.001 1.6888C154.999 1.40807 154.999 1.12633 154.999 0.845601Z" fill="#fff"/>
<path d="M160.023 0.84558C160.341 0.848588 160.666 0.826529 160.982 0.863626C161.149 0.936818 161.225 1.18647 161.321 1.33486C161.874 2.41969 162.522 3.46643 163.014 4.58034C163.213 4.10309 163.468 3.65993 163.711 3.20474C164.124 2.44576 164.512 1.66572 164.946 0.918771C165.23 0.770383 165.678 0.873653 165.999 0.84558C166 2.68338 166 4.52018 165.999 6.35698C165.702 6.35798 165.405 6.35798 165.109 6.35798C165.113 5.0225 165.099 3.687 165.117 2.35152C164.568 3.36216 164.036 4.38282 163.489 5.39447C163.349 5.62407 163.267 5.70528 162.983 5.68422C162.695 5.70829 162.609 5.4837 162.484 5.27716C161.969 4.29259 161.416 3.32706 160.92 2.33447C160.933 3.67497 160.923 5.01648 160.927 6.35698C160.625 6.35798 160.324 6.35798 160.023 6.35698C160.023 4.52018 160.021 2.68238 160.023 0.84558Z" fill="#fff"/>
<path fill-rule="evenodd" clip-rule="evenodd" d="M89.6666 0.329382C88.888 0.329747 88.1094 0.330111 87.3308 0.329285C87.3286 5.09425 87.329 9.85973 87.3294 14.6254C87.3296 16.5311 87.3298 18.4368 87.3298 20.3426C87.5549 20.3426 87.7801 20.3426 88.0052 20.3427C88.6794 20.3429 89.3536 20.3431 90.0278 20.3416C90.0298 19.2271 90.0289 18.1124 90.028 16.9977C90.0267 15.3257 90.0254 13.6535 90.0338 11.9817C90.471 11.9831 90.9077 11.9826 91.3443 11.9822C91.5626 11.982 91.7808 11.9817 91.999 11.9817C92.2877 11.9857 92.6166 12.0038 92.8813 12.1291C93.1591 12.263 93.3542 12.5214 93.5361 12.7623L93.538 12.7648C94.3911 13.9418 95.2504 15.1243 96.1097 16.3068C96.9421 17.4521 97.7744 18.5975 98.6012 19.738C98.7336 19.9165 98.8619 20.0819 99.0624 20.1892C99.3431 20.3386 99.7101 20.3456 100.021 20.3446C100.37 20.3421 100.72 20.3423 101.069 20.3426C101.418 20.3428 101.767 20.3431 102.116 20.3406C101.042 18.8812 99.9693 17.4202 98.8966 15.9593C98.0165 14.7605 97.1363 13.5617 96.2551 12.3637C96.033 12.0474 95.7458 11.8062 95.4527 11.5601C95.4375 11.5472 95.4222 11.5344 95.4069 11.5215C96.7654 11.2488 98.1059 10.554 99.0183 9.49724C99.8525 8.53172 100.308 7.2624 100.306 5.98907C100.329 4.94535 100.128 3.91866 99.5898 3.01631C99.0604 2.13701 98.2363 1.48932 97.3008 1.08526C95.9643 0.498729 94.4494 0.336304 93.0026 0.331291C91.8909 0.328342 90.7788 0.328862 89.6666 0.329382ZM91.0192 2.46748C90.6889 2.4677 90.3587 2.46793 90.0286 2.46793C90.0289 3.30791 90.0284 4.14789 90.028 4.98791C90.0271 6.66759 90.0262 8.34741 90.0316 10.0277C90.4274 10.0265 90.8234 10.0269 91.2195 10.0273C91.8136 10.0279 92.408 10.0285 93.0023 10.0237C94.1253 10.0026 95.2873 9.77602 96.2157 9.10928C96.9817 8.56987 97.481 7.71263 97.6174 6.78922C97.7327 6.0162 97.6826 5.15495 97.3477 4.43808C97.0579 3.80241 96.5185 3.30511 95.8909 3.00934C94.9765 2.5722 94.0029 2.48196 93.0023 2.46793C92.3412 2.46659 91.6801 2.46703 91.0192 2.46748Z" fill="#fff"/>
<path fill-rule="evenodd" clip-rule="evenodd" d="M52.739 0.329346C53.6353 0.329775 54.5316 0.329653 55.4279 0.32953C56.623 0.329367 57.8182 0.329203 59.0134 0.330349C60.3198 0.329346 61.6643 0.44565 62.9015 0.888808C63.7648 1.19561 64.5528 1.65782 65.1444 2.36968C65.8071 3.15673 66.1009 4.17339 66.156 5.18704C66.2222 6.1295 66.0227 7.07598 65.5073 7.87406C64.8286 8.94787 63.6314 9.69482 62.4253 10.0337C63.3347 10.2673 64.2009 10.5019 64.992 11.0323C65.754 11.5246 66.3445 12.2545 66.6162 13.1248C66.9531 14.2176 66.894 15.4378 66.542 16.5207C66.146 17.7068 65.2918 18.6933 64.2109 19.3119C62.8514 20.094 61.3645 20.3246 59.8155 20.3436C58.6359 20.3426 57.4563 20.3429 56.2767 20.3431C55.0971 20.3434 53.9175 20.3436 52.738 20.3426C52.738 18.4369 52.7378 16.5311 52.7376 14.6254C52.7372 9.85979 52.7368 5.09431 52.739 0.329346ZM55.4462 2.46797C56.0408 2.46746 56.6353 2.46746 57.2299 2.46746C57.8244 2.46746 58.419 2.46746 59.0135 2.46696C59.7755 2.47599 60.5094 2.50707 61.2433 2.72564C61.9201 2.91714 62.5457 3.26906 62.9468 3.86161C63.417 4.55241 63.5253 5.47984 63.4511 6.29396C63.3739 7.12112 62.9949 7.89415 62.3232 8.39746C61.487 9.02811 60.345 9.27776 59.3143 9.27977C58.4696 9.28699 57.6249 9.28604 56.7801 9.28509C56.3355 9.28459 55.8908 9.28409 55.4462 9.28478L55.446 7.01191C55.4458 5.49707 55.4455 3.98252 55.4462 2.46797ZM57.8296 11.224C57.0366 11.2223 56.2433 11.2206 55.4522 11.2308C55.4435 12.6634 55.4448 14.1018 55.4461 15.5393C55.4469 16.4237 55.4477 17.3078 55.4462 18.19C55.9788 18.1896 56.5113 18.1899 57.0438 18.1902C58.0021 18.1907 58.9602 18.1912 59.9179 18.188C60.9085 18.175 61.9231 18.0095 62.7663 17.4571C63.3609 17.0741 63.797 16.4886 63.9955 15.8098C64.2462 14.9816 64.2532 14.0291 63.9143 13.225C63.6055 12.5062 62.9929 11.9467 62.274 11.6489C61.4008 11.2739 60.355 11.2138 59.4146 11.2238C58.8868 11.2262 58.3582 11.2251 57.8296 11.224Z" fill="#fff"/>
</svg>
