<svg width="150" height="34" viewBox="0 0 150 34" fill="none" xmlns="http://www.w3.org/2000/svg">
<path fill-rule="evenodd" clip-rule="evenodd" d="M14.4495 0H14.2557L14.217 0.0290617C13.7127 0.393686 13.1827 0.693599 12.6474 0.996534C12.4773 1.09279 12.3067 1.18936 12.1362 1.2884C10.4575 2.25766 8.77743 3.22557 7.0973 4.19354C4.73055 5.5571 2.36362 6.92076 0 8.28839V25.2042C2.63833 26.7582 5.29782 28.2868 7.9572 29.8154C10.059 31.0234 12.1607 32.2315 14.2519 33.4519L14.1511 33.5178H14.3933C14.8079 33.2311 15.238 32.9676 15.6759 32.7177C17.8767 31.4554 20.0742 30.1874 22.2717 28.9194C24.4693 27.6513 26.6669 26.3832 28.8679 25.1209V8.39302C26.5171 7.04288 24.1688 5.68849 21.8201 4.33393C19.9761 3.27041 18.1319 2.20678 16.2862 1.14503C16.2067 1.09966 16.1272 1.05459 16.0478 1.00958C15.527 0.714346 15.01 0.421243 14.5308 0.0581234L14.4843 0.0251868L14.4495 0ZM22.9879 7.29861C20.1076 5.63321 17.2247 3.96624 14.3371 2.32688C11.4495 3.96624 8.56653 5.63319 5.68626 7.29859C4.38642 8.05016 3.08714 8.80142 1.78823 9.54968C1.78436 14.3545 1.78436 19.1594 1.78823 23.9662C3.71283 25.0806 5.6403 26.1905 7.56781 27.3005C9.8257 28.6006 12.0836 29.9009 14.3371 31.2084C16.5905 29.9009 18.8485 28.6006 21.1064 27.3005C23.0339 26.1905 24.9613 25.0806 26.8859 23.9662C26.8898 19.1594 26.8898 14.3545 26.8859 9.54968C25.587 8.80142 24.2877 8.05018 22.9879 7.29861Z" fill="#fff"/>
<path d="M137.588 5.84912C137.59 11.4677 137.59 17.0844 137.588 22.703C137.061 22.7049 136.534 22.7049 136.007 22.703C136.009 17.1406 136.001 11.5762 136.003 6.01187C136.532 5.96343 137.061 5.90918 137.588 5.84912Z" fill="#fff"/>
<path d="M104.461 8.33296C104.913 8.33102 105.364 8.32909 105.814 8.32715C105.816 9.22612 105.812 10.1251 105.822 11.0241C106.967 11.0357 108.114 11.0299 109.26 11.0318C109.26 11.4794 109.26 11.9269 109.259 12.3745C108.112 12.3764 106.963 12.3725 105.816 12.3783C105.82 14.8408 105.808 17.3033 105.818 19.7658C105.849 20.3722 105.874 21.0794 106.515 21.3584C107.459 21.7595 108.608 21.3003 109.491 20.9225C109.679 21.3429 109.865 21.7653 110.051 22.1876C109.15 22.5306 108.317 22.8716 107.335 22.8987C106.503 22.9258 105.668 22.8502 105.025 22.2651C104.33 21.6393 104.231 20.6416 104.225 19.762C104.231 17.3014 104.229 14.8408 104.229 12.3783C103.762 12.3764 103.297 12.3745 102.832 12.3706C102.834 11.9754 102.838 11.5801 102.842 11.1849C103.297 11.1209 103.754 11.0609 104.211 11.0086C104.318 10.1173 104.421 9.23 104.461 8.33296Z" fill="#fff"/>
<path d="M8.75502 9.67554C9.41569 9.67554 10.0764 9.67554 10.737 9.67554C10.737 12.7154 10.739 15.7533 10.7351 18.7932C10.739 19.5294 10.7428 20.3354 10.9269 21.0522C11.1516 21.7943 11.8375 22.2108 12.5854 22.2612C14.3426 22.3891 16.189 21.742 17.6479 20.7868C17.5956 17.0843 17.6382 13.378 17.6247 9.67554C18.2737 9.67554 18.9247 9.67554 19.5737 9.67554C19.5757 12.6495 19.5737 15.6254 19.5737 18.5994C19.5447 20.3141 19.657 22.0132 19.783 23.722C19.2056 23.7782 18.6302 23.8266 18.0528 23.8596C17.9579 23.3093 17.8571 22.761 17.7622 22.2108C16.2878 23.2842 14.6565 24.0901 12.7868 24.0475C11.698 24.0611 10.3185 23.8731 9.58619 22.9684C8.86352 22.0829 8.82477 20.6667 8.76471 19.5739C8.74146 16.2745 8.76083 12.975 8.75502 9.67554Z" fill="#fff"/>
<path d="M51.5358 10.8265C52.4329 10.8246 53.5411 10.9776 54.1514 11.7119C54.6997 12.4055 54.8062 13.4827 54.8334 14.3352C54.8334 17.1251 54.8314 19.915 54.8314 22.703C54.2986 22.705 53.7639 22.705 53.2311 22.703C53.2311 20.3025 53.2292 17.902 53.233 15.4996C53.2292 14.7983 53.2214 14.0659 53.0567 13.38C52.9269 12.8511 52.4678 12.4617 51.9311 12.3919C50.2881 12.1575 48.7517 12.6981 47.3238 13.4614C47.3045 16.542 47.3219 19.6225 47.3161 22.703C46.7833 22.705 46.2524 22.705 45.7216 22.703C45.7216 18.8126 45.7196 14.9223 45.7216 11.0319C46.1904 11.0319 46.6612 11.0319 47.1301 11.0319C47.1901 11.4193 47.2483 11.8068 47.3006 12.1943C48.556 11.3244 49.9917 10.78 51.5358 10.8265Z" fill="#fff"/>
<path d="M65.8184 11.46C65.6653 11.9502 65.5084 12.4384 65.3495 12.9267C63.7976 12.4035 62.1411 11.8591 60.5233 12.4772C59.5236 12.8995 59.2737 13.938 59.1419 14.9125C59.0276 16.2552 59.0431 17.6482 59.1264 18.9928C59.2388 20.0642 59.6651 21.0523 60.7791 21.3797C62.2535 21.7324 63.9875 21.3778 65.4076 20.9051C65.5665 21.3545 65.7293 21.8002 65.892 22.2477C64.2122 22.9316 62.4298 23.0053 60.6454 22.827C59.5197 22.6333 58.3999 22.0055 57.9369 20.9109C57.4002 19.6961 57.4389 18.1694 57.375 16.8558C57.4196 15.4434 57.4234 13.721 58.2275 12.5024C58.8145 11.5898 59.7619 11.152 60.7965 10.9505C62.4976 10.656 64.2026 10.8768 65.8184 11.46Z" fill="#fff"/>
<path d="M97.4536 10.8284C98.3856 10.8051 99.4918 10.9078 100.197 11.5937C100.796 12.2291 100.945 13.3044 100.955 14.1433C100.955 16.9972 100.953 19.8511 100.953 22.703C100.42 22.7049 99.8871 22.7049 99.3562 22.703C99.3562 20.1087 99.3504 17.5126 99.3601 14.9183C99.3562 14.3274 99.3446 13.7713 99.145 13.2076C98.9668 12.7445 98.5309 12.4423 98.0426 12.3841C96.3919 12.1652 94.9137 12.6999 93.478 13.4536C93.4722 16.538 93.478 19.6205 93.4741 22.7049C92.9355 22.7049 92.3988 22.7049 91.8602 22.703C91.8602 18.8106 91.8583 14.9164 91.8602 11.024C92.3427 11.0318 92.8251 11.0415 93.3075 11.057C93.3501 11.4367 93.3889 11.8145 93.4257 12.1943C94.6366 11.3786 95.9734 10.8284 97.4536 10.8284Z" fill="#fff"/>
<path d="M33.7228 11.0299C34.2711 11.0318 34.8175 11.0338 35.3639 11.0357C35.36 13.6222 35.3639 16.2068 35.36 18.7933C35.3813 19.3861 35.3774 20.0429 35.5828 20.6028C35.8676 21.2499 36.538 21.4456 37.1909 21.4631C38.6013 21.4534 39.8568 20.9554 41.058 20.2599C41.0755 17.1832 41.058 14.1085 41.0658 11.0318C41.5947 11.0318 42.1236 11.0318 42.6525 11.0318C42.7029 14.9009 42.5169 18.8049 42.8443 22.6565C42.3697 22.6778 41.8931 22.7011 41.4184 22.7243C41.3331 22.2826 41.2537 21.8389 41.1781 21.3933C39.975 22.2477 38.7118 22.9006 37.1986 22.9026C36.2299 22.9239 35.05 22.8018 34.3932 21.9939C33.8294 21.2461 33.7674 20.0875 33.7248 19.1807C33.717 16.4644 33.7267 13.7462 33.7228 11.0299Z" fill="#fff"/>
<path d="M79.9315 11.0666C80.4624 11.0085 81.0068 11.0298 81.5415 11.0279C81.557 13.9379 81.5144 16.8557 81.5609 19.7658C81.5629 20.6047 81.9678 21.2441 82.8203 21.4049C84.3082 21.6315 85.9802 21.0135 87.226 20.223C87.1408 17.1619 87.2047 14.0949 87.1853 11.0318C87.7181 11.0318 88.2509 11.0318 88.7837 11.0318C88.8012 14.9125 88.7043 18.7835 88.9717 22.6584C88.5028 22.6778 88.0339 22.701 87.5651 22.7243C87.4837 22.2864 87.4004 21.8466 87.3229 21.4068C86.0965 22.2496 84.841 22.9141 83.3104 22.9025C82.3282 22.918 81.1734 22.8037 80.5263 21.9648C79.9218 21.1646 79.9141 19.9479 79.9044 18.9869C79.9296 16.3501 79.8695 13.7016 79.9315 11.0666Z" fill="#fff"/>
<path fill-rule="evenodd" clip-rule="evenodd" d="M75.5879 11.398C74.284 10.7334 72.5694 10.7644 71.1473 10.9058C70.0546 11.0783 69.0025 11.4057 68.3729 12.3861C67.6192 13.6105 67.5901 15.267 67.6037 16.662C67.6037 16.7761 67.6033 16.8922 67.6029 17.0097C67.598 18.4068 67.5923 20.0204 68.2624 21.2499C68.8553 22.3329 70.1398 22.732 71.2907 22.856C72.5403 22.9413 73.9856 22.9684 75.1559 22.4627C75.8185 22.1857 76.3455 21.6994 76.6593 21.0523C77.1417 20.0971 77.2251 18.8823 77.2929 17.8264C77.2942 17.7575 77.2956 17.6884 77.297 17.6189C77.3259 16.1971 77.3572 14.6556 77.0081 13.2831C76.8008 12.4771 76.3571 11.7699 75.5879 11.398ZM74.4308 12.5585C73.5222 12.1129 72.3597 12.142 71.3832 12.295C70.6528 12.4461 69.9863 12.7503 69.6376 13.4497C69.3181 14.143 69.2729 14.9854 69.2313 15.7597C69.2255 15.8683 69.2197 15.9755 69.2133 16.0808C69.2128 16.1371 69.2122 16.1937 69.2117 16.2505C69.1997 17.4764 69.1868 18.7972 69.5349 19.9712C69.8061 20.8566 70.5831 21.3894 71.484 21.4824C72.3829 21.5521 73.4834 21.6354 74.3146 21.2305C75.1147 20.8333 75.4228 20.0254 75.5255 19.1865C75.6902 17.5707 75.7076 15.9452 75.5294 14.3293C75.4422 13.5892 75.1225 12.9034 74.4308 12.5585Z" fill="#fff"/>
<path fill-rule="evenodd" clip-rule="evenodd" d="M149.535 12.6302C148.961 11.4155 147.737 10.9815 146.479 10.8594C145.086 10.7703 143.383 10.8168 142.163 11.5763C140.832 12.3977 140.463 14.2461 140.431 15.6933C140.43 15.8835 140.428 16.078 140.426 16.2757C140.411 17.8323 140.393 19.5875 140.983 20.9903C141.479 22.1082 142.521 22.579 143.666 22.7805C145.757 23.0769 147.907 22.8638 149.887 22.1179C149.734 21.6568 149.577 21.1957 149.416 20.7365C147.799 21.3875 146.082 21.6781 144.342 21.4475C143.579 21.3139 142.87 20.9554 142.515 20.2347C142.091 19.3474 142.056 18.2081 142.029 17.2414C143.871 17.5014 145.755 17.4733 147.63 17.4453C148.409 17.4337 149.187 17.4221 149.959 17.4312C149.962 17.1683 149.97 16.8945 149.978 16.6142C150.018 15.2787 150.063 13.7944 149.535 12.6302ZM147.806 12.9945C147.159 12.2466 146.033 12.171 145.113 12.202C144.247 12.2292 143.15 12.4403 142.635 13.2173C142.137 13.9658 142.075 15.0532 142.024 15.947C142.021 15.9994 142.018 16.0512 142.015 16.1021C144.138 16.1079 146.26 16.106 148.383 16.1021C148.382 15.9706 148.383 15.8344 148.384 15.6952C148.389 14.7724 148.395 13.7167 147.806 12.9945Z" fill="#fff"/>
<path fill-rule="evenodd" clip-rule="evenodd" d="M125.362 8.66732C125.362 7.70921 125.362 6.75109 125.361 5.79297C125.184 5.81557 125.008 5.83839 124.832 5.86121C124.479 5.90685 124.127 5.95249 123.774 5.9964C123.772 11.5646 123.772 17.1348 123.774 22.703C123.997 22.703 124.221 22.7035 124.445 22.704C124.669 22.7044 124.894 22.7049 125.119 22.7049C125.188 22.3562 125.262 22.0055 125.337 21.6568C126.264 22.2264 127.149 22.7301 128.251 22.8599C129.28 22.9587 130.388 22.9161 131.328 22.4434C132.012 22.1043 132.521 21.5173 132.791 20.8043C133.175 19.8965 133.164 18.8709 133.153 17.8702C133.151 17.5938 133.148 17.3192 133.153 17.0495C133.149 16.7778 133.15 16.5001 133.151 16.2191C133.155 14.8971 133.161 13.5019 132.603 12.3163C132.025 11.1345 130.629 10.8187 129.422 10.8284C127.905 10.7858 126.647 11.3864 125.365 12.1168C125.361 10.967 125.362 9.81715 125.362 8.66732ZM131.13 13.2056C130.673 12.419 129.859 12.3551 129.034 12.3551C127.68 12.326 126.556 12.8395 125.364 13.4013C125.36 14.6281 125.361 15.8543 125.362 17.0805C125.363 18.1705 125.363 19.2605 125.361 20.3509C126.641 21.0135 127.945 21.618 129.429 21.4902C130.173 21.4243 130.921 21.1724 131.256 20.4439C131.582 19.6975 131.567 18.774 131.553 17.9056C131.548 17.6109 131.544 17.3225 131.553 17.0495C131.547 16.7945 131.55 16.5244 131.554 16.2465C131.567 15.2111 131.581 14.0687 131.13 13.2056Z" fill="#fff"/>
<path fill-rule="evenodd" clip-rule="evenodd" d="M120.18 12.3377C119.535 11.3825 118.496 11.0357 117.404 10.8846C115.683 10.7141 113.949 10.9195 112.302 11.4329C112.368 11.7285 112.436 12.0233 112.504 12.3179C112.546 12.5002 112.588 12.6825 112.63 12.8647C114.188 12.3842 115.821 11.9812 117.454 12.3474C118.128 12.5005 118.713 12.8899 118.985 13.5428C119.258 14.1999 119.253 15.0111 119.249 15.7484C119.248 15.8937 119.247 16.0361 119.248 16.1739C117.384 15.6352 115.584 15.2361 113.633 15.5771C112.632 15.7844 111.853 16.4296 111.603 17.439C111.295 18.7197 111.245 20.2599 111.828 21.4708C112.186 22.2303 112.905 22.7069 113.723 22.8387C115.701 23.1022 117.687 22.5364 119.324 21.4243C119.411 21.8603 119.496 22.2942 119.578 22.7302C120.046 22.703 120.515 22.6798 120.984 22.6585C120.847 20.4672 120.769 18.276 120.806 16.0809C120.804 15.9008 120.805 15.7181 120.806 15.534C120.813 14.4307 120.819 13.2775 120.18 12.3377ZM119.176 17.3905C117.584 17.005 115.948 16.7163 114.304 16.8752C113.773 16.943 113.314 17.315 113.18 17.84C112.969 18.6499 112.988 19.5295 113.16 20.3451C113.283 20.9341 113.724 21.3681 114.315 21.4766C116.131 21.7459 117.76 21.122 119.256 20.1494C119.205 19.2292 119.165 18.3127 119.176 17.3905Z" fill="#fff"/>
</svg>
