<svg width="153" height="19" viewBox="0 0 153 19" fill="none" xmlns="http://www.w3.org/2000/svg">
<path fill-rule="evenodd" clip-rule="evenodd" d="M16.5563 4.71117L16.2948 4.8406C15.5799 3.96049 14.8998 3.20981 14.2547 2.58856C13.6095 1.9673 12.9818 1.50999 12.3715 1.21662C12.075 1.07856 11.5389 0.96208 10.7629 0.867166C9.98698 0.772252 9.08463 0.724796 8.05584 0.724796C7.88147 0.724796 7.68095 0.72911 7.45427 0.737738C7.22759 0.746367 7.00963 0.754995 6.80039 0.763624C6.59114 0.772253 6.39498 0.780881 6.21189 0.78951C6.0288 0.798138 5.89367 0.802452 5.80648 0.802452C5.78905 0.905995 5.76725 1.00954 5.7411 1.11308C5.71494 1.21662 5.69315 1.33742 5.67571 1.47548C5.65827 1.61353 5.64083 1.79042 5.6234 2.00613C5.60596 2.22184 5.58852 2.48501 5.57109 2.79564C5.55365 3.39964 5.54057 4.05971 5.53185 4.77589C5.52314 5.49206 5.51878 6.16939 5.51878 6.8079V9.26703H5.98957C6.26856 9.26703 6.57807 9.2584 6.91809 9.24114C7.25811 9.22389 7.6112 9.20232 7.97738 9.17643C8.34355 9.15054 8.6487 9.11172 8.89281 9.05995C9.52055 8.92189 10.0175 8.74069 10.3837 8.51635C10.7498 8.29201 11.0376 8.02452 11.2468 7.7139C11.456 7.40327 11.6043 7.06244 11.6914 6.69142C11.7786 6.32039 11.8571 5.91917 11.9268 5.48774H12.2407V13.8229H11.9268C11.7873 13.2707 11.5868 12.6882 11.3253 12.0756C11.0637 11.463 10.7498 10.9927 10.3837 10.6649C10.0524 10.3715 9.69927 10.1515 9.32438 10.0048C8.94948 9.85808 8.50921 9.76748 8.00353 9.73297C7.74198 9.71571 7.5153 9.70277 7.32349 9.69414C7.13169 9.68551 6.9486 9.6812 6.77423 9.6812H5.51878V12.891C5.51878 13.3742 5.52314 13.8186 5.53185 14.2241C5.54057 14.6297 5.54493 14.9791 5.54493 15.2725C5.56237 15.8247 5.59288 16.3467 5.63647 16.8386C5.68007 17.3304 5.78033 17.6971 5.93726 17.9387C6.09419 18.1803 6.3601 18.3658 6.735 18.4952C7.10989 18.6247 7.65479 18.7066 8.36971 18.7411V19H0V18.7411C0.435924 18.6721 0.841328 18.5599 1.21622 18.4046C1.59112 18.2493 1.90062 18.0336 2.14474 17.7575C2.23192 17.654 2.30167 17.503 2.35398 17.3045C2.40629 17.106 2.45424 16.8774 2.49783 16.6185C2.54143 16.3597 2.57194 16.0879 2.58938 15.8031C2.60682 15.5184 2.61553 15.238 2.61553 14.9619C2.61553 14.7203 2.61989 14.3924 2.62861 13.9782C2.63733 13.564 2.64605 13.111 2.65477 12.6192C2.66349 12.1274 2.66784 11.6226 2.66784 11.1049V4.55586C2.66784 4.24523 2.66349 3.92598 2.65477 3.59809C2.64605 3.27021 2.62861 2.95958 2.60246 2.66621C2.5763 2.37284 2.53271 2.10967 2.47168 1.8767C2.41065 1.64373 2.32783 1.47548 2.2232 1.37193C1.96165 1.09582 1.68266 0.918938 1.38623 0.841281C1.0898 0.763624 0.706196 0.690282 0.235398 0.621253V0.362398H14.7778L16.5563 4.71117ZM45.1354 19V18.7411C45.1877 18.7411 45.3141 18.7239 45.5146 18.6894C45.7152 18.6549 45.9244 18.5945 46.1424 18.5082C46.3603 18.4219 46.5521 18.3011 46.7178 18.1458C46.8834 17.9905 46.9663 17.792 46.9663 17.5504C46.9663 17.3951 46.9183 17.1406 46.8224 16.7868C46.7265 16.433 46.5914 16.0016 46.417 15.4925C46.2426 14.9834 46.0421 14.4183 45.8154 13.797C45.5888 13.1757 45.3446 12.5286 45.0831 11.8556H38.1258C37.8642 12.5114 37.6114 13.1369 37.3673 13.7323C37.1231 14.3277 36.879 14.9273 36.6349 15.5313C36.2687 16.4632 36.0856 17.119 36.0856 17.4986C36.0856 17.723 36.1554 17.9085 36.2949 18.0552C36.4344 18.2019 36.6131 18.3227 36.8311 18.4176C37.049 18.5125 37.2844 18.5815 37.5373 18.6247C37.7901 18.6678 38.0299 18.7066 38.2565 18.7411V19H32.6855V18.7153C33.1388 18.6635 33.5268 18.5427 33.8494 18.3529C34.1719 18.163 34.3594 18.0336 34.4117 17.9646C34.5338 17.8438 34.7343 17.559 35.0133 17.1104C35.2923 16.6617 35.6323 15.9973 36.0333 15.1172C36.3995 14.3061 36.8093 13.3828 37.2626 12.3474C37.716 11.312 38.1824 10.2464 38.6619 9.15054C39.1415 8.05472 39.6166 6.95028 40.0874 5.83719C40.5582 4.72411 41.0028 3.68438 41.4213 2.71798L41.1598 2.1485C41.4736 2.01044 41.757 1.8465 42.0098 1.65668C42.2627 1.46685 42.485 1.26839 42.6768 1.06131C42.8686 0.854222 43.0299 0.655768 43.1607 0.46594C43.2914 0.276112 43.3917 0.1208 43.4614 0H43.6707C44.2112 1.43234 44.7256 2.79132 45.2139 4.07698C45.7021 5.36263 46.1685 6.60081 46.6132 7.79155C47.0578 8.98229 47.4894 10.1342 47.9079 11.2473C48.3263 12.3604 48.7448 13.4605 49.1633 14.5477C49.3551 15.0827 49.5338 15.527 49.6995 15.8808C49.8651 16.2346 50.0526 16.6358 50.2618 17.0845C50.2967 17.1535 50.3752 17.2743 50.4972 17.4469C50.6193 17.6194 50.7806 17.7963 50.9811 17.9775C51.1816 18.1587 51.4301 18.3183 51.7265 18.4564C52.023 18.5945 52.3717 18.6721 52.7728 18.6894V19H45.1354ZM41.709 3.31335C41.6044 3.53769 41.4518 3.89146 41.2513 4.37466C41.0508 4.85786 40.8023 5.44459 40.5059 6.13488C40.2095 6.82516 39.8825 7.60604 39.5251 8.47752C39.1676 9.34901 38.7796 10.2938 38.3612 11.312H44.8738C44.5774 10.5354 44.2766 9.75886 43.9715 8.98229C43.6663 8.20572 43.3699 7.45936 43.0822 6.74319C42.7945 6.02702 42.5329 5.37126 42.2975 4.77589C42.0621 4.18051 41.866 3.69301 41.709 3.31335ZM78.5009 19H70.5758V18.7411C71.0117 18.6721 71.4171 18.5599 71.792 18.4046C72.1669 18.2493 72.4852 18.025 72.7467 17.7316C72.8339 17.6281 72.8993 17.4814 72.9429 17.2916C72.9865 17.1017 73.0213 16.8774 73.0475 16.6185C73.0736 16.3597 73.0911 16.0879 73.0998 15.8031C73.1085 15.5184 73.1129 15.238 73.1129 14.9619C73.1129 14.7203 73.1172 14.3924 73.126 13.9782C73.1347 13.564 73.1434 13.111 73.1521 12.6192C73.1608 12.1274 73.1652 11.6226 73.1652 11.1049V3.62398C73.1652 3.31335 73.1521 3.0243 73.126 2.75681C73.0998 2.48933 73.0606 2.24773 73.0083 2.03202C72.9559 1.8163 72.8775 1.64805 72.7729 1.52725C72.5287 1.23388 72.228 1.02248 71.8705 0.893052C71.513 0.763623 71.1076 0.673025 70.6543 0.621253V0.362398H78.4747V0.621253C78.1086 0.673025 77.7162 0.767938 77.2977 0.905995C76.8792 1.04405 76.5567 1.32016 76.33 1.73433C76.1731 2.0277 76.0902 2.39873 76.0815 2.84741C76.0728 3.2961 76.0597 3.71889 76.0423 4.1158C76.0423 4.54723 76.0379 4.97434 76.0292 5.39714C76.0205 5.81994 76.0161 6.24705 76.0161 6.67847V15.3501C76.0161 15.8506 76.0248 16.3338 76.0423 16.7997C76.0597 17.2657 76.1382 17.5936 76.2777 17.7834C76.4869 18.0767 76.8182 18.3011 77.2716 18.4564C77.7249 18.6117 78.1347 18.7066 78.5009 18.7411V19ZM118.091 19H112.729C112.573 18.8447 112.459 18.7282 112.389 18.6505C112.32 18.5729 112.241 18.4823 112.154 18.3787C112.067 18.2752 111.958 18.1242 111.827 17.9257C111.696 17.7273 111.491 17.4296 111.212 17.0327C110.881 16.5495 110.589 16.1138 110.336 15.7255C110.083 15.3372 109.826 14.9532 109.565 14.5736C109.303 14.1939 109.02 13.8099 108.715 13.4217C108.41 13.0334 108.048 12.5976 107.629 12.1144C107.28 11.7175 106.901 11.3465 106.491 11.0014C106.082 10.6562 105.65 10.4405 105.197 10.3542C104.865 10.2852 104.613 10.2507 104.438 10.2507C104.281 10.2507 104.081 10.2421 103.837 10.2248V13.1499C103.837 13.9782 103.845 14.6771 103.863 15.2466C103.88 15.7988 103.898 16.2734 103.915 16.6703C103.933 17.0672 104.028 17.3951 104.203 17.654C104.342 17.8783 104.613 18.1069 105.014 18.3399C105.415 18.5729 105.973 18.7066 106.688 18.7411V19H98.3179V18.7411C98.7538 18.6721 99.1723 18.5686 99.5734 18.4305C99.9744 18.2925 100.288 18.0854 100.515 17.8093C100.602 17.7057 100.672 17.5504 100.724 17.3433C100.777 17.1362 100.816 16.9033 100.842 16.6444C100.868 16.3856 100.89 16.1094 100.907 15.8161C100.925 15.5227 100.933 15.238 100.933 14.9619C100.933 14.7203 100.938 14.3924 100.947 13.9782C100.955 13.564 100.964 13.111 100.973 12.6192C100.981 12.1274 100.986 11.6226 100.986 11.1049V4.55586C100.986 4.24523 100.981 3.93029 100.973 3.61104C100.964 3.29178 100.947 2.98978 100.92 2.70504C100.894 2.4203 100.851 2.16145 100.79 1.92847C100.729 1.6955 100.646 1.52725 100.541 1.42371C100.28 1.14759 99.9875 0.96208 99.6649 0.867166C99.3423 0.772252 98.9456 0.690282 98.4748 0.621253V0.362398H99.5472C100.14 0.362398 100.811 0.358084 101.561 0.349455C102.311 0.340826 103.061 0.336512 103.811 0.336512H105.641C106.81 0.336512 107.847 0.371026 108.754 0.440054C109.661 0.509083 110.489 0.742051 111.239 1.13896C112.006 1.53588 112.625 2.07516 113.096 2.75681C113.566 3.43847 113.802 4.297 113.802 5.33243C113.802 5.97094 113.684 6.54473 113.449 7.05381C113.213 7.5629 112.9 8.01158 112.507 8.39986C112.115 8.78815 111.657 9.12034 111.134 9.39646C110.611 9.67257 110.062 9.90554 109.486 10.0954V10.173C109.783 10.3283 110.07 10.5527 110.349 10.846C110.628 11.1394 110.899 11.4673 111.16 11.8297C111.614 12.4855 112.106 13.193 112.638 13.9523C113.17 14.7116 113.645 15.3846 114.063 15.9714C114.709 16.8688 115.336 17.5245 115.947 17.9387C116.557 18.3529 117.272 18.6203 118.091 18.7411V19ZM110.794 5.17711C110.794 4.31426 110.576 3.54632 110.14 2.8733C109.704 2.20027 109.068 1.66531 108.231 1.26839C107.812 1.07856 107.372 0.940509 106.91 0.854223C106.448 0.767938 105.964 0.724796 105.458 0.724796C105.092 0.724796 104.796 0.733424 104.569 0.750681C104.342 0.767938 104.168 0.785195 104.046 0.802452C104.028 0.905995 104.011 0.996594 103.994 1.07425C103.976 1.15191 103.963 1.25113 103.954 1.37193C103.946 1.49273 103.937 1.66099 103.928 1.8767C103.92 2.09242 103.906 2.39873 103.889 2.79564C103.872 3.39964 103.858 4.08129 103.85 4.8406C103.841 5.59991 103.837 6.33333 103.837 7.04087V9.88828C104.552 9.88828 105.219 9.85808 105.838 9.79768C106.457 9.73728 107.054 9.61217 107.629 9.42234C108.187 9.24977 108.667 9.0168 109.068 8.72343C109.469 8.43006 109.796 8.09787 110.049 7.72684C110.301 7.35581 110.489 6.95459 110.611 6.52316C110.733 6.09173 110.794 5.64305 110.794 5.17711ZM153 14.0559L151.692 19H135.685V18.7411C136.121 18.6721 136.526 18.5599 136.901 18.4046C137.276 18.2493 137.586 18.0336 137.83 17.7575C137.917 17.654 137.987 17.503 138.039 17.3045C138.091 17.106 138.139 16.8774 138.183 16.6185C138.227 16.3597 138.257 16.0879 138.275 15.8031C138.292 15.5184 138.301 15.238 138.301 14.9619C138.301 14.7203 138.305 14.3924 138.314 13.9782C138.323 13.564 138.331 13.111 138.34 12.6192C138.349 12.1274 138.353 11.6226 138.353 11.1049C138.353 10.5699 138.353 10.0695 138.353 9.60354V4.55586C138.353 4.24523 138.349 3.92598 138.34 3.59809C138.331 3.27021 138.314 2.95958 138.288 2.66621C138.261 2.37284 138.218 2.10967 138.157 1.8767C138.096 1.64373 138.013 1.47548 137.908 1.37193C137.647 1.09582 137.368 0.918938 137.071 0.841281C136.775 0.763624 136.391 0.690282 135.921 0.621253V0.362398H150.358L152.137 4.63351L151.875 4.76294C150.463 3.01997 149.138 1.84651 147.9 1.24251C147.603 1.10445 147.054 0.983652 146.252 0.880109C145.45 0.776566 144.473 0.724796 143.323 0.724796C142.956 0.724796 142.577 0.737738 142.185 0.763624C141.792 0.78951 141.509 0.819709 141.335 0.854223C141.3 1.13034 141.269 1.69981 141.243 2.56267C141.217 3.42553 141.204 4.42642 141.204 5.56539C141.204 6.22117 141.204 6.77339 141.204 7.22207C141.204 7.67076 141.208 8.03746 141.217 8.32221C141.226 8.60695 141.23 8.82697 141.23 8.98229C141.23 9.12035 141.23 9.21526 141.23 9.26703C141.317 9.26703 141.492 9.26703 141.753 9.26703C142.015 9.26703 142.316 9.2584 142.656 9.24114C142.996 9.22389 143.336 9.20232 143.676 9.17643C144.016 9.15054 144.299 9.11172 144.526 9.05995C145.049 8.93915 145.485 8.77521 145.833 8.56812C146.182 8.36103 146.466 8.11081 146.683 7.81744C146.901 7.52407 147.076 7.18324 147.207 6.79496C147.337 6.40667 147.455 5.97094 147.56 5.48774H147.874V13.6417H147.56C147.42 13.0895 147.207 12.52 146.919 11.9332C146.631 11.3465 146.33 10.9065 146.017 10.6131C145.738 10.3715 145.402 10.173 145.01 10.0177C144.617 9.8624 144.159 9.76748 143.636 9.73297C143.375 9.71571 143.157 9.70277 142.983 9.69414C142.808 9.68551 142.634 9.6812 142.459 9.6812C142.302 9.6812 142.128 9.6812 141.936 9.6812C141.762 9.6812 141.535 9.6812 141.256 9.6812C141.221 9.9228 141.204 10.2766 141.204 10.7425C141.204 11.2084 141.204 11.6916 141.204 12.1921C141.204 12.4164 141.204 12.6753 141.204 12.9687C141.204 13.262 141.204 13.5554 141.204 13.8488C141.204 14.1249 141.208 14.3881 141.217 14.6383C141.226 14.8885 141.23 15.0999 141.23 15.2725C141.248 15.8247 141.278 16.3467 141.322 16.8386C141.365 17.3304 141.465 17.6971 141.622 17.9387C141.779 18.1803 142.154 18.3529 142.747 18.4564C143.34 18.5599 143.985 18.6117 144.683 18.6117C144.979 18.6117 145.358 18.6031 145.82 18.5858C146.282 18.5686 146.766 18.5254 147.272 18.4564C147.83 18.3874 148.344 18.2536 148.815 18.0552C149.286 17.8567 149.739 17.5763 150.175 17.2139C150.611 16.8515 151.034 16.4071 151.444 15.8808C151.854 15.3544 152.276 14.7203 152.712 13.9782L153 14.0559Z" fill="white"/>
</svg>
