<svg width="160" height="39" viewBox="0 0 160 39" fill="none" xmlns="http://www.w3.org/2000/svg">
<path d="M32.5546 0H6.50558C2.93284 0 0 2.92056 0 6.47834V32.3917C0 35.9495 2.93284 38.8701 6.50558 38.8701H32.5279C36.1006 38.8701 39.0335 35.9495 39.0335 32.3917V6.47834C39.0602 2.89401 36.1273 0 32.5546 0ZM31.9413 29.7367C31.9413 30.8783 31.0082 31.7811 29.8617 31.7811H9.1718C8.02533 31.7811 7.09215 30.8518 7.09215 29.7367V9.10685C7.09215 7.96517 8.02533 7.03591 9.1718 7.03591H29.8883C31.0348 7.03591 31.968 7.96517 31.968 9.10685L31.9413 29.7367ZM24.8492 23.5504C24.8492 24.1876 24.3159 24.7186 23.6761 24.7186H15.3841C14.7442 24.7186 14.211 24.1876 14.211 23.5504V15.2931C14.211 14.6559 14.7442 14.1249 15.3841 14.1249H23.6761C24.3159 14.1249 24.8492 14.6559 24.8492 15.2931C24.8492 15.2931 24.8492 23.5504 24.8492 23.5504ZM57.1105 32.1793C54.7909 32.1793 52.5779 31.3031 51.0048 29.7367C49.6184 28.356 48.8185 26.5506 48.8185 24.6389H51.1648C51.1648 25.9134 51.698 27.1347 52.6579 28.064C53.7777 29.1791 55.4041 29.8163 57.1105 29.8163H57.1371C60.4166 29.8163 63.0562 27.533 63.0562 24.7451C63.0562 22.6477 61.883 20.975 56.204 19.674C53.8843 19.143 52.3379 18.4261 51.2981 17.4437C50.205 16.3817 49.6451 14.948 49.6451 13.116C49.6451 9.45201 52.9245 6.47834 56.9772 6.47834C58.9235 6.47834 60.7365 7.14211 62.123 8.33688C63.5361 9.58476 64.3359 11.2575 64.3359 13.0629H61.9897C61.9897 10.6999 59.75 8.78825 56.9772 8.78825C54.2576 8.78825 51.9913 10.753 51.9913 13.0894C51.9913 15.2135 52.7379 16.4614 56.7372 17.3906C61.0032 18.373 65.3758 20.0191 65.4024 24.7451C65.4024 26.763 64.5226 28.6215 62.9495 30.0287C61.4031 31.4359 59.3234 32.1793 57.1105 32.1793ZM84.7325 38.817V28.595H84.6792C83.1595 30.9049 80.5466 32.0997 77.7737 32.0997C72.4679 32.0997 68.2553 28.1436 68.2553 22.807C68.2553 17.5234 72.5746 13.5939 77.7737 13.5939C80.5199 13.5939 83.1595 14.7887 84.6792 17.1517H84.7325V14.0453H86.9988V38.817H84.7325ZM77.7737 15.6383C73.5611 15.6383 70.5216 18.7713 70.5216 22.9132C70.5216 27.0285 73.6144 30.0818 77.7737 30.0818C81.7997 30.0818 84.8658 26.8161 84.8658 22.8866C84.8658 18.9571 81.773 15.6383 77.7737 15.6383ZM126.486 31.7014V28.595H126.432C124.886 30.9049 122.3 32.0997 119.527 32.0997C114.221 32.0997 110.008 28.1436 110.008 22.807C110.008 17.5234 114.301 13.5939 119.527 13.5939C122.3 13.5939 124.913 14.7621 126.432 17.1517H126.486V14.0453H128.752V31.6748H126.486V31.7014ZM119.5 15.6383C115.287 15.6383 112.248 18.7713 112.248 22.9132C112.248 27.0285 115.367 30.0818 119.5 30.0818C123.526 30.0818 126.592 26.8161 126.592 22.8866C126.592 18.9571 123.526 15.6383 119.5 15.6383ZM135.524 21.3732V31.7014H133.258V14.0718H135.524V16.6207H135.577C136.564 14.3639 138.27 13.7798 140.563 13.6204V16.01C137.47 16.249 135.524 18.2137 135.524 21.3732ZM159.947 23.7097H143.816C143.976 27.1878 147.229 30.0818 150.695 30.0818C153.414 30.0818 156.081 28.5419 157.04 25.9134H159.44C158.16 29.5774 154.641 32.0997 150.722 32.0997C145.602 32.0997 141.496 27.9312 141.496 22.8866C141.496 17.8685 145.602 13.5939 150.695 13.5939C155.867 13.5939 160 17.9482 160 23.0459C159.973 23.2849 159.947 23.4707 159.947 23.7097ZM150.722 15.6383C147.202 15.6383 144.376 18.2137 143.816 21.6653H157.654C157.067 18.2137 154.294 15.6383 150.722 15.6383ZM104.569 31.7279V28.9667H104.516C103.476 31.1438 101.156 32.1528 98.8102 32.1528C96.4906 32.1528 94.171 31.3562 92.7045 29.4977C91.4248 27.9047 91.1581 25.7806 91.1581 23.7893V13.9922H93.4244V23.7628C93.4244 27.4268 94.7575 30.1084 98.8369 30.1084C100.33 30.1084 101.503 29.7101 102.623 28.6746C104.196 27.1878 104.489 25.4355 104.489 23.3645V13.9922H106.756V31.7279H104.569Z" fill="white"/>
</svg>
