<svg width="144" height="42" viewBox="0 0 144 42" fill="none" xmlns="http://www.w3.org/2000/svg">
<path d="M8.84098 0H18.72C19.2123 0.0684997 19.6925 0.104631 20.1758 0.216038C21.9357 0.594668 23.5835 1.49495 24.8406 2.78515C26.5802 4.51797 27.57 6.95385 27.5324 9.40931C27.5301 10.8847 27.5316 12.3593 27.5316 13.8347C26.0578 13.8339 24.5831 13.8354 23.1093 13.8332C21.1837 13.8513 19.2755 14.473 17.7219 15.6127C15.3221 17.3425 13.8234 20.215 13.8776 23.1845C13.8806 24.614 13.8776 26.0435 13.8791 27.4729C12.3638 27.4744 10.8493 27.4714 9.33403 27.4744C8.05437 27.4947 6.76717 27.2102 5.5959 26.6983C2.98087 25.5564 0.963513 23.18 0.292065 20.4031C0.121945 19.7626 0.0700052 19.1122 0 18.4558V9.0525C0.0609723 8.57 0.0790382 8.09351 0.176895 7.61702C0.508103 5.81721 1.38957 4.1273 2.67375 2.82354C3.93986 1.51979 5.59364 0.599937 7.37163 0.217543C7.85865 0.107642 8.34643 0.0654888 8.84098 0Z" fill="white"/>
<path d="M36.0038 0.103161C37.1653 -0.127179 38.3885 0.0820842 39.3783 0.740736C40.5217 1.49047 41.2843 2.76938 41.3656 4.13787C41.4958 5.71562 40.7227 7.29413 39.3994 8.16129C38.4344 8.81016 37.1969 9.05856 36.0565 8.82446C35.2036 8.6581 34.3974 8.2328 33.7839 7.6163C33.1072 6.95163 32.6503 6.05812 32.5193 5.1187C32.3402 3.96474 32.6435 2.74002 33.3443 1.80587C33.9811 0.937202 34.9514 0.323715 36.0038 0.103161Z" fill="white"/>
<path d="M74.4856 7.63959C75.6403 8.06339 76.6798 8.69118 77.6554 9.43414C78.7273 10.2584 79.6833 11.2016 80.5746 12.2163C79.6035 13.1376 78.6423 14.0688 77.6705 14.9894C76.4728 13.4116 75.017 12.0635 73.1706 11.2927C71.498 10.5828 69.6838 10.4601 67.8998 10.7304C66.1459 10.9938 64.4794 11.7669 63.1432 12.9344C61.7642 14.1192 60.69 15.633 60.1338 17.3718C59.6016 19.0407 59.509 20.8563 59.783 22.5823C60.0909 24.4619 60.9768 26.2083 62.3137 27.5647C63.5768 28.8572 65.1561 29.9141 66.9009 30.4222C68.6119 30.9107 70.4509 30.8956 72.1265 30.2769C73.644 29.7116 75.0276 28.6653 76.0024 27.3728C76.7642 26.3626 77.2158 25.1831 77.3505 23.9252C75.1194 23.9252 72.8883 23.9252 70.6579 23.9252C70.6571 22.6546 70.6571 21.3847 70.6571 20.1141C74.3614 20.1141 78.0649 20.1141 81.7692 20.1141C81.7767 21.8364 81.7225 23.5263 81.3446 25.2139C81.0428 26.7171 80.4037 28.1308 79.5049 29.3713C78.241 31.1117 76.5293 32.5863 74.5631 33.4745C72.7046 34.3169 70.6835 34.627 68.6533 34.5547C67.1697 34.5013 65.7033 34.2295 64.3175 33.6898C61.9087 32.7692 59.7958 31.0394 58.2489 28.9919C56.8104 27.1071 55.9139 24.8451 55.6497 22.4897C55.4118 20.2533 55.5962 17.9906 56.3625 15.8678C57.2613 13.3793 58.9121 11.2731 60.9761 9.64039C62.7601 8.22598 64.8964 7.29785 67.1448 6.94632C69.6153 6.57672 72.1416 6.74533 74.4856 7.63959Z" fill="white"/>
<path d="M118.43 10.9727C119.738 10.9727 121.047 10.972 122.354 10.9727C122.355 13.0345 122.355 15.097 122.354 17.1596C123.366 17.1611 124.377 17.1596 125.388 17.1603C125.389 18.3843 125.389 19.6075 125.388 20.8314C124.377 20.8314 123.366 20.8314 122.355 20.8314C122.354 25.2388 122.356 29.6453 122.354 34.0519C121.047 34.0526 119.739 34.0519 118.431 34.0526C118.428 29.6461 118.431 25.2388 118.43 20.8322C117.874 20.8314 117.32 20.8314 116.764 20.8314C116.764 19.6075 116.764 18.3843 116.764 17.1603C117.32 17.1596 117.874 17.1603 118.43 17.1596C118.43 15.0978 118.43 13.0353 118.43 10.9727Z" fill="white"/>
<path d="M23.1092 13.8331C24.5831 13.8354 26.0577 13.8339 27.5316 13.8346C27.53 15.0187 27.5316 16.2035 27.5308 17.3883C27.5293 17.9732 27.5474 18.5348 27.4864 19.1181C27.3178 20.7825 26.6907 22.3911 25.6858 23.728C23.9989 25.9975 21.2785 27.4375 18.4422 27.4729C16.9216 27.4721 15.4003 27.4714 13.879 27.4729C13.8775 26.0434 13.8805 24.6139 13.8775 23.1845C13.8233 20.2149 15.322 17.3424 17.7218 15.6126C19.2755 14.473 21.1837 13.8512 23.1092 13.8331Z" fill="#F5F5F5"/>
<path d="M27.5317 13.8346C29.0688 13.8339 30.6051 13.8354 32.1422 13.8331C34.5171 13.8535 36.8574 14.8057 38.5488 16.4775C40.3705 18.2156 41.4371 20.7388 41.3709 23.2597C41.3701 26.2459 41.3701 29.2313 41.3709 32.2174C41.3408 34.9559 39.9986 37.5928 37.8563 39.2849C36.5097 40.3614 34.8642 41.0471 33.1524 41.2503H22.0908C20.3287 41.0381 18.6388 40.3184 17.2718 39.1863C15.219 37.5085 13.9326 34.9506 13.8792 32.2927C13.8799 30.6863 13.8799 29.0792 13.8792 27.4729C15.4004 27.4714 16.9217 27.4721 18.4423 27.4729C21.2786 27.4375 23.999 25.9975 25.6859 23.728C26.6909 22.3911 27.3179 20.7825 27.4865 19.1181C27.5475 18.5348 27.5294 17.9732 27.5309 17.3883C27.5317 16.2035 27.5302 15.0187 27.5317 13.8346Z" fill="#E5E5E5"/>
<path d="M92.8887 16.7019C94.1774 16.6221 95.3486 17.0534 96.4446 17.694C95.8643 18.9029 95.2508 20.0975 94.6486 21.2966C94.3219 21.0723 93.9922 20.8646 93.6196 20.7215C92.8292 20.4054 91.8665 20.4114 91.0987 20.7908C90.4942 21.0859 90.0794 21.609 89.8092 22.2127C89.3899 23.1634 89.3011 24.2647 89.2921 25.2922C89.2921 28.2121 89.2921 31.1312 89.2921 34.0511C87.9853 34.0541 86.6785 34.0519 85.3725 34.0519C85.3725 28.4214 85.3718 22.7908 85.3725 17.1603C86.6793 17.1626 87.9861 17.1535 89.2921 17.1648C89.2913 17.6601 89.2921 18.1554 89.2913 18.6507C89.8182 18.1095 90.3406 17.6097 90.997 17.2258C91.5751 16.8901 92.224 16.7342 92.8887 16.7019Z" fill="white"/>
<path fill-rule="evenodd" clip-rule="evenodd" d="M110.172 19.0903C109.136 18.053 107.936 17.2303 106.494 16.881C105.034 16.5408 103.436 16.665 102.037 17.2032C100.64 17.7414 99.4789 18.7426 98.6012 19.9417C97.7009 21.1784 97.1642 22.644 96.9903 24.1608C96.7984 25.8123 96.9278 27.5527 97.4796 29.1282C98.0148 30.6299 98.9678 32.0202 100.235 32.9973C101.263 33.802 102.508 34.3086 103.803 34.4704C104.989 34.6187 106.175 34.5622 107.302 34.1377C108.388 33.741 109.32 33.0906 110.171 32.3176C110.167 32.7029 110.168 33.0882 110.168 33.4735C110.169 33.6663 110.169 33.8591 110.169 34.0519C111.481 34.0526 112.793 34.0526 114.105 34.0519V17.1603C112.793 17.1595 111.481 17.1595 110.169 17.1603C110.169 17.3823 110.169 17.6042 110.168 17.8261C110.168 18.2475 110.167 18.6687 110.172 19.0903ZM107.189 20.4761C106.41 20.2209 105.55 20.1584 104.744 20.3105C103.835 20.4738 103.015 20.9473 102.386 21.6187C101.4 22.6523 100.942 24.0283 100.917 25.4419C100.902 26.6365 101.15 27.929 101.809 28.9437C102.347 29.777 103.141 30.4755 104.088 30.8015C104.943 31.0965 105.896 31.1041 106.774 30.9144C107.829 30.6818 108.779 30.0374 109.391 29.1492C110.18 28.0291 110.46 26.681 110.405 25.3283C110.358 24.291 110.115 23.2823 109.559 22.3963C109.008 21.5119 108.187 20.8005 107.189 20.4761Z" fill="white"/>
<path fill-rule="evenodd" clip-rule="evenodd" d="M140.1 19.107C139.124 18.1073 137.982 17.3117 136.623 16.936C135.346 16.5815 133.947 16.6304 132.672 16.9662C131.196 17.3629 129.913 18.2496 128.938 19.4156C127.912 20.6087 127.248 22.0848 126.99 23.634C126.71 25.2719 126.786 26.9829 127.228 28.5855C127.743 30.3936 128.854 32.0843 130.398 33.175C131.381 33.8871 132.559 34.3312 133.763 34.475C134.89 34.6105 136.015 34.5653 137.093 34.1837C138.239 33.793 139.206 33.117 140.1 32.3146C140.101 32.6765 140.101 33.0386 140.101 33.4008C140.101 33.6181 140.101 33.8354 140.102 34.0527H144V17.1604C143.567 17.1604 143.134 17.1603 142.701 17.1602C141.834 17.16 140.968 17.1599 140.102 17.1604C140.101 17.4036 140.101 17.6469 140.101 17.8901C140.101 18.2958 140.101 18.7014 140.1 19.107ZM137.088 20.4687C136.416 20.2496 135.685 20.1819 134.984 20.2617C134.044 20.3663 133.156 20.7871 132.479 21.4457C131.526 22.3558 130.98 23.6084 130.871 24.9144C130.777 26.124 130.917 27.3917 131.473 28.4846C131.96 29.4617 132.76 30.2845 133.774 30.7105C134.715 31.108 135.794 31.1223 136.779 30.8949C137.87 30.6345 138.818 29.9322 139.42 28.9905C140.071 27.9991 140.332 26.8452 140.326 25.6686C140.338 24.4341 140.057 23.2162 139.347 22.1932C138.805 21.39 138.011 20.7698 137.088 20.4687Z" fill="white"/>
</svg>
