<svg width="160" height="11" viewBox="0 0 160 11" fill="none" xmlns="http://www.w3.org/2000/svg">
<path d="M8.94677 1.32594C8.83166 1.63929 8.72082 1.95265 8.60784 2.266C8.08985 1.69258 7.66352 1.12343 6.90252 0.861239C5.50628 0.392275 3.79243 0.624625 2.72021 1.69258C1.23018 3.16129 0.882723 5.68944 1.69275 7.57808C2.32159 9.04253 3.77751 9.96767 5.35707 10.0274C6.74264 10.1062 7.85323 9.52215 8.98301 8.80592C8.92545 9.11287 8.8679 9.41983 8.81035 9.72679C7.45888 10.1744 6.16283 10.5432 4.71757 10.4111C3.13375 10.2618 1.59469 9.47525 0.735638 8.1046C-0.696834 5.78749 0.0215348 2.36619 2.37914 0.933716C4.41274 -0.279195 7.03041 5.05779e-05 8.94677 1.32594Z" fill="white"/>
<path d="M30.0051 0.264282C30.3824 0.264282 30.7575 0.264282 31.1327 0.264282C31.1455 3.47029 31.1412 6.67843 31.1519 9.88657C32.8061 9.92281 34.4602 9.85033 36.1144 9.86525C35.801 10.1445 35.6476 10.3257 35.2063 10.3044C33.4733 10.3236 31.736 10.2937 30.0029 10.3022C30.0072 6.95768 30.0242 3.61098 30.0051 0.264282Z" fill="white"/>
<path d="M40.8771 0.264282C41.2544 0.264282 41.6296 0.264282 42.0048 0.264282C42.0176 3.47029 42.0133 6.67843 42.024 9.88657C43.6781 9.92281 45.3323 9.85033 46.9865 9.86525C46.6731 10.1445 46.5196 10.3257 46.0805 10.3044C44.3453 10.3236 42.608 10.2937 40.875 10.3022C40.8793 6.95768 40.8963 3.61098 40.8771 0.264282Z" fill="white"/>
<path d="M52.3855 0.264329C54.0503 0.260066 55.7173 0.266461 57.3842 0.257935C57.4695 0.40715 57.5547 0.556365 57.64 0.70345C56.2566 0.684265 54.8731 0.658685 53.4897 0.66508C53.4875 2.11674 53.4875 3.57053 53.4897 5.02218C54.6536 5.02858 55.8153 5.00939 56.9771 4.95184L56.9792 5.46983C55.811 5.41654 54.645 5.40162 53.4748 5.4208C53.4769 6.90869 53.4812 8.39659 53.4897 9.88448C55.1438 9.92285 56.7959 9.84825 58.45 9.8653C58.1537 10.1232 58.0152 10.3236 57.5952 10.3002C55.8601 10.3279 54.1206 10.2916 52.3833 10.3023C52.3833 6.95772 52.3812 3.61103 52.3855 0.264329Z" fill="white"/>
<path d="M71.6177 1.32587C71.5026 1.63922 71.3917 1.95257 71.2787 2.26593C70.7607 1.69251 70.3344 1.12336 69.5734 0.861166C68.1772 0.392202 66.4633 0.624553 65.3911 1.69251C63.9352 3.12285 63.5771 5.56786 64.3018 7.43092C64.8987 8.97211 66.3887 9.96759 68.028 10.0273C69.4135 10.1062 70.5241 9.52208 71.6539 8.80584C71.5964 9.1128 71.5388 9.41976 71.4812 9.72672C70.1298 10.1744 68.8337 10.5431 67.3885 10.411C65.8046 10.2618 64.2656 9.47518 63.4065 8.10453C61.9741 5.78742 62.6924 2.36612 65.05 0.933643C67.0836 -0.279268 69.7013 0.00210979 71.6177 1.32587Z" fill="white"/>
<path d="M77.8353 0.247232C79.7538 0.272812 81.6723 0.266417 83.5908 0.249364C84.0854 0.240837 84.5415 0.351682 85.0062 0.511557C83.7507 0.780145 82.3758 0.639456 81.0691 0.665036C81.0648 3.87744 81.0584 7.08984 81.052 10.3044C80.6811 10.3044 80.3081 10.3044 79.9372 10.3044C79.9329 7.08984 79.9393 3.87744 79.935 0.665036C78.6496 0.654378 77.4474 0.750303 76.2217 0.532874C76.7738 0.315446 77.2449 0.230179 77.8353 0.247232Z" fill="white"/>
<path d="M113.304 0.264282C113.669 0.264282 114.035 0.266414 114.402 0.266414C114.409 3.61098 114.417 6.95768 114.419 10.3022C114.042 10.3022 113.662 10.3022 113.285 10.3022C113.296 6.95554 113.321 3.61098 113.304 0.264282Z" fill="white"/>
<path d="M120.814 0.264282C121.191 0.264282 121.566 0.264282 121.941 0.264282C121.954 3.47029 121.95 6.67843 121.96 9.88657C123.615 9.92281 125.269 9.85033 126.923 9.86525C126.61 10.1445 126.456 10.3257 126.017 10.3044C124.282 10.3236 122.545 10.2937 120.812 10.3022C120.816 6.95768 120.833 3.61098 120.814 0.264282Z" fill="white"/>
<path d="M132.489 0.264282C132.853 0.264282 133.22 0.266414 133.587 0.266414C133.593 3.61098 133.602 6.95768 133.604 10.3022C133.226 10.3022 132.847 10.3022 132.47 10.3022C132.48 6.95554 132.506 3.61098 132.489 0.264282Z" fill="white"/>
<path d="M140.292 0.247232C142.211 0.272812 144.129 0.266417 146.048 0.249364C146.542 0.240837 146.999 0.351682 147.463 0.511557C146.208 0.780145 144.833 0.639456 143.526 0.665036C143.522 3.87744 143.515 7.08984 143.509 10.3044C143.138 10.3044 142.765 10.3044 142.394 10.3044C142.39 7.08984 142.396 3.87744 142.392 0.665036C141.107 0.654378 139.904 0.750303 138.679 0.532874C139.231 0.315446 139.702 0.230179 140.292 0.247232Z" fill="white"/>
<path d="M151.616 0.26213C152.013 0.264262 152.409 0.264263 152.808 0.266394C153.863 1.97598 154.95 3.66638 155.999 5.3781C156.734 4.32293 157.476 3.2699 158.214 2.21473C158.779 1.43241 159.141 0.63517 160 0.112915C159.282 1.41962 158.312 2.58777 157.472 3.81773C157.028 4.49773 156.285 5.17346 156.351 6.03252C156.34 7.45646 156.372 8.88041 156.357 10.3022C155.98 10.3044 155.602 10.3044 155.225 10.3044C155.212 9.02323 155.278 7.73571 155.223 6.45459C155.217 5.91954 154.95 5.52518 154.679 5.0882C153.641 3.49159 152.637 1.8694 151.616 0.26213Z" fill="white"/>
<path fill-rule="evenodd" clip-rule="evenodd" d="M22.8244 1.58805C21.4473 0.264293 19.4116 -0.0980883 17.5954 0.370876C15.8858 0.818523 14.5152 2.16146 14.0164 3.854C13.5048 5.59982 13.8245 7.72082 15.1888 9.00834C16.4571 10.2276 18.382 10.5943 20.0788 10.3555C21.5838 10.153 22.98 9.34727 23.7303 7.99793C24.8345 5.97713 24.5297 3.19319 22.8244 1.58805ZM22.2021 2.19984C21.2385 0.782285 19.4202 0.332506 17.8258 0.835576C16.1418 1.40473 15.2635 3.07594 15.0845 4.75782C14.8862 6.5612 15.498 8.44984 17.0925 9.44106C18.5313 10.3321 20.4946 10.1637 21.7032 8.95505C23.4448 7.26464 23.5365 4.15243 22.2021 2.19984Z" fill="white"/>
<path fill-rule="evenodd" clip-rule="evenodd" d="M95.9538 9.26642C94.6495 6.19142 93.3447 3.11552 92.1434 0C92.0943 0.114043 92.0458 0.227553 91.9974 0.341063C91.9489 0.454574 91.9004 0.568085 91.8513 0.682129C91.298 2.00943 90.7502 3.3392 90.2023 4.66907C89.6124 6.10075 89.0225 7.53255 88.4258 8.96147C88.2211 9.45175 88.0314 9.95056 87.8779 10.4622C87.9 10.4454 87.922 10.4289 87.9437 10.4125C88.2015 10.2183 88.4339 10.0432 88.5558 9.72674C88.7447 9.2898 88.9229 8.8486 89.1012 8.40733C89.3212 7.86262 89.5413 7.3178 89.7815 6.78079C91.1095 6.78292 92.4375 6.78292 93.7656 6.78292C94.2345 7.94894 94.6843 9.12348 95.1192 10.3044H96.3939C96.2473 9.95839 96.1005 9.61241 95.9538 9.26642ZM92.364 3.30335C92.1594 2.79633 91.9548 2.28931 91.7509 1.78206C91.6142 2.12555 91.4775 2.46893 91.3408 2.81228C90.8717 3.9903 90.4028 5.1679 89.9389 6.34806C91.154 6.35233 92.3712 6.35233 93.5862 6.34806C93.1826 5.3319 92.7733 4.31762 92.364 3.30335Z" fill="white"/>
<path fill-rule="evenodd" clip-rule="evenodd" d="M101.416 0.266477C101.776 0.271804 102.14 0.265484 102.505 0.259146C103.308 0.245192 104.116 0.231148 104.904 0.341085C106.023 0.55425 107.025 1.38986 106.961 2.61343C106.89 3.81568 106.072 4.52765 105.01 4.93693C105.899 5.06483 106.745 5.21618 107.3 5.9985C108.086 7.26257 107.653 9.09365 106.306 9.79071C105.289 10.3678 103.917 10.3355 102.652 10.3056C102.221 10.2954 101.802 10.2855 101.414 10.3002C101.415 9.42761 101.417 8.55505 101.419 7.68248C101.425 5.21048 101.43 2.73848 101.416 0.266477ZM102.986 0.622758L102.986 0.622759C103.868 0.688329 104.827 0.759578 105.402 1.49858C105.939 2.234 105.916 3.59826 105.248 4.25268C104.676 4.80871 103.738 4.87999 102.932 4.94116C102.79 4.95198 102.651 4.96249 102.52 4.97531C102.514 3.513 102.516 2.04855 102.52 0.584103C102.671 0.599368 102.827 0.610972 102.986 0.622758ZM103.004 5.21813C102.837 5.21864 102.674 5.21913 102.518 5.21618C102.516 6.76803 102.516 8.31987 102.518 9.86959C102.675 9.86989 102.839 9.8739 103.007 9.87801C104.021 9.90282 105.189 9.93138 105.909 9.17254C106.766 8.17492 106.587 6.23938 105.366 5.58496C104.696 5.21299 103.803 5.21571 103.004 5.21813Z" fill="white"/>
</svg>
