<svg width="100" height="107" viewBox="0 0 100 107" fill="none" xmlns="http://www.w3.org/2000/svg">
<path d="M92.8015 1.91914C93.5428 3.14803 93.3158 5.01808 92.4408 6.15346C90.878 8.38416 88.5939 10.2141 86.6437 12.1109C88.8811 12.1376 91.1251 12.1443 93.3625 12.1176C93.2824 12.6519 93.2022 13.1795 93.1221 13.7071C89.9964 13.7873 86.8708 13.7939 83.7451 13.7138C85.8823 11.2026 88.8143 9.032 90.6309 6.32711C92.3674 3.58883 89.1816 0.456496 86.3899 2.09279C85.5283 2.69387 84.8939 3.63558 84.1926 4.41031C84.5866 3.06788 84.6935 1.82564 85.9357 0.950723C87.8793 -0.498565 91.4925 -0.378347 92.8015 1.91914Z" fill="white"/>
<path d="M81.9749 1.81226C82.015 3.67563 82.015 5.52564 81.9749 7.38901C74.7218 11.0757 67.9896 16.2584 62.5598 22.3093C58.6127 26.9377 55.0061 31.7597 51.4998 36.7287C50.0505 32.8484 48.2205 29.1417 46.6777 25.3014C56.048 14.4017 68.1633 5.99983 81.9749 1.81226Z" fill="white"/>
<path d="M25.5257 12.2912C30.0806 10.8887 35.25 11.9105 38.6628 15.3033C41.902 18.5626 44.106 23.0974 46.0495 27.2116C52.0203 40.3954 56.9292 54.1069 62.5326 67.451C66.3195 76.4807 71.6157 84.7823 77.9338 92.2492C83.2434 97.9862 91.3247 100.851 99.0587 99.4422C99.3058 101.078 100.227 103.356 99.947 104.932C97.8966 105.794 95.6392 106.208 93.4419 106.421C83.8579 107.236 73.9332 103.737 66.6668 97.512C61.4039 92.8903 56.8624 87.2869 53.8102 80.9688C50.0901 73.4084 46.6639 65.6878 43.4181 57.9137C39.6846 48.1027 36.0514 38.2448 32.3313 28.4271C31.0023 25.2547 29.3526 22.0288 25.6927 21.2074C22.1129 20.5729 19.2076 22.8437 16.3224 24.5401C15.2404 23.0974 14.1585 21.6682 13.0498 20.2523C16.6163 16.9997 20.8573 13.7338 25.5257 12.2912Z" fill="white"/>
<path d="M35.7313 41.1301C37.2941 45.1774 38.7367 49.2715 40.3463 53.3055C37.3141 57.5999 34.7896 61.8409 31.1229 65.6678C26.341 70.8372 20.4503 75.185 13.3909 76.4807C8.82262 77.4224 4.2744 76.6343 0 74.8979C0.420761 73.5755 0.854879 72.2531 1.28232 70.9307C5.50996 72.0995 10.3521 72.3332 14.3393 70.2495C16.4164 69.2543 17.9191 67.6915 19.3884 65.9617C24.7047 59.47 28.4915 52.4973 32.8795 45.3978C33.7477 43.9085 34.5892 42.4325 35.7313 41.1301Z" fill="white"/>
</svg>
