<svg width="100" height="100" viewBox="0 0 100 100" fill="none" xmlns="http://www.w3.org/2000/svg">
<g clip-path="url(#clip0)">
<path d="M50.3 0L7 25V75L50.3 100L93.6 75V25L50.3 0ZM66.96 45.4H55.3V69.24C55.3 72 53.06 74.24 50.3 74.24C47.54 74.24 45.3 72 45.3 69.24V45.4H33.64C30.88 45.4 28.64 43.16 28.64 40.4C28.64 37.64 30.88 35.4 33.64 35.4H66.96C69.72 35.4 71.96 37.64 71.96 40.4C71.96 43.16 69.72 45.4 66.96 45.4Z" fill="#BBDEF2"/>
<path d="M71.96 12.5L7 50V75L28.66 87.5L93.6 50V25L71.96 12.5ZM66.96 45.4H55.3V69.24C55.3 72 53.06 74.24 50.3 74.24C47.54 74.24 45.3 72 45.3 69.24V45.4H33.64C30.88 45.4 28.64 43.16 28.64 40.4C28.64 37.64 30.88 35.4 33.64 35.4H66.96C69.72 35.4 71.96 37.64 71.96 40.4C71.96 43.16 69.72 45.4 66.96 45.4Z" fill="#7B8FDD"/>
<path d="M7 50L71.96 12.5L50.3 0L7 25V50Z" fill="#6B80D2"/>
<path d="M71.9599 12.5L31.1599 36.06L31.1799 36.08C31.9199 35.66 32.7599 35.4 33.6599 35.4H66.9799C69.7399 35.4 71.9799 37.64 71.9799 40.4C71.9799 43.16 69.7399 45.4 66.9799 45.4H55.3199V69.24C55.3199 71.1 54.2999 72.68 52.7999 73.56L52.8199 73.58L93.5999 50V25L71.9599 12.5Z" fill="#C88BC4"/>
</g>
<defs>
<clipPath id="clip0">
<rect width="86.6" height="100" fill="white" transform="translate(7)"/>
</clipPath>
</defs>
</svg>
