<svg width="100" height="100" viewBox="0 0 100 100" fill="none" xmlns="http://www.w3.org/2000/svg">
<path d="M6.69995 75L50 100L93.3 75H6.69995ZM93.3 75L87.05 68.75L93.3 62.5V50L87.05 43.75L93.3 37.5V25L50 0L29.72 15.4L6.69995 25V37.5L12.95 43.75L6.69995 50V62.5L12.95 68.75L6.69995 75" fill="#6B80D2"/>
<path d="M6.69992 75.0007L93.2999 75.0007L93.2999 62.5007L6.69992 62.5007L6.69992 75.0007Z" fill="#86BFF2"/>
<path d="M6.69992 50.001L93.2999 50.001L93.2999 37.501L6.69992 37.501L6.69992 50.001Z" fill="#C88BC4"/>
<path d="M50 0L6.69995 25H44C47.31 25 50 22.31 50 19V0Z" fill="#BBDEF2"/>
</svg>
