<svg width="24" height="24" viewBox="0 0 24 24" fill="none" xmlns="http://www.w3.org/2000/svg">
<path d="M3 8V4C3 3.45 3.45 3 4 3H8C8.55 3 9 3.45 9 4C9 4.55 8.55 5 8 5H5V8C5 8.55 4.55 9 4 9C3.45 9 3 8.55 3 8ZM8 19H5V16C5 15.45 4.55 15 4 15C3.45 15 3 15.45 3 16V20C3 20.55 3.45 21 4 21H8C8.55 21 9 20.55 9 20C9 19.45 8.55 19 8 19ZM20 15C19.45 15 19 15.45 19 16V19H16C15.45 19 15 19.45 15 20C15 20.55 15.45 21 16 21H20C20.55 21 21 20.55 21 20V16C21 15.45 20.55 15 20 15ZM20 3H16C15.45 3 15 3.45 15 4C15 4.55 15.45 5 16 5H19V8C19 8.55 19.45 9 20 9C20.55 9 21 8.55 21 8V4C21 3.45 20.55 3 20 3ZM16.21 8.79C15.82 8.4 15.19 8.4 14.8 8.79L10.51 13.08L9.22 11.79C8.83 11.4 8.2 11.4 7.81 11.79C7.42 12.18 7.42 12.81 7.81 13.2L9.81 15.2C10.01 15.4 10.26 15.49 10.52 15.49C10.78 15.49 11.03 15.39 11.23 15.2L16.23 10.2C16.6 9.82 16.6 9.18 16.21 8.79Z" fill="#BBDEF2"/>
</svg>
