<svg width="24" height="24" viewBox="0 0 24 24" fill="none" xmlns="http://www.w3.org/2000/svg">
<path d="M10 13H4C3.45 13 3 13.45 3 14V20C3 20.55 3.45 21 4 21H10C10.55 21 11 20.55 11 20V14C11 13.45 10.55 13 10 13ZM9 19H5V15H9V19ZM20.71 14.71L18.41 17L20.7 19.29C21.09 19.68 21.09 20.31 20.7 20.7C20.51 20.9 20.26 21 20 21C19.74 21 19.49 20.9 19.29 20.71L17 18.41L14.71 20.7C14.51 20.9 14.26 21 14 21C13.74 21 13.49 20.9 13.29 20.71C12.9 20.32 12.9 19.69 13.29 19.3L15.59 17L13.3 14.71C12.91 14.32 12.91 13.69 13.3 13.3C13.69 12.91 14.32 12.91 14.71 13.3L17 15.59L19.29 13.3C19.68 12.91 20.31 12.91 20.7 13.3C21.1 13.68 21.1 14.32 20.71 14.71ZM21.33 9.5L17.87 3.5C17.51 2.88 16.49 2.88 16.14 3.5L12.68 9.5C12.5 9.81 12.5 10.19 12.68 10.5C12.86 10.81 13.19 11 13.55 11H20.48C20.84 11 21.17 10.81 21.35 10.5C21.51 10.19 21.51 9.81 21.33 9.5ZM15.27 9L17 6L18.73 9H15.27ZM7 3C4.79 3 3 4.79 3 7C3 9.21 4.79 11 7 11C9.21 11 11 9.21 11 7C11 4.79 9.21 3 7 3ZM7 9C5.9 9 5 8.1 5 7C5 5.9 5.9 5 7 5C8.1 5 9 5.9 9 7C9 8.1 8.1 9 7 9Z" fill="#C88BC4"/>
</svg>
