<svg width="24" height="24" viewBox="0 0 24 24" fill="none" xmlns="http://www.w3.org/2000/svg">
<path d="M21 6.7V20C21 20.6 20.6 21 20 21C19.4 21 19 20.6 19 20V6.7C19 5.7 18.3 5 17.3 5C16.3 5 15.6 5.7 15.6 6.7V17.4C15.6 19.4 14 21.1 11.9 21.1C9.8 21.1 8.2 19.5 8.2 17.4V4C8.2 3.4 8.6 3 9.2 3C9.8 3 10.2 3.4 10.2 4V17.3C10.2 18.2 10.9 19 11.9 19C12.9 19 13.6 18.3 13.6 17.3V6.7C13.6 4.7 15.2 3 17.3 3C19.4 3 21 4.6 21 6.7ZM4 3C3.4 3 3 3.4 3 4V20C3 20.6 3.4 21 4 21C4.6 21 5 20.6 5 20V4C5 3.4 4.6 3 4 3Z" fill="#C88BC4"/>
</svg>
