<svg width="24" height="24" viewBox="0 0 24 24" fill="none" xmlns="http://www.w3.org/2000/svg">
<path d="M20.29 6.63L12.5 2.13C12.19 1.95 11.81 1.95 11.5 2.13L3.71001 6.63C3.40001 6.81 3.21001 7.14 3.21001 7.5V16.5C3.21001 16.86 3.40001 17.19 3.71001 17.37L11.5 21.87C11.65 21.96 11.83 22 12 22C12.17 22 12.35 21.96 12.5 21.87L20.29 17.37C20.6 17.19 20.79 16.86 20.79 16.5V7.5C20.79 7.14 20.6 6.81 20.29 6.63ZM12 4.15L17.81 7.5L12 10.91L6.19001 7.51L12 4.15ZM5.21001 9.25L11 12.65V19.27L5.21001 15.92V9.25ZM13 19.27V12.65L18.79 9.25V15.93L13 19.27Z" fill="#C88BC4"/>
</svg>
