<svg width="24" height="24" viewBox="0 0 24 24" fill="none" xmlns="http://www.w3.org/2000/svg">
<path d="M22.05 9.07L12.59 2.19C12.24 1.94 11.76 1.94 11.41 2.19L1.95 9.07C1.6 9.32 1.45 9.78 1.59 10.19L5.2 21.31C5.33 21.72 5.72 22 6.15 22H17.85C18.28 22 18.67 21.72 18.8 21.31L22.41 10.19C22.55 9.77 22.4 9.32 22.05 9.07ZM11.27 20H6.87L5.51 15.82L9.07 13.24L12.63 15.82L11.27 20ZM17.12 20H13.37L14.75 15.75C14.88 15.34 14.74 14.89 14.39 14.63L9.66 11.19C9.31 10.94 8.83 10.94 8.48 11.19L4.86 13.82L3.7 10.26L12 4.24L20.29 10.26L17.12 20Z" fill="#C88BC4"/>
</svg>
