<svg width="24" height="24" viewBox="0 0 24 24" fill="none" xmlns="http://www.w3.org/2000/svg">
<path d="M12 2C6.48 2 2 6.48 2 12C2 17.52 6.48 22 12 22C17.52 22 22 17.52 22 12C22 6.48 17.52 2 12 2ZM19.93 11H15.86C15.5 9.6 14.4 8.5 13 8.14V4.07C16.62 4.52 19.48 7.38 19.93 11ZM12 14C10.9 14 10 13.1 10 12C10 10.9 10.9 10 12 10C13.1 10 14 10.9 14 12C14 13.1 13.1 14 12 14ZM4 12C4 7.92 7.05 4.56 11 4.07V8.14C9.28 8.59 8 10.14 8 12C8 13.86 9.28 15.41 11 15.86V19.93C7.05 19.44 4 16.08 4 12ZM13 19.93V15.86C14.4 15.5 15.5 14.4 15.86 13H19.93C19.48 16.62 16.62 19.48 13 19.93Z" fill="#C88BC4"/>
</svg>
