<svg width="24" height="24" viewBox="0 0 24 24" fill="none" xmlns="http://www.w3.org/2000/svg">
<path d="M13.5 3.5C13.5 4.3 12.8 5 12 5C11.2 5 10.5 4.3 10.5 3.5C10.5 2.7 11.2 2 12 2C12.8 2 13.5 2.7 13.5 3.5ZM12 19C11.2 19 10.5 19.7 10.5 20.5C10.5 21.3 11.2 22 12 22C12.8 22 13.5 21.3 13.5 20.5C13.5 19.7 12.8 19 12 19ZM12 10.5C11.2 10.5 10.5 11.2 10.5 12C10.5 12.8 11.2 13.5 12 13.5C12.8 13.5 13.5 12.8 13.5 12C13.5 11.2 12.8 10.5 12 10.5ZM7.8 14.7C7 14.7 6.3 15.4 6.3 16.2C6.3 17 7 17.7 7.8 17.7C8.6 17.7 9.3 17 9.3 16.2C9.3 15.4 8.6 14.7 7.8 14.7ZM7.8 6.2C7 6.2 6.3 6.9 6.3 7.7C6.3 8.5 7 9.2 7.8 9.2C8.6 9.2 9.3 8.5 9.3 7.7C9.3 6.9 8.6 6.2 7.8 6.2ZM16.3 6.2C15.5 6.2 14.8 6.9 14.8 7.7C14.8 8.5 15.5 9.2 16.3 9.2C17.1 9.2 17.8 8.5 17.8 7.7C17.8 6.9 17.1 6.2 16.3 6.2ZM16.3 14.7C15.5 14.7 14.8 15.4 14.8 16.2C14.8 17 15.5 17.7 16.3 17.7C17.1 17.7 17.8 17 17.8 16.2C17.8 15.4 17.1 14.7 16.3 14.7ZM3.5 10.5C2.7 10.5 2 11.2 2 12C2 12.8 2.7 13.5 3.5 13.5C4.3 13.5 5 12.8 5 12C5 11.2 4.3 10.5 3.5 10.5ZM20.5 10.5C19.7 10.5 19 11.2 19 12C19 12.8 19.7 13.5 20.5 13.5C21.3 13.5 22 12.8 22 12C22 11.2 21.3 10.5 20.5 10.5Z" fill="#C88BC4"/>
</svg>
