<svg width="24" height="24" viewBox="0 0 24 24" fill="none" xmlns="http://www.w3.org/2000/svg">
<path d="M4 18H7.59C7.86 18 8.11 17.89 8.3 17.71L17.97 8.04C18.76 7.25 19.18 6.09 18.94 4.84C18.67 3.46 17.54 2.33 16.16 2.07C14.92 1.84 13.76 2.25 12.98 3.04L3.31 12.71C3.11 12.9 3 13.15 3 13.41V17C3 17.55 3.45 18 4 18ZM5 13.83L14.38 4.45C14.66 4.17 15.04 4 15.46 4C16.31 4 17 4.69 17 5.54C17 5.96 16.83 6.35 16.55 6.63L7.17 16H5V13.83Z" fill="#BBDEF2"/>
<path d="M20 20H4C3.45 20 3 20.45 3 21C3 21.55 3.45 22 4 22H20C20.55 22 21 21.55 21 21C21 20.45 20.55 20 20 20Z" fill="#BBDEF2"/>
</svg>
