<svg width="68" height="45" viewBox="0 0 68 45" fill="none" xmlns="http://www.w3.org/2000/svg">
<path d="M48.75 0H3.75C1.675 0 0 1.675 0 3.75V26.25C0 28.325 1.675 30 3.75 30H48.75C50.825 30 52.5 28.325 52.5 26.25V3.75C52.5 1.675 50.8125 0 48.75 0Z" fill="#86BFF2"/>
<path d="M48.75 3.75H3.75V26.25H48.75V3.75Z" fill="black"/>
<path d="M26.25 22.5C30.3921 22.5 33.75 19.1421 33.75 15C33.75 10.8579 30.3921 7.5 26.25 7.5C22.1079 7.5 18.75 10.8579 18.75 15C18.75 19.1421 22.1079 22.5 26.25 22.5Z" fill="#C88BC4"/>
<path d="M56.25 37.5C58.325 37.5 60 35.825 60 33.75V11.25C60 9.175 58.325 7.5 56.25 7.5V33.75H7.5C7.5 35.825 9.175 37.5 11.25 37.5H56.25Z" fill="#C88BC4"/>
<path d="M18.75 45C16.675 45 15 43.325 15 41.25H63.75V15C65.825 15 67.5 16.675 67.5 18.75V41.25C67.5 43.325 65.825 45 63.75 45H18.75Z" fill="#6B80D2"/>
<path d="M11.25 3.75H3.75V11.25C7.88749 11.25 11.25 7.8875 11.25 3.75Z" fill="#6B80D2"/>
<path d="M3.75 18.75V26.25H11.25C11.25 22.1125 7.88749 18.75 3.75 18.75Z" fill="#6B80D2"/>
<path d="M41.25 26.25H48.75V18.75C44.6 18.75 41.25 22.1125 41.25 26.25Z" fill="#6B80D2"/>
<path d="M48.75 11.25V3.75H41.25C41.25 7.8875 44.6 11.25 48.75 11.25Z" fill="#6B80D2"/>
</svg>
