<svg width="49" height="48" viewBox="0 0 49 48" fill="none" xmlns="http://www.w3.org/2000/svg">
<g clip-path="url(#clip0)">
<path d="M18.2282 22.2C19.2223 22.2 20.0282 21.3941 20.0282 20.4C20.0282 19.4059 19.2223 18.6 18.2282 18.6C17.2341 18.6 16.4282 19.4059 16.4282 20.4C16.4282 21.3941 17.2341 22.2 18.2282 22.2Z" fill="#86BFF2"/>
<path d="M18.2278 8.4C20.5474 8.4 22.4278 6.5196 22.4278 4.2C22.4278 1.8804 20.5474 0 18.2278 0C15.9082 0 14.0278 1.8804 14.0278 4.2C14.0278 6.5196 15.9082 8.4 18.2278 8.4Z" fill="#86BFF2"/>
<path d="M30.7082 22.2C31.7023 22.2 32.5082 21.3941 32.5082 20.4C32.5082 19.4059 31.7023 18.6 30.7082 18.6C29.7141 18.6 28.9082 19.4059 28.9082 20.4C28.9082 21.3941 29.7141 22.2 30.7082 22.2Z" fill="#6B80D2"/>
<path d="M24.468 18.6C25.4621 18.6 26.268 17.7941 26.268 16.8C26.268 15.8059 25.4621 15 24.468 15C23.4739 15 22.668 15.8059 22.668 16.8C22.668 17.7941 23.4739 18.6 24.468 18.6Z" fill="#C88BC4"/>
<path d="M24.468 33C25.4621 33 26.268 32.1941 26.268 31.2C26.268 30.2059 25.4621 29.4 24.468 29.4C23.4739 29.4 22.668 30.2059 22.668 31.2C22.668 32.1941 23.4739 33 24.468 33Z" fill="#C88BC4"/>
<path d="M18.2282 29.4C19.2223 29.4 20.0282 28.5941 20.0282 27.6C20.0282 26.6059 19.2223 25.8 18.2282 25.8C17.2341 25.8 16.4282 26.6059 16.4282 27.6C16.4282 28.5941 17.2341 29.4 18.2282 29.4Z" fill="#6B80D2"/>
<path d="M30.7082 29.4C31.7023 29.4 32.5082 28.5941 32.5082 27.6C32.5082 26.6059 31.7023 25.8 30.7082 25.8C29.7141 25.8 28.9082 26.6059 28.9082 27.6C28.9082 28.5941 29.7141 29.4 30.7082 29.4Z" fill="#86BFF2"/>
<path d="M18.228 16.5C19.8849 16.5 21.228 15.1569 21.228 13.5C21.228 11.8431 19.8849 10.5 18.228 10.5C16.5712 10.5 15.228 11.8431 15.228 13.5C15.228 15.1569 16.5712 16.5 18.228 16.5Z" fill="#86BFF2"/>
<path d="M30.7078 48C33.0274 48 34.9078 46.1196 34.9078 43.8C34.9078 41.4804 33.0274 39.6 30.7078 39.6C28.3882 39.6 26.5078 41.4804 26.5078 43.8C26.5078 46.1196 28.3882 48 30.7078 48Z" fill="#86BFF2"/>
<path d="M30.708 37.5C32.3649 37.5 33.708 36.1569 33.708 34.5C33.708 32.8431 32.3649 31.5 30.708 31.5C29.0512 31.5 27.708 32.8431 27.708 34.5C27.708 36.1569 29.0512 37.5 30.708 37.5Z" fill="#86BFF2"/>
<path d="M10.4402 43.5C12.7598 43.5 14.6402 41.6196 14.6402 39.3C14.6402 36.9804 12.7598 35.1 10.4402 35.1C8.12064 35.1 6.24023 36.9804 6.24023 39.3C6.24023 41.6196 8.12064 43.5 10.4402 43.5Z" fill="#C88BC4"/>
<path d="M18.4922 37.656C20.149 37.656 21.4922 36.3129 21.4922 34.656C21.4922 32.9992 20.149 31.656 18.4922 31.656C16.8353 31.656 15.4922 32.9992 15.4922 34.656C15.4922 36.3129 16.8353 37.656 18.4922 37.656Z" fill="#C88BC4"/>
<path d="M38.4959 12.9C40.8155 12.9 42.6959 11.0196 42.6959 8.7C42.6959 6.3804 40.8155 4.5 38.4959 4.5C36.1763 4.5 34.2959 6.3804 34.2959 8.7C34.2959 11.0196 36.1763 12.9 38.4959 12.9Z" fill="#C88BC4"/>
<path d="M30.4438 16.344C32.1007 16.344 33.4438 15.0008 33.4438 13.344C33.4438 11.6871 32.1007 10.344 30.4438 10.344C28.787 10.344 27.4438 11.6871 27.4438 13.344C27.4438 15.0008 28.787 16.344 30.4438 16.344Z" fill="#C88BC4"/>
<path d="M44.7361 32.7C47.0557 32.7 48.9361 30.8196 48.9361 28.5C48.9361 26.1804 47.0557 24.3 44.7361 24.3C42.4165 24.3 40.5361 26.1804 40.5361 28.5C40.5361 30.8196 42.4165 32.7 44.7361 32.7Z" fill="#6B80D2"/>
<path d="M36.6719 26.844C38.3287 26.844 39.6719 25.5008 39.6719 23.844C39.6719 22.1871 38.3287 20.844 36.6719 20.844C35.015 20.844 33.6719 22.1871 33.6719 23.844C33.6719 25.5008 35.015 26.844 36.6719 26.844Z" fill="#6B80D2"/>
<path d="M4.2 23.7C6.5196 23.7 8.4 21.8196 8.4 19.5C8.4 17.1804 6.5196 15.3 4.2 15.3C1.8804 15.3 0 17.1804 0 19.5C0 21.8196 1.8804 23.7 4.2 23.7Z" fill="#6B80D2"/>
<path d="M12.252 27.156C13.9088 27.156 15.252 25.8129 15.252 24.156C15.252 22.4992 13.9088 21.156 12.252 21.156C10.5951 21.156 9.25195 22.4992 9.25195 24.156C9.25195 25.8129 10.5951 27.156 12.252 27.156Z" fill="#6B80D2"/>
</g>
<defs>
<clipPath id="clip0">
<rect width="48.936" height="48" fill="white"/>
</clipPath>
</defs>
</svg>
