<svg width="48" height="50" viewBox="0 0 48 50" fill="none" xmlns="http://www.w3.org/2000/svg">
<g clip-path="url(#clip0)">
<path d="M40.6465 10.2833C40.4047 10.0288 39.9847 10.0288 39.7302 10.2833L37.9231 12.0776C37.6813 12.3194 37.6813 12.7012 37.9104 12.9557C41.2319 16.4808 43.2553 21.2403 43.2553 26.4579C43.2553 37.3512 34.4235 46.183 23.5302 46.183C12.6368 46.183 3.81777 37.3512 3.81777 26.4579C3.81777 15.5645 12.6495 6.73277 23.5429 6.73277V9.0107C23.5429 9.58337 24.2301 9.86334 24.6246 9.45611L28.8114 5.2693C29.0659 5.01478 29.0659 4.62028 28.8114 4.36576L24.6246 0.178942C24.2301 -0.21556 23.5429 0.0771349 23.5429 0.637074V2.91501C10.537 2.91501 0 13.4648 0 26.4579C0 39.451 10.537 50.0008 23.5429 50.0008C36.5487 50.0008 47.0858 39.4637 47.0858 26.4579C47.0858 20.1968 44.6424 14.4956 40.6465 10.2833Z" fill="#6B80D2"/>
<path d="M38.7887 26.4573H23.5431V11.2117C23.5431 10.8553 23.2377 10.5499 22.8814 10.5626C14.4059 10.919 7.63574 17.8927 7.63574 26.4573C7.63574 35.2381 14.7622 42.3646 23.5431 42.3646C32.1076 42.3646 39.0941 35.5945 39.4377 27.119C39.4505 26.7627 39.1578 26.4573 38.7887 26.4573Z" fill="#C88BC4"/>
<path d="M38.7886 26.4573H23.543V42.3646C32.1075 42.3646 39.094 35.5945 39.4376 27.119C39.4503 26.7627 39.1576 26.4573 38.7886 26.4573Z" fill="#86BFF2"/>
<path d="M23.5431 16.3911V11.2117C23.5431 10.8553 23.2377 10.5499 22.8814 10.5626C14.4059 10.919 7.63574 17.8927 7.63574 26.4573H23.5431V16.3911Z" fill="#6B80D2"/>
</g>
<defs>
<clipPath id="clip0">
<rect width="47.0858" height="50" fill="white"/>
</clipPath>
</defs>
</svg>
