<svg width="50" height="50" viewBox="0 0 50 50" fill="none" xmlns="http://www.w3.org/2000/svg">
<path fill-rule="evenodd" clip-rule="evenodd" d="M46.4894 25.2447C46.4894 36.9778 36.9778 46.4894 25.2447 46.4894C18.9851 46.4894 13.3578 43.7822 9.46972 39.4748L7.33569 42.6767C17.0958 52.4368 32.9168 52.4368 42.6769 42.6767C52.4369 32.9167 52.4369 17.0956 42.6769 7.33557L39.4747 9.4697C43.7822 13.3578 46.4894 18.9851 46.4894 25.2447Z" fill="#86BFF2"/>
<path fill-rule="evenodd" clip-rule="evenodd" d="M26.2361 11.2489H23.7367V6.30235C14.3837 6.92161 6.90605 14.401 6.28953 23.7548H11.2381V26.2542H6.28931C6.90423 35.6096 14.3825 43.0907 23.7367 43.71V38.7421H26.2361V43.711C35.5971 43.0985 43.0829 35.6145 43.6982 26.2542H38.7313V23.7548H43.6979C43.0811 14.3961 35.596 6.91382 26.2361 6.30139V11.2489ZM34.2734 15.7185L36.9244 18.3695L27.6412 27.6527L27.6412 27.6527L24.9903 30.3037L17.921 23.2345L20.572 20.5835L24.9902 25.0017L34.2734 15.7185Z" fill="#6B80D2"/>
<path fill-rule="evenodd" clip-rule="evenodd" d="M7.32249 7.32249C17.0825 -2.43757 32.9036 -2.43757 42.6637 7.32249L40.0132 9.9729C36.1904 6.27527 30.9833 4 25.2447 4C13.5116 4 4 13.5116 4 25.2447C4 30.9833 6.27527 36.1904 9.9729 40.0132L7.32249 42.6637C-2.43757 32.9036 -2.43757 17.0825 7.32249 7.32249Z" fill="#C88BC4"/>
</svg>
